<?xml version="1.0" encoding="UTF-8"?>
<svg width="512px" height="512px" viewBox="0 0 512 512" version="1.1" xmlns="http://www.w3.org/2000/svg" xmlns:xlink="http://www.w3.org/1999/xlink">
    <title>admin</title>
    <g id="Page-1" stroke="none" stroke-width="1" fill="none" fill-rule="evenodd">
        <g id="admin" fill-rule="nonzero">
            <path d="M146.141456,0 L365.858544,0 C416.675112,0 435.102427,5.29105984 453.680205,15.2265641 C472.257983,25.1620684 486.837932,39.7420171 496.773436,58.3197949 C506.70894,76.8975727 512,95.3248882 512,146.141456 L512,365.858544 C512,416.675112 506.70894,435.102427 496.773436,453.680205 C486.837932,472.257983 472.257983,486.837932 453.680205,496.773436 C435.102427,506.70894 416.675112,512 365.858544,512 L146.141456,512 C95.3248882,512 76.8975727,506.70894 58.3197949,496.773436 C39.7420171,486.837932 25.1620684,472.257983 15.2265641,453.680205 C5.29105984,435.102427 0,416.675112 0,365.858544 L0,146.141456 C0,95.3248882 5.29105984,76.8975727 15.2265641,58.3197949 C25.1620684,39.7420171 39.7420171,25.1620684 58.3197949,15.2265641 C76.8975727,5.29105984 95.3248882,0 146.141456,0 Z" id="bluetint" fill-opacity="0.01" fill="#F7B500"></path>
            <path d="M321,336 C327.666667,336 333.333333,333.666667 338,329 C342.666667,324.333333 345,318.666667 345,312 C345,305.333333 342.666667,299.666667 338,295 C333.333333,290.333333 327.666667,288 321,288 C314.333333,288 308.666667,290.333333 304,295 C299.333333,299.666667 297,305.333333 297,312 C297,318.666667 299.333333,324.333333 304,329 C308.666667,333.666667 314.333333,336 321,336 Z M321,384 C329.350168,384 337.026936,382.00625 344.030303,378.01875 C351.03367,374.03125 356.690236,368.7375 361,362.1375 C355.074074,358.5625 348.744108,355.8125 342.010101,353.8875 C335.276094,351.9625 328.272727,351 321,351 C313.727273,351 306.723906,351.9625 299.989899,353.8875 C293.255892,355.8125 286.925926,358.5625 281,362.1375 C285.309764,368.7375 290.96633,374.03125 297.969697,378.01875 C304.973064,382.00625 312.649832,384 321,384 Z M239.5,417 C202.288542,407.579167 171.56901,386.113125 147.341406,352.601875 C123.113802,319.090625 111,281.878333 111,240.965 L111,142.45 L239.5,94 L368,142.45 L368,234.10125 C362.913542,231.947917 357.693229,229.996458 352.339063,228.246875 C346.984896,226.497292 341.496875,225.21875 335.875,224.41125 L335.875,165.06 L239.5,128.7225 L143.125,165.06 L143.125,240.965 C143.125,253.615833 144.798177,266.266667 148.144531,278.9175 C151.490885,291.568333 156.175781,303.613542 162.199219,315.053125 C168.222656,326.492708 175.517708,337.0575 184.084375,346.7475 C192.651042,356.4375 202.154687,364.5125 212.595313,370.9725 C215.540104,379.585833 219.421875,387.795417 224.240625,395.60125 C229.059375,403.407083 234.547396,410.405417 240.704687,416.59625 C240.436979,416.59625 240.236198,416.663542 240.102344,416.798125 C239.96849,416.932708 239.767708,417 239.5,417 Z M320.5,417 C298.228333,417 279.24375,409.1025 263.54625,393.3075 C247.84875,377.5125 240,358.41 240,336 C240,313.59 247.84875,294.4875 263.54625,278.6925 C279.24375,262.8975 298.228333,255 320.5,255 C342.771667,255 361.75625,262.8975 377.45375,278.6925 C393.15125,294.4875 401,313.59 401,336 C401,358.41 393.15125,377.5125 377.45375,393.3075 C361.75625,409.1025 342.771667,417 320.5,417 Z" id="Shape" fill="#203347"></path>
        </g>
    </g>
</svg>