<?xml version="1.0" encoding="UTF-8"?>
<svg width="1500px" height="1528px" viewBox="0 0 1500 1528" version="1.1" xmlns="http://www.w3.org/2000/svg" xmlns:xlink="http://www.w3.org/1999/xlink">
    <title>userAvatar</title>
    <g id="Page-1" stroke="none" stroke-width="1" fill="none" fill-rule="evenodd">
        <g id="userAvatar">
            <rect id="bg" stroke="#979797" fill="#E3EBF0" x="0.5" y="0.5" width="1499" height="1499"></rect>
            <g transform="translate(96, 278)" fill="#A4B8C4" fill-rule="nonzero" id="Group">
                <g transform="translate(654.5, 625) scale(-1, 1) rotate(-180) translate(-654.5, -625)translate(0, 0)">
                    <path d="M653.988832,1249.3152 C639.676117,1247.76505 615.85567,1242.49455 602.054124,1237.94746 C522.311856,1211.28493 459.847079,1153.7228 435.822165,1084.58624 C422.225086,1045.83256 417.62457,1000.36158 418.646907,916.653638 C419.56701,846.380304 420.793814,839.869686 439.29811,812.277068 C447.170103,800.599293 454.121993,787.474715 454.121993,784.374421 C454.121993,781.480813 459.949313,772.593303 466.901203,764.739224 C477.635739,752.648077 483.156357,739.523499 488.881443,712.654283 C493.277491,691.882312 497.366838,679.274449 504.318729,665.013096 C513.008591,647.134733 516.280069,631.426576 515.155498,613.341527 C514.133162,597.840056 511.475086,592.879585 501.762887,588.125801 C498.286942,586.472311 491.130584,582.958644 485.814433,580.375065 C473.239691,574.381163 458.006873,562.600046 441.342784,546.27183 C416.806701,522.192879 393.395189,508.964957 347.287801,493.2568 C313.34622,481.682368 280.018041,473.001545 207.227663,456.776672 C148.545533,443.652093 116.341924,435.074613 101.313574,428.460652 C94.5661512,425.567044 90.9879725,419.883171 83.5249141,400.558005 C73.5060137,374.72222 63.9982818,339.068837 55.4106529,295.458033 C48.7654639,262.284885 46.0051546,250.400424 42.733677,241.306228 C37.8264605,227.768277 24.3316151,164.418933 12.4725086,98.6926972 C3.06701031,46.6077554 1.02233677,32.4497455 0.511168385,15.8115002 L0,0 L654.5,0 L1309,0 L1308.3866,3.92703926 C1308.0799,5.99390203 1305.42182,26.145814 1302.66151,48.5712751 C1288.0421,164.212247 1279.14777,217.64065 1269.2311,248.540248 C1267.79983,253.087346 1263.71048,263.11163 1260.23454,270.759023 C1250.52234,291.841023 1246.73969,304.2422 1245.51289,319.123612 C1243.97938,338.345435 1240.19674,350.436582 1231.40464,364.284563 C1222.20361,378.545916 1210.0378,389.500289 1188.56873,402.831554 C1170.47337,413.992613 1163.52148,417.402936 1147.26632,422.983466 C1139.70103,425.567044 1106.57732,438.174907 1073.65808,450.886113 C1012.7268,474.551692 985.430412,484.679319 968.766323,489.846476 C963.552405,491.499966 957.111684,493.980202 954.351375,495.323663 C944.025773,500.594163 930.428694,513.098682 916.42268,530.046957 C894.44244,556.709487 883.810137,566.733771 871.337629,572.727673 C841.792096,586.989026 830.750859,625.63936 842.098797,674.313978 C845.063574,686.818498 846.801546,691.985655 854.060137,709.450645 C861.727663,727.742381 866.737113,743.037165 868.57732,753.888195 C870.417526,764.635881 875.324742,775.280225 884.525773,788.508146 C898.634021,808.970088 902.212199,814.757303 906.914948,823.954843 C923.37457,856.714618 934.109107,902.598971 930.735395,925.95452 C929.508591,934.945373 927.770619,939.079099 923.885739,942.799452 C918.467354,947.863266 916.42268,967.705148 915.195876,1029.81437 C914.071306,1085.72301 912.537801,1102.15457 906.812715,1120.23962 C901.701031,1136.46449 891.273196,1152.68937 876.347079,1167.77746 C854.264605,1190.20293 827.888316,1203.94756 794.048969,1210.66487 C766.752577,1216.03871 747.63488,1223.78945 734.242268,1235.05385 C720.236254,1246.73162 710.93299,1249.41854 682.103093,1249.93526 C671.675258,1250.14195 659.100515,1249.83192 653.988832,1249.3152 Z" id="Path"></path>
                </g>
            </g>
        </g>
    </g>
</svg>