<?xml version="1.0" encoding="UTF-8"?>
<svg width="359px" height="60px" viewBox="0 0 359 60" version="1.1" xmlns="http://www.w3.org/2000/svg" xmlns:xlink="http://www.w3.org/1999/xlink">
    <title>betaLogo</title>
    <defs>
        <path d="M0,0 L18.6157984,0 L34.2281145,27.8797017 L49.9341328,0 L53.37571,0 L68.3622164,0 L68.549997,0 L68.549997,37.3198328 L53.37571,37.3198328 L53.37571,25.9917506 L34.1966923,59.2207792 L34.1966923,59.1264944 L34.1966923,59.2207792 L0,0 Z M98.961039,37.3198328 C98.4291195,49.4660522 88.4485266,59.15786 76.2153196,59.15786 L76.1526634,59.15786 C63.9194565,59.1264944 53.9388635,49.4660522 53.4069441,37.3198328 L68.581231,37.3198328 C68.6124651,41.5049914 72.0228083,44.9033785 76.2153196,44.9033785 C80.4076428,44.9033785 83.786752,41.5049914 83.8492201,37.3198328 L98.961039,37.3198328 L98.961039,37.3198328 Z M83.8492201,0 L98.961039,0 L98.961039,37.3198328 L83.8492201,37.3198328 L83.8492201,0 Z" id="path-1"></path>
    </defs>
    <g id="Page-1" stroke="none" stroke-width="1" fill="none" fill-rule="evenodd">
        <g id="betaLogo">
            <path d="M138.730078,60 C146.921533,60 154.331372,56.6524787 159.70886,51.2210499 L151.892701,43.3262902 C148.516165,46.7051003 143.888893,48.8210505 138.761478,48.8210505 C128.475247,48.8210505 120.158756,40.3894811 120.158756,29.9999133 C120.158756,19.610534 128.506459,11.1789269 138.761478,11.1789269 C143.888893,11.1789269 148.547377,13.2947263 151.923913,16.6736683 L153.64358,14.9368212 L159.74026,8.7789275 C154.362584,3.34736679 146.952745,0 138.761478,0 C122.378568,0 109.090909,13.4210311 109.090909,29.9999133 C109.090909,46.5788143 122.347356,60 138.730078,60 Z" id="Path" fill="#203347"></path>
            <polygon id="Path" fill="#203347" fill-rule="nonzero" points="174.545455 0.779220779 163.636364 0.779220779 163.636364 59.2207792 174.545455 59.2207792"></polygon>
            <polygon id="Path" fill="#203347" points="210.219657 0.779220779 177.662338 0.779220779 177.662338 11.6623294 191.777533 11.6623294 191.777533 59.2207792 202.661347 59.2207792 202.661347 11.6623294 217.402597 11.6623294"></polygon>
            <polygon id="Path" fill="#203347" points="232.353599 59.2207792 271.168831 0.779220779 258.272139 0.779220779 242.601169 24.7786907 227.087592 0.779220779 214.285714 0.779220779 236.199282 33.8689389 219.991662 59.2207792"></polygon>
            <polygon id="Path" fill="#203347" points="102.077922 48.3116883 115.324675 59.2207792 102.077922 59.2207792"></polygon>
            <path d="M0,0.779220779 L18.6157984,0.779220779 L34.2281145,28.6589225 L49.9341328,0.779220779 L53.37571,0.779220779 L68.3622164,0.779220779 L68.549997,0.779220779 L68.549997,38.0990536 L53.37571,38.0990536 L53.37571,26.7709714 L34.1966923,60 L34.1654583,60 L0,0.779220779 Z M98.961039,38.0990536 C98.4291195,50.245273 88.4485266,59.9370808 76.2153196,59.9370808 L76.1526634,59.9370808 C63.9194565,59.9057151 53.9388635,50.245273 53.4069441,38.0990536 L68.581231,38.0990536 C68.6124651,42.2842122 72.0228083,45.6825993 76.2153196,45.6825993 C80.4076428,45.6825993 83.786752,42.2842122 83.8492201,38.0990536 L98.961039,38.0990536 L98.961039,38.0990536 Z M83.8492201,0.779220779 L98.961039,0.779220779 L98.961039,38.0990536 L83.8492201,38.0990536 L83.8492201,0.779220779 Z" id="Shape" fill="#203347"></path>
            <g id="Clipped" transform="translate(0, 0.7792)">
                <mask id="mask-2" fill="white">
                    <use xlink:href="#path-1"></use>
                </mask>
                <g id="Shape"></g>
                <g id="Group" mask="url(#mask-2)">
                    <g transform="translate(53.1489, 12.1463)" id="Path">
                        <polygon fill="#EDCA71" points="47.6267658 34.5507446 7.73581636 0 7.73581636 47.0431134 47.2201588 47.0431134"></polygon>
                        <path d="M0.00783746678,23.788935 L0.258086101,13.8140848 L7.73581636,0 L7.73581636,41.5993833 L3.88744393,36.8163986 C1.2592688,33.0087551 -0.117286851,28.4460814 0.00783746678,23.788935 Z" fill="#F7B500"></path>
                    </g>
                </g>
            </g>
            <g id="Group" transform="translate(271.9481, 29.6104)" fill-rule="nonzero">
                <rect id="Rectangle" fill="#FDECBF" x="0" y="0" width="86.4935065" height="30.3896104" rx="4"></rect>
                <path d="M22.6876228,15.4692614 L18.6017448,15.4692614 L18.5791813,13.4327776 L22.1479785,13.4327776 C22.7515528,13.4327776 23.2611124,13.3436981 23.6804178,13.165539 C24.1053642,12.9801623 24.4287747,12.7167224 24.6487691,12.3754091 C24.8706437,12.0266883 24.9797007,11.6075016 24.9797007,11.117849 C24.9797007,10.5763442 24.8762846,10.1347451 24.6713326,9.79343182 C24.4663806,9.45230844 24.1504912,9.20368344 23.7236646,9.04793669 C23.3062394,8.892 22.7684754,8.81412662 22.1160136,8.81412662 L19.4384754,8.81412662 L19.4384754,22.7922078 L16.6725635,22.7922078 L16.6725635,6.58846753 L22.1160136,6.58846753 C22.995991,6.58846753 23.7819537,6.67374838 24.4739018,6.84431006 C25.1714907,7.01506169 25.7619029,7.28211039 26.2470186,7.6456461 C26.7396556,8.00177435 27.1100734,8.45438961 27.3601525,9.00330195 C27.6177527,9.55240422 27.7456126,10.205211 27.7456126,10.9621023 C27.7456126,11.629724 27.587668,12.2418847 27.2717787,12.7983945 C26.9558893,13.3473068 26.4895765,13.7963133 25.8728402,14.1450341 C25.2561039,14.4937549 24.4870638,14.7013539 23.5694805,14.768211 L22.6876228,15.4692614 Z M22.567284,22.7922078 L17.7311688,22.7922078 L18.9759232,20.5775649 L22.567284,20.5775649 C23.1915415,20.5775649 23.7123828,20.4736705 24.1316883,20.2658815 C24.5509938,20.0506851 24.8631225,19.7576153 25.0680745,19.3866721 C25.2805477,19.0083214 25.3877244,18.5669123 25.3877244,18.0624448 C25.3877244,17.5355649 25.2955901,17.0793409 25.1113213,16.6935828 C24.9289328,16.3002273 24.6393676,15.99975 24.2426256,15.792151 C23.8458837,15.5769545 23.3269226,15.4692614 22.6876228,15.4692614 L19.5813778,15.4692614 L19.6039413,13.4327776 L23.6465726,13.4327776 L24.2745906,14.2006851 C25.1564483,14.2303149 25.8803614,14.4268977 26.4444495,14.7904334 C27.017939,15.1539692 27.4447657,15.6251981 27.7230491,16.2037403 C28.0032129,16.7824724 28.1423546,17.4058393 28.1423546,18.073461 C28.1423546,19.1048084 27.9185997,19.9692029 27.4692095,20.6666445 C27.0292208,21.3638961 26.3936815,21.8943847 25.564472,22.2581104 C24.7333823,22.6140487 23.7349464,22.7922078 22.567284,22.7922078 Z M41.804568,20.5775649 L41.804568,22.7922078 L33.2887182,22.7922078 L33.2887182,20.5775649 L41.804568,20.5775649 Z M34.0709204,6.58846753 L34.0709204,22.7922078 L31.3050085,22.7922078 L31.3050085,6.58846753 L34.0709204,6.58846753 Z M40.6914342,13.3547143 L40.6914342,15.5361185 L33.2887182,15.5361185 L33.2887182,13.3547143 L40.6914342,13.3547143 Z M41.7500395,6.58846753 L41.7500395,8.81412662 L33.2887182,8.81412662 L33.2887182,6.58846753 L41.7500395,6.58846753 Z M51.2586844,6.58846753 L51.2586844,22.7922078 L48.515336,22.7922078 L48.515336,6.58846753 L51.2586844,6.58846753 Z M56.2941107,6.58846753 L56.2941107,8.81412662 L43.5250367,8.81412662 L43.5250367,6.58846753 L56.2941107,6.58846753 Z M63.9751101,8.74745942 L59.1822417,22.7922078 L56.2847092,22.7922078 L62.322332,6.58846753 L64.1725409,6.58846753 L63.9751101,8.74745942 Z M67.9857764,22.7922078 L63.1816262,8.74745942 L62.9729136,6.58846753 L64.8344043,6.58846753 L70.8945906,22.7922078 L67.9857764,22.7922078 Z M67.7545003,16.7824724 L67.7545003,18.9973052 L59.0280576,18.9973052 L59.0280576,16.7824724 L67.7545003,16.7824724 Z" id="Shape" fill="#A17601"></path>
            </g>
        </g>
    </g>
</svg>