<?xml version="1.0" encoding="UTF-8"?>
<svg width="512px" height="512px" viewBox="0 0 512 512" version="1.1" xmlns="http://www.w3.org/2000/svg" xmlns:xlink="http://www.w3.org/1999/xlink">
    <title>favicon</title>
    <g id="favicon" stroke="none" stroke-width="1" fill="none" fill-rule="evenodd">
        <path d="M146.141456,-7.25467311e-15 L365.858544,7.25467311e-15 C416.675112,-4.215174e-15 435.102427,5.29105984 453.680205,15.2265641 C472.257983,25.1620684 486.837932,39.7420171 496.773436,58.3197949 C506.70894,76.8975727 512,95.3248882 512,146.141456 L512,365.858544 C512,416.675112 506.70894,435.102427 496.773436,453.680205 C486.837932,472.257983 472.257983,486.837932 453.680205,496.773436 C435.102427,506.70894 416.675112,512 365.858544,512 L146.141456,512 C95.3248882,512 76.8975727,506.70894 58.3197949,496.773436 C39.7420171,486.837932 25.1620684,472.257983 15.2265641,453.680205 C5.29105984,435.102427 0,416.675112 0,365.858544 L7.25467311e-15,146.141456 C-4.215174e-15,95.3248882 5.29105984,76.8975727 15.2265641,58.3197949 C25.1620684,39.7420171 39.7420171,25.1620684 58.3197949,15.2265641 C76.8975727,5.29105984 95.3248882,4.215174e-15 146.141456,-7.25467311e-15 Z" id="bluetint" fill="#E3EBF0"></path>
        <g id="vucity" transform="translate(82, 153)" fill="#203347">
            <path d="M0,0 L59.7479982,0 L109.872309,97.024609 L160.258165,0 L171.315183,0 L219.431308,0 L220,0 L220,129.824768 L171.315183,129.824768 L171.315183,90.3742955 L109.756184,206 L109.716813,205.713223 L109.675321,206 L0,0 Z M318,130 C316.29033,172.26706 284.292616,205.965487 245.058931,206 L244.941069,206 C205.707384,205.965487 173.70967,172.26706 172,130 L220.644154,130 C220.775259,144.572651 231.666295,156.341746 245.081444,156.341746 C258.496594,156.341746 269.38763,144.572651 269.518735,130 L318,130 Z M269,0 L318,0 L318,130 L269,130 L269,0 Z" id="Shape"></path>
        </g>
    </g>
</svg>