<svg xmlns="http://www.w3.org/2000/svg" width="192" height="192" viewBox="0 0 24 24" fill="currentColor">
<path d="M18.5625,7.171875 L14.2054688,13.2935826 C13.9820312,13.6009487 13.715625,13.8528181 13.40625,14.0491909 C13.096875,14.2455636 12.753125,14.34375 12.375,14.34375 L1.546875,14.34375 C1.12148439,14.34375 0.757324219,14.1932687 0.454394533,13.8923061 C0.151464843,13.5913434 0,13.229548 0,12.8069197 L0,1.53683035 C0,1.11420199 0.151464843,0.752406544 0.454394533,0.451443928 C0.757324219,0.150481309 1.12148439,0 1.546875,0 L12.375,0 C12.753125,0 13.096875,0.0981863794 13.40625,0.294559139 C13.715625,0.490931897 13.9820312,0.742801327 14.2054688,1.05016742 L18.5625,7.171875 Z" id="Label"></path>
</svg>