<?xml version="1.0" encoding="UTF-8"?>
<svg width="234px" height="80px" viewBox="0 0 234 80" version="1.1" xmlns="http://www.w3.org/2000/svg" xmlns:xlink="http://www.w3.org/1999/xlink">
    <title>REVU</title>
    <defs>
        <path d="M-1.30260082e-14,2.84943929e-15 L25.2186134,2.84943929e-15 L46.3752082,37.6794774 L67.6422562,2.84943929e-15 L72.3094756,2.84943929e-15 L92.6181933,2.84943929e-15 L92.8581196,2.84943929e-15 L92.8581196,50.4173406 L72.3094756,50.4173406 L72.3094756,35.0968897 L46.3261688,80 L46.3096696,79.8886302 L46.2920246,80 L-1.30260082e-14,2.84943929e-15 Z M133.994593,50.4175697 C133.272752,66.8326986 119.755988,79.9211703 103.181596,79.9369821 L103.122244,79.9369821 C86.5480811,79.9211703 73.031546,66.8326986 72.3094756,50.4175697 L92.861557,50.4175697 C92.9170127,56.0777219 97.5184644,60.6491541 103.186637,60.6491541 C108.854581,60.6491541 113.456032,56.0777219 113.511488,50.4175697 L133.994593,50.4175697 Z M113.515154,2.84943929e-15 L133.992302,2.84943929e-15 L133.992302,50.4173406 L113.515154,50.4173406 L113.515154,2.84943929e-15 Z" id="path-1"></path>
        <linearGradient x1="49.9991939%" y1="0%" x2="49.9991939%" y2="100%" id="linearGradient-3">
            <stop stop-color="#DFB536" offset="0%"></stop>
            <stop stop-color="#F2D184" offset="100%"></stop>
        </linearGradient>
        <linearGradient x1="24.7395833%" y1="-109.270154%" x2="24.7395833%" y2="100%" id="linearGradient-4">
            <stop stop-color="#A1DFF2" offset="30%"></stop>
            <stop stop-color="#21476E" offset="100%"></stop>
        </linearGradient>
    </defs>
    <g id="Page-1" stroke="none" stroke-width="1" fill="none" fill-rule="evenodd">
        <g id="REVU">
            <path d="M99.5336619,0 L124.752275,0 L145.90887,37.6794774 L167.175918,0 L171.843137,0 L192.151855,0 L192.391782,0 L192.391782,50.4173406 L171.843137,50.4173406 L171.843137,35.0968897 L145.859831,80 L145.843331,79.8886302 L145.825686,80 L99.5336619,0 Z M233.528255,50.4175697 C232.806414,66.8326986 219.28965,79.9211703 202.715258,79.9369821 L202.655906,79.9369821 C186.081743,79.9211703 172.565208,66.8326986 171.843137,50.4175697 L192.395219,50.4175697 C192.450675,56.0777219 197.052126,60.6491541 202.720299,60.6491541 C208.388242,60.6491541 212.989694,56.0777219 213.04515,50.4175697 L233.528255,50.4175697 Z M213.048816,0 L233.525964,0 L233.525964,50.4173406 L213.048816,50.4173406 L213.048816,0 Z" id="Shape" fill="#203347"></path>
            <g id="Clipped" transform="translate(99.5337, 0)">
                <mask id="mask-2" fill="white">
                    <use xlink:href="#path-1"></use>
                </mask>
                <g id="Shape"></g>
                <g id="Group" mask="url(#mask-2)">
                    <g transform="translate(57.2333, 17.56)" id="Path">
                        <polygon fill="url(#linearGradient-3)" points="81.4612771 49.0515894 24.6049337 -3.25650205e-15 24.6049337 68.1636547 80.8563054 68.1636547"></polygon>
                        <polygon fill="#FFD040" points="0 45.0525887 24.5998923 0.0886375252 24.5998923 60.1099685"></polygon>
                    </g>
                </g>
            </g>
            <polygon id="Path" fill="#203347" fill-rule="nonzero" points="24.1328724 44.2606074 42.7126085 79.8068215 60.6766024 79.8068215 60.6766024 79.0400657 41.8732102 44.1510708"></polygon>
            <polygon id="Path" fill="url(#linearGradient-4)" fill-rule="nonzero" points="42.7375865 79.8065924 27.4987152 50.4746295 25.8946234 47.953914 19.7074125 41.6450213 47.0915497 41.6450213 47.0915497 47.953914 63.7053568 79.8065924"></polygon>
            <path d="M0,0.0603757207 L33.2521338,0.0603757207 C39.4826552,0.0603757207 44.8364259,0.973223069 49.3132167,2.79891547 C53.8275891,4.624601 57.2972395,7.32662475 59.722397,10.9049867 C62.1473254,14.4833487 63.3600187,18.8832806 63.3600187,24.1047366 C63.3600187,28.3768912 62.6136578,32.0465947 61.1213942,35.1136181 C59.666483,38.1444348 57.9127524,42.013504 55.2265863,44.0582627 C52.5777725,46.0665855 47.5498616,50.2851176 40.2473487,50.2851176 L13.8330912,50.2851176 L13.7211714,37.4688831 L33.3639619,37.4688831 C36.3113659,37.4688831 38.755085,36.9576361 40.6951194,35.9351422 C42.6351538,34.9128775 44.0900649,33.4889023 45.0600821,31.6632168 C46.0674517,29.8375313 46.5711365,27.7196719 46.5711365,25.3096387 C46.5711365,22.7536331 46.0862425,20.5446613 45.1162253,18.6824483 C44.1462081,16.8202353 42.6725062,15.3961915 40.6951194,14.4103167 C38.7177326,13.4244419 36.236661,12.9315045 33.2521338,12.9315045 L19.6531942,12.9315045 L19.6531942,79.8065924 L0,79.8065924 L0,0.0603757207 Z" id="Path" fill="#203347" fill-rule="nonzero"></path>
            <path d="M137.951888,79.8065924 L74.887251,79.8065924 L74.887251,61.9324275 L127.923335,61.9324275 L137.951888,79.8065924 Z M80.5345704,0.0603757207 L80.5345704,79.8065924 L63.2470448,79.8065924 L63.2470448,0.0603757207 L80.5345704,0.0603757207 Z M112.113866,32.5395092 L120.372647,47.3186937 L74.887251,47.3186937 L74.887251,32.5395092 L112.113866,32.5395092 Z M94.1830994,0.0603757207 L104.916994,17.9345291 L73.4715255,17.9345291 L74.887251,0.0603757207 L94.1830994,0.0603757207 Z" id="Shape" fill="#203347" fill-rule="nonzero"></path>
        </g>
    </g>
</svg>