<?xml version="1.0" encoding="UTF-8"?>
<svg width="512px" height="512px" viewBox="0 0 512 512" version="1.1" xmlns="http://www.w3.org/2000/svg" xmlns:xlink="http://www.w3.org/1999/xlink">
    <title>the-boy-oliver-512</title>
    <g id="Page-1" stroke="none" stroke-width="1" fill="none" fill-rule="evenodd">
        <g id="the-boy-oliver-512">
            <rect id="Rectangle" fill-opacity="0.01" fill="#D8D8D8" x="0" y="0" width="512" height="512"></rect>
            <g id="the-boy-oliver" transform="translate(144, 60)" fill-rule="nonzero">
                <path d="M222.854932,320.490205 C222.854932,273.827673 179.715674,236 126.50006,236 C73.2844448,236 30.1440741,273.827673 30.1440741,320.490205 C30.1440741,324.118748 29.9171893,365.86476 30.032856,369.873034 C30.3720711,381.578083 33.6463306,393 54.0859845,393 L198.857413,393 C219.356012,393 222.631384,381.59918 222.967263,369.884137 C223.082929,365.876973 222.854932,324.127631 222.854932,320.490205" id="Fill-22" fill="#DADAC5"></path>
                <path d="M222.854932,320.631871 C222.854932,300.721631 214.965124,282.427083 201.780223,268.001108 C197.059017,282.203236 194.422037,298.028812 194.422037,314.716534 C194.422037,317.063608 194.376438,356.992686 194.340848,393 L198.857413,393 C219.356012,393 222.631384,381.621454 222.967263,369.9293 C223.082929,365.929965 222.854932,324.26219 222.854932,320.631871 Z M51.2210074,268 C38.0338828,282.425975 30.1440741,300.721631 30.1440741,320.631871 C30.1440741,324.253324 29.9171893,365.917775 30.032856,369.918218 C30.3720711,381.600399 33.6463306,393 54.0859845,393 L58.6592708,393 C58.6247932,356.992686 58.580306,317.063608 58.580306,314.716534 C58.580306,298.028812 55.9411016,282.203236 51.2210074,268 L51.2210074,268 Z" id="Fill-23" fill="#333333"></path>
                <path d="M190.996666,256.522778 C189.090673,253.087445 186.427841,251.227984 182.998165,251 C183.142643,252.938422 183.220439,254.899086 183.220439,256.881992 C183.220439,293.273828 158.342513,322.774981 127.652143,322.774981 C96.9628838,322.774981 72.0838464,293.273828 72.0838464,256.881992 C72.0838464,254.899086 72.1627533,252.938422 72.3072309,251 C69.1309471,251.452632 66.8348651,251.586086 65.0033341,255.826592 C65.0033341,255.946701 65,256.066809 65,256.186918 C65,297.673367 92.6663432,332 127.652143,332 C162.639053,332 191,298.368441 191,256.881992 C191,256.761883 190.996666,256.642887 190.996666,256.522778" id="Fill-24" fill="#E8B003"></path>
                <path d="M167.19915,243.561619 C173.608607,296.193117 163.206791,339.799089 141.736105,342.755765 C120.264312,345.714663 94.1508071,301.999842 85.6528005,245.988493 C85.5742587,245.466465 85.4957168,244.945548 85.4204937,244.425742 C84.901675,240.849297 80.5110751,244.98109 80,246.200636 C80.0276556,246.386122 80.0542049,246.570498 80.0818605,246.755985 C83.8352758,271.493433 91.2602459,294.831402 99.3058072,312.916885 C112.025162,341.514006 127.712513,351.847933 143.060254,349.734276 C157.122563,347.79722 168.046517,336.979029 172.483578,310.236773 C175.485868,292.136851 175.898489,270.048416 173.197092,246.263946 C172.396187,243.887054 168.909371,242.529782 167.19915,243.561619" id="Fill-25" fill="#D3A105"></path>
                <path d="M148,347 C156.836414,347 164,354.163586 164,363 C164,371.836414 156.836414,379 148,379 C139.162483,379 132,371.836414 132,363 C132,354.163586 139.162483,347 148,347" id="Fill-26" fill="#D3A105"></path>
                <path d="M155,353.937379 C155,359.348204 143.362581,368.39174 136.676596,367.986856 C133.788259,367.812531 134.023884,364.967096 134.000653,362.653633 C133.959723,358.467582 135.84472,354.960836 138.802748,352.975779 C140.343711,351.941076 142.811684,350.825395 145.446697,350.354155 C148.756503,349.763699 155,349.352067 155,353.937379" id="Fill-27" fill="#E8B003"></path>
                <path d="M162.607888,227.983658 C173.868367,232.542264 194.953341,236.381559 185.723767,251.214287 C185.037233,252.31775 182.404785,251.524949 180.667479,251.441438 C169.175213,250.89583 154.129969,263.28446 136.73263,274.128687 C133.595767,276.083965 131.717181,279.336454 128.327558,281 C125.782306,279.639322 98.0670923,265.15066 79.0152287,258.004316 C68.5869796,254.092645 68.7083923,253.696244 66.9313515,253.302071 C60.8761679,251.956981 60.1587291,236.546354 66.1112638,231.396488 C79.6565086,219.677063 99.7613517,221.600051 116.383858,223.207922 C133.719387,224.883717 151.954474,228.338859 162.607888,227.983658" id="Fill-28" fill="#3D3D3D"></path>
                <path d="M154,256.708521 C135.249317,256.423767 117.751798,255.284753 99,255 C109.212456,260.504854 120.815089,270.352769 128.658228,276 C135.110076,267.220481 145.460658,261.928622 154,256.708521" id="Fill-29" fill="#8ADD8A"></path>
                <path d="M116.769113,224 C143.742032,224 182.765497,239.034041 183,244.664367 C183.086073,246.750531 168.154794,244.285265 163.006654,245.900857 C154.272067,248.642735 140.226826,251 123.169505,251 C111.132316,251 100.531042,245.808286 92.0168517,244.313918 C86.5971116,243.362857 82.1268557,242.31702 79.055781,241.10698 C73.118444,238.770653 72.6386929,231.550082 76.4243853,229.165265 C82.7913833,225.153837 98.3037057,224 116.769113,224" id="Fill-30" fill="#2A2A2A"></path>
                <path d="M103,137.413756 L64.8766382,98 C10.6548448,115.245407 -3.7158582,126.682659 0.767347813,136.08314 C2.36174697,139.427026 6.08386349,143.967234 10.2481897,145.065076 C28.1876802,149.79889 66.5310357,134.887936 103,137.413756" id="Fill-31" fill="#2A2A2A"></path>
                <path d="M62,171 C51.5810972,168.403705 41.7941768,152.798929 39.3323078,133.933872 C37.6433511,120.997416 42.5406648,117.472667 50.6551437,117 C51.7374413,136.727112 55.7517411,155.103745 62,171" id="Fill-32" fill="#995542"></path>
                <path d="M192.6445,171.379755 C203.224443,168.813281 213.162635,153.387742 215.662556,134.73937 C217.377618,121.951501 212.404609,118.467238 204.164708,118 C203.065682,137.500526 198.989335,155.666085 192.6445,171.379755 Z M166.772107,149.220421 C165.476307,180.648873 164.180508,212.077326 162.885826,243.504667 C161.645928,273.592591 92.866796,267.946794 91.8628027,243.430131 C90.5759472,212.027265 89.2868556,180.623287 88,149.220421 C114.256997,149.220421 140.513993,149.220421 166.772107,149.220421 L166.772107,149.220421 Z" id="Fill-33" fill="#995542"></path>
                <path d="M200.135925,74.3288172 C200.983717,84.8417134 203,95.65983 203,106.976288 C203,173.263473 168.74983,227 126.5,227 C84.2501703,227 50,173.263473 50,106.976288 C50,89.3489845 52.4224242,72.6095946 56.7723567,57.5317129 C79.405322,36.3849421 196.27314,26.5035744 200.135925,74.3288172" id="Fill-34" fill="#BC6957"></path>
                <path d="M42.3471137,110 C41.6202915,97.0225654 42.0187637,73.0259251 43.6950183,52.7445854 C49.3804822,-16.0468206 182.268741,-10.9778749 193.392571,30.3838776 C198.272186,48.5280583 201.7104,71.9467876 203.466795,86.9591355 C204.206973,93.2939285 205.070701,92.3881642 199.308437,91.5424138 C176.395171,88.1727485 149.905673,87.7426494 125.218205,90.0987478 C98.8923246,93.2005736 65.3961714,100.899014 42.3471137,110" id="Fill-35" fill="#353535"></path>
                <path d="M47.3283621,90.4328022 C46.6740701,70.9165982 46.3035272,48.167409 53.311573,34.6071736 C60.7124164,20.286958 74.7941597,10.3011967 100.632016,6.7936813 C160.394023,-1.30161516 173.162731,18.1945013 181.303548,61.4408383 C185.242652,82.3676372 183.622501,80.6300611 162.26009,79.4225741 C147.441712,78.5844755 133.971977,81.3811136 119.160275,82.7526492 C99.0619382,84.9801391 74.878728,92.3210352 56.2202791,98.9052989 C47.380661,102.02557 47.5898564,98.2513364 47.3283621,90.4328022" id="Fill-36" fill="#474747"></path>
                <path d="M88.3843732,104.844769 C106.362848,101.907332 122.665759,106.857089 127.722413,116.17441 C133.006544,107.001535 149.603511,102.14881 167.896015,105.056476 C189.041418,108.41843 201.178719,119.008198 198.675359,137.119084 C193.715244,172.984702 138.471548,162.474324 127.655834,134.512439 C116.999909,162.508505 63.156585,172.99242 58.3174214,137.030872 C55.8706532,118.85052 67.728324,108.219954 88.3843732,104.844769" id="Fill-37" fill="#E8B003"></path>
                <path d="M89.0863276,109.709181 C106.819943,106.876682 122.657213,112.779938 124.132149,122.943024 C128.71776,154.526052 68.0590567,171.497774 63.2727215,136.720982 C61.1712143,121.4625 71.3516028,112.540572 89.0863276,109.709181 Z M166.91307,109.709181 C149.179454,106.876682 133.342185,112.779938 131.867248,122.943024 C127.281638,154.526052 187.94034,171.497774 192.727785,136.720982 C194.827074,121.4625 184.647794,112.540572 166.91307,109.709181 L166.91307,109.709181 Z" id="Fill-38" fill="#225252"></path>
                <path d="M99.6479132,110.664856 C103.250713,110.917773 105.691427,111.503826 106.123185,114.435206 C108.27865,129.088765 88.7096533,142.830933 76.0798756,141.960767 C71.2628235,141.628744 67.0806456,140.832113 66.2160181,134.672983 C65.4346345,129.113277 66.7410102,123.729609 70.6590272,119.5693 C77.1620474,112.667019 90.5476805,110.023095 99.6479132,110.664856 Z M154.415798,110.06209 C162.067585,109.356821 162.189676,114.785055 159.125187,119.977086 C155.90309,125.435403 148.353415,129.361737 142.546315,130.062549 C138.17989,130.589551 135.494994,130.558355 134.745798,125.179144 C134.279632,121.834407 135.248592,119.386576 137.245338,117.133725 C141.337612,112.515492 148.456638,110.610262 154.415798,110.06209 L154.415798,110.06209 Z" id="Fill-39" fill="#426E6E"></path>
            </g>
        </g>
    </g>
</svg>