<?xml version="1.0" encoding="UTF-8"?>
<svg width="392px" height="690px" viewBox="0 0 392 690" version="1.1" xmlns="http://www.w3.org/2000/svg" xmlns:xlink="http://www.w3.org/1999/xlink">
    <title>the-boy-oliver</title>
    <g id="Page-1" stroke="none" stroke-width="1" fill="none" fill-rule="evenodd">
        <g id="the-boy-oliver" transform="translate(-0, 0)" fill-rule="nonzero">
            <path d="M391.745192,562.530552 C391.745192,480.499604 315.97209,414 222.500105,414 C129.028118,414 53.2530628,480.499604 53.2530628,562.530552 C53.2530628,568.909392 52.8545449,642.297284 53.0577108,649.343678 C53.6535342,669.920707 59.4046947,690 95.3064701,690 L349.594109,690 C385.599421,690 391.352535,669.957793 391.942497,649.363197 C392.145663,642.318755 391.745192,568.925007 391.745192,562.530552" id="Fill-22" fill="#DADAC5"></path>
            <path d="M391.745192,562.632092 C391.745192,527.590071 377.886927,495.391667 354.727957,470.00195 C346.435268,494.997695 341.803474,522.850709 341.803474,552.221099 C341.803474,556.35195 341.72338,626.627128 341.660867,690 L349.594109,690 C385.599421,690 391.352535,669.973759 391.942497,649.395567 C392.145663,642.356738 391.745192,569.021454 391.745192,562.632092 Z M90.2742047,470 C67.1113278,495.389716 53.2530628,527.590071 53.2530628,562.632092 C53.2530628,569.005851 52.8545449,642.335284 53.0577108,649.376064 C53.6535342,669.936702 59.4046947,690 95.3064701,690 L103.339341,690 C103.278782,626.627128 103.200641,556.35195 103.200641,552.221099 C103.200641,522.850709 98.5649401,494.997695 90.2742047,470 L90.2742047,470 Z" id="Fill-23" fill="#333333"></path>
            <path d="M334.994152,450.681907 C331.651102,444.659472 326.980578,441.399676 320.965036,441 C321.218445,444.398221 321.354896,447.835434 321.354896,451.31164 C321.354896,515.109674 277.719804,566.827745 223.889869,566.827745 C170.061883,566.827745 126.424842,515.109674 126.424842,451.31164 C126.424842,447.835434 126.563242,444.398221 126.816651,441 C121.24555,441.793503 117.218295,442.02746 114.005848,449.461433 C114.005848,449.671994 114,449.882555 114,450.093116 C114,522.822446 162.525888,583 223.889869,583 C285.2558,583 335,524.04097 335,451.31164 C335,451.101079 334.994152,450.892468 334.994152,450.681907" id="Fill-24" fill="#E8B003"></path>
            <path d="M294.286927,427.986771 C305.554078,520.460804 287.268779,597.076905 249.525573,602.271812 C211.780423,607.470622 165.875629,530.663274 150.937028,432.25081 C150.79896,431.333602 150.660892,430.418346 150.528657,429.505042 C149.616629,423.221194 141.898416,430.480794 141,432.623547 C141.048616,432.949449 141.095287,433.273399 141.143902,433.5993 C147.742011,477.063228 160.794327,518.068258 174.937577,549.84462 C197.296864,600.090029 224.873576,618.246835 251.853288,614.53312 C276.573348,611.129695 295.776509,592.122033 303.576396,545.135638 C308.854105,513.333906 309.57945,474.524319 304.830678,432.734783 C303.42277,428.558562 297.293316,426.173822 294.286927,427.986771" id="Fill-25" fill="#D3A105"></path>
            <path d="M259,609 C274.463724,609 287,621.536276 287,637 C287,652.463724 274.463724,665 259,665 C243.534345,665 231,652.463724 231,637 C231,621.536276 243.534345,609 259,609" id="Fill-26" fill="#D3A105"></path>
            <path d="M273,620.781041 C273,630.099686 252.495976,645.674663 240.715907,644.977363 C235.626933,644.677136 236.042081,639.776664 236.001151,635.792368 C235.929036,628.583057 239.25022,622.543662 244.461985,619.124953 C247.177014,617.342963 251.525348,615.421514 256.167989,614.609934 C261.999552,613.593037 273,612.884115 273,620.781041" id="Fill-27" fill="#E8B003"></path>
            <path d="M285.261518,400.547465 C305.101408,408.582973 342.251125,415.350544 325.989494,441.49637 C324.779887,443.441458 320.141764,442.043978 317.080796,441.896772 C296.832518,440.935023 270.324231,462.772608 239.671776,481.887854 C234.144922,485.334448 230.835033,491.067648 224.862841,494 C220.378349,491.601516 171.546782,466.062181 137.979212,453.465235 C119.605631,446.570086 119.819548,445.871346 116.688572,445.176531 C106.019915,442.805526 104.755856,415.641031 115.243655,406.563301 C139.109087,385.905331 174.531905,389.295004 203.819178,392.129219 C234.362729,395.083162 266.491216,401.173583 285.261518,400.547465" id="Fill-28" fill="#3D3D3D"></path>
            <path d="M271,451.928893 C237.930613,451.440744 207.071352,449.488149 174,449 C192.011058,458.436893 212.473884,475.319032 226.306329,485 C237.685043,469.949395 255.939706,460.877637 271,451.928893" id="Fill-29" fill="#8ADD8A"></path>
            <path d="M205.33642,393 C252.84835,393 321.58693,419.170367 322,428.971306 C322.151614,432.602776 295.850647,428.311388 286.782362,431.123714 C271.396669,435.896612 246.656427,440 216.610504,440 C195.407383,440 176.733578,430.962571 161.736106,428.361265 C152.189408,426.705714 144.315195,424.885184 138.905596,422.778816 C128.447167,418.711878 127.602101,406.142735 134.270477,401.991388 C145.485739,395.008531 172.810197,393 205.33642,393" id="Fill-30" fill="#2A2A2A"></path>
            <path d="M181,240.974073 L114.00652,172 C18.7235622,202.179462 -6.52980908,222.194653 1.34844616,238.645495 C4.15025439,244.497295 10.6910611,252.44266 18.0089547,254.363883 C49.5336904,262.648057 116.913762,236.553888 181,240.974073" id="Fill-31" fill="#2A2A2A"></path>
            <path d="M109,300 C90.4271732,295.480524 72.9809239,268.316654 68.5923748,235.477482 C65.5816259,212.958464 74.3116199,206.822791 88.7765606,206 C90.7058736,240.339787 97.8617994,272.328741 109,300" id="Fill-32" fill="#995542"></path>
            <path d="M337.127875,300.597378 C355.642775,296.097261 373.034611,269.049739 377.409473,236.351223 C380.410831,213.92866 371.708065,207.819267 357.28824,207 C355.364944,241.192703 348.231337,273.044642 337.127875,300.597378 Z M291.851188,261.742655 C289.583538,316.850079 287.315888,371.957504 285.050195,427.062977 C282.880373,479.819885 162.516893,469.920406 160.759905,426.932285 C158.507908,371.869725 156.251997,316.805215 154,261.742655 C199.949744,261.742655 245.899488,261.742655 291.851188,261.742655 L291.851188,261.742655 Z" id="Fill-33" fill="#995542"></path>
            <path d="M351.964469,131.213112 C353.455033,149.652845 357,168.627937 357,188.477125 C357,304.745557 296.78238,399 222.5,399 C148.21762,399 88,304.745557 88,188.477125 C88,157.558647 92.2590333,128.197578 99.9069539,101.750812 C139.699553,64.6591498 345.173037,47.3271251 351.964469,131.213112" id="Fill-34" fill="#BC6957"></path>
            <path d="M74.6085203,193 C73.3343381,170.230501 74.0328944,128.127305 76.9715136,92.5427725 C86.9386231,-28.1548762 319.903224,-19.2611805 339.40426,53.3098944 C347.958647,85.1446841 353.986134,126.233909 357.065245,152.573756 C358.362842,163.688438 359.877031,162.099234 349.775284,160.615326 C309.606349,154.703095 263.16797,153.948467 219.888704,158.082348 C173.737162,163.524643 115.01551,177.031907 74.6085203,193" id="Fill-35" fill="#353535"></path>
            <path d="M83.5770481,159.282581 C82.4272262,125.180582 81.7760515,85.4293673 94.0916613,61.7346403 C107.097555,36.7119477 131.844148,19.2631437 177.250382,13.1342221 C282.273319,-1.01124333 304.712446,33.055655 319.018734,108.622938 C325.941132,145.189766 323.093953,142.15358 285.552658,140.043656 C259.511538,138.579189 235.840459,143.465946 209.811072,145.862524 C174.4912,149.754769 131.992765,162.582019 99.2032847,174.087154 C83.6689557,179.539418 84.0365858,172.94444 83.5770481,159.282581" id="Fill-36" fill="#474747"></path>
            <path d="M154.442018,184.493431 C186.063733,179.300462 214.738356,188.050926 223.632329,204.522617 C232.926404,188.306286 262.118231,179.727361 294.292282,184.867699 C331.484196,190.811153 352.832074,209.53235 348.429001,241.549809 C339.704827,304.955098 242.538609,286.374251 223.515226,236.941634 C204.77289,286.434679 110.069738,304.968743 101.558301,241.393864 C97.254766,209.253598 118.110811,190.460276 154.442018,184.493431" id="Fill-37" fill="#E8B003"></path>
            <path d="M155.952069,192.252384 C187.190516,187.250311 215.088475,197.67521 217.686632,215.622787 C225.764362,271.397071 118.911723,301.36841 110.480409,239.954074 C106.778524,213.008245 124.71167,197.252499 155.952069,192.252384 Z M293.046869,192.252384 C261.808422,187.250311 233.910464,197.67521 231.312307,215.622787 C223.234577,271.397071 330.087215,301.36841 338.520482,239.954074 C342.218461,213.008245 324.287269,197.252499 293.046869,192.252384 L293.046869,192.252384 Z" id="Fill-38" fill="#225252"></path>
            <path d="M174.149489,195.163498 C180.482832,195.606102 184.77335,196.631695 185.532337,201.761611 C189.321416,227.405339 154.92118,251.454133 132.71936,249.931342 C124.25149,249.350302 116.899661,247.956197 115.379737,237.177721 C114.006147,227.448234 116.302618,218.026816 123.190079,210.746275 C134.621704,198.667283 158.152238,194.040415 174.149489,195.163498 Z M270.425665,194.108658 C283.876702,192.874437 284.091325,202.373847 278.704277,211.4599 C273.040169,221.011955 259.768636,227.883039 249.560364,229.109461 C241.884649,230.031715 237.164885,229.977121 235.847877,220.563502 C235.028406,214.710212 236.731736,210.426508 240.241804,206.484019 C247.435592,198.402111 259.95009,195.067958 270.425665,194.108658 L270.425665,194.108658 Z" id="Fill-39" fill="#426E6E"></path>
        </g>
    </g>
</svg>