<svg xmlns="http://www.w3.org/2000/svg" version="1.1" xmlns:xlink="http://www.w3.org/1999/xlink" xmlns:svgjs="http://svgjs.dev/svgjs" width="1000" height="1000"><style>
    #light-icon {
      display: inline;
    }
    #dark-icon {
      display: none;
    }

    @media (prefers-color-scheme: dark) {
      #light-icon {
        display: none;
      }
      #dark-icon {
        display: inline;
      }
    }
  </style><g id="light-icon"><svg xmlns="http://www.w3.org/2000/svg" version="1.1" xmlns:xlink="http://www.w3.org/1999/xlink" xmlns:svgjs="http://svgjs.dev/svgjs" width="1000" height="1000"><g><g transform="matrix(1.953125,0,0,1.953125,0,0)"><svg xmlns="http://www.w3.org/2000/svg" version="1.1" xmlns:xlink="http://www.w3.org/1999/xlink" xmlns:svgjs="http://svgjs.dev/svgjs" width="512px" height="512px"><svg width="512px" height="512px" viewBox="0 0 512 512" version="1.1" xmlns="http://www.w3.org/2000/svg" xmlns:xlink="http://www.w3.org/1999/xlink">
    <title>the-boy-oliver-favicon</title>
    <g id="Page-1" stroke="none" stroke-width="1" fill="none" fill-rule="evenodd">
        <g id="the-boy-oliver-favicon">
            <rect id="Rectangle" fill-opacity="0" fill="#D8D8D8" x="0" y="0" width="512" height="512"></rect>
            <g id="the-boy-oliver" transform="translate(99, 0)" fill-rule="nonzero">
                <path d="M289.811337,417.321605 C289.811337,356.392822 233.707949,307 164.500077,307 C95.2922055,307 39.187371,356.392822 39.187371,417.321605 C39.187371,422.059512 38.8923031,476.568635 39.0427299,481.802369 C39.4838852,497.086033 43.7421191,512 70.3242596,512 L258.602128,512 C285.260928,512 289.520608,497.113579 289.957424,481.816867 C290.107851,476.584583 289.811337,422.07111 289.811337,417.321605" id="Fill-22" fill="#DADAC5"></path>
                <path d="M289.811337,417.631959 C289.811337,391.669007 279.550498,367.812917 262.403296,349.001445 C256.263281,367.52102 252.833841,388.157571 252.833841,409.91836 C252.833841,412.978945 252.774538,465.046463 252.728253,512 L258.602128,512 C285.260928,512 289.520608,497.162376 289.957424,481.915807 C290.107851,476.700674 289.811337,422.365895 289.811337,417.631959 Z M66.598305,349 C49.4482103,367.811472 39.187371,391.669007 39.187371,417.631959 C39.187371,422.354335 38.8923031,476.684778 39.0427299,481.901356 C39.4838852,497.13492 43.7421191,512 70.3242596,512 L76.2719014,512 C76.2270627,465.046463 76.1692062,412.978945 76.1692062,409.91836 C76.1692062,388.157571 72.736873,367.52102 66.598305,349 L66.598305,349 Z" id="Fill-23" fill="#333333"></path>
                <path d="M247.99566,335.159156 C245.514845,330.705948 242.048935,328.295535 237.584914,328 C237.772964,330.512769 237.874222,333.05437 237.874222,335.624804 C237.874222,382.799407 205.493429,421.041643 165.547233,421.041643 C125.602484,421.041643 93.2202445,382.799407 93.2202445,335.624804 C93.2202445,333.05437 93.3229488,330.512769 93.510999,328 C89.3767883,328.586745 86.3882372,328.759741 84.0043396,334.256693 C84.0043396,334.41239 84,334.568086 84,334.723783 C84,388.502513 120.010161,433 165.547233,433 C211.085752,433 248,389.403534 248,335.624804 C248,335.469108 247.99566,335.314853 247.99566,335.159156" id="Fill-24" fill="#E8B003"></path>
                <path d="M217.817838,316.72958 C226.183866,385.101339 212.606758,441.74835 184.581863,445.589265 C156.555523,449.433066 122.470527,392.644655 111.378392,319.882248 C111.275874,319.2041 111.173357,318.527394 111.075171,317.852132 C110.397976,313.206096 104.667088,318.573566 104,320.157835 C104.036098,320.398794 104.070752,320.638311 104.10685,320.87927 C109.006044,353.014833 118.697584,383.332382 129.199159,406.826608 C145.801264,443.976138 166.277386,457.400585 186.310226,454.654807 C204.66524,452.138445 218.923875,438.084907 224.715408,403.344966 C228.634186,379.831984 229.172765,351.137661 225.646731,320.240079 C224.601338,317.152341 220.050127,315.389156 217.817838,316.72958" id="Fill-25" fill="#D3A105"></path>
                <path d="M192,452 C203.597793,452 213,461.402207 213,473 C213,484.597793 203.597793,494 192,494 C180.400759,494 171,484.597793 171,473 C171,461.402207 180.400759,452 192,452" id="Fill-26" fill="#D3A105"></path>
                <path d="M202,460.249839 C202,467.464273 187.037604,479.52232 178.441338,478.982474 C174.727762,478.750041 175.030708,474.956127 175.00084,471.871511 C174.948216,466.290109 177.371783,461.614448 181.174962,458.967706 C183.156199,457.588101 186.329308,456.100527 189.717181,455.472207 C193.972646,454.684932 202,454.136089 202,460.249839" id="Fill-27" fill="#E8B003"></path>
                <path d="M211.94995,296.809181 C226.606445,302.758548 254.050381,307.769153 242.037284,327.12712 C241.1437,328.567233 237.717339,327.532561 235.456084,327.423571 C220.497896,326.711507 200.915198,342.879719 178.271042,357.032354 C174.188141,359.584158 171.742997,363.828932 167.331107,366 C164.01824,364.2242 127.944469,345.315268 103.146806,335.988684 C89.573529,330.883621 89.7315582,330.366285 87.4185845,329.851855 C79.5372345,328.096399 78.6034252,307.984225 86.3511687,301.263213 C103.981487,285.96837 130.149696,288.478032 151.785338,290.576441 C174.349043,292.763495 198.083601,297.272749 211.94995,296.809181" id="Fill-28" fill="#3D3D3D"></path>
                <path d="M199,334.19667 C174.794572,333.830558 152.206866,332.366112 128,332 C141.183352,339.07767 156.161297,351.739274 166.286076,359 C174.614826,347.712046 187.976486,340.908228 199,334.19667" id="Fill-29" fill="#8ADD8A"></path>
                <path d="M151.717561,292 C186.856592,292 237.6945,311.488571 238,318.787143 C238.112131,321.491429 218.660374,318.295714 211.953622,320.39 C200.57462,323.944286 182.277149,327 160.055685,327 C144.37421,327 130.563376,320.27 119.471495,318.332857 C112.410916,317.1 106.58728,315.744286 102.58643,314.175714 C94.8515509,311.147143 94.2265541,301.787143 99.1583735,298.695714 C107.452995,293.495714 127.661708,292 151.717561,292" id="Fill-30" fill="#2A2A2A"></path>
                <path d="M134,178.909435 L84.4026167,128 C13.8616427,150.275317 -4.8342233,165.048434 0.998297154,177.190723 C3.07256402,181.509908 7.9149292,187.374344 13.3325963,188.79239 C36.6713509,194.9069 86.5549396,175.646917 134,178.909435" id="Fill-31" fill="#2A2A2A"></path>
                <path d="M81,223 C66.957131,219.634433 53.7660644,199.406019 50.4478931,174.951316 C48.1714733,158.181835 54.7722004,153.612717 65.7091068,153 C67.1678556,178.572182 72.5784337,202.393744 81,223" id="Fill-32" fill="#995542"></path>
                <path d="M250.528371,223.466804 C264.33189,220.126873 277.298125,200.05254 280.559741,175.784111 C282.797361,159.142365 276.309138,154.60805 265.558643,154 C264.124757,179.377396 258.806398,203.017507 250.528371,223.466804 Z M216.772984,194.629314 C215.08237,235.529356 213.391756,276.429397 211.702601,317.327991 C210.084921,356.483508 120.349648,349.136239 119.03975,317.230992 C117.360806,276.364249 115.678944,235.496058 114,194.629314 C148.257175,194.629314 182.51435,194.629314 216.772984,194.629314 L216.772984,194.629314 Z" id="Fill-33" fill="#995542"></path>
                <path d="M260.27483,96.7926812 C261.377515,110.510043 264,124.62566 264,139.39152 C264,225.88389 219.452393,296 164.5,296 C109.547607,296 65,225.88389 65,139.39152 C65,116.391188 68.1507347,94.5494175 73.8084901,74.875604 C103.246138,47.2830261 255.250685,34.3896906 260.27483,96.7926812" id="Fill-34" fill="#BC6957"></path>
                <path d="M54.4521049,144 C53.5054414,127.011358 54.0244391,95.5975747 56.207709,69.0474572 C63.6128503,-21.006747 236.695705,-14.3710362 251.184151,39.775258 C257.539699,63.5276399 262.017867,94.1848856 264.305516,113.837414 C265.269577,122.130234 266.394555,120.944506 258.889383,119.837342 C229.045562,115.426143 194.543809,114.863105 162.389143,117.947452 C128.100497,122.008024 84.4727911,132.085982 54.4521049,144" id="Fill-35" fill="#353535"></path>
                <path d="M61.4273536,118.512289 C60.5758119,93.0385071 60.0935612,63.3448286 69.2143266,45.645153 C78.8463067,26.9535031 97.1732813,13.9194567 130.800492,9.34122611 C208.578985,-1.2252661 225.197084,24.2222965 235.792117,80.6701468 C240.918746,107.985126 238.810166,105.717132 211.007617,104.141044 C191.721934,103.047105 174.19147,106.697454 154.914476,108.487668 C128.757081,111.395129 97.2833445,120.97693 72.9999221,129.571127 C61.495419,133.643902 61.7676807,128.717534 61.4273536,118.512289" id="Fill-36" fill="#474747"></path>
                <path d="M114.65053,137.101216 C138.111802,133.272058 159.386522,139.72442 165.985276,151.870212 C172.880881,139.912716 194.539333,133.586842 218.410403,137.377192 C246.004404,141.759739 261.843152,155.564258 258.576355,179.173091 C252.103581,225.926486 180.012516,212.225458 165.898394,175.775144 C151.99279,212.270016 81.7291605,225.936548 75.4142236,179.058101 C72.221278,155.358714 87.6951179,141.501012 114.65053,137.101216" id="Fill-37" fill="#E8B003"></path>
                <path d="M116.11289,142.920427 C139.303003,139.244205 160.013278,146.905877 161.942041,160.096265 C167.938609,201.087004 88.6156895,223.114133 82.3566358,177.978295 C79.608511,158.174734 92.9213268,146.59521 116.11289,142.920427 Z M217.886322,142.920427 C194.696209,139.244205 173.985934,146.905877 172.057171,160.096265 C166.060603,201.087004 245.383522,223.114133 251.644026,177.978295 C254.389251,158.174734 241.077885,146.59521 217.886322,142.920427 L217.886322,142.920427 Z" id="Fill-38" fill="#225252"></path>
                <path d="M129.919381,143.872624 C134.621983,144.204577 137.807757,144.973771 138.371316,148.821208 C141.184764,168.054004 115.642074,186.0906 99.1568902,184.948506 C92.8693697,184.512727 87.4105269,183.467148 86.2819605,175.38329 C85.2620493,168.086176 86.9672133,161.020112 92.0812565,155.559706 C100.569409,146.500462 118.041183,143.030312 129.919381,143.872624 Z M201.405883,143.081494 C211.393479,142.155828 211.55284,149.280385 207.552876,156.094925 C203.347191,163.258966 193.492879,168.412279 185.913085,169.332096 C180.213752,170.023786 176.709256,169.982841 175.731358,162.922626 C175.122888,158.532659 176.387636,155.319881 178.993915,152.363014 C184.33541,146.301583 193.627612,143.800969 201.405883,143.081494 L201.405883,143.081494 Z" id="Fill-39" fill="#426E6E"></path>
            </g>
        </g>
    </g>
</svg></svg></g></g></svg></g><g id="dark-icon"><svg xmlns="http://www.w3.org/2000/svg" version="1.1" xmlns:xlink="http://www.w3.org/1999/xlink" xmlns:svgjs="http://svgjs.dev/svgjs" width="1000" height="1000"><g clip-path="url(#SvgjsClipPath1048)"><rect width="1000" height="1000" fill="#474747"></rect><g transform="matrix(1.953125,0,0,1.953125,0,0)"><svg xmlns="http://www.w3.org/2000/svg" version="1.1" xmlns:xlink="http://www.w3.org/1999/xlink" xmlns:svgjs="http://svgjs.dev/svgjs" width="512px" height="512px"><svg width="512px" height="512px" viewBox="0 0 512 512" version="1.1" xmlns="http://www.w3.org/2000/svg" xmlns:xlink="http://www.w3.org/1999/xlink">
    <title>the-boy-oliver-favicon</title>
    <g id="Page-1" stroke="none" stroke-width="1" fill="none" fill-rule="evenodd">
        <g id="the-boy-oliver-favicon">
            <rect id="Rectangle" fill-opacity="0" fill="#D8D8D8" x="0" y="0" width="512" height="512"></rect>
            <g id="the-boy-oliver" transform="translate(99, 0)" fill-rule="nonzero">
                <path d="M289.811337,417.321605 C289.811337,356.392822 233.707949,307 164.500077,307 C95.2922055,307 39.187371,356.392822 39.187371,417.321605 C39.187371,422.059512 38.8923031,476.568635 39.0427299,481.802369 C39.4838852,497.086033 43.7421191,512 70.3242596,512 L258.602128,512 C285.260928,512 289.520608,497.113579 289.957424,481.816867 C290.107851,476.584583 289.811337,422.07111 289.811337,417.321605" id="Fill-22" fill="#DADAC5"></path>
                <path d="M289.811337,417.631959 C289.811337,391.669007 279.550498,367.812917 262.403296,349.001445 C256.263281,367.52102 252.833841,388.157571 252.833841,409.91836 C252.833841,412.978945 252.774538,465.046463 252.728253,512 L258.602128,512 C285.260928,512 289.520608,497.162376 289.957424,481.915807 C290.107851,476.700674 289.811337,422.365895 289.811337,417.631959 Z M66.598305,349 C49.4482103,367.811472 39.187371,391.669007 39.187371,417.631959 C39.187371,422.354335 38.8923031,476.684778 39.0427299,481.901356 C39.4838852,497.13492 43.7421191,512 70.3242596,512 L76.2719014,512 C76.2270627,465.046463 76.1692062,412.978945 76.1692062,409.91836 C76.1692062,388.157571 72.736873,367.52102 66.598305,349 L66.598305,349 Z" id="Fill-23" fill="#333333"></path>
                <path d="M247.99566,335.159156 C245.514845,330.705948 242.048935,328.295535 237.584914,328 C237.772964,330.512769 237.874222,333.05437 237.874222,335.624804 C237.874222,382.799407 205.493429,421.041643 165.547233,421.041643 C125.602484,421.041643 93.2202445,382.799407 93.2202445,335.624804 C93.2202445,333.05437 93.3229488,330.512769 93.510999,328 C89.3767883,328.586745 86.3882372,328.759741 84.0043396,334.256693 C84.0043396,334.41239 84,334.568086 84,334.723783 C84,388.502513 120.010161,433 165.547233,433 C211.085752,433 248,389.403534 248,335.624804 C248,335.469108 247.99566,335.314853 247.99566,335.159156" id="Fill-24" fill="#E8B003"></path>
                <path d="M217.817838,316.72958 C226.183866,385.101339 212.606758,441.74835 184.581863,445.589265 C156.555523,449.433066 122.470527,392.644655 111.378392,319.882248 C111.275874,319.2041 111.173357,318.527394 111.075171,317.852132 C110.397976,313.206096 104.667088,318.573566 104,320.157835 C104.036098,320.398794 104.070752,320.638311 104.10685,320.87927 C109.006044,353.014833 118.697584,383.332382 129.199159,406.826608 C145.801264,443.976138 166.277386,457.400585 186.310226,454.654807 C204.66524,452.138445 218.923875,438.084907 224.715408,403.344966 C228.634186,379.831984 229.172765,351.137661 225.646731,320.240079 C224.601338,317.152341 220.050127,315.389156 217.817838,316.72958" id="Fill-25" fill="#D3A105"></path>
                <path d="M192,452 C203.597793,452 213,461.402207 213,473 C213,484.597793 203.597793,494 192,494 C180.400759,494 171,484.597793 171,473 C171,461.402207 180.400759,452 192,452" id="Fill-26" fill="#D3A105"></path>
                <path d="M202,460.249839 C202,467.464273 187.037604,479.52232 178.441338,478.982474 C174.727762,478.750041 175.030708,474.956127 175.00084,471.871511 C174.948216,466.290109 177.371783,461.614448 181.174962,458.967706 C183.156199,457.588101 186.329308,456.100527 189.717181,455.472207 C193.972646,454.684932 202,454.136089 202,460.249839" id="Fill-27" fill="#E8B003"></path>
                <path d="M211.94995,296.809181 C226.606445,302.758548 254.050381,307.769153 242.037284,327.12712 C241.1437,328.567233 237.717339,327.532561 235.456084,327.423571 C220.497896,326.711507 200.915198,342.879719 178.271042,357.032354 C174.188141,359.584158 171.742997,363.828932 167.331107,366 C164.01824,364.2242 127.944469,345.315268 103.146806,335.988684 C89.573529,330.883621 89.7315582,330.366285 87.4185845,329.851855 C79.5372345,328.096399 78.6034252,307.984225 86.3511687,301.263213 C103.981487,285.96837 130.149696,288.478032 151.785338,290.576441 C174.349043,292.763495 198.083601,297.272749 211.94995,296.809181" id="Fill-28" fill="#3D3D3D"></path>
                <path d="M199,334.19667 C174.794572,333.830558 152.206866,332.366112 128,332 C141.183352,339.07767 156.161297,351.739274 166.286076,359 C174.614826,347.712046 187.976486,340.908228 199,334.19667" id="Fill-29" fill="#8ADD8A"></path>
                <path d="M151.717561,292 C186.856592,292 237.6945,311.488571 238,318.787143 C238.112131,321.491429 218.660374,318.295714 211.953622,320.39 C200.57462,323.944286 182.277149,327 160.055685,327 C144.37421,327 130.563376,320.27 119.471495,318.332857 C112.410916,317.1 106.58728,315.744286 102.58643,314.175714 C94.8515509,311.147143 94.2265541,301.787143 99.1583735,298.695714 C107.452995,293.495714 127.661708,292 151.717561,292" id="Fill-30" fill="#2A2A2A"></path>
                <path d="M134,178.909435 L84.4026167,128 C13.8616427,150.275317 -4.8342233,165.048434 0.998297154,177.190723 C3.07256402,181.509908 7.9149292,187.374344 13.3325963,188.79239 C36.6713509,194.9069 86.5549396,175.646917 134,178.909435" id="Fill-31" fill="#2A2A2A"></path>
                <path d="M81,223 C66.957131,219.634433 53.7660644,199.406019 50.4478931,174.951316 C48.1714733,158.181835 54.7722004,153.612717 65.7091068,153 C67.1678556,178.572182 72.5784337,202.393744 81,223" id="Fill-32" fill="#995542"></path>
                <path d="M250.528371,223.466804 C264.33189,220.126873 277.298125,200.05254 280.559741,175.784111 C282.797361,159.142365 276.309138,154.60805 265.558643,154 C264.124757,179.377396 258.806398,203.017507 250.528371,223.466804 Z M216.772984,194.629314 C215.08237,235.529356 213.391756,276.429397 211.702601,317.327991 C210.084921,356.483508 120.349648,349.136239 119.03975,317.230992 C117.360806,276.364249 115.678944,235.496058 114,194.629314 C148.257175,194.629314 182.51435,194.629314 216.772984,194.629314 L216.772984,194.629314 Z" id="Fill-33" fill="#995542"></path>
                <path d="M260.27483,96.7926812 C261.377515,110.510043 264,124.62566 264,139.39152 C264,225.88389 219.452393,296 164.5,296 C109.547607,296 65,225.88389 65,139.39152 C65,116.391188 68.1507347,94.5494175 73.8084901,74.875604 C103.246138,47.2830261 255.250685,34.3896906 260.27483,96.7926812" id="Fill-34" fill="#BC6957"></path>
                <path d="M54.4521049,144 C53.5054414,127.011358 54.0244391,95.5975747 56.207709,69.0474572 C63.6128503,-21.006747 236.695705,-14.3710362 251.184151,39.775258 C257.539699,63.5276399 262.017867,94.1848856 264.305516,113.837414 C265.269577,122.130234 266.394555,120.944506 258.889383,119.837342 C229.045562,115.426143 194.543809,114.863105 162.389143,117.947452 C128.100497,122.008024 84.4727911,132.085982 54.4521049,144" id="Fill-35" fill="#353535"></path>
                <path d="M61.4273536,118.512289 C60.5758119,93.0385071 60.0935612,63.3448286 69.2143266,45.645153 C78.8463067,26.9535031 97.1732813,13.9194567 130.800492,9.34122611 C208.578985,-1.2252661 225.197084,24.2222965 235.792117,80.6701468 C240.918746,107.985126 238.810166,105.717132 211.007617,104.141044 C191.721934,103.047105 174.19147,106.697454 154.914476,108.487668 C128.757081,111.395129 97.2833445,120.97693 72.9999221,129.571127 C61.495419,133.643902 61.7676807,128.717534 61.4273536,118.512289" id="Fill-36" fill="#474747"></path>
                <path d="M114.65053,137.101216 C138.111802,133.272058 159.386522,139.72442 165.985276,151.870212 C172.880881,139.912716 194.539333,133.586842 218.410403,137.377192 C246.004404,141.759739 261.843152,155.564258 258.576355,179.173091 C252.103581,225.926486 180.012516,212.225458 165.898394,175.775144 C151.99279,212.270016 81.7291605,225.936548 75.4142236,179.058101 C72.221278,155.358714 87.6951179,141.501012 114.65053,137.101216" id="Fill-37" fill="#E8B003"></path>
                <path d="M116.11289,142.920427 C139.303003,139.244205 160.013278,146.905877 161.942041,160.096265 C167.938609,201.087004 88.6156895,223.114133 82.3566358,177.978295 C79.608511,158.174734 92.9213268,146.59521 116.11289,142.920427 Z M217.886322,142.920427 C194.696209,139.244205 173.985934,146.905877 172.057171,160.096265 C166.060603,201.087004 245.383522,223.114133 251.644026,177.978295 C254.389251,158.174734 241.077885,146.59521 217.886322,142.920427 L217.886322,142.920427 Z" id="Fill-38" fill="#225252"></path>
                <path d="M129.919381,143.872624 C134.621983,144.204577 137.807757,144.973771 138.371316,148.821208 C141.184764,168.054004 115.642074,186.0906 99.1568902,184.948506 C92.8693697,184.512727 87.4105269,183.467148 86.2819605,175.38329 C85.2620493,168.086176 86.9672133,161.020112 92.0812565,155.559706 C100.569409,146.500462 118.041183,143.030312 129.919381,143.872624 Z M201.405883,143.081494 C211.393479,142.155828 211.55284,149.280385 207.552876,156.094925 C203.347191,163.258966 193.492879,168.412279 185.913085,169.332096 C180.213752,170.023786 176.709256,169.982841 175.731358,162.922626 C175.122888,158.532659 176.387636,155.319881 178.993915,152.363014 C184.33541,146.301583 193.627612,143.800969 201.405883,143.081494 L201.405883,143.081494 Z" id="Fill-39" fill="#426E6E"></path>
            </g>
        </g>
    </g>
</svg></svg></g></g><defs><clipPath id="SvgjsClipPath1048"><rect width="1000" height="1000" x="0" y="0" rx="350" ry="350"></rect></clipPath></defs></svg></g></svg>