<svg width="245" height="359" viewBox="0 0 245 359" fill="none" xmlns="http://www.w3.org/2000/svg">
<circle cx="122.398" cy="226.802" r="114.398" fill="#203347"/>
<mask id="mask0_837_180147" style="mask-type:alpha" maskUnits="userSpaceOnUse" x="8" y="48" width="229" height="294">
<path fill-rule="evenodd" clip-rule="evenodd" d="M236.795 48.3203H33.3225V155.015C17.4834 174.644 8 199.616 8 226.802C8 289.982 59.2176 341.2 122.398 341.2C185.578 341.2 236.795 289.982 236.795 226.802C236.795 207.818 232.171 189.914 223.988 174.155H236.795V48.3203Z" fill="#C4C4C4"/>
</mask>
<g mask="url(#mask0_837_180147)">
<path d="M191.549 226.843V194.197H192.388L189.823 190.335L188.098 192.95V182.995H189.632V181.796H188.098V178.438H162.361V175.56H162.912L160.516 171.722L158.12 175.56H158.695V178.438H155.34V181.796H153.806V183.115H155.34V193.07L153.614 190.455L151.05 194.317H151.865V226.843H148.822V262.68L148.079 271.627H145.682L143.214 340.109H157.976V317.393C157.976 309.67 170.677 303.001 170.677 303.001C170.677 303.001 183.377 309.718 183.377 317.393V340.109H193.897V315.57C193.897 307.223 207.7 299.955 207.7 299.955C207.7 299.955 221.024 306.983 221.456 315.187C221.216 305.856 220.042 226.843 220.042 226.843H191.549ZM168.735 285.251H163.943V272.49C163.943 271.147 166.339 270.091 166.339 270.091C166.339 270.091 168.735 271.243 168.735 272.49V285.251ZM164.182 226.843V197.196C164.182 195.157 166.579 193.382 166.579 193.382C166.579 193.382 168.975 195.157 168.975 197.196V226.843H164.182ZM174.559 197.196C174.559 195.157 176.955 193.382 176.955 193.382C176.955 193.382 179.351 195.157 179.351 197.196V226.843H174.559V197.196ZM179.351 285.251H174.559V272.49C174.559 271.147 176.955 270.091 176.955 270.091C176.955 270.091 179.351 271.243 179.351 272.49V285.251ZM207.652 282.709C205.141 282.709 202.685 281.963 200.596 280.566C198.508 279.169 196.88 277.184 195.919 274.861C194.957 272.538 194.706 269.981 195.196 267.515C195.686 265.049 196.895 262.784 198.672 261.006C200.448 259.228 202.711 258.017 205.175 257.527C207.638 257.036 210.192 257.288 212.513 258.25C214.834 259.212 216.817 260.842 218.213 262.933C219.608 265.023 220.353 267.481 220.353 269.996C220.353 273.367 219.015 276.601 216.633 278.985C214.251 281.369 211.021 282.709 207.652 282.709Z" fill="#CAD6E1"/>
<path d="M159.725 240.636V236.03L161.786 235.215V234.375L162.744 233.92V233.32L132.047 197.196L19.825 237.614V238.213L20.9992 238.837V239.652L22.5329 240.276V240.564L23.2039 240.876V246.561L22.7246 246.705V248.791L14.0737 251.502V252.006L15.1761 252.509V253.757H15.7991V254.476L16.6378 255.268V256.707L22.7726 259.25V263.855L21.7182 264.023V264.719L22.6048 265.462V267.045L23.108 267.501V268.628L23.5154 268.868V290.097L20.1605 290.624L21.0951 291.2V292.04C21.0951 292.04 22.485 292.303 22.485 292.447C22.485 292.591 22.8924 292.975 22.8924 292.975V295.206L23.4196 295.614V327.3H22.461V327.852L23.3956 328.379V336.583L22.9643 337.087H22.6048L22.4131 337.351L21.4785 337.614V340.013L53.8774 340.637V285.635C53.8774 278.439 58.2149 266.446 69.5737 264.047C83.5924 261.001 87.9778 274.673 87.9778 278.895V341.26H139.883C139.883 334.568 139.883 305.52 139.883 300.195C139.883 294.174 142.279 288.753 145.658 290.169C149.037 291.584 150.954 300.531 150.954 304.249V341.188L161.331 341.38V338.982L159.485 337.518V291.584L161.642 290.504V289.737L162.385 289.377V288.849L159.222 287.026V264.551L159.845 263.903V262.368L160.708 261.432V260.953L160.156 260.281V255.676L161.426 255.364V254.692L165.62 253.757V252.269L166.699 250.998V249.823L167.417 249.463V249.199L159.725 240.636Z" fill="#CAD6E1"/>
<path d="M151.24 294.973L151.71 289.992V284.015H146.01C143.495 277.495 136.963 257.283 135.154 249.984H135.498L136.764 246.09V245.257H133.851C132.241 234.227 125.89 171.253 125.582 156.148L126.65 151.186H127.138V148.722H126.74L126.234 143.289H123.284V136.389H122.778V128.601H122.054V136.389H121.547V143.235H118.616L118.109 148.668H117.693V151.131H118.2L119.267 156.094C118.96 171.199 112.609 234.172 110.998 245.202H108.158V246.035L109.406 249.948H109.768C107.959 257.192 101.354 277.459 98.9116 283.979H93.0853V289.956L93.5738 294.937L66.0527 336.593H87.9466C87.9466 327.45 91.5753 318.681 98.0344 312.215C104.494 305.75 113.254 302.118 122.389 302.118C131.523 302.118 140.284 305.75 146.743 312.215C153.202 318.681 156.831 327.45 156.831 336.593H178.743L151.24 294.973ZM118.851 258.532H126.089L129.961 284.015H114.961L118.851 258.532Z" fill="#FAFAFA"/>
</g>
</svg>
