<svg width="244" height="359" viewBox="0 0 244 359" fill="none" xmlns="http://www.w3.org/2000/svg">
<circle cx="121.694" cy="226.196" r="114.398" fill="#203347"/>
<mask id="mask0_2010_231499" style="mask-type:alpha" maskUnits="userSpaceOnUse" x="7" y="25" width="230" height="316">
<path fill-rule="evenodd" clip-rule="evenodd" d="M213.114 25.8213H32.6188V154.409C16.7796 174.038 7.29626 199.009 7.29626 226.196C7.29626 289.376 58.5139 340.593 121.694 340.593C184.874 340.593 236.092 289.376 236.092 226.196C236.092 200.379 227.54 176.559 213.114 157.416V25.8213Z" fill="#C4C4C4"/>
</mask>
<g mask="url(#mask0_2010_231499)">
<path fill-rule="evenodd" clip-rule="evenodd" d="M87.5421 153.285V149.968H44.9835V344.821H115V297.967C109.166 298.001 103.871 298.035 99.4634 298.062C92.8529 298.104 88.2386 298.132 86.796 298.132V287.96C88.2386 287.96 92.8529 287.931 99.4634 287.89C103.871 287.862 109.166 287.829 115 287.795V281.299C109.166 281.333 103.871 281.366 99.4634 281.394C92.8529 281.435 88.2386 281.464 86.796 281.464V271.292C88.2386 271.292 92.8529 271.263 99.4634 271.221C103.871 271.194 109.166 271.16 115 271.127V264.631C109.166 264.664 103.871 264.698 99.4634 264.725C92.8529 264.767 88.2386 264.796 86.796 264.796V254.623C88.2386 254.623 92.8529 254.594 99.4634 254.553C116.154 254.448 145.571 254.264 168.791 254.264C172.266 254.264 176.144 254.554 180.053 255H201V258.498C204.353 259.202 206.458 259.709 206.458 259.709V253.213C206.458 253.213 183.852 247.768 168.791 247.768C145.571 247.768 116.154 247.952 99.4634 248.057C92.8529 248.098 88.2386 248.127 86.796 248.127V237.955C88.2386 237.955 92.8529 237.926 99.4634 237.884C116.154 237.78 145.571 237.595 168.791 237.595C183.852 237.595 206.458 243.041 206.458 243.041V236.545C206.458 236.545 183.852 231.099 168.791 231.099C145.571 231.099 116.154 231.284 99.4634 231.388C92.8529 231.43 88.2386 231.459 86.796 231.459V221.286C88.2386 221.286 92.8529 221.257 99.4634 221.216C116.154 221.111 145.571 220.927 168.791 220.927C183.852 220.927 206.458 226.372 206.458 226.372V219.876C206.458 219.876 183.852 214.431 168.791 214.431C145.571 214.431 116.154 214.615 99.4634 214.72C92.8529 214.761 88.2386 214.79 86.796 214.79V204.618C88.2386 204.618 92.8529 204.589 99.4634 204.547C116.154 204.443 145.571 204.258 168.791 204.258C183.852 204.258 206.458 209.704 206.458 209.704V203.208C206.458 203.208 183.852 197.762 168.791 197.762C145.571 197.762 116.154 197.947 99.4634 198.051C92.8529 198.093 88.2386 198.122 86.796 198.122V187.949C88.2386 187.949 92.8529 187.92 99.4634 187.879C116.154 187.774 145.571 187.59 168.791 187.59C183.852 187.59 206.458 193.035 206.458 193.035V186.539C206.458 186.539 183.852 181.094 168.791 181.094C145.571 181.094 116.154 181.278 99.4634 181.383C92.8529 181.424 88.2386 181.453 86.796 181.453V171.281C88.2386 171.281 92.8529 171.252 99.4634 171.21C116.154 171.106 145.571 170.921 168.791 170.921C183.852 170.921 206.458 176.367 206.458 176.367V47.0273C188.633 128.794 140.436 153.285 129.078 153.285H87.5421ZM201 268.67V275.166C204.353 275.871 206.458 276.378 206.458 276.378V269.882C206.458 269.882 204.353 269.375 201 268.67ZM201 285.339V291.835C204.353 292.539 206.458 293.046 206.458 293.046V286.55C206.458 286.55 204.353 286.043 201 285.339ZM201 302.007V344.821H206.458V303.219C206.458 303.219 204.353 302.712 201 302.007Z" fill="#CAD6E1"/>
<path d="M115.829 288.826V287.271H109.174V281.391H99.4903C101.133 281.391 103.794 281.334 104.134 281.334C104.616 281.334 107.334 282.357 107.334 282.357C107.334 282.357 107.73 280.712 107.334 280.175C107.249 280.034 106.852 279.864 106.683 279.779C106.513 279.694 106.343 279.327 106.145 279.214C106.031 279.157 105.635 278.846 105.267 278.592C104.899 278.309 104.474 278.139 104.021 278.111C103.115 278.026 101.642 277.885 101.557 277.8C101.444 277.687 100.566 275.68 100.255 275.312C98.2727 272.966 94.3651 264.089 94.3651 264.089C94.3651 264.089 95.0164 263.523 95.3562 263.382C95.696 263.269 96.7437 261.657 96.8853 261.46C96.9985 261.262 97.3666 260.725 97.5365 260.47C97.7064 260.216 97.9046 259.254 98.3011 258.632C98.7258 258.011 98.7258 256.993 98.7258 256.427C98.7258 255.862 98.9806 254.25 98.8107 254.024C98.6408 253.77 99.7452 253.629 99.8867 253.402C100 253.204 100 252.215 100 252.215L100.198 251.367C100.198 251.367 100.623 251.706 100.68 251.819C100.765 251.932 101.303 251.706 101.501 251.282C101.699 250.858 102.322 249.444 102.407 249.19C102.492 248.936 103.341 249.077 103.341 249.077C103.341 249.077 103.596 248.596 103.766 248.879C103.936 249.162 104.389 248.879 104.502 248.709C104.616 248.54 104.757 247.607 104.757 247.607C104.757 247.607 105.295 247.07 105.38 246.9C105.465 246.73 105.861 245.684 105.861 245.43C105.861 245.176 106.314 245.769 106.513 245.713C106.711 245.656 107.221 244.808 107.419 244.638C107.617 244.469 107.872 243.055 107.9 242.829C107.928 242.631 108.523 241.472 108.608 241.02C108.693 240.567 109.316 238.108 109.344 237.712C109.373 237.316 109.174 235.761 109.146 235.366C109.089 234.913 108.948 233.132 108.863 232.595C108.806 232.114 108.41 231.125 108.042 230.475C107.674 229.824 107.107 228.948 107.107 228.948L107.447 227.93C107.447 227.93 107.475 227.648 107.787 227.393C108.098 227.139 108.042 227.054 108.042 226.743C108.042 226.432 107.334 226.262 107.334 226.262C107.334 226.262 107.249 225.867 107.221 225.725C107.192 225.612 107.617 224.651 107.617 224.368C107.617 224.085 107.532 223.661 107.532 223.209C107.532 222.757 106.626 223.096 106.145 223.096C105.663 223.096 105.663 222.446 105.607 222.191C105.578 221.937 105.89 221.343 105.89 220.891C105.89 220.439 105.89 220.382 105.776 220.354C105.692 220.354 105.012 220.354 104.559 220.41C104.106 220.467 103.483 220.665 103.256 220.721C103.03 220.778 103.001 220.212 103.001 220.212L103.398 219.308H102.86C102.86 219.308 102.747 219.025 102.662 218.855C102.577 218.686 102.18 218.12 102.067 217.979C101.954 217.838 101.274 218.375 101.274 218.375L101.019 218.149C101.019 218.149 100.906 217.611 100.906 217.385C100.906 217.159 100.566 217.018 100.566 217.018C100.566 217.018 100.623 216.565 100.595 216.396C100.595 216.198 100.17 216.226 100.17 216.226C100.17 216.226 99.8301 216.113 99.7168 216.113C99.6036 216.113 99.2072 216.368 98.8674 216.311C98.3011 216.254 96.0075 216 95.4411 216C94.8748 216 94.2236 216.452 94.2236 216.452C94.2236 216.452 93.4307 217.385 93.4024 217.074C93.3741 216.735 92.6662 216.537 92.2414 216.537C91.8167 216.537 91.4203 216.82 91.1371 216.933C90.854 217.046 90.6841 216.961 90.5142 217.018C90.3443 217.046 89.8912 217.187 89.5797 217.414C89.2399 217.668 88.8718 218.431 88.8718 218.431H87.8525C87.4844 218.431 87.003 218.714 86.5782 218.884C86.1535 219.053 85.1341 220.071 84.8227 220.241C84.4829 220.41 84.2847 221.456 84.1148 221.88C83.9449 222.276 83.5768 222.785 83.5768 222.785C83.5768 222.785 83.2086 222.87 83.0954 222.955C82.9821 223.039 81.8212 224.538 81.623 224.792C81.4247 225.047 81.538 225.584 81.538 225.584C81.538 225.584 81.5097 225.923 81.1982 226.206C80.9151 226.489 79.8107 228.326 79.7541 228.609C79.7258 228.892 78.6781 230.135 78.6781 230.135L77.3756 231.21C77.3756 231.21 75.9881 232.284 75.4501 232.397C74.9121 232.51 74.1759 233.556 74.006 233.669C73.8361 233.782 73.1848 233.867 72.7884 234.009C72.392 234.122 71.769 235.196 71.4858 235.168C71.2027 235.139 70.5797 235.366 70.0134 235.62C69.4471 235.874 67.918 236.581 67.918 236.581C67.918 236.581 66.1058 236.355 64.69 236.157C63.2742 235.959 56.0537 236.383 52.1744 236.638C48.2951 236.92 37.2519 238.051 37.2519 238.051C37.2519 238.051 34.9583 237.825 33.7124 237.995C32.4665 238.164 26.8033 239.776 25.0477 240.454C21.3949 241.868 19.073 243.79 14.7407 248.031C10.2385 252.413 9.0775 260.47 9.21908 263.495C9.33234 266.633 14.769 270.252 14.9955 270.365C14.854 270.761 14.8256 270.902 14.6557 271.156C14.5142 271.411 13.8063 272.683 13.5797 273.192C13.3815 273.729 13.608 275.114 13.8912 275.425C15.0522 276.726 16.3547 274.662 16.3547 274.662C16.3547 274.662 16.6095 275.369 16.6095 275.567C16.6095 275.765 16.6945 276.641 16.6945 277.037C16.6945 277.433 17.8554 279.525 17.9687 281.447H15.0238V287.327H8.14307V288.882H5L6.18927 290.437H6.52906V345H117.471V290.437H117.811L119 288.882H115.857L115.829 288.826ZM51.1833 267.764C51.5231 266.096 52.231 261.431 52.3443 260.018C52.3443 259.763 52.769 258.915 52.769 258.915C52.769 258.915 57.5827 260.47 61.5186 261.403C63.3875 261.855 67.3234 260.781 67.3234 260.781C67.3234 260.781 67.0119 261.968 66.9553 262.59C66.7571 264.739 66.4456 272.033 66.2474 272.824C66.0209 273.757 64.9732 274.662 64.8316 275.341C64.775 275.68 65.5395 276.556 65.5395 276.556C65.5395 276.556 66.0775 278.959 65.9926 279.638C65.9076 280.288 65.7094 282.244 65.7094 282.244H66.0775L74.6856 282.3C74.6856 282.3 74.8271 280.09 74.8271 279.949C74.8271 279.807 74.1192 279.27 73.7794 279.072C73.4396 278.874 72.0238 278.168 71.6557 278.139C70.8063 278.083 70.8063 276.245 70.8063 276.245C70.8063 276.245 71.2593 274.888 71.2876 274.606C71.316 274.323 72.0238 273.22 72.1937 272.853C72.3636 272.485 72.307 271.383 72.5335 270.93C72.7318 270.478 73.2698 269.743 73.4396 269.291C73.6095 268.838 76.1863 264.371 76.1863 264.371C76.1863 264.371 77.2623 264.23 78.3666 264.541C78.848 266.379 80.9717 266.661 81.5946 266.548C81.9061 266.492 83.9732 265.926 83.9732 265.926C83.9732 265.926 85.6438 267.792 86.6066 268.725C87.7109 269.799 93.3174 275.001 93.9121 275.652C94.1669 275.934 94.8465 277.206 94.9314 277.546C95.0164 277.885 95.8376 278.846 96.0075 279.101C96.1774 279.355 97.31 279.355 97.31 279.355C97.31 279.355 98.0745 280.542 98.0745 280.797C98.0745 281.051 98.2161 281.334 98.2444 281.362H60.0179C60.0179 281.362 60.0179 279.694 59.9329 279.327C59.848 278.959 59.2817 278.252 58.9419 278.055C58.6021 277.857 57.8942 277.291 57.5261 277.263C57.158 277.235 55.8554 277.206 55.6855 277.404C55.5157 277.602 54.8361 277.546 54.4963 277.517C53.93 277.517 50.3905 273.022 50.3905 273.022C50.3905 273.022 50.4471 272.174 50.3905 271.863C50.3338 271.411 50.1923 270.676 50.1923 270.506C50.1923 270.337 51.155 268.047 51.2399 267.736L51.1833 267.764ZM16.2414 268.697C16.2414 268.697 11.994 267.057 11.3711 262.59C11.003 259.989 13.0134 255.325 15.0238 252.017C17.0343 248.681 18.9314 247.324 22.6975 245.091C26.4635 242.857 29.6349 244.356 29.6349 244.356C29.6349 244.356 28.9836 245.713 28.389 246.589C27.7943 247.465 25.2176 251.989 24.8778 252.978C24.538 253.968 22.6408 259.198 22.4709 260.018C22.301 260.838 21.8197 263.184 21.8197 263.184C21.8197 263.184 19.7526 265.926 19.5827 266.068C19.4128 266.237 17.997 267.255 17.5156 267.651C17.0343 268.047 16.2697 268.697 16.2697 268.697H16.2414ZM26.0954 280.373C26.0671 279.92 25.4724 279.751 25.3592 279.666C25.2459 279.581 24.5946 278.846 24.4531 278.818C24.3115 278.79 23.4337 278.62 22.8674 278.705C22.301 278.79 21.763 279.185 21.763 279.185L21.4799 278.79C21.4799 278.79 21.6215 277.913 21.5648 277.631C21.1401 275.341 22.6692 273.051 22.839 272.853C23.0089 272.655 25.614 270.732 26.152 270.478C26.69 270.224 29.5499 268.669 30.2012 268.301C30.8525 267.934 33.6557 264.937 34.1371 264.569C34.6185 264.202 36.0909 262.732 36.7705 262.619C37.4218 262.506 38.1297 261.686 38.1297 261.686C38.1297 261.686 39.0641 262.619 39.2057 262.873C39.3472 263.128 40.9613 264.4 41.2444 264.909C41.5276 265.446 42.6885 268.867 42.7168 269.291C42.7452 269.715 42.2355 270.987 42.1505 271.383C41.8674 272.74 47.0775 277.772 47.389 278.083C47.7288 278.422 50.1356 279.355 50.3338 279.44C50.532 279.525 51.07 279.92 51.07 280.288C51.07 280.655 50.9851 281.334 50.9851 281.334H23.7735C25.1043 281.334 26.152 282.357 26.152 282.357C26.152 282.357 26.152 280.797 26.1237 280.345L26.0954 280.373Z" fill="#FAFAFA"/>
<path d="M233.76 340.149C233.649 339.458 232.295 338.186 232.295 338.186C232.295 338.186 231.991 266.178 231.991 263.551C231.991 260.925 231.024 258.576 229.946 257.581C228.868 256.613 224.778 253.683 223.314 253.379C221.849 253.075 219.03 254.457 218.229 254.733C217.455 255.038 216.073 259.212 215.41 261.064C215.106 261.921 214.415 263.33 213.752 264.602C213.475 265.127 213.006 295.727 212.563 295.921C211.79 296.253 211.347 296.446 210.767 296.446C209.745 294.262 211.209 266.73 211.209 266.15C211.209 265.569 208.584 258.244 208.473 256.973C208.363 255.701 207.119 248.68 206.511 247.104C205.903 245.529 204.162 244.948 202.615 244.561C201.039 244.174 195.982 243.594 195.015 243.594C194.048 243.594 187.995 243.981 185.066 244.561C182.137 245.142 166.246 243.981 165.251 243.981C164.257 243.981 160.277 242.902 158.121 242.433C155.966 241.935 148.947 240 148.173 240C147.399 240 141.927 242.626 141.347 242.626C140.766 242.626 136.179 243.124 135.488 242.626C134.797 242.128 128.662 242.046 127.197 242.046C125.733 242.046 120.952 243.4 120.952 243.4C120.952 243.4 117.829 243.013 116.751 242.902C115.673 242.792 112.081 245.916 111.003 246.911C109.925 247.878 107.77 255.397 107.77 256.558C107.77 257.719 103.099 261.036 103.099 261.036C103.099 261.036 96.6602 261.34 96.2733 261.34C95.8864 261.34 91.6029 261.534 90.608 261.534C90.4422 261.534 90.2211 261.616 90 261.699V338.96C92.9846 338.96 95.6376 339.016 96.1627 339.016C97.4339 339.016 108.654 343.107 111.003 343.107C113.352 343.107 142.507 339.32 145.133 339.32C147.758 339.32 165.804 340.674 167.186 340.481C168.54 340.287 195.872 343.024 197.143 343.107C198.414 343.217 231.494 344.765 231.494 344.765L233.926 343.494C233.926 343.494 233.815 340.757 233.732 340.066L233.76 340.149ZM162.792 334.676C162.101 335.588 160.222 337.081 157.265 337.025C156.353 337.025 152.511 334.842 151.876 334.261C151.71 334.095 150.522 331.193 150.826 330.142C150.936 329.838 153.727 323.895 154.308 322.955C154.888 322.016 157.624 318.256 158.785 318.754C159.973 319.251 162.82 324.282 162.847 326.328C162.875 328.373 163.428 333.791 162.764 334.703L162.792 334.676ZM182.772 293.516C182.717 294.097 180.727 293.737 180.147 293.737C179.567 293.737 178.157 296.418 177.632 296.474C177.107 296.529 174.509 296.695 173.349 296.695C172.188 296.695 165.611 294.76 165.611 294.76C165.611 294.76 165.445 293.571 165.445 293.101C165.445 292.631 165.39 287.02 165.39 285.97C165.39 284.919 165.555 269.578 165.39 267.449C165.224 265.348 167.545 262.612 168.457 261.368C169.369 260.124 172.354 259.184 173.653 258.963C175.311 258.686 176.112 260.4 176.554 260.787C177.024 261.174 180.423 264.16 180.838 264.878C181.225 265.625 181.473 269.882 181.473 270.849C181.473 271.817 181.86 278.893 182.385 279.861C182.911 280.828 182.855 292.908 182.772 293.461V293.516Z" fill="#FAFAFA"/>
</g>
</svg>
