<svg width="245" height="359" viewBox="0 0 245 359" fill="none" xmlns="http://www.w3.org/2000/svg">
<circle cx="121.881" cy="226.196" r="114.398" fill="#203347"/>
<mask id="mask0_2304_249843" style="mask-type:alpha" maskUnits="userSpaceOnUse" x="7" y="26" width="230" height="315">
<path fill-rule="evenodd" clip-rule="evenodd" d="M236.187 26H10.187V189H13.6663C9.65891 200.661 7.4834 213.174 7.4834 226.196C7.4834 289.376 58.701 340.593 121.881 340.593C185.061 340.593 236.279 289.376 236.279 226.196C236.279 213.174 234.103 200.661 230.096 189H236.187V26Z" fill="#C4C4C4"/>
</mask>
<g mask="url(#mask0_2304_249843)">
<path d="M156.426 281.451V279.375H218.412V267.504C211.441 267.352 168.601 267.276 168.171 267.276H167.717C158.421 267.352 156.906 267.58 156.653 267.656L156.476 266.972L155.643 265.859C156.021 265.58 156.4 265.302 167.691 265.2H168.121C168.5 265.2 210.759 265.251 218.412 265.428V253.557C210.557 253.203 168.399 253.101 167.994 253.101H167.666C158.345 253.253 156.88 253.734 156.678 253.835L155.491 252.14C155.895 251.836 156.754 251.203 167.616 251.026H167.944C168.298 251.026 209.875 251.127 218.412 251.481V239.61C209.496 239.079 168.247 238.901 167.843 238.901H167.565C158.118 239.104 156.729 239.965 156.602 240.041L155.365 238.37C155.794 238.041 157.158 237.028 167.54 236.801H167.792C167.792 236.801 167.843 236.801 167.919 236.801C170.293 236.801 209.117 236.978 218.438 237.484V225.638C208.536 224.929 169.636 224.651 167.691 224.702C158.977 224.929 156.906 225.992 156.476 226.296L155.238 224.626C156.805 223.461 160.922 222.778 167.489 222.601C167.969 222.575 207.728 222.803 218.463 223.537V211.691C207.298 210.805 169.106 210.426 167.54 210.502C161.983 210.653 157.891 211.413 156.35 212.552L155.112 210.881C157.562 209.059 163.195 208.527 167.489 208.426C169.106 208.375 206.768 208.704 218.488 209.616V197.77C205.808 196.681 168.727 196.302 167.388 196.327C162.16 196.479 158.194 197.365 156.224 198.833L154.986 197.162C157.941 194.935 163.347 194.353 167.338 194.251C168.651 194.251 205.505 194.606 218.513 195.669V183.823C204.52 182.557 169.283 182.102 167.237 182.152C162.362 182.279 158.522 183.317 156.097 185.114L154.86 183.443C157.613 181.368 161.882 180.203 167.186 180.077C169.283 180.026 204.318 180.482 218.539 181.747V169.901C203.156 168.433 169.131 167.927 167.085 167.978C165.393 168.028 160.29 168.155 155.971 171.395L154.733 169.724C159.583 166.105 165.191 165.953 167.035 165.902C169.081 165.852 202.979 166.358 218.539 167.826V155.98C201.64 154.335 168.954 153.752 166.908 153.803C163.877 153.879 160.189 154.411 155.819 157.676L154.582 156.005C159.432 152.386 163.7 151.803 166.858 151.728C169.333 151.652 192.774 152.107 209.976 153.221V146.539L214.977 144.969V142.666L167.035 143.527V141.375H150.288V299.371H218.539V281.501H156.552L156.426 281.451Z" fill="#CAD6E1"/>
<path d="M117.98 180.824C106.226 180.484 62.3699 182.236 49.6938 186.08V205.742C62.7828 202.822 110.33 201.508 117.907 201.727C120.821 201.8 133.424 202.263 139.204 203.99V184.182C136.581 182.455 126.285 181.043 117.98 180.824V180.824Z" fill="#CAD6E1"/>
<path d="M139.204 253.218C136.824 252.975 130.34 252.805 119.801 252.683C118.611 252.683 117.81 252.683 117.518 252.659C113.754 252.537 58.3633 253.583 49.7183 254.484V274.389L139.204 273.294V253.194V253.218Z" fill="#CAD6E1"/>
<path d="M118.125 156.88C104.745 156.49 64.9197 158.34 49.6938 163.377V182.966C64.4583 178.951 108.072 177.539 118.053 177.807C118.222 177.807 132.623 178.245 139.179 180.897V161.333C136.022 158.729 126.406 157.123 118.125 156.904V156.88Z" fill="#CAD6E1"/>
<path d="M117.737 225.696C130.704 226.061 136.484 226.572 139.179 227.083V207.129C136.678 206.034 126.309 205.012 117.81 204.769C108.63 204.501 60.3787 206.034 49.6938 208.857V228.592C61.7629 226.621 113.341 225.574 117.737 225.696V225.696Z" fill="#CAD6E1"/>
<path d="M117.591 249.641C117.858 249.641 118.684 249.641 119.825 249.666C131.384 249.787 136.678 249.958 139.204 250.201V230.15C137.747 229.809 133.036 229.152 117.883 228.714C111.472 228.519 58.8245 229.833 49.6938 231.634V251.466C61.2286 250.347 115.891 249.617 117.543 249.617H117.567L117.591 249.641Z" fill="#CAD6E1"/>
<path d="M56.0805 112.713C75.4589 107.408 100.471 105.462 118.538 105.948C124.439 106.119 129.102 106.824 132.89 108.163C133.084 108.017 135.561 105.948 135.561 103.028C135.561 100.863 135.148 90.9099 123.759 87.6248C105.182 82.247 53.2393 102.566 53.2393 102.566V105.632H56.1047V112.738L56.0805 112.713Z" fill="#CAD6E1"/>
<path d="M118.295 132.935C100.083 132.424 66.5953 134.833 49.6938 140.624V160.213C65.9397 155.298 104.964 153.497 118.222 153.862C119.874 153.911 132.647 154.373 139.204 157.756V138.483C135.755 135.222 128.227 133.203 118.295 132.935V132.935Z" fill="#CAD6E1"/>
<path d="M49.6938 277.43V290.255H139.204V276.335L49.6938 277.43Z" fill="#CAD6E1"/>
<path d="M138.791 115.244C134.444 111.107 128.446 109.258 118.441 108.99C98.2127 108.43 69.3394 110.961 49.6938 117.872V137.437C68.5623 131.304 103.288 129.504 118.368 129.917C127.547 130.185 134.735 131.864 139.179 134.711V115.706C139.179 115.706 139.009 115.512 138.791 115.244Z" fill="#CAD6E1"/>
<path d="M207.24 257.857H145.944V287.516H207.24V257.857Z" fill="#203347"/>
<path d="M157.066 238.965H145.944V253.754H157.066V238.965Z" fill="#203347"/>
<path d="M223.102 238.965H211.98V253.754H223.102V238.965Z" fill="#203347"/>
<path d="M267.351 328.321L265.251 327.376L260.861 327.754L258.195 328.699L255.717 327.754L252.108 328.887L249.253 328.321L248.122 326.593V320.278L249.253 318.362V316.068L246.022 315.124L241.255 314.935L235.168 314.557L231.936 313.613L224.988 313.37V228.305L223.157 228.818H220.706V230.302H218.255V228.818L215.885 228.305L214.323 228.926V231.193H211.872V228.737L210.122 228.305L209.26 228.737L204.897 230.491V235.322H202.635V233.298H198.164L195.713 234.782V246.252L194.232 248.276L187.338 248.195V249.598L184.025 250.111L181.843 249.059V246.171L179.824 246.441L178.423 247.304V248.627H175.272L174.141 247.061L171.771 246.63L169.401 247.493L168.701 248.708H166.088V246.252L164.338 244.768L159.356 244.606V228.305H154.104V231.112H150.684V228.305H146.401L143.789 229.709V235.214L140.369 235.052L137.999 234.701H134.336V274.211H129.004V276.478H126.472V273.941H122.971L116.049 276.91V310.536H104.523L101.668 312.533L99.3788 321.871L97.6552 324.839C97.6552 324.839 96.0393 337.328 96.0393 340H269.829V330.561L267.351 328.267V328.321ZM150.199 244.309L151.276 242.582L153.377 242.663L154.185 244.39V248.492H150.091L150.172 244.309H150.199ZM154.858 285.519H151.438V281.578C151.438 280.634 152.192 279.284 153.161 279.284C154.131 279.284 154.885 280.067 154.885 281.012V285.519H154.858ZM154.966 269.191H151.545V265.251C151.545 264.306 152.326 262.957 153.269 262.957C154.212 262.957 154.993 263.74 154.993 264.684V269.191H154.966ZM172.606 285.222H169.186V281.282C169.186 280.337 169.967 278.988 170.909 278.988C171.852 278.988 172.633 279.77 172.633 280.715V285.222H172.606ZM172.714 268.894H169.293V264.954C169.293 264.01 170.074 262.66 171.017 262.66C171.96 262.66 172.741 263.443 172.741 264.387V268.894H172.714ZM195.956 266.007C195.956 265.062 196.737 263.713 197.679 263.713C198.622 263.713 199.403 264.495 199.403 265.44V269.947H195.983V266.007H195.956ZM199.484 285.492H196.063V281.551C196.063 280.607 196.817 279.257 197.787 279.257C198.757 279.257 199.511 280.04 199.511 280.985V285.492H199.484ZM218.255 248.465H214.161L214.242 244.282L215.319 242.555L217.42 242.636L218.228 244.363V248.465H218.255Z" fill="#FAFAFA"/>
<path d="M152.346 195.974H150.434V234.35H152.346V195.974Z" fill="#FAFAFA"/>
<path d="M151.054 204.259C146.96 200.832 144.887 207.687 140.793 204.259C140.793 201.534 140.793 200.184 140.793 197.459C144.887 200.886 146.96 194.031 151.054 197.459C151.054 200.184 151.054 201.534 151.054 204.259Z" fill="#FAFAFA"/>
<path d="M151.404 197.216C152.118 197.216 152.697 196.636 152.697 195.92C152.697 195.205 152.118 194.625 151.404 194.625C150.69 194.625 150.111 195.205 150.111 195.92C150.111 196.636 150.69 197.216 151.404 197.216Z" fill="#FAFAFA"/>
<path d="M87.9685 245.255H69.4841V286.559H87.9685V245.255Z" fill="#203347"/>
<path d="M49.3612 276.81L45.7002 291.176V327.042H53.0223V291.176L49.3612 276.81Z" fill="#FAFAFA"/>
<path d="M107.682 276.81L104.046 291.176V327.042H111.343V291.176L107.682 276.81Z" fill="#FAFAFA"/>
<path d="M144.548 286.481H93.6777V343.743H144.548V286.481Z" fill="#FAFAFA"/>
<path d="M63.9031 286.481H12.5205V343.743H63.9031V286.481Z" fill="#FAFAFA"/>
<path d="M93.5241 260.006V253.156L89.7863 248.513L78.5472 201L67.308 248.513L63.5702 253.156V260.006H58.9363V343.769H98.1836V260.006H93.5497H93.5241ZM87.2773 273.013V282.967H81.3633V273.013C81.3633 270.601 84.3331 269.036 84.3331 269.036C84.3331 269.036 87.3029 270.627 87.3029 273.013H87.2773ZM78.5216 247.179C81.0049 247.179 83.0531 249.205 83.0531 251.719C83.0531 254.234 81.0305 256.26 78.5216 256.26C76.0126 256.26 73.9901 254.234 73.9901 251.719C73.9901 249.205 76.0126 247.179 78.5216 247.179ZM69.7658 273.013C69.7658 270.601 72.7356 269.036 72.7356 269.036C72.7356 269.036 75.7054 270.627 75.7054 273.013V282.967H69.7914V273.013H69.7658ZM89.0438 338.407H67.9737V321.911C67.9737 316.087 73.1452 313.445 78.496 311.367C83.8467 313.445 89.0182 316.087 89.0182 321.911V338.407H89.0438Z" fill="#FAFAFA"/>
</g>
</svg>
