<svg width="244" height="359" viewBox="0 0 244 359" fill="none" xmlns="http://www.w3.org/2000/svg">
<circle cx="122.398" cy="226.196" r="114.398" fill="#203347"/>
<mask id="mask0_837_180139" style="mask-type:alpha" maskUnits="userSpaceOnUse" x="8" y="25" width="229" height="316">
<path fill-rule="evenodd" clip-rule="evenodd" d="M236.795 25.8213H33.3225V154.409C17.4834 174.038 8 199.009 8 226.196C8 289.376 59.2176 340.593 122.398 340.593C185.578 340.593 236.795 289.376 236.795 226.196C236.795 207.212 232.171 189.308 223.988 173.549H236.795V25.8213Z" fill="#C4C4C4"/>
</mask>
<g mask="url(#mask0_837_180139)">
<path d="M169.561 237.753H165.129C164.983 237.622 164.818 237.514 164.639 237.433H162.508C162.333 237.519 162.168 237.627 162.018 237.753H160.058C160.251 237.55 160.395 237.307 160.48 237.041C160.566 236.775 160.59 236.493 160.551 236.217C160.512 235.94 160.411 235.676 160.255 235.444C160.1 235.212 159.894 235.018 159.653 234.876C159.462 234.066 158.95 232.213 158.673 232.213C158.396 232.213 157.885 234.066 157.672 234.876C157.397 235.044 157.169 235.279 157.009 235.558C156.849 235.837 156.762 236.152 156.755 236.474C156.766 236.948 156.947 237.402 157.267 237.753H149.617L149.745 238.136L147.785 239.415L147.252 237.753H145.121L146.208 240.693L144.077 243.484L141.52 235.388C141.426 235.603 141.375 235.834 141.371 236.069C141.377 236.365 141.451 236.656 141.588 236.918C141.725 237.181 141.92 237.408 142.16 237.582V237.753H139.709L142.288 245.786L139.901 248.875L136.961 240.075L139.091 237.753H132.166L128.161 241.034L125.476 237.667H123.175V234.876L122.237 233.704L123.175 232.831V225.075C123.193 225.012 123.193 224.945 123.175 224.883L118.721 228.995L114.46 225.075V225.543H112.329V217.596L109.474 220.834L105.021 218.981L109.474 210.905L112.095 212.524V211.438H110.838V173.51H112.095V170.548H112.819L116.292 165.712V163.091H111.093V157.295H107.364V149.837H104.424V137.799C104.424 127.933 98.6283 119.687 90.8936 117.769V113.977H91.7246V110.546H90.7658V104.154H91.7246V102.172H91.405C91.4144 102.102 91.4144 102.03 91.405 101.959C91.4001 101.075 91.1028 100.217 90.5593 99.5194C90.0159 98.8218 89.2569 98.3236 88.4006 98.1025V93.1592H86.3977V98.0812C85.5568 98.3132 84.8147 98.8133 84.2839 99.5055C83.7532 100.198 83.463 101.044 83.4572 101.917C83.4572 101.917 83.4572 102.044 83.4572 102.13H83.1589V104.111H84.1178V110.504H83.1589V113.934H83.9899V117.727C76.2553 119.645 70.4383 127.891 70.4383 137.756V149.837H67.5831V157.295H63.8116V163.091H58.5913V165.712L62.0644 170.548H62.7889V173.51H64.046V211.353H62.7889V213.334H60.3811V214.314L62.0218 216.104H62.5545V225.565H60.4237V225.096C60.4237 224.734 59.9549 224.414 59.1879 224.158V223.029H59.337C59.4387 223.029 59.5363 222.989 59.6082 222.917C59.6802 222.845 59.7206 222.747 59.7206 222.646C59.7206 222.544 59.6802 222.446 59.6082 222.374C59.5363 222.302 59.4387 222.262 59.337 222.262H59.06V221.857C59.187 221.774 59.2908 221.66 59.3616 221.526C59.4324 221.392 59.4679 221.242 59.4649 221.09C59.4611 220.932 59.4183 220.777 59.3402 220.64C59.2621 220.502 59.1512 220.386 59.0174 220.302C58.9109 219.897 58.6552 218.959 58.506 218.959C58.3569 218.959 58.1225 219.897 58.0159 220.302C57.8779 220.381 57.7637 220.496 57.685 220.635C57.6064 220.774 57.5661 220.931 57.5685 221.09C57.5668 221.239 57.6007 221.387 57.6674 221.52C57.7341 221.654 57.8317 221.769 57.952 221.857V222.347H57.8242C57.7225 222.347 57.6249 222.388 57.553 222.46C57.4811 222.532 57.4406 222.629 57.4406 222.731C57.4406 222.833 57.4811 222.93 57.553 223.002C57.6249 223.074 57.7225 223.114 57.8242 223.114H57.952V223.988C56.6384 223.789 55.3024 223.789 53.9888 223.988V223.114H54.138C54.2397 223.114 54.3372 223.074 54.4092 223.002C54.4811 222.93 54.5215 222.833 54.5215 222.731C54.5215 222.629 54.4811 222.532 54.4092 222.46C54.3372 222.388 54.2397 222.347 54.138 222.347H53.9888V221.857C54.1118 221.77 54.2126 221.655 54.2829 221.522C54.3533 221.389 54.3912 221.241 54.3937 221.09C54.3917 220.929 54.3473 220.771 54.265 220.633C54.1827 220.495 54.0654 220.38 53.9249 220.302C53.8183 219.897 53.5627 218.959 53.4348 218.959C53.307 218.959 53.03 219.897 52.9234 220.302C52.7913 220.384 52.6823 220.499 52.6068 220.635C52.5312 220.771 52.4916 220.924 52.4916 221.079C52.4916 221.235 52.5312 221.388 52.6068 221.524C52.6823 221.66 52.7913 221.775 52.9234 221.857V222.347H52.7743C52.6726 222.347 52.575 222.388 52.5031 222.46C52.4312 222.532 52.3907 222.629 52.3907 222.731C52.3907 222.833 52.4312 222.93 52.5031 223.002C52.575 223.074 52.6726 223.114 52.7743 223.114H52.9234V224.244C52.1564 224.499 51.6876 224.819 51.6876 225.181V237.859H48.0653V237.412C48.3045 237.238 48.5002 237.01 48.637 236.748C48.7737 236.485 48.8479 236.195 48.8537 235.899C48.8535 235.576 48.7688 235.258 48.6081 234.978C48.4474 234.698 48.2162 234.464 47.9374 234.301C47.7457 233.491 47.2343 231.637 46.9573 231.637C46.6803 231.637 46.1689 233.491 45.9558 234.301C45.6892 234.458 45.4661 234.68 45.3071 234.945C45.148 235.211 45.058 235.512 45.0453 235.822C45.0326 236.131 45.0976 236.438 45.2343 236.716C45.371 236.994 45.5751 237.233 45.828 237.412V237.859H32.7451V257.036H42.5679V260.616H43.2711V261.852H44.1447V309.495H43.1858V310.731H42.4827V314.673H50.0469V310.731H49.3651V309.495H48.4062V261.809H49.3864V260.573H50.0682V256.993H56.2048V260.573H56.9293V261.809H57.8881V309.453H56.9293V310.689H56.2261V314.631H63.7903V310.689H63.1085V309.453H62.1283V261.809H63.1085V260.573H63.7903V256.993H69.9269V260.573H70.6301V261.809H71.5889V309.453H70.6301V310.689H69.9269V314.631H77.4911V310.689H76.8093V309.453H75.8291V261.809H76.8093V260.573H77.4911V256.993H83.6277V260.573H84.3309V261.809H85.0979L86.7599 256.802L88.4858 259.231L86.3551 271.632L85.3323 266.348V300.312L88.912 299.758L89.1038 309.218H85.3536V309.623H84.3735V310.859H83.6703V314.801H91.2345V310.859H90.5527V309.623H89.5725V261.809H90.5527V260.573H91.2345V256.993H91.5115L93.6423 250.601L96.05 253.35L95.283 256.993H97.4137V260.573H97.6694V260.317V260.573H97.9677V261.596V261.809H98.884V264.941L100.461 270.396L98.884 277.981V309.453H97.9038V310.689H97.4137V314.631H99.8854V298.011L103.295 297.542V290.276L101.974 290.446L99.374 291.235L102.506 277.939L103.295 280.24V261.809H104.275V260.573H104.957V256.993H108.494L109.367 254.053L110.624 256.993H111.093V258.08L112.67 261.809V261.979L114.971 267.349L112.67 272.655V288.55L116.932 279.047V261.809H117.912V260.573H118.721V258.187L112.329 244.912L118.721 237.327L125.114 244.912L119.361 256.993H124.794V260.573H125.284L128.075 254.053L130.675 262.874V261.809H131.655V260.573H132.337V256.993H133.637L130.739 246.489L134.787 242.739L137.962 251.262L136.364 256.93H138.495V260.509H139.177V261.745H139.305L139.752 260.254L140.05 261.745V262.342L142.415 273.699L140.157 283.649V309.432H139.177V310.667H138.495V314.609H146.038V310.667H145.356V309.432H144.29V309.218H140.668V298.565L144.29 299.161V292.662L142.16 292.172L144.013 284.928L144.44 287.165V266.475L144.205 267.562L141.499 253.35L143.907 250.601L146.038 257.377V257.057H150.683V256.802V256.993H152.11V260.573H152.814V261.809H153.794V273.869L154.859 280.261L153.794 286.036V309.474H152.814V310.71H152.132V314.652H159.696V310.71H158.993V309.474H158.013V261.809H158.993V260.573H159.696V256.993H169.497L169.561 237.753ZM62.5545 237.753H60.4237V228.249H62.5545V237.753ZM106.81 225.629L102.549 234.791L99.5445 231.808L102.805 223.988L106.81 225.629ZM102.165 211.353V173.51H103.422V170.548H106.406V173.51H107.663V211.353H106.406V213.334H104.083L102.57 216.296L100.439 215.529L102.187 211.267L102.165 211.353ZM97.4137 230.721L94.9207 229.443L97.6907 221.538L100.354 222.688L97.4137 230.721ZM93.1522 228.59L91.1493 227.482L93.7275 220.025L95.6665 220.792L93.1522 228.59ZM94.5585 170.655H97.5629V173.617H98.82V211.353H97.5629V213.334H94.7077V211.374H93.4505V173.51H94.7077L94.5585 170.655ZM86.0355 105.752C86.4579 105.912 86.9048 105.999 87.3565 106.008C87.8014 105.999 88.2413 105.912 88.6563 105.752V110.653H86.142L86.0355 105.752ZM72.3773 211.353H71.1201V213.334H68.4993V211.374H67.2421V173.51H68.4993V170.548H71.1201V173.51H72.3773V211.353ZM74.3376 289.637L73.5918 284.885L74.4867 279.409L75.2538 283.458L74.3376 289.637ZM80.9856 211.353H79.7284V213.334H76.8306V211.374H75.5734V173.51H76.8306V170.548H79.7284V173.51H80.9856V211.353ZM87.3778 143.616C88.617 143.599 89.8332 143.951 90.8715 144.628C91.9098 145.304 92.7232 146.274 93.2082 147.415C93.6932 148.555 93.8278 149.814 93.5949 151.032C93.362 152.249 92.7721 153.369 91.9003 154.25C91.0286 155.131 89.9144 155.732 88.6996 155.978C87.4849 156.223 86.2246 156.101 85.0792 155.628C83.9338 155.155 82.9552 154.352 82.2679 153.32C81.5806 152.289 81.2158 151.077 81.2199 149.837C81.2256 148.185 81.8858 146.603 83.056 145.437C84.2262 144.27 85.811 143.616 87.4631 143.616H87.3778ZM87.3778 213.313H85.2471V211.353H83.9899V173.51H85.2471V170.548H88.8268V173.51H90.0839V211.353H88.8268V213.334L87.3778 213.313ZM87.8892 231.19L86.3764 235.984L85.2045 235.132L86.7599 230.38L87.8892 231.19ZM83.5638 245.573L82.4984 244.592L83.7769 240.501L84.8635 241.354L83.5638 245.573ZM86.3764 249.131L85.2045 248.087L86.5895 243.676L87.7401 244.592L86.3764 249.131ZM87.6975 238.136L89.9774 231.531L91.7885 232.703L89.6578 239.415L87.6975 238.136ZM89.8282 254.053L88.4858 252.05L89.9987 246.958L91.4263 248.875L89.8282 254.053ZM93.344 243.399L91.2132 240.608L93.7914 234.003L95.9222 235.174L93.344 243.399ZM97.6055 248.79L95.2191 245.7L97.9677 237.177L100.546 239.947L97.6055 248.79ZM102.485 261.788L99.5019 251.134L102.677 242.611L106.725 246.361L102.485 261.788ZM114.46 237.753H112.329V237.263L109.282 241.034L104.765 237.241L109.602 228.484L112.329 231.083V228.249H114.46V233.022L115.142 233.64L114.46 234.642V237.753ZM147.529 254.053L145.931 248.875L147.359 246.958L148.872 252.05L147.529 254.053ZM151.002 249.131L149.639 244.592L150.789 243.676L152.174 248.087L151.002 249.131ZM152.814 255.395L153.559 254.415L153.687 258.421L152.814 255.395ZM153.794 245.573L152.515 241.311L153.602 240.459L154.88 244.55L153.794 245.573Z" fill="#CAD6E1"/>
<path d="M210.85 251.747H206.128L205.978 245.822H210.7L209.542 202.707H175.691V204.106H159.314V200.346H204.699L204.519 193.308H159.314V189.609H204.429L204.248 182.556H183.029V177.142H168.337V182.556H162.111V177.142H155.013V182.556H152.321V261.627L155.043 264.304L152.321 265.913V272.59L155.705 275.929H157.81V279.703H155.118V277.252L152.321 279.839V286.862L155.118 290.215V286.726H156.712L154.276 283.719L158.231 280.094L161.645 286.275L161.058 286.756H166.021L166.487 286.26L166.653 286.756H168.472L167.826 284.756L169.329 283.929L170.367 286.756H171.871L170.683 283.012L171.961 282.185L173.54 286.696H175.57V290.471H169.555V290.561V290.471H167.871L168.427 292.185L166.743 294.366L165.434 290.471H163.329L165.404 296.095L163.299 303.614L160.291 292.757L162.682 290.546H159.314V288.14L158.397 288.922L157.81 288.065V290.501H155.329L156.246 291.599L152.321 299.96V314.111L156.306 323.029L152.336 322.893V327.961H157.013V340.774H160.021V328.337L165.179 329.044V340.774H201.421C202.338 340.772 203.246 340.587 204.091 340.23C204.936 339.873 205.701 339.35 206.341 338.693C206.981 338.036 207.484 337.258 207.819 336.404C208.154 335.55 208.316 334.638 208.294 333.721V332.112H210.444V328.848H212.91L210.85 251.747ZM178.728 205.745H206.594V208.753H178.728V205.745ZM178.728 212.542H206.775V215.55H178.728V212.542ZM178.728 219.34H206.955V222.347H178.728V219.34ZM178.728 226.152H207.136V229.16H178.728V226.152ZM178.728 232.949H207.301V235.957H178.728V232.949ZM178.728 239.762H207.557L207.647 242.769H178.728V239.762ZM178.728 254.8H207.903V257.808H178.728V254.8ZM178.728 261.597H208.083V264.605H178.728V261.597ZM178.728 268.395H208.264V271.402H178.728V268.395ZM178.728 275.207H208.444V278.215H178.728V275.207ZM178.728 282.004H208.624V285.012H178.728V282.004ZM178.728 288.801H208.805V291.809H178.728V288.801ZM178.728 295.614H208.94L209.03 298.621H178.728V295.614ZM178.728 302.411H209.166L209.256 305.419H178.728V302.411ZM178.728 309.223H209.346L209.437 312.231H178.728V309.223ZM159.314 211.144H175.691V214.903H159.314V211.144ZM159.314 221.941H175.691V225.701H159.314V221.941ZM159.314 232.739H175.691V236.498H159.314V232.739ZM159.314 243.536H175.691V247.296H159.314V243.536ZM159.314 254.274H175.691V258.048H159.314V254.274ZM159.314 265.071H175.691V268.846H163.825L164.667 270.816L163.164 271.357L161.9 268.876H159.314V265.071ZM155.058 211.084H157.81V214.843H155.118L155.058 211.084ZM155.058 221.881H157.81V225.701H155.118L155.058 221.881ZM155.058 232.679H157.81V236.438H155.118L155.058 232.679ZM155.058 243.476H157.81V247.236H155.118L155.058 243.476ZM155.058 254.274H157.81V258.048H155.118L155.058 254.274ZM154.216 269.943L156.02 268.846H155.058V265.131H157.81V267.883L158.351 267.537L161.494 273.237L158.351 274.545L154.216 269.943ZM174.563 285.298L173.495 281.914L174.352 281.342L175.39 284.636L174.563 285.298ZM170.292 279.703L169.735 280.004L169.645 279.703H168.141L168.487 280.681L166.728 281.583L166.036 279.703H164.231L165.329 282.35L163.239 284.455L161.013 279.703H159.314V275.929H164.637L166.517 275.117L166.803 275.944H168.307L167.841 274.44L169.209 273.899L169.901 275.869H175.57V279.643L170.292 279.703ZM174.472 290.726L175.45 293.839L174.623 294.576L173.66 291.373L174.472 290.726ZM174.352 299.99L175.781 304.501L174.608 310.517L173.104 301.765L174.352 299.99ZM158.667 317.314L154.381 307.434L158.397 298.05L161.524 308.667L158.667 317.314ZM163.63 323.735L160.382 323.299L163.254 314.908L165.465 324.292L163.63 323.735ZM164.562 309.584L166.638 302.471L168.592 311.885L166.713 319.841L164.562 309.584ZM169.6 319.795L170.698 325.51L168.337 324.954L169.6 319.795ZM171.104 336.939H167.344V329.42L171.164 330.036L171.104 336.939ZM169.675 307.539L167.765 297.509L169.465 295.569L171.149 300.757L169.675 307.539ZM170.984 294.396L171.991 293.042L173.059 296.636L172.111 298.05L170.984 294.396ZM176.082 336.849L172.698 336.984L172.818 330.352L176.142 330.864L176.082 336.849ZM176.503 320.773L175.48 315.269L176.412 311.329L177.285 316.487L176.503 320.773ZM175.856 298.997L176.382 298.306L176.473 301.133L175.856 298.997ZM176.548 292.065L175.645 289.057L176.412 288.456L177.315 291.343L176.548 292.065ZM208.128 325.841H178.728V322.833H183.074L182.503 319.074H178.728V316.066H182.999H209.497L209.587 319.074H183.526L183.646 319.841L183.18 322.848H187.511L187.36 321.585L187.706 319.886L188.142 322.171L188.052 322.848H209.707L209.797 325.856L208.128 325.841Z" fill="#CAD6E1"/>
<path d="M187.841 308.262L187.554 303.315L187.708 299.913L187.487 296.07L187.664 293.597L187.465 289.179L186.03 285.91L184.462 287.125L182.893 283.415L181.966 284.276L180.729 280.234L179.735 281.162L178.52 276.744L177.173 277.672L175.605 272.879L174.081 273.564L172.557 267.998L170.9 268.815L168.78 262.344L166.748 262.83L164.363 255.828L162.154 256.137L159.327 247.7H156.235L152.723 238.335L149.034 237.717L144.926 226.143L139.78 224.774L132.182 212.096L122.398 215.763L112.613 212.096L105.015 224.884L99.869 226.254L95.7609 237.717L92.0724 238.335L88.5606 247.7H85.5789L82.7518 256.137L80.5431 255.828L77.9589 262.896L76.0153 262.344L73.8066 268.771L72.1501 267.954L70.6261 273.52L69.1021 272.835L67.5339 277.628L66.1866 276.7L64.9719 281.118L63.978 280.19L62.7632 284.254L61.8355 283.392L60.3336 287.191L58.7655 285.977L57.3298 289.245L57.131 293.663L57.3077 296.137L57.0869 299.98L57.2415 303.381L56.9543 308.328L57.2415 316.721L56.9543 325.07L57.4623 328.229H61.8797L61.9901 340.664H102.851V321.934L110.427 320.896V340.774H114.844V320.322H130.128V340.641H134.545V320.763L142.121 321.801V340.531H182.849V328.096H187.267L187.775 324.938L187.487 316.589L187.841 308.262ZM69.5218 315.904L69.0138 311.774L69.6543 308.417L70.1623 310.913L69.5218 315.904ZM76.3907 313.298L75.6177 308.373L76.5454 302.696L77.3405 306.893L76.3907 313.298ZM155.903 271.333L154.49 266.629L155.682 265.679L157.118 270.251L155.903 271.333ZM157.737 285.822L156.014 294.657L153.805 281.802L155.528 279.24L157.737 285.822ZM155.528 251.852L157.052 256.689L155.837 257.573L154.269 252.603L155.528 251.852ZM154.556 259.804L152.524 261.129L150.315 254.172L152.193 252.957L154.556 259.804ZM100.819 258.942L103.491 261.814L100.443 270.935L97.9696 267.733L100.819 258.942ZM96.1143 265.348L93.9056 262.454L96.556 255.607L98.7647 256.822L96.1143 265.348ZM102.519 253.332L105.899 245.226L110.051 246.993L105.634 256.491L102.519 253.332ZM105.678 264.663L109.874 268.55L105.457 284.497L102.365 273.453L105.678 264.663ZM107.887 259.053L112.9 249.975L118.709 255.298L112.613 262.896L107.887 259.053ZM116.015 244.475L122.398 238.225L128.737 244.475L122.398 250.417L116.015 244.475ZM122.398 259.053L129.024 266.916L122.398 280.852L115.772 266.916L122.398 259.053ZM126.042 255.298L131.851 249.975L136.864 259.053L132.182 262.896L126.042 255.298ZM134.744 246.927L138.896 245.16L142.276 253.332L139.206 256.424L134.744 246.927ZM139.161 264.597L142.452 273.431L139.36 284.475L134.943 268.528L139.161 264.597ZM141.37 261.836L144.043 258.964L146.892 267.799L144.418 271.002L141.37 261.836ZM146.008 256.756L148.217 255.541L150.779 262.476L148.57 265.37L146.008 256.756ZM148.217 240.942L150.89 248.672L148.813 249.82L146.207 241.737L148.217 240.942ZM144.175 242.62L147.047 250.814L144.462 252.14L141.414 243.813L144.175 242.62ZM138.72 230.075L141.304 236.392L139.095 237.187L135.981 231.069L138.72 230.075ZM136.644 239.881L132.027 241.803L126.108 235.177L132.027 231.555L136.644 239.881ZM122.398 222.146L127.168 226.828L122.398 229.766L117.627 226.939L122.398 222.146ZM112.834 231.577L118.753 235.199L112.834 241.825L108.218 239.903L112.834 231.577ZM106.208 230.141L108.836 231.113L105.722 237.231L103.513 236.436L106.208 230.141ZM100.753 242.686L103.513 243.879L100.311 252.206L97.7266 250.881L100.753 242.686ZM96.7106 241.008L98.7205 241.803L96.1143 249.887L94.0381 248.738L96.7106 241.008ZM92.6687 253.045L94.5461 254.26L92.3374 261.217L90.3055 259.892L92.6687 253.045ZM89.2674 251.852L90.5263 252.603L88.9582 257.573L87.7434 256.689L89.2674 251.852ZM89.0907 265.546L90.2834 266.496L88.8698 271.201L87.655 270.118L89.0907 265.546ZM91.0343 281.67L88.8256 294.524L87.1029 285.689L89.3115 279.063L91.0343 281.67ZM86.1531 262.255L87.2796 263.139L85.9543 267.556L84.85 266.584L86.1531 262.255ZM84.85 303.469L86.131 295.894L87.5004 301.68L86.0206 309.764L84.85 303.469ZM86.6169 333.375V324.54L91.4981 323.789L91.6969 333.574L86.6169 333.375ZM91.0343 274.315L92.6025 269.036L94.0823 271.024L92.4258 276.391L91.0343 274.315ZM96.3131 272.747L98.8089 275.596L96.0038 290.328L93.7952 280.367L96.3131 272.747ZM96.2026 308.328L98.1021 315.904L94.5682 316.788L96.2026 308.328ZM99.5157 333.507H93.9498V323.458L99.5598 322.552L99.5157 333.507ZM97.6825 296.711L100.576 282.884L103.602 293.332L100.443 308.395L97.6825 296.711ZM104.971 314.115L102.277 314.932L105.523 301.15L109.742 313.475L104.971 314.115ZM112.26 304.684L108.063 291.984L112.657 276.391L118.554 290.173L112.26 304.684ZM122.398 312.834L115.772 313.077L122.398 298.235L129.024 313.077L122.398 312.834ZM132.491 304.684L126.197 290.173L132.094 276.391L136.688 291.984L132.491 304.684ZM139.78 314.115L135.009 313.475L139.228 301.15L142.475 314.932L139.78 314.115ZM141.149 293.332L144.197 282.884L147.069 296.711L144.308 308.395L141.149 293.332ZM148.548 308.328L150.161 316.721L146.693 315.904L148.548 308.328ZM150.757 333.507H145.235V322.464L150.845 323.37L150.757 333.507ZM148.659 290.328L145.854 275.596L148.35 272.747L150.823 280.367L148.659 290.328ZM150.58 271.024L152.06 269.036L153.628 274.315L152.237 276.391L150.58 271.024ZM158.068 333.375L153.098 333.574L153.275 323.833L158.156 324.584L158.068 333.375ZM158.686 309.764L157.184 301.68L158.554 295.894L159.835 303.469L158.686 309.764ZM157.737 277.782L158.51 276.766L158.642 280.919L157.737 277.782ZM158.753 267.6L157.427 263.183L158.554 262.3L159.879 266.54L158.753 267.6ZM168.316 313.276L167.366 306.871L168.162 302.674L169.089 308.351L168.316 313.276ZM175.273 315.904L174.633 310.913L175.141 308.417L175.781 311.774L175.273 315.904Z" fill="#FAFAFA"/>
</g>
</svg>
