<svg width="245" height="359" viewBox="0 0 245 359" fill="none" xmlns="http://www.w3.org/2000/svg">
<circle cx="121.99" cy="226.196" r="114.398" fill="#203347"/>
<mask id="mask0_3044_150825" style="mask-type:alpha" maskUnits="userSpaceOnUse" x="7" y="26" width="230" height="315">
<path fill-rule="evenodd" clip-rule="evenodd" d="M236.296 26H10.2963V189H13.7755C9.76816 200.661 7.59265 213.174 7.59265 226.196C7.59265 289.376 58.8102 340.593 121.99 340.593C185.17 340.593 236.388 289.376 236.388 226.196C236.388 213.174 234.213 200.661 230.205 189H236.296V26Z" fill="#C4C4C4"/>
</mask>
<g mask="url(#mask0_3044_150825)">
<path d="M193.195 346.593H116.705V344.119C116.705 309.791 116.705 229.431 152.556 97.9139L154.938 89.1279L157.32 97.9139C193.171 229.406 193.171 309.791 193.171 344.119V346.593H193.195ZM121.667 341.644H188.233C188.233 307.044 187.439 230.693 154.938 108.135C122.461 230.718 121.667 307.069 121.642 341.644H121.667Z" fill="#CAD6E1"/>
<path d="M154.963 184.536C162.759 184.536 169.08 178.231 169.08 170.453C169.08 162.676 162.759 156.371 154.963 156.371C147.166 156.371 140.846 162.676 140.846 170.453C140.846 178.231 147.166 184.536 154.963 184.536Z" fill="#CAD6E1"/>
<path d="M171.958 157.114H137.943L138.613 154.094C142.682 135.78 147.371 116.872 152.556 97.9139L154.938 89.1279L157.32 97.9139C162.48 116.872 167.169 135.78 171.263 154.094L171.933 157.114H171.958ZM144.145 152.164H165.78C162.53 137.735 158.907 122.985 154.963 108.111C151.018 122.96 147.395 137.735 144.145 152.164Z" fill="#CAD6E1"/>
<path d="M154.938 98.5571C152.978 105.784 151.142 112.813 149.38 119.718H160.495C158.734 112.813 156.898 105.784 154.938 98.5571Z" fill="#CAD6E1"/>
<path d="M166.847 140.532H143.054V145.482H166.847V140.532Z" fill="#CAD6E1"/>
<path d="M163.944 128.899H145.981V133.849H163.944V128.899Z" fill="#CAD6E1"/>
<path d="M157.419 116.971H152.457V326.646H157.419V116.971Z" fill="#CAD6E1"/>
<path d="M185.752 253.066H124.173C122.387 268.609 121.221 282.468 120.501 294.67H189.449C188.73 282.468 187.563 268.609 185.777 253.066H185.752Z" fill="#CAD6E1"/>
<path d="M174.96 183.893H134.941C131.07 203.865 128.167 222.056 125.959 238.588H183.941C181.733 222.081 178.83 203.865 174.96 183.893Z" fill="#CAD6E1"/>
<path d="M119.186 344.118H190.714C190.714 335.307 190.715 323.651 190.144 309.172H119.757C119.186 323.651 119.186 335.307 119.186 344.118Z" fill="#CAD6E1"/>
<path fill-rule="evenodd" clip-rule="evenodd" d="M182.847 239.419L153.325 257.305L123.828 239.418L124.865 237.708L153.325 254.966L181.81 237.708L182.847 239.419Z" fill="#CAD6E1"/>
<path d="M70.6317 66V353.42H120.874V66L112.001 66.4035C101.187 66.9147 90.3187 66.9147 79.5043 66.4035L70.6317 66ZM95.7393 126.045C85.3834 126.045 78.965 73.398 78.965 73.398L79.774 73.3442C90.3996 72.7255 101.052 72.7255 111.678 73.3442L112.487 73.398C112.487 73.398 106.068 126.045 95.7123 126.045H95.7393Z" fill="#CAD6E1"/>
<path d="M112.433 78.7247L111.624 78.6709C101.079 78.0521 90.3996 78.0521 79.8549 78.6709L79.0458 78.7247L78.884 76.0345L79.6931 75.9807C90.3456 75.3619 101.133 75.3619 111.759 75.9807L112.568 76.0345L112.406 78.7247H112.433Z" fill="#CAD6E1"/>
<path d="M222.447 318.008L225.796 315.657V312.637L231.85 310.955V306.945L239.913 303.926V300.585L246.29 297.912V294.571L255.345 289.225V286.552H219.767V282.196H192.923L190.243 277.84H180.517V273.163H174.464V269.821C174.464 269.821 168.211 264.278 157.89 263.312C157.89 263.238 157.94 263.189 157.94 263.114C157.94 261.481 156.6 260.145 154.963 260.145C153.325 260.145 151.986 261.481 151.986 263.114C151.986 263.189 152.01 263.238 152.035 263.312C141.714 264.253 135.462 269.821 135.462 269.821V273.163H129.408V277.84H119.682L117.003 282.196H90.1581V286.552H54.5801V289.225L63.6359 294.571V297.912L70.0121 300.585V303.926L78.0755 306.945V310.955L84.1292 312.637V315.657L87.4786 318.008H95.8645V325.037H69.0197C69.0197 325.037 67.0101 334.738 64.3305 334.738C61.651 334.738 57.9543 334.392 57.9543 334.392V344.094H252.021V334.392C252.021 334.392 248.324 334.738 245.645 334.738C242.965 334.738 240.955 325.037 240.955 325.037H214.111V318.008H222.497H222.447Z" fill="#FAFAFA"/>
<path d="M94.8969 255.467V253.19C94.8969 236.583 81.2015 218.962 64.7523 211.982V227.847H53.6621V200.227C35.9475 207.726 21.1853 226.708 21.1853 244.602V255.442H18.6547V344.093H98.7673V255.442H94.8969V255.467ZM42.8199 225.693C40.2893 225.693 38.23 223.639 38.23 221.115C38.23 218.59 40.2893 216.536 42.8199 216.536C45.3506 216.536 47.4099 218.59 47.4099 221.115C47.4099 223.639 45.3506 225.693 42.8199 225.693Z" fill="#FAFAFA"/>
</g>
</svg>
