<svg width="244" height="359" viewBox="0 0 244 359" fill="none" xmlns="http://www.w3.org/2000/svg">
<circle cx="121.708" cy="226.105" r="114.398" fill="#203347"/>
<mask id="mask0_837_180148" style="mask-type:alpha" maskUnits="userSpaceOnUse" x="7" y="25" width="230" height="316">
<path fill-rule="evenodd" clip-rule="evenodd" d="M215.347 25.731H32.6329V154.318C16.7938 173.947 7.31042 198.919 7.31042 226.105C7.31042 289.285 58.528 340.503 121.708 340.503C184.888 340.503 236.106 289.285 236.106 226.105C236.106 201.641 228.426 178.97 215.347 160.372V25.731Z" fill="#C4C4C4"/>
</mask>
<g mask="url(#mask0_837_180148)">
<path d="M237.339 303.741V278.245H225.976V217.081H203.151V169.246L163.427 159.704L123.702 169.246V217.081H100.853V278.245H89.4169V303.741H67.2479V318.31C67.2607 324.188 69.5997 329.822 73.7537 333.98C77.9077 338.139 83.539 340.484 89.4169 340.503H131.229V322.535C131.229 314.085 139.946 308.257 139.946 308.257C139.946 308.257 148.664 314.085 148.664 322.535V340.503H154.71V316.853C154.71 308.379 163.427 302.551 163.427 302.551C163.427 302.551 172.144 308.379 172.144 316.853V340.503H178.19V322.535C178.19 314.085 186.907 308.257 186.907 308.257C186.907 308.257 195.599 314.085 195.599 322.535V340.503H240.544C246.102 340.503 251.432 338.295 255.362 334.366C259.292 330.436 261.499 325.106 261.499 319.548V303.741H237.339ZM172.144 292.644H154.71V235.559L148.664 200.958V292.644H131.229V200.958C131.229 192.484 139.946 186.68 139.946 186.68C139.946 186.68 144.015 189.627 145.737 192.25C147.706 195.249 148.664 200.958 148.664 200.958L154.71 235.559V195.276C154.71 186.802 163.427 180.974 163.427 180.974C163.427 180.974 172.144 186.802 172.144 195.276V292.644ZM195.599 292.644H178.19V200.958C178.19 192.484 186.907 186.68 186.907 186.68C186.907 186.68 195.599 192.484 195.599 200.958V292.644Z" fill="#CAD6E1"/>
<path fill-rule="evenodd" clip-rule="evenodd" d="M135.075 217.941V234.363H142.739V350.964C142.739 357.618 140.095 364 135.39 368.705C130.685 373.41 124.303 376.054 117.649 376.054H88.2705V357.806L75.3149 337.278H71.369V312.439H83.4578V265.475H81.04V261.803H55.95V268.144H56.6571V269.695H54.0796V270.926C54.0796 272.436 49.8388 274.413 47.2755 275.609C46.3521 276.039 45.6464 276.368 45.435 276.537C45.1657 276.753 44.995 277.02 44.8275 277.283C44.4985 277.798 44.1819 278.294 43.154 278.339C42.1088 278.386 41.7265 277.81 41.358 277.255C41.1797 276.987 41.0045 276.723 40.7591 276.537C40.5731 276.397 39.9514 276.108 39.1207 275.723C36.5886 274.548 32.1144 272.472 32.1144 270.926V269.695H29.537V268.144H30.2669V247.433H29.537V245.882H33.0952C34.0627 244.043 35.5142 242.503 37.293 241.429C39.0718 240.355 41.1103 239.787 43.1883 239.787C45.2662 239.787 47.3047 240.355 49.0835 241.429C50.8623 242.503 52.3138 244.043 53.2813 245.882H56.7483V247.433H56.0412V253.135H59.8047L65.3017 255.667H83.549V234.409H91.1901V217.986L89.046 217.074H88.0196V213.402H91.1901V176.907L88.9092 176.177H88.0196V172.482H96.4134C97.504 172.482 98.5075 170.49 99.8145 167.895C102.17 163.218 105.513 156.583 112.129 156.128V154.6C111.471 154.394 110.896 153.982 110.487 153.427C110.079 152.871 109.859 152.199 109.859 151.509C109.859 150.819 110.079 150.148 110.487 149.592C110.896 149.036 111.471 148.625 112.129 148.419V143.537C111.931 143.393 111.77 143.205 111.659 142.987C111.548 142.769 111.49 142.528 111.49 142.283C111.49 142.038 111.548 141.797 111.659 141.579C111.77 141.361 111.931 141.172 112.129 141.028V127.548H111.125L113.087 122.986L115.071 127.548H114.045V130.719L130.011 132.019L121.047 134.14L130.011 136.238L114.045 137.561V141.142C114.247 141.283 114.412 141.471 114.527 141.689C114.641 141.908 114.7 142.15 114.7 142.397C114.7 142.643 114.641 142.886 114.527 143.105C114.412 143.323 114.247 143.511 114.045 143.651V148.419C114.715 148.612 115.305 149.017 115.725 149.575C116.144 150.132 116.371 150.811 116.371 151.509C116.371 152.207 116.144 152.886 115.725 153.443C115.305 154.001 114.715 154.407 114.045 154.6V156.128C120.679 156.583 124.026 163.223 126.384 167.901C127.691 170.493 128.693 172.482 129.783 172.482H138.245V176.132H137.356L135.075 176.862V213.356H138.382V217.028H137.356L135.075 217.941ZM50.2672 262.463C51.1945 261.048 51.6799 259.389 51.6619 257.697C51.6379 255.454 50.7317 253.311 49.1394 251.732C47.5471 250.152 45.3968 249.264 43.154 249.258C41.462 249.253 39.8069 249.752 38.3991 250.691C36.9914 251.63 35.8945 252.966 35.2481 254.529C34.6017 256.093 34.435 257.814 34.769 259.472C35.103 261.131 35.9228 262.653 37.1241 263.845C38.3253 265.036 39.8538 265.844 41.5152 266.164C43.1766 266.485 44.8958 266.304 46.4542 265.645C48.0126 264.986 49.3399 263.879 50.2672 262.463ZM121.572 203.936H115.527L115.505 212.991H121.572V203.936ZM130.194 203.936H124.172L124.149 212.991H130.194V203.936ZM125.679 182.713C124.789 182.343 123.835 182.153 122.872 182.153L122.849 182.244C120.901 182.244 119.033 183.018 117.656 184.396C116.278 185.773 115.505 187.641 115.505 189.589V201.336H130.194V189.498C130.197 188.534 130.01 187.58 129.643 186.689C129.276 185.798 128.738 184.988 128.057 184.306C127.377 183.623 126.569 183.082 125.679 182.713ZM102.047 204.027H96.0028V212.991H102.047V204.027ZM110.669 212.991V204.027H104.648V212.991H110.669ZM108.526 184.404C107.154 183.027 105.291 182.251 103.347 182.244C101.399 182.244 99.5314 183.018 98.154 184.396C96.7766 185.773 96.0028 187.641 96.0028 189.589V201.427H110.669V189.589C110.669 187.645 109.898 185.78 108.526 184.404ZM83.0472 331.188V314.948H79.7855V331.188H83.0472ZM77.1853 314.948H73.9236L73.9464 331.188H77.1853V314.948ZM88.2477 337.187H78.9188C83.0133 340.921 86.2036 345.539 88.2477 350.69V337.187ZM37.6343 252.748L43.177 257.697L43.6103 252.223L44.1121 257.834C44.2774 257.919 44.4172 258.046 44.5174 258.202C44.6176 258.358 44.6745 258.538 44.6824 258.724C44.6824 258.99 44.5766 259.245 44.3884 259.434C44.2002 259.622 43.9449 259.727 43.6788 259.727C43.4126 259.727 43.1573 259.622 42.9691 259.434C42.7809 259.245 42.6752 258.99 42.6752 258.724C42.6542 258.626 42.6542 258.525 42.6752 258.427L37.6343 252.748Z" fill="#FAFAFA"/>
</g>
</svg>
