<svg width="245" height="359" viewBox="0 0 245 359" fill="none" xmlns="http://www.w3.org/2000/svg">
<circle cx="122.398" cy="226.105" r="114.398" fill="#203347"/>
<mask id="mask0_837_180160" style="mask-type:alpha" maskUnits="userSpaceOnUse" x="8" y="47" width="229" height="294">
<path fill-rule="evenodd" clip-rule="evenodd" d="M236.795 47.6235H8V226.105V228.188H8.01859C9.12972 290.407 59.9135 340.503 122.398 340.503C184.882 340.503 235.666 290.407 236.777 228.188H236.795V226.105V47.6235Z" fill="#C4C4C4"/>
</mask>
<g mask="url(#mask0_837_180160)">
<path d="M153.307 302.609L151.186 303.831L157.151 314.139L159.272 312.917L153.307 302.609Z" fill="#CAD6E1"/>
<path d="M152.853 267.442L151.628 269.559L184.044 288.231L185.269 286.115L152.853 267.442Z" fill="#CAD6E1"/>
<path d="M194.345 249.892H150.153V252.336H194.345V249.892Z" fill="#CAD6E1"/>
<path d="M157.158 188.048L138.668 220.013L140.79 221.234L159.28 189.27L157.158 188.048Z" fill="#CAD6E1"/>
<path d="M157.599 198.566C163.011 198.566 167.398 194.189 167.398 188.79C167.398 183.39 163.011 179.013 157.599 179.013C152.188 179.013 147.801 183.39 147.801 188.79C147.801 194.189 152.188 198.566 157.599 198.566Z" fill="#CAD6E1"/>
<path d="M120.854 188.789C126.266 188.789 130.653 184.412 130.653 179.013C130.653 173.614 126.266 169.237 120.854 169.237C115.442 169.237 111.055 173.614 111.055 179.013C111.055 184.412 115.442 188.789 120.854 188.789Z" fill="#CAD6E1"/>
<path d="M184.546 225.451C189.958 225.451 194.345 221.074 194.345 215.674C194.345 210.275 189.958 205.898 184.546 205.898C179.134 205.898 174.747 210.275 174.747 215.674C174.747 221.074 179.134 225.451 184.546 225.451Z" fill="#CAD6E1"/>
<path d="M194.345 259.668C199.757 259.668 204.144 255.291 204.144 249.892C204.144 244.492 199.757 240.115 194.345 240.115C188.933 240.115 184.546 244.492 184.546 249.892C184.546 255.291 188.933 259.668 194.345 259.668Z" fill="#CAD6E1"/>
<path d="M184.546 296.329C189.958 296.329 194.345 291.952 194.345 286.553C194.345 281.153 189.958 276.776 184.546 276.776C179.134 276.776 174.747 281.153 174.747 286.553C174.747 291.952 179.134 296.329 184.546 296.329Z" fill="#CAD6E1"/>
<path d="M157.599 325.658C163.011 325.658 167.398 321.281 167.398 315.882C167.398 310.482 163.011 306.105 157.599 306.105C152.188 306.105 147.801 310.482 147.801 315.882C147.801 321.281 152.188 325.658 157.599 325.658Z" fill="#CAD6E1"/>
<path d="M184.058 214.039L147.84 234.893L149.064 237.01L185.282 216.156L184.058 214.039Z" fill="#CAD6E1"/>
<path d="M151.132 321.845L149.172 317.348C164.155 310.856 176.437 299.412 183.952 284.943C191.466 270.474 193.753 253.863 190.428 237.907C187.103 221.952 178.369 207.627 165.697 197.345C153.024 187.063 137.188 181.452 120.854 181.457V176.569C138.32 176.555 155.258 182.549 168.812 193.54C182.366 204.532 191.708 219.849 195.264 236.91C198.82 253.972 196.372 271.735 188.334 287.206C180.295 302.677 167.156 314.911 151.132 321.845Z" fill="#CAD6E1"/>
<path d="M112.451 179.917L99.468 66.5854L89.3262 96.5254L85.9456 78.5614L76.9307 114.465L53.144 349.585H74.4565L74.53 348.119L96.5039 346.775L97.1898 249.891L109.879 217.727L112.451 179.917Z" fill="#CAD6E1"/>
<path fill-rule="evenodd" clip-rule="evenodd" d="M151.7 242.243V252.019H154.15V320.454H151.7V357.115H144.351V327.786C144.351 327.138 144.093 326.516 143.633 326.058C143.174 325.599 142.551 325.342 141.901 325.342C141.251 325.342 140.628 325.599 140.169 326.058C139.71 326.516 139.451 327.138 139.451 327.786V357.115H134.552V327.786C134.552 327.138 134.294 326.516 133.835 326.058C133.375 325.599 132.752 325.342 132.102 325.342C131.453 325.342 130.83 325.599 130.37 326.058C129.911 326.516 129.653 327.138 129.653 327.786V357.115H124.753V327.786C124.753 327.138 124.495 326.516 124.036 326.058C123.576 325.599 122.953 325.342 122.303 325.342C121.654 325.342 121.031 325.599 120.571 326.058C120.112 326.516 119.854 327.138 119.854 327.786V357.115H114.954V327.786C114.954 327.138 114.696 326.516 114.237 326.058C113.777 325.599 113.154 325.342 112.505 325.342C111.855 325.342 111.232 325.599 110.772 326.058C110.313 326.516 110.055 327.138 110.055 327.786V357.115H105.156V327.786C105.156 327.138 104.897 326.516 104.438 326.058C103.979 325.599 103.356 325.342 102.706 325.342C102.056 325.342 101.433 325.599 100.974 326.058C100.514 326.516 100.256 327.138 100.256 327.786V357.115H92.907V320.454H90.4573V252.019H92.907V242.243L94.1318 229.656L95.1362 240.043C98.3356 236.981 101.171 233.561 103.588 229.852C105.219 226.901 106.141 223.613 106.282 220.246H107.605V195.806L108.83 185.736L109.296 189.475L120.05 148.953C119.332 148.739 118.696 148.314 118.224 147.735C117.752 147.155 117.466 146.446 117.404 145.702C117.464 144.997 117.727 144.323 118.161 143.764C118.596 143.204 119.184 142.783 119.854 142.549V126.858C119.181 126.63 118.589 126.21 118.154 125.649C117.718 125.088 117.458 124.412 117.404 123.705C117.404 121.677 119.584 120.039 122.303 120.039C125.023 120.039 127.203 121.677 127.203 123.705C127.153 124.413 126.893 125.091 126.457 125.652C126.021 126.213 125.428 126.633 124.753 126.858V142.549C125.426 142.777 126.017 143.198 126.453 143.758C126.889 144.319 127.149 144.995 127.203 145.702C127.141 146.446 126.855 147.155 126.383 147.735C125.911 148.314 125.275 148.739 124.557 148.953L135.311 189.475L135.777 185.736L137.002 195.806V220.246H138.349C138.491 223.61 139.404 226.896 141.019 229.852C143.443 233.555 146.278 236.974 149.471 240.043L150.475 229.656L151.7 242.243ZM130.37 260.067C129.911 260.526 129.653 261.147 129.653 261.796V266.684H134.552V261.796C134.552 261.147 134.294 260.526 133.835 260.067C133.375 259.609 132.752 259.352 132.102 259.352C131.453 259.352 130.83 259.609 130.37 260.067ZM120.571 260.067C120.112 260.526 119.854 261.147 119.854 261.796V266.684H124.753V261.796C124.753 261.147 124.495 260.526 124.036 260.067C123.576 259.609 122.953 259.352 122.303 259.352C121.654 259.352 121.031 259.609 120.571 260.067ZM110.772 260.067C110.313 260.526 110.055 261.147 110.055 261.796V266.684H114.954V261.796C114.954 261.147 114.696 260.526 114.237 260.067C113.777 259.609 113.154 259.352 112.505 259.352C111.855 259.352 111.232 259.609 110.772 260.067ZM100.256 261.796V266.684H105.156V261.796C105.156 261.147 104.897 260.526 104.438 260.067C103.979 259.609 103.356 259.352 102.706 259.352C102.056 259.352 101.433 259.609 100.974 260.067C100.514 260.526 100.256 261.147 100.256 261.796ZM112.096 307.588C115.117 309.602 118.67 310.677 122.303 310.677C127.176 310.677 131.849 308.746 135.295 305.308C138.741 301.871 140.676 297.208 140.676 292.347C140.676 288.721 139.599 285.177 137.58 282.163C135.561 279.148 132.692 276.799 129.334 275.411C125.977 274.024 122.283 273.661 118.719 274.368C115.155 275.076 111.881 276.821 109.312 279.385C106.742 281.949 104.993 285.215 104.284 288.771C103.575 292.326 103.939 296.012 105.329 299.362C106.72 302.711 109.075 305.574 112.096 307.588ZM139.451 261.796V266.684H144.351V261.796C144.351 261.147 144.093 260.526 143.633 260.067C143.174 259.609 142.551 259.352 141.901 259.352C141.251 259.352 140.628 259.609 140.169 260.067C139.71 260.526 139.451 261.147 139.451 261.796ZM124.753 278.904V291.125H134.552V296.013H119.854V293.569V291.125V278.904H124.753Z" fill="#FAFAFA"/>
</g>
</svg>
