<svg width="244" height="359" viewBox="0 0 244 359" fill="none" xmlns="http://www.w3.org/2000/svg">
<circle cx="121.694" cy="226.196" r="114.398" fill="#203347"/>
<mask id="mask0_837_180134" style="mask-type:alpha" maskUnits="userSpaceOnUse" x="7" y="25" width="230" height="316">
<path fill-rule="evenodd" clip-rule="evenodd" d="M213.114 25.8213H32.6189V154.409C16.7798 174.038 7.29639 199.009 7.29639 226.196C7.29639 289.376 58.514 340.593 121.694 340.593C184.874 340.593 236.092 289.376 236.092 226.196C236.092 200.379 227.54 176.559 213.114 157.416V25.8213Z" fill="#C4C4C4"/>
</mask>
<g mask="url(#mask0_837_180134)">
<path d="M193.664 239.809V345.431H174.177V239.809H169.015V304.495H152.574V239.809H147.412V345.431H116.439C118.839 325.944 120.44 257.334 121.601 239.809H116.439C115.355 258.031 113.677 327.364 111.122 347.702C111.078 348.063 111.11 348.428 111.217 348.775C111.324 349.122 111.502 349.442 111.741 349.715C111.983 349.991 112.281 350.211 112.615 350.363C112.949 350.514 113.311 350.593 113.677 350.593H188.812C190.231 350.593 198.826 345.224 198.826 343.779V239.809H193.664ZM169.015 309.709V334.461H152.574V309.683L169.015 309.709ZM152.574 345.431V339.675H169.015V345.431H152.574Z" fill="#CAD6E1"/>
<path d="M202.827 221.814L184.631 222.873L35.3162 207.902V256.581H68.7667V225.867L215.139 234.926L202.001 256.581H207.37L221.824 234.126V227.957L202.827 221.814Z" fill="#CAD6E1"/>
<path d="M170.048 92.5642H130.815L128.492 87.7118L130.815 82.8853H171.467V87.7118L170.048 92.5642Z" fill="#CAD6E1"/>
<path d="M143.876 72.9995V77.7745C143.879 78.1347 143.811 78.4921 143.674 78.8256C143.538 79.1591 143.337 79.462 143.082 79.7168C142.827 79.9715 142.524 80.1729 142.191 80.3092C141.857 80.4455 141.5 80.5139 141.14 80.5104H140.236C140.031 80.5104 139.827 80.5513 139.638 80.6307C139.448 80.7102 139.276 80.8265 139.132 80.9731C138.988 81.1196 138.874 81.2934 138.798 81.4843C138.722 81.6752 138.684 81.8793 138.688 82.0849V86.6275H149.993V72.9995C149.986 72.5865 149.817 72.1926 149.523 71.9029C149.228 71.6132 148.831 71.4508 148.418 71.4509H145.45C145.245 71.4475 145.04 71.485 144.85 71.5613C144.659 71.6376 144.485 71.7511 144.338 71.8953C144.192 72.0394 144.075 72.2113 143.996 72.4009C143.917 72.5905 143.876 72.794 143.876 72.9995Z" fill="#CAD6E1"/>
<path d="M165.35 72.9995V77.7745C165.357 78.4759 165.093 79.1529 164.611 79.6631C164.13 80.1733 163.469 80.4771 162.769 80.5104H161.865C161.448 80.5104 161.047 80.6763 160.752 80.9716C160.457 81.2668 160.291 81.6673 160.291 82.0849V86.6275H171.596V72.9995C171.596 72.794 171.555 72.5905 171.476 72.4009C171.396 72.2113 171.28 72.0394 171.133 71.8953C170.987 71.7511 170.813 71.6376 170.622 71.5613C170.431 71.485 170.227 71.4475 170.022 71.4509H166.924C166.511 71.4508 166.115 71.6132 165.82 71.9029C165.526 72.1926 165.357 72.5865 165.35 72.9995Z" fill="#CAD6E1"/>
<path d="M146.895 95.5068C147.922 95.5068 148.754 94.6747 148.754 93.6484C148.754 92.6221 147.922 91.79 146.895 91.79C145.869 91.79 145.037 92.6221 145.037 93.6484C145.037 94.6747 145.869 95.5068 146.895 95.5068Z" fill="#CAD6E1"/>
<path d="M141.733 95.5068C142.76 95.5068 143.592 94.6747 143.592 93.6484C143.592 92.6221 142.76 91.79 141.733 91.79C140.707 91.79 139.875 92.6221 139.875 93.6484C139.875 94.6747 140.707 95.5068 141.733 95.5068Z" fill="#CAD6E1"/>
<path d="M146.895 91.377H141.733V93.958H146.895V91.377Z" fill="#CAD6E1"/>
<path d="M168.396 95.5068C169.422 95.5068 170.254 94.6747 170.254 93.6484C170.254 92.6221 169.422 91.79 168.396 91.79C167.369 91.79 166.537 92.6221 166.537 93.6484C166.537 94.6747 167.369 95.5068 168.396 95.5068Z" fill="#CAD6E1"/>
<path d="M163.234 95.5068C164.26 95.5068 165.092 94.6747 165.092 93.6484C165.092 92.6221 164.26 91.79 163.234 91.79C162.207 91.79 161.375 92.6221 161.375 93.6484C161.375 94.6747 162.207 95.5068 163.234 95.5068Z" fill="#CAD6E1"/>
<path d="M168.396 91.377H163.234V93.958H168.396V91.377Z" fill="#CAD6E1"/>
<path d="M117.73 244.382L122.892 244.743C123.124 216.92 122.014 193.122 120.594 175.055L147.438 192.554V246.447L152.6 246.808V229.825H169.041V247.892L174.203 248.254V192.296L193.69 175.932V249.647L198.852 250.009V134.455C198.852 122.787 194.217 111.597 185.967 103.346C177.716 95.0955 166.526 90.4604 154.858 90.4604C143.19 90.4604 132 95.0955 123.749 103.346C115.499 111.597 110.864 122.787 110.864 134.455C110.85 134.601 110.85 134.747 110.864 134.893C110.993 135.513 118.246 177.92 117.73 244.382ZM174.177 100.849C180.091 104.233 185.006 109.117 188.428 115.009C191.849 120.9 193.656 127.59 193.664 134.403V163.646L174.177 156.703V100.849ZM174.177 162.201L186.437 166.563L174.177 165.014V162.201ZM174.177 170.228L190.051 172.216L174.177 185.534V170.228ZM152.574 95.7387C153.322 95.7387 154.071 95.7387 154.819 95.7387C159.679 95.7431 164.495 96.6625 169.015 98.4488V104.747H152.574V95.7387ZM152.574 109.909H169.015V134.739H152.574V109.909ZM152.574 139.901H169.015V164.705H152.574V139.901ZM152.574 169.867H169.015V194.697H152.574V169.867ZM152.574 199.859H169.015V224.663H152.574V199.859ZM147.412 186.334L125.808 172.241L147.412 170.125V186.334ZM147.412 164.963L130.454 166.615L147.412 161.917V164.963ZM147.412 96.3582V156.574L119.665 164.318C118.013 146.663 116.284 135.926 116 134.351C116.046 125.366 119.199 116.673 124.924 109.748C130.65 102.823 138.595 98.092 147.412 96.3582Z" fill="#CAD6E1"/>
<path d="M277.664 233.42H280.721V229.985H277.664V229.298H276.221V229.985H255.609V229.298H254.097V229.985H233.484V229.298H231.561V229.985H210.948V229.298H209.437V229.985H188.48V229.298H186.9V229.985H166.288V229.298H164.81V229.985H143.923V229.298H142.411V229.985H121.627V229.298H120.116V229.985H99.3313V229.298H97.8197V229.985H80.0242L78.9249 168.525C79.6926 168.512 80.455 168.396 81.1923 168.182C81.6389 167.838 82.0855 165.674 82.0855 165.674H86.3798L87.9257 162.891H86.5859L85.6583 163.819H80.4021L79.3028 162.926V161.895L78.8562 161.689V154.097L81.0549 152.173L81.8794 142.244V140.492H80.2991L78.5127 137.778L79.0967 136.61L78.2722 135.442L77.9973 133.828L77.7569 135.442L76.9324 136.61L77.5164 137.778L75.73 140.492H74.1497V142.244L74.9742 152.173L77.1728 154.097V161.689L76.7262 161.895V162.926L75.6269 163.819H70.0959L69.134 162.891H67.8285L69.3744 165.674H73.5313C73.5313 165.674 73.9779 167.838 74.4245 168.182C75.1618 168.396 75.9242 168.512 76.6919 168.525L75.5925 229.298V229.985H54.98V229.298H53.2623V229.985H32.3062V229.298H30.829V229.985H10.1478V229.298H8.67056V229.985H8.01783V233.42H8.67056V239.879C8.30277 239.905 7.95785 240.067 7.70358 240.334C7.44931 240.601 7.30407 240.953 7.29639 241.322V242.524C7.29597 242.895 7.43852 243.252 7.69442 243.521C7.95033 243.79 8.29992 243.95 8.67056 243.967V248.399C8.29992 248.417 7.95033 248.576 7.69442 248.845C7.43852 249.114 7.29597 249.471 7.29639 249.842V251.182C7.30467 251.547 7.45109 251.895 7.70611 252.156C7.96113 252.418 8.30578 252.573 8.67056 252.59V255.716H8.01783V281.619H29.1113L34.6767 287.563V292.853L33.2682 294.262V295.979L34.6767 297.354V334.387H32.3062V336.208H33.0964V345.037L34.711 346.789V350.74H41.5819V346.789L43.1965 345.037V336.208H43.9867V334.387H41.5819V302.679L50.5827 333.254L47.1473 345.003H48.9337L51.5103 336.311L54.0525 345.003H55.8389L52.4035 333.254L61.3699 302.679V350.774H68.2407V302.679L77.2072 333.254L72.7755 348.438H74.5619L77.9973 336.311L81.4328 348.438H83.2192L78.7531 333.254L87.7196 302.679V350.774H94.5904V302.679L103.557 333.254L99.1252 348.438H100.912L104.347 336.311L107.782 348.438H109.569L105.103 333.254L114.069 302.679V350.774H120.94V297.491L122.349 296.117V294.399L120.94 292.991V287.7L126.505 281.757H280.653V255.854H277.595V252.831C277.913 252.822 278.218 252.7 278.454 252.487H280.653V249.052H278.454C278.218 248.839 277.913 248.717 277.595 248.708V244.105C277.901 244.085 278.191 243.964 278.42 243.761H280.653V240.326H278.454C278.201 240.142 277.906 240.024 277.595 239.982L277.664 233.42ZM256.227 248.88C255.991 248.667 255.686 248.545 255.368 248.536V244.105C255.682 244.078 255.981 243.959 256.227 243.761H275.294C275.536 243.965 275.837 244.085 276.152 244.105V248.536C275.833 248.539 275.527 248.662 275.294 248.88H256.227ZM122.486 248.88C122.25 248.667 121.945 248.545 121.627 248.536V244.105C121.941 244.078 122.24 243.959 122.486 243.761H141.553C141.795 243.965 142.096 244.085 142.411 244.105V248.536C142.092 248.539 141.786 248.662 141.553 248.88H122.486ZM99.3313 255.751V252.831C99.6493 252.822 99.9537 252.7 100.19 252.487H119.257C119.493 252.7 119.798 252.822 120.116 252.831V255.957L99.3313 255.751ZM114.207 287.597V292.888L112.832 294.296H95.8959L94.4874 292.888V287.597L100.053 281.654H108.676L114.207 287.597ZM41.4445 292.888V287.597L47.0098 281.654H55.6328L61.1981 287.597V292.888L59.7896 294.296H42.853L41.4445 292.888ZM11.0066 248.88C10.7756 248.659 10.4677 248.535 10.1478 248.536V244.105C10.4652 244.093 10.7687 243.971 11.0066 243.761H30.1076C30.3497 243.965 30.6508 244.085 30.9664 244.105V248.536C30.6472 248.539 30.3406 248.662 30.1076 248.88H11.0066ZM52.4035 243.761C52.6414 243.971 52.9449 244.093 53.2623 244.105V248.536C52.9424 248.535 52.6345 248.659 52.4035 248.88H50.1704V243.761H52.4035ZM74.665 243.761C74.8829 243.933 75.1448 244.04 75.4208 244.07V248.571C75.183 248.624 74.9601 248.73 74.768 248.88H55.5984C55.3654 248.662 55.0588 248.539 54.7395 248.536V244.105C55.0552 244.085 55.3563 243.965 55.5984 243.761H74.665ZM96.9609 243.761C97.2065 243.959 97.5056 244.078 97.8197 244.105V248.536C97.5017 248.545 97.1973 248.667 96.9609 248.88H86.8951V243.761H96.9609ZM119.257 243.761C119.502 243.959 119.801 244.078 120.116 244.105V248.536C119.798 248.545 119.493 248.667 119.257 248.88H100.19C99.9537 248.667 99.6493 248.545 99.3313 248.536V244.105C99.6454 244.078 99.9445 243.959 100.19 243.761H119.257ZM54.7395 255.854V252.831C55.0588 252.828 55.3654 252.705 55.5984 252.487H74.665C74.8404 252.623 75.038 252.728 75.249 252.796V255.957L54.7395 255.854ZM50.1704 252.418H52.4035C52.6345 252.64 52.9424 252.763 53.2623 252.762V255.888H50.1704V252.418ZM80.4708 255.854V252.418H85.2461V255.854H80.4708ZM86.8951 255.854V252.418H96.9609C97.1973 252.631 97.5017 252.753 97.8197 252.762V255.888L86.8951 255.854ZM85.1774 243.761V248.88H80.4021V243.761H85.1774ZM68.0003 292.991V287.7L73.5313 281.757H82.1542L87.6852 287.7V292.991L86.3111 294.399H69.3744L68.0003 292.991ZM163.848 243.761C164.091 243.965 164.392 244.085 164.707 244.105V248.536C164.388 248.539 164.081 248.662 163.848 248.88H144.748C144.527 248.664 144.232 248.541 143.923 248.536V244.105C144.228 244.085 144.519 243.964 144.748 243.761H163.848ZM186.144 243.761C186.382 243.971 186.686 244.093 187.003 244.105V248.536C186.683 248.535 186.375 248.659 186.144 248.88H167.043C166.812 248.659 166.505 248.535 166.185 248.536V244.105C166.5 244.085 166.801 243.965 167.043 243.761H186.144ZM208.406 243.761C208.652 243.959 208.951 244.078 209.265 244.105V248.536C208.947 248.545 208.642 248.667 208.406 248.88H189.339C189.106 248.662 188.8 248.539 188.48 248.536V244.105C188.796 244.085 189.097 243.965 189.339 243.761H208.406ZM230.702 243.761C230.947 243.959 231.246 244.078 231.561 244.105V248.536C231.243 248.545 230.938 248.667 230.702 248.88H211.635C211.402 248.662 211.096 248.539 210.776 248.536V244.105C211.092 244.085 211.393 243.965 211.635 243.761H230.702ZM252.998 243.761C253.243 243.959 253.542 244.078 253.856 244.105V248.536C253.538 248.545 253.234 248.667 252.998 248.88H233.931C233.695 248.667 233.39 248.545 233.072 248.536V244.105C233.386 244.078 233.685 243.959 233.931 243.761H252.998ZM143.923 252.831C144.232 252.826 144.527 252.703 144.748 252.487H163.848C164.081 252.705 164.388 252.828 164.707 252.831V255.957H143.923V252.831ZM166.288 252.831C166.608 252.831 166.915 252.708 167.146 252.487H186.247C186.425 252.665 186.653 252.785 186.9 252.831V255.957H166.288V252.831ZM188.584 252.831C188.903 252.828 189.209 252.705 189.442 252.487H208.509C208.745 252.7 209.05 252.822 209.368 252.831V255.957H188.48L188.584 252.831ZM210.948 252.831C211.267 252.828 211.574 252.705 211.807 252.487H230.874C231.064 252.666 231.303 252.786 231.561 252.831V255.957H210.948V252.831ZM233.244 252.831C233.562 252.822 233.866 252.7 234.103 252.487H253.169C253.406 252.7 253.71 252.822 254.028 252.831V255.957H233.416L233.244 252.831ZM276.221 233.42V239.879C275.909 239.915 275.613 240.033 275.362 240.223H256.227C255.974 240.039 255.678 239.921 255.368 239.879V233.42H276.221ZM253.925 233.42V239.879C253.615 239.921 253.32 240.039 253.066 240.223H233.931C233.678 240.039 233.383 239.921 233.072 239.879V233.42H253.925ZM231.629 233.42V239.879C231.319 239.921 231.024 240.039 230.77 240.223H211.635C211.385 240.033 211.088 239.915 210.776 239.879V233.42H231.629ZM209.333 233.42V239.879C209.023 239.921 208.728 240.039 208.475 240.223H189.339C189.089 240.033 188.792 239.915 188.48 239.879V233.42H209.333ZM187.072 233.42V239.879C186.758 239.907 186.46 240.027 186.213 240.223H167.043C166.797 240.027 166.498 239.907 166.185 239.879V233.42H187.072ZM164.776 233.42V239.879C164.464 239.915 164.168 240.033 163.917 240.223H144.748C144.511 240.033 144.225 239.914 143.923 239.879V233.42H164.776ZM142.48 233.42V239.879C142.168 239.915 141.872 240.033 141.621 240.223H122.486C122.233 240.039 121.938 239.921 121.627 239.879V233.42H142.48ZM120.184 233.42V239.879C119.874 239.921 119.579 240.039 119.325 240.223H100.19C99.9367 240.039 99.6416 239.921 99.3313 239.879V233.42H120.184ZM97.8884 233.42V239.879C97.5781 239.921 97.283 240.039 97.0296 240.223H90.1587V234.279H82.2573V240.223H80.3678V233.352L97.8884 233.42ZM75.5925 233.42V239.913C75.2922 239.928 75.0039 240.036 74.768 240.223H55.5984C55.3481 240.033 55.0514 239.915 54.7395 239.879V233.42H75.5925ZM53.2623 239.879C52.9486 239.907 52.6501 240.027 52.4035 240.223H50.1704V233.352H53.2623V239.879ZM30.9664 233.42V239.879C30.6545 239.915 30.3579 240.033 30.1076 240.223H11.0066C10.76 240.027 10.4614 239.907 10.1478 239.879V233.42H30.9664ZM10.1478 255.854V252.831C10.4677 252.831 10.7756 252.708 11.0066 252.487H30.1076C30.3406 252.705 30.6472 252.828 30.9664 252.831V255.957L10.1478 255.854ZM51.3728 330.368L41.6506 297.491L42.853 296.289H59.7896L61.0264 297.491L51.3728 330.368ZM77.8599 330.368L68.1377 297.491L69.3744 296.289H86.3111L87.5135 297.491L77.8599 330.368ZM104.381 330.368L94.6591 297.491L95.8959 296.289H112.832L114.035 297.491L104.381 330.368ZM121.558 255.854V252.831C121.876 252.822 122.181 252.7 122.417 252.487H141.553C141.786 252.705 142.092 252.828 142.411 252.831V255.957L121.558 255.854ZM255.299 255.854V252.831C255.617 252.822 255.922 252.7 256.158 252.487H275.225C275.458 252.705 275.764 252.828 276.084 252.831V255.957L255.299 255.854Z" fill="#FAFAFA"/>
</g>
</svg>
