<svg width="244" height="359" viewBox="0 0 244 359" fill="none" xmlns="http://www.w3.org/2000/svg">
<circle cx="121.694" cy="226.196" r="114.398" fill="#203347"/>
<mask id="mask0_2010_231461" style="mask-type:alpha" maskUnits="userSpaceOnUse" x="7" y="26" width="230" height="315">
<path fill-rule="evenodd" clip-rule="evenodd" d="M196 26H21V171.858C12.2588 188.022 7.29626 206.529 7.29626 226.196C7.29626 289.376 58.5139 340.593 121.694 340.593C184.874 340.593 236.092 289.376 236.092 226.196C236.092 191.379 220.538 160.195 196 139.213V26Z" fill="#C4C4C4"/>
</mask>
<g mask="url(#mask0_2010_231461)">
<path fill-rule="evenodd" clip-rule="evenodd" d="M119.968 64.2472H142.522V78.9753H142.578L157.045 78.9753H163.873H170.729V345.346H157.045V327.976H142.578V345.346H130.993V327.976H118.512V345.346H100.463V327.976V324.884V315.019V311.927V302.089V298.997V289.132V286.04V276.203H73.4038V273.111H100.463V263.245H73.4038V260.154H100.463V250.316H73.4038V247.224H100.463V186.401H83.3937V185.585H77.1535V186.401H56.3621V345.346H23.3981V78.9753H31.681V72.1453H39.0406V64.2472H64.0294V59.7436L49.7021 57.0238V55.3374H95.7622V57.3049L73.6276 59.8172V64.2472H102.254V61.9143H112.944V55H116.526V61.9143H119.968V64.2472ZM118.512 324.884H130.993V315.019H118.512V324.884ZM142.578 324.884H157.045V315.019H142.578V324.884ZM157.045 302.089V311.927H142.578V302.089H157.045ZM130.993 302.089V311.927H118.512V302.089H130.993ZM118.512 298.997H130.993V289.132H118.512V298.997ZM142.578 298.997H157.045V289.132H142.578V298.997ZM157.045 276.203V286.04H142.578V276.203H157.045ZM130.993 276.203V286.04H118.512V276.203H130.993ZM118.512 273.111H130.993V263.245H118.512V273.111ZM142.578 273.111H157.045V263.245H142.578V273.111ZM157.045 250.316V260.154H142.578V250.316H157.045ZM130.993 250.316V260.154H118.512V250.316H130.993ZM118.512 247.224H130.993V237.359H118.512V247.224ZM142.578 247.224H157.045V237.359H142.578V247.224ZM157.045 224.429V234.267H142.578V224.429H157.045ZM130.993 224.429V234.267H118.512V224.429H130.993ZM118.512 221.338H130.993V211.472H118.512V221.338ZM142.578 221.338H157.045V211.472H142.578V221.338ZM157.045 198.543V208.38H142.578V198.543H157.045ZM130.993 198.543V208.38H118.512V198.543H130.993ZM118.512 195.451H130.993V185.585H118.512V195.451ZM142.578 195.451H157.045V185.585H142.578V195.451ZM157.045 172.656V182.494H142.578V172.656H157.045ZM130.993 172.656V182.494H118.512V172.656H130.993ZM83.3937 172.656V182.494H77.1535V172.656H83.3937ZM77.1535 169.564H83.3937V159.727H77.1535V169.564ZM118.512 169.564H130.993V159.727H118.512V169.564ZM142.578 169.564H157.045V159.727H142.578V169.564ZM157.045 146.77V156.635H142.578V146.77H157.045ZM130.993 146.77V156.635H118.512V146.77H130.993ZM83.3937 146.77V156.635H77.1535V146.77H83.3937ZM77.1535 143.678H83.3937V133.84H77.1535V143.678ZM118.512 143.678H130.993V133.84H118.512V143.678ZM142.578 143.678H157.045V133.84H142.578V143.678ZM157.045 120.883V130.749H142.578V120.883H157.045ZM130.993 120.883V130.749H118.512V120.883H130.993ZM83.3937 120.883V130.749H77.1535V120.883H83.3937ZM77.1535 117.791H83.3937V107.954H77.1535V117.791ZM118.512 117.791H130.993V107.954H118.512V117.791ZM142.578 117.791H157.045V107.954H142.578V117.791ZM157.045 94.9964V104.862H142.578V94.9964H157.045ZM130.993 94.9964V104.862H118.512V94.9964H130.993ZM83.3937 94.9964V104.862H77.1535V94.9964H83.3937ZM77.1535 91.9046H83.3937V82.0671H77.1535V91.9046ZM118.512 91.9046H130.993V82.0671H118.512V91.9046ZM142.578 91.9046H157.045V82.0671H142.578V91.9046Z" fill="#CAD6E1"/>
<path d="M209.989 211.447C209.653 210.772 208.422 210.013 207.89 209.423C207.359 208.833 204.364 206.416 203.637 205.797C203.049 205.291 200.027 203.324 199.663 203.043C199.299 202.762 196.893 200.064 195.41 199.895C194.43 199.782 192.891 199.754 192.891 199.754L192.835 198.574C192.835 198.574 195.13 198.939 196.417 198.18C197.061 197.787 198.432 196.663 198.628 195.257C198.684 194.892 198.628 192.362 198.348 191.8C198.068 191.238 196.081 189.692 195.634 189.467C195.102 189.158 193.983 188.512 192.388 188.961C191.576 189.186 191.716 189.973 191.66 190.535C191.604 191.097 190.877 191.21 190.877 191.21C190.877 191.21 189.449 191.266 189.17 191.35C188.75 191.463 189.198 192.559 189.198 192.559L188.694 193.177C188.694 193.177 188.358 193.515 188.162 193.711C187.966 193.908 187.714 193.936 187.686 194.611C187.658 195.201 188.078 195.454 188.078 195.454C188.078 195.454 188.33 196.213 188.302 196.775C188.246 197.703 187.966 199.052 187.966 199.052C187.966 199.052 187.77 198.995 186.987 198.939C186.791 198.939 186.511 198.939 186.203 198.995L186.595 198.855C186.595 198.855 186.427 195.482 186.679 193.655C186.931 191.828 187.798 184.998 187.826 184.014C187.882 180.248 186.371 173.109 185.504 171.956C185.084 171.422 186.511 168.331 186.735 166.7C187.015 164.564 187.379 158.549 187.099 156.694C187.015 156.104 186.287 154.193 186.511 153.771C186.763 153.35 187.742 152.703 188.078 152.872C188.414 153.04 189.589 154.755 190.709 154.333C191.38 154.08 191.772 153.855 191.772 153.855L192.416 153.265C192.416 153.265 193.003 153.968 193.199 153.743C193.395 153.518 193.311 152.253 193.311 152.253L194.878 150.876C194.878 150.876 196.277 150.23 196.445 149.133C196.613 148.037 195.83 144.721 194.934 143.821C194.039 142.922 192.304 142.135 190.988 142.753C190.988 142.753 190.681 141.067 190.597 140.505C190.513 139.942 189.17 138.593 188.47 138.481C187.77 138.397 185.56 141.123 184.608 142.556C183.825 143.737 180.187 143.484 179.823 143.006C179.515 143.54 179.907 144.412 180.075 144.917C180.243 145.423 180.523 145.62 180.523 145.62C180.523 145.62 179.599 146.463 179.403 146.688C179.068 147.054 179.18 148.515 179.599 149.162C180.019 149.808 180.719 151.298 180.719 151.551C180.719 151.804 180.075 153.687 180.075 154.586C180.075 155.486 180.103 161.163 180.131 161.725C180.131 162.26 179.963 163.609 179.683 164.536C179.487 165.239 178.872 165.632 177.752 166.672C176.857 167.487 174.982 172.153 176.941 175.47C178.816 178.646 180.999 181.794 181.502 182.525C182.006 183.255 182.314 184.014 182.314 184.014C182.314 184.014 181.838 184.858 181.614 185.926C181.362 186.994 181.194 188.905 181.25 189.889C181.306 191.182 181.446 196.185 181.39 197.253C181.362 197.871 181.502 198.546 181.642 199.052C181.614 199.052 181.558 198.995 181.53 198.995C180.831 198.742 179.991 197.843 179.991 197.843C179.991 197.843 180.215 197.478 180.243 197.112C180.271 196.663 178.704 196.016 178.76 195.847C178.872 195.51 179.264 195.004 178.984 194.92C178.704 194.836 177.752 194.836 177.529 194.667C177.305 194.498 177.277 194.077 177.053 193.908C176.829 193.739 176.353 193.346 176.353 193.346C176.353 193.346 176.689 192.924 176.829 192.756C176.969 192.587 177.137 191.884 176.269 192.194C175.486 192.475 174.786 192.728 174.171 192.587C173.639 192.447 170.757 193.458 170.197 195.145C169.777 196.438 169.525 198.742 170.169 199.839C170.561 200.513 172.268 201.581 172.995 201.75C173.723 201.919 175.598 201.75 175.598 201.75L175.85 202.34C175.85 202.34 174.45 202.734 173.527 202.846C172.184 203.043 170.421 204.701 169.358 205.488C168.378 206.219 164.628 209.058 163.873 209.704C163.425 210.098 158.584 216.843 157.745 217.377C157.437 217.574 157.241 218.558 157.157 218.867C157.101 219.148 157.661 220.329 158.164 220.329C158.668 220.329 159.647 219.401 159.871 218.67C160.095 217.94 162.866 215.016 163.201 214.707C163.537 214.398 165.888 212.655 166.475 212.009C167.063 211.363 170.365 209.817 170.953 209.423C171.652 208.973 172.52 208.439 172.52 208.439C172.52 208.439 173.275 209.311 173.583 210.379C174.031 212.093 174.646 214.258 174.702 215.326C174.786 216.394 174.115 218.67 174.115 219.373C174.115 220.076 174.003 224.264 174.003 224.91C174.003 225.557 173.891 226.091 173.891 226.091C173.891 226.091 173.051 227.918 172.827 229.014C172.604 230.11 171.96 232.19 171.848 232.977C171.764 233.792 171.484 234.916 171.484 234.916C171.484 234.916 169.665 235.956 168.826 237.081C168.014 238.177 166.14 240.875 165.412 242.702C164.992 243.77 163.537 247.143 163.033 247.817C162.53 248.492 161.774 249.897 161.438 250.178C161.103 250.488 160.627 250.656 160.431 250.994C160.179 251.387 160.011 252.596 160.683 252.849C161.354 253.102 161.606 253.411 161.746 253.832C161.858 254.198 161.97 255.125 162.054 255.603H155.394L168.322 340.121C168.966 342.847 182.538 343.916 182.538 343.916C182.538 343.916 196.109 342.847 196.753 340.121L209.681 255.603H203.413C204.029 254.76 205.036 253.467 205.736 253.158C206.603 252.792 207.135 252.596 206.799 251.921C206.435 251.134 205.875 251.331 205.568 250.853C204.7 249.532 203.749 247.199 203.245 245.878C202.825 244.782 202.657 242.421 202.21 241.072C201.09 237.699 196.977 235.254 196.249 234.776C195.746 232.302 195.13 229.435 194.962 228.789C194.794 228.142 193.675 224.123 193.451 222.718C193.759 218.98 192.5 216.759 192.416 215.073C192.276 212.459 193.647 209.704 193.983 208.468C194.235 207.512 194.906 205.348 194.99 205.263C195.074 205.179 195.69 205.01 195.969 205.038C196.249 205.067 198.152 206.331 198.88 206.697C199.859 207.231 201.986 207.821 202.881 208.243C203.777 208.664 206.827 210.547 206.939 210.8C207.051 211.053 206.883 212.88 207.079 213.19C207.303 213.499 207.778 213.049 207.778 212.74C207.778 212.431 207.834 211.447 207.834 211.447C207.834 211.447 208.31 211.756 208.646 212.037C208.982 212.346 209.681 213.527 209.905 213.836C210.213 214.229 211.36 213.948 211.528 213.667C211.724 213.386 210.409 212.065 210.073 211.391L209.989 211.447ZM182.594 146.52C183.545 146.744 183.797 146.744 184.049 146.688C184.301 146.66 185.364 146.042 185.56 145.564C185.756 145.114 187.071 143.428 187.239 143.147C187.407 142.866 188.302 141.826 188.302 141.826C188.582 141.938 189.561 142.697 189.561 142.697C189.561 142.697 188.302 144.187 188.05 144.552C187.798 144.917 187.407 145.901 187.351 146.323C187.323 146.744 187.267 147.897 187.267 147.897C187.267 147.897 185.56 149.611 185.308 149.836C184.916 150.173 182.929 149.021 182.761 148.684C182.566 148.347 182.258 147.784 182.594 146.52V146.52ZM164.069 255.687C164.013 255.153 164.181 253.748 164.237 253.355C164.349 252.652 164.041 251.668 164.572 250.6C164.796 250.15 166.279 247.368 166.699 246.834C167.119 246.272 171.54 240.819 171.932 240.425C172.324 240.032 173.555 239.526 173.919 239.132C174.339 238.655 174.506 237.924 175.038 237.305C175.57 236.687 179.543 230.756 179.795 229.351C179.907 228.677 180.243 227.918 180.523 227.299C180.523 229.52 180.747 232.668 180.803 233.427C180.859 234.467 181.67 239.02 181.782 240.172C181.894 241.325 182.258 248.885 182.202 250.319C182.146 251.752 181.306 253.411 180.831 253.945C180.439 254.394 179.655 254.647 179.348 254.957C179.096 255.21 179.012 255.491 179.208 255.659H164.097L164.069 255.687ZM192.584 235.984C193.171 236.715 193.591 237.783 193.787 238.402C194.151 239.413 195.186 239.16 195.913 240.032C196.641 240.903 200.111 245.653 200.727 246.89C201.342 248.127 202.07 249.982 202.07 250.712C202.07 251.443 202.21 253.158 202.014 253.495C201.818 253.86 201.314 255.294 200.95 255.406C200.643 255.519 200.391 255.575 200.027 255.659H182.23C182.314 255.519 183.237 254.057 184.301 253.973C184.916 253.917 185.448 253.495 185.196 252.736C185.14 252.539 184.944 251.64 184.944 250.15C184.944 248.661 185.7 243.826 185.952 242.899C186.315 241.493 186.791 235.029 186.819 233.455C186.819 231.965 187.099 229.745 187.099 229.745C187.099 229.745 188.386 230.7 188.722 231.234C189.393 232.302 192.36 235.703 192.556 235.956L192.584 235.984Z" fill="#FAFAFA"/>
<path d="M124.613 173.109V170.27H119.184V161.782H123.241V158.381H114.651V149.639H117.561V145.873H43.9655V149.639H46.8758V158.381H38.285V161.782H42.3425V170.27H36.9138V173.109L42.3425 176.931V256.924H38.9566V259.088L42.3425 261.449V340.571H67.2474V283.879H71.305C71.305 283.879 74.0753 281.743 76.202 281.658C78.3287 281.574 80.7353 282.867 80.7353 282.867C80.7353 282.867 83.1418 281.574 85.2685 281.658C87.3952 281.743 90.1655 283.879 90.1655 283.879H94.2231V340.571H119.128V261.449L122.514 259.088V256.924H119.128V176.931L124.557 173.109H124.613ZM79.588 229.126H67.6112V207.259H79.588V229.126ZM79.588 204.926H67.6112V188.146H79.588V204.926ZM93.9153 229.126H81.9385V207.259H93.9153V229.126ZM93.9153 204.926H81.9385V188.146H93.9153V204.926Z" fill="#FAFAFA"/>
</g>
</svg>
