<svg width="244" height="359" viewBox="0 0 244 359" fill="none" xmlns="http://www.w3.org/2000/svg">
<circle cx="121.708" cy="226.499" r="114.398" fill="#203347"/>
<mask id="mask0_837_180151" style="mask-type:alpha" maskUnits="userSpaceOnUse" x="7" y="26" width="230" height="315">
<path fill-rule="evenodd" clip-rule="evenodd" d="M213.128 26.1245H32.6329V154.712C16.7938 174.341 7.31042 199.312 7.31042 226.499C7.31042 289.679 58.528 340.897 121.708 340.897C184.888 340.897 236.106 289.679 236.106 226.499C236.106 200.682 227.554 176.863 213.128 157.719V26.1245Z" fill="#C4C4C4"/>
</mask>
<g mask="url(#mask0_837_180151)">
<path d="M113.845 158.906C113.845 134.316 97.2565 112.349 86.745 98.8258L80.7775 16.0332L74.7826 98.8258C64.271 112.349 47.6825 134.316 47.6825 158.906V216.391C47.6825 231.846 54.2522 246.252 61.7253 258.201V340.994H76.5893V306.138H84.9656V341.077H99.8023V258.284C107.275 246.334 113.845 231.929 113.845 216.474V158.906ZM108.562 158.906V162.493H95.9152V152.613H108.124C108.392 154.7 108.539 156.801 108.562 158.906ZM108.042 223.318H95.9152V213.438H108.562V216.391C108.539 218.709 108.366 221.023 108.042 223.318ZM52.9656 216.391V213.438H65.6124V223.318H53.4857C53.1618 221.023 52.9881 218.709 52.9656 216.391ZM53.4036 152.613H65.6124V162.493H52.9656V158.906C52.9889 156.801 53.1352 154.7 53.4036 152.613ZM76.1513 223.318V213.438H85.4036V223.318H76.1513ZM85.4036 228.644V238.524H76.1513V228.644H85.4036ZM65.6397 167.93V177.81H52.9656V167.82L65.6397 167.93ZM65.6397 183.136V193.016H52.9656V183.026L65.6397 183.136ZM65.6397 198.342V208.222H52.9656V198.232L65.6397 198.342ZM65.6397 228.7V238.58H57.5645C56.2822 235.369 55.2391 232.067 54.4438 228.7H65.6397ZM65.6397 243.906V254.393C63.5399 250.984 61.6211 247.465 59.8912 243.851L65.6397 243.906ZM79.6004 274.07C78.5054 272.69 77.3557 271.2 76.1513 269.599V243.851H85.4036V269.572L81.9819 274.015L80.8048 275.008L79.6004 274.07ZM96.0247 243.906H101.773C100.043 247.52 98.1245 251.039 96.0247 254.448V243.906ZM96.0247 238.58V228.644H107.193C106.407 232.011 105.373 235.313 104.1 238.524L96.0247 238.58ZM96.0247 208.222V198.232H108.671V208.112L96.0247 208.222ZM96.0247 193.016V183.026H108.671V192.906L96.0247 193.016ZM96.0247 177.81V167.82H108.671V177.699L96.0247 177.81ZM54.4438 147.453C55.1833 144.089 56.1715 140.787 57.4002 137.573H104.237C105.495 140.73 106.52 143.977 107.303 147.287L54.4438 147.453ZM102.074 132.274H59.5627C61.1339 128.886 62.8884 125.588 64.8185 122.394H96.709C98.6338 125.534 100.388 128.777 101.965 132.108L102.074 132.274ZM81.9272 101.254C85.2941 105.587 89.3728 110.886 93.342 116.902H68.1855C72.1547 110.886 76.2334 105.587 79.6004 101.254H81.9272ZM76.5893 300.812V285.385L80.8048 281.88L84.9656 285.357V300.812H76.5893Z" fill="#CAD6E1"/>
<path d="M136.33 196.433C134.574 193.179 132.076 190.386 129.038 188.279C126.248 186.12 123.018 184.6 119.576 183.826C118.44 183.484 117.238 183.419 116.071 183.637C114.904 183.855 113.806 184.349 112.87 185.078C105.885 183.798 100.541 185.078 97.8141 188.78C96.5421 190.581 95.9058 192.755 96.0052 194.958V257.406H89.6323V368.723H96.0052V441.814H148.88C150.18 441.814 151.425 441.298 152.344 440.38C153.262 439.461 153.778 380.263 153.778 378.964V223.121C154.001 215.468 147.461 205.115 136.33 196.433ZM151.051 223.01C151.065 223.167 151.065 223.325 151.051 223.483C151.051 223.483 151.051 223.622 151.051 223.705C150.812 224.9 150.4 226.053 149.827 227.128C147.684 229.911 143.12 230.774 137.471 229.716V200.941C145.986 208.455 151.218 217.054 151.051 223.01ZM117.183 186.359C117.81 186.361 118.434 186.427 119.048 186.553C122.081 187.26 124.927 188.607 127.396 190.505C132.016 193.928 134.576 198.075 134.576 200.551V200.774C134.576 200.997 134.576 201.164 134.576 201.331C134.532 201.54 134.447 201.739 134.326 201.915C134.149 202.15 133.921 202.34 133.658 202.472C133.341 202.617 133.003 202.711 132.656 202.75C131.651 202.868 130.632 202.802 129.651 202.555H129.4C126.559 201.798 123.893 200.494 121.552 198.715C120.912 198.242 120.272 197.741 119.688 197.212L119.131 196.683C118.769 196.349 118.435 196.015 118.101 195.653L117.434 194.902L116.794 194.123L116.153 193.232L115.792 192.676C114.901 191.412 114.416 189.908 114.4 188.362V188.056C114.451 187.788 114.555 187.532 114.706 187.305C115.032 186.985 115.42 186.736 115.846 186.573C116.272 186.41 116.727 186.337 117.183 186.359ZM99.9291 190.422C101.849 187.833 105.912 186.859 111.061 187.639V189.002V215.607C106.016 211.285 102.051 205.843 99.4838 199.717C99.0723 198.151 98.7564 196.562 98.5376 194.958C98.4891 193.334 98.9782 191.739 99.9291 190.422Z" fill="#FAFAFA"/>
<path d="M64.0763 268.938L65.9179 269.961L171.126 179.008L171.774 142.927C171.774 142.927 171.774 142.586 172.831 142.586C173.889 142.586 173.855 142.927 173.855 142.927L174.468 178.121L190.667 177.849V180.372L174.502 180.645L175.423 230.402L202.706 228.492C203.149 229.31 203.593 230.129 204.07 230.913L175.287 232.925L175.798 246.635H182.107V247.862L180.129 256.593H175.798L176.037 269.143L238.003 264.812L238.685 260.515L223.918 260.14C223.796 260.095 223.692 260.009 223.624 259.898C223.556 259.787 223.527 259.655 223.543 259.526C223.526 259.414 223.548 259.299 223.603 259.201C223.659 259.102 223.745 259.024 223.85 258.98L224.668 260.037H232.41L233.433 258.707H239.06L240.594 249.499L244.005 244.998L241.89 258.639L259.692 258.162V253.148H255.259L253.281 244.418V242.918H259.692L259.965 226.719L254.918 227.094C255.361 226.207 255.805 225.32 256.282 224.468L259.999 224.195V217.613H259.385C261.64 212.583 263.421 207.354 264.705 201.994L264.944 214.748L276.539 215.158L271.969 185.965L266.479 182.146V179.076L271.424 182.487L270.06 173.756L266.479 173.961V171.301L281.859 172.085C281.859 172.085 281.859 172.085 281.859 172.665C281.859 173.245 281.859 173.245 281.859 173.245L272.583 173.722L274.288 184.601L313.916 212.225L314.257 192.206C314.257 192.206 314.257 191.967 314.939 191.967C315.622 191.967 315.656 192.206 315.656 192.206L316.031 214.032L328.274 214.953C328.274 214.953 328.274 214.953 328.274 215.533C328.274 216.112 328.274 216.112 328.274 216.112L316.61 216.999L321.453 242.44L335.094 243.122C335.094 243.122 335.299 243.122 335.299 243.702C335.299 244.282 335.094 244.282 335.094 244.282L322.067 244.964L326.876 270.541L338.334 271.087C338.334 271.087 338.607 271.087 338.607 271.666C338.607 272.246 338.334 272.246 338.334 272.246L327.319 272.792L333.116 303.485C333.116 303.485 334.344 327.357 315.519 337.281C311.393 339.43 150.426 340.078 150.426 340.078L144.219 333.871L143.639 327.664L128.872 318.49L127.44 309.044L64.2127 271.871L64.0763 268.938ZM317.565 303.348H330.422L324.625 272.826L317.054 273.133L317.565 303.348ZM316.883 264.368H320.498V265.119L319.373 270.2L324.181 270.371L319.373 244.998H316.576L316.883 264.368ZM316.508 242.133H318.861L316.269 228.492L316.508 242.133ZM313.609 228.697L311.052 242.338H313.371L313.609 228.697ZM313.337 245.168H310.54L305.732 270.541L310.54 270.2L309.381 265.119V264.368H312.996L313.337 245.168ZM310.779 305.463V303.348H312.211L312.723 273.133L305.118 272.826L298.945 305.463H310.779ZM296.524 305.463L302.696 272.724L288.271 272.178C288.271 272.178 287.998 272.178 287.998 271.598C287.998 271.019 288.271 271.019 288.271 271.019L303.14 270.473L307.982 244.896L294.955 244.213C294.955 244.213 294.75 244.213 294.75 243.634C294.75 243.054 294.955 243.054 294.955 243.054L308.596 242.372L313.405 216.931L301.742 216.044C301.742 216.044 301.742 216.044 301.742 215.464C301.742 214.885 301.742 214.885 301.742 214.885L312.211 214.066L274.698 187.943L278.995 215.226L291.34 215.635C291.34 215.635 291.647 215.635 291.647 216.215C291.647 216.794 291.34 216.829 291.34 216.829L279.302 217.238L285.781 258.571L300.991 258.946C301.108 258.99 301.207 259.07 301.275 259.174C301.342 259.278 301.374 259.402 301.366 259.526C301.382 259.655 301.354 259.787 301.286 259.898C301.217 260.009 301.114 260.095 300.991 260.14L286.088 260.515L293.113 305.463H296.524ZM266.547 308.259H268.559V305.463H290.692L283.667 260.583L265.729 261.06L266.547 308.259ZM265.422 242.918H271.833V244.145L269.855 252.876H265.592V257.889L283.258 258.366L276.778 217.17L264.876 217.613L265.422 242.918ZM259.385 260.924L241.311 260.447L240.663 264.505L259.351 263.379L259.385 260.924ZM258.567 308.123L259.283 265.733L240.253 267.063L233.876 307.986L258.567 308.123ZM176.719 308.123H231.284L237.662 267.199L176.276 271.496L176.719 308.123ZM170.478 215.635L164.101 246.532L170.069 238.45L170.478 215.635ZM170.001 242.918L167.238 246.669H169.933L170.001 242.918ZM168.978 308.259L169.762 256.559H165.567L164.237 250.727L162.907 252.501L151.381 308.225L168.978 308.259ZM135.898 307.714L138.558 308.225H148.789L159.292 257.343L126.042 302.393L135.898 307.714ZM123.791 301.166L160.52 251.477L168.023 215.089L92.7912 284.455L123.791 301.166ZM90.5404 283.193L168.978 210.861L170.717 201.994L171.092 182.316L68.3051 270.984L90.5404 283.193Z" fill="#CAD6E1"/>
</g>
</svg>
