<svg width="244" height="359" viewBox="0 0 244 359" fill="none" xmlns="http://www.w3.org/2000/svg">
<circle cx="122.201" cy="226.105" r="114.398" fill="#203347"/>
<mask id="mask0_837_180157" style="mask-type:alpha" maskUnits="userSpaceOnUse" x="7" y="47" width="230" height="294">
<path fill-rule="evenodd" clip-rule="evenodd" d="M236.599 47.6235H7.80334V173.458H20.6111C12.4276 189.217 7.80334 207.121 7.80334 226.105C7.80334 289.285 59.0209 340.503 122.201 340.503C185.381 340.503 236.599 289.285 236.599 226.105C236.599 207.121 231.975 189.217 223.791 173.458H236.599V47.6235Z" fill="#C4C4C4"/>
</mask>
<g mask="url(#mask0_837_180157)">
<path d="M208.283 262.386L191.815 265.077V237.048H194.002V235.014L188.382 234.226C188.392 234.08 188.392 233.934 188.382 233.788C188.382 232.628 187.921 231.514 187.101 230.694C186.281 229.873 185.168 229.412 184.008 229.412V200.967H181.821V202.499C181.012 203.505 180.509 204.906 179.394 205.168C177.46 205.772 175.625 206.656 173.949 207.794C174.08 210.376 174.058 213.986 174.058 213.986C174.058 213.986 176.835 213.855 177.579 212.892C178.02 212.237 178.587 211.676 179.248 211.244C179.909 210.812 180.651 210.517 181.428 210.376H181.887V229.915C181.136 230.273 180.502 230.838 180.061 231.543C179.619 232.249 179.388 233.065 179.394 233.898C179.383 234.065 179.383 234.233 179.394 234.401L173.096 235.539V237.333H175.895V249.323L148.406 248.645V244.269C156.104 245.56 161.964 246.829 161.964 246.829V234.445L87.0201 232.257V244.75C87.0201 244.75 91.3939 243.788 98.698 242.912V247.289L76.0201 246.72V233.591H78.207V231.556L72.5867 230.769C72.5975 230.616 72.5975 230.462 72.5867 230.309C72.5867 229.149 72.1259 228.035 71.3057 227.215C70.4854 226.394 69.373 225.933 68.213 225.933V197.488H66.0261V199.107C65.2607 200.114 64.7796 201.427 63.6861 201.689C61.7521 202.293 59.9173 203.177 58.2408 204.315C58.372 206.897 58.2408 210.507 58.2408 210.507C58.2408 210.507 61.0181 210.376 61.7617 209.413C62.195 208.765 62.7524 208.208 63.4018 207.776C64.0511 207.345 64.7795 207.046 65.545 206.897H65.9167V226.414H66.0698C65.3188 226.772 64.6853 227.337 64.2438 228.042C63.8022 228.748 63.5708 229.564 63.5768 230.397C63.5768 230.594 63.5768 230.747 63.5768 230.922L57.4316 232.257V234.051H60.2308V246.982C50.7272 249.123 41.6151 252.733 33.2229 257.682C33.5072 264.071 33.5072 311.092 33.5072 311.092L39.1275 311.267V349.669L42.0142 351.857V311.246H44.5072V354.22L47.372 354.592V311.421L73.9645 312.34V349.844H77.7915V312.34L82.6026 312.493V349.778H86.4078V312.493L117.199 311.902L122.994 311.705V358.509H127.805V311.661L132.485 311.486V358.64H137.275V311.464L171.215 312.164V358.64H175.917V312.252L185.036 312.427V358.684H189.803V312.536L204.39 312.821V323.039L209.179 318.51V312.93L208.283 262.386ZM146.634 248.579L135.197 248.295V242.322C139.09 242.737 143.004 243.284 146.634 243.853V248.579ZM124.766 241.643C127.412 241.643 130.298 241.862 133.251 242.125V248.251L116.259 247.836V241.709C119.058 241.643 121.835 241.6 124.809 241.643H124.766ZM100.557 242.781C104.471 242.344 109.129 241.972 114.356 241.775V247.792L100.557 247.442V242.781Z" fill="#CAD6E1"/>
<path d="M122.201 168.219C126.575 168.219 130.686 168.416 134.666 168.766V135.989C134.666 134.304 129.09 132.947 122.201 132.947C115.312 132.947 109.736 134.304 109.736 135.989V168.81C113.716 168.416 117.893 168.219 122.201 168.219Z" fill="#FAFAFA"/>
<path d="M122.201 207.407C117.827 207.407 113.716 207.232 109.736 206.882V362.65H134.666V206.882C130.686 207.232 126.509 207.407 122.201 207.407Z" fill="#FAFAFA"/>
<path d="M109.736 186.818H134.666C134.316 178.066 129.286 172.07 122.201 172.07C115.115 172.07 110.064 178.087 109.736 186.818Z" fill="#FAFAFA"/>
<path d="M155.376 176.731C160.143 179.466 163.008 182.901 163.424 186.818H167.579C166.923 182.792 162.549 179.313 155.376 176.731Z" fill="#FAFAFA"/>
<path d="M100.66 186.818H107.986C107.979 184.261 108.499 181.731 109.515 179.385C110.531 177.039 112.021 174.929 113.891 173.186C106.171 175.199 101.141 180.232 100.66 186.818Z" fill="#FAFAFA"/>
<path d="M82.7935 186.818H89.0261C89.4416 182.07 92.7219 178.066 98.1235 175.09C89.1791 177.716 83.4714 181.938 82.7935 186.818Z" fill="#FAFAFA"/>
<path d="M90.7974 186.818H98.9107C99.0961 184.128 99.9517 181.527 101.399 179.253C102.847 176.979 104.841 175.104 107.199 173.799C97.686 176.206 91.4316 180.932 90.7974 186.818Z" fill="#FAFAFA"/>
<path d="M137.203 173.799C139.561 175.104 141.555 176.979 143.002 179.253C144.45 181.527 145.306 184.128 145.491 186.818H153.604C152.97 180.932 146.738 176.206 137.203 173.799Z" fill="#FAFAFA"/>
<path d="M137.203 201.828C146.738 199.421 152.97 194.695 153.604 188.7H145.491C145.328 191.41 144.482 194.034 143.033 196.329C141.584 198.625 139.578 200.516 137.203 201.828Z" fill="#FAFAFA"/>
<path d="M161.609 188.809H155.376C154.96 193.557 151.702 197.561 146.279 200.537C155.245 197.933 160.931 193.776 161.609 188.809Z" fill="#FAFAFA"/>
<path d="M146.279 175.09C151.702 178.022 155.026 182.07 155.376 186.818H161.609C160.931 181.938 155.245 177.716 146.279 175.09Z" fill="#FAFAFA"/>
<path d="M136.416 186.818H143.742C143.283 180.254 138.231 175.199 130.62 173.121C132.479 174.88 133.953 177.006 134.95 179.363C135.947 181.72 136.446 184.258 136.416 186.818Z" fill="#FAFAFA"/>
<path d="M143.742 188.809H136.416C136.432 191.377 135.916 193.92 134.9 196.278C133.883 198.635 132.389 200.756 130.511 202.506C138.231 200.428 143.282 195.395 143.742 188.809Z" fill="#FAFAFA"/>
<path d="M107.986 188.809H100.66C101.141 195.373 106.171 200.428 113.781 202.506C111.923 200.747 110.449 198.621 109.452 196.264C108.455 193.907 107.956 191.369 107.986 188.809Z" fill="#FAFAFA"/>
<path d="M134.666 188.809H109.736C110.086 197.561 115.115 203.557 122.201 203.557C129.286 203.557 134.316 197.539 134.666 188.809Z" fill="#FAFAFA"/>
<path d="M163.424 188.809C163.008 192.726 160.143 196.161 155.376 198.896C162.549 196.336 166.923 192.879 167.579 188.809H163.424Z" fill="#FAFAFA"/>
<path d="M89.0261 188.809H82.7935C83.4714 193.776 89.1791 197.933 98.1016 200.537C92.7219 197.627 89.4416 193.557 89.0261 188.809Z" fill="#FAFAFA"/>
<path d="M98.9107 188.809H90.7974C91.4316 194.695 97.686 199.421 107.199 201.937C104.823 200.626 102.818 198.734 101.369 196.439C99.9198 194.144 99.0742 191.519 98.9107 188.809Z" fill="#FAFAFA"/>
<path d="M89.026 198.896C84.2586 196.161 81.3938 192.748 80.9783 188.809H76.8232C77.4574 192.879 81.8749 196.336 89.026 198.896Z" fill="#FAFAFA"/>
<path d="M76.8232 186.818H80.9783C81.3938 182.901 84.2586 179.466 89.026 176.731C81.8749 179.313 77.4574 182.792 76.8232 186.818Z" fill="#FAFAFA"/>
</g>
</svg>
