<svg width="244" height="359" viewBox="0 0 244 359" fill="none" xmlns="http://www.w3.org/2000/svg">
<circle cx="121.694" cy="226.105" r="114.398" fill="#203347"/>
<mask id="mask0_837_180159" style="mask-type:alpha" maskUnits="userSpaceOnUse" x="7" y="47" width="230" height="294">
<path fill-rule="evenodd" clip-rule="evenodd" d="M236.092 47.6235H7.29639V173.458H20.1041C11.9206 189.217 7.29639 207.121 7.29639 226.105C7.29639 289.285 58.514 340.503 121.694 340.503C184.874 340.503 236.092 289.285 236.092 226.105C236.092 207.121 231.468 189.217 223.284 173.458H236.092V47.6235Z" fill="#C4C4C4"/>
</mask>
<g mask="url(#mask0_837_180159)">
<path d="M144.558 213.078L126.729 205.398L139.206 202.304V194.832L135.209 193.129L107.735 197.196L45.281 170.243L36.3143 172.659L36.2969 183.241L41.5275 185.257L30.041 313.624H32.7345L43.6475 191.67L56.5763 301.721L58.3314 293.901L45.7502 186.873L131.647 219.873L132.446 223.696L133.645 227.293L136.79 307.855L142.021 308.463L143.637 308.654L143.185 228.249L144.541 221.646L144.558 213.078Z" fill="#CAD6E1"/>
<path d="M220.046 156.418L195.572 145.871L212.696 141.636V132.392L207.198 130.05L169.082 134.428L83.7676 97.6143L71.449 100.933L71.4286 115.471L78.5958 118.24L61.3293 302.45H65.0148L81.5482 126.12L104.312 297.441L107.937 297.156L84.4802 120.521L197.364 164.257L198.443 169.51L199.97 174.295L209.397 302.45H218.784L218.173 177.248L220.026 168.187L220.046 156.418Z" fill="#CAD6E1"/>
<path d="M182.328 265.706V261.927C182.308 260.371 181.813 258.857 180.908 257.591C180.003 256.324 178.733 255.365 177.267 254.841V249.071H172.34V254.841C170.849 255.342 169.549 256.292 168.619 257.561C167.689 258.829 167.174 260.354 167.144 261.927V265.706H165.187V245.664V241.884C165.212 240.279 164.726 238.707 163.798 237.396C162.869 236.086 161.548 235.105 160.025 234.596V229.063H155.098V234.596C153.795 234.971 152.625 235.708 151.724 236.722V224.103C151.668 217.392 149.369 210.894 145.193 205.641C141.017 200.389 135.203 196.685 128.678 195.118V185.671H124.157V174.063H119.231V185.671H114.676V195.118C108.151 196.685 102.337 200.389 98.1609 205.641C93.9846 210.894 91.6856 217.392 91.63 224.103V236.857C90.7295 235.843 89.5593 235.106 88.2558 234.731V229.063H83.3632V234.596C81.8684 235.104 80.57 236.066 79.6501 237.349C78.7303 238.632 78.2353 240.171 78.2345 241.75V245.529V265.571H76.2775V261.927C76.2529 260.363 75.7475 258.843 74.8301 257.576C73.9126 256.308 72.6273 255.354 71.1487 254.841V249.071H66.2224V254.841C64.7213 255.354 63.4174 256.321 62.4921 257.609C61.5667 258.898 61.0661 260.442 61.0599 262.028V265.807H57.8882V342.373H185.5V265.807L182.328 265.706ZM86.1638 292.126V252.682H97.0287V286.221L86.1638 292.126ZM106.409 281.194V252.682H117.274V275.289L106.409 281.194ZM126.654 275.289V252.682H137.519V281.194L126.654 275.289ZM146.73 286.221V252.682H157.595V292.126L146.73 286.221Z" fill="#FAFAFA"/>
</g>
</svg>
