<svg width="244" height="359" viewBox="0 0 244 359" fill="none" xmlns="http://www.w3.org/2000/svg">
<circle cx="121.694" cy="226.196" r="114.398" fill="#203347"/>
<mask id="mask0_1617_229455" style="mask-type:alpha" maskUnits="userSpaceOnUse" x="7" y="25" width="230" height="316">
<path fill-rule="evenodd" clip-rule="evenodd" d="M213.114 25.8213H32.6188V154.409C16.7796 174.038 7.29626 199.009 7.29626 226.196C7.29626 289.376 58.5139 340.593 121.694 340.593C184.874 340.593 236.092 289.376 236.092 226.196C236.092 200.379 227.54 176.559 213.114 157.416V25.8213Z" fill="#C4C4C4"/>
</mask>
<g mask="url(#mask0_1617_229455)">
<path d="M125.964 225.28H100.07V164.185H103.245V162.025C103.245 162.025 98.9252 159.421 97.624 158.12C96.3228 156.818 87.6567 135.889 86.9541 134.432C86.2254 133 86.0953 133 84.9502 133C83.8051 133 83.649 133 82.9463 134.432C82.2177 135.863 73.5516 156.818 72.2764 158.12C70.9752 159.421 66.6552 162.025 66.6552 162.025V164.185H69.8302V225.28H43.9361L3 255.866H13.8261V289.108H79.5372V238.347H90.4413V289.108H156.152V255.866H166.978L126.042 225.28H125.964ZM68.0345 266.877H64.287V258.053H68.0345V266.877ZM82.0095 225.28H80.7343V216.117H82.0095V225.28ZM86.824 223.223L83.5969 219.996V218.199L86.824 221.427V223.223ZM89.6606 225.28H88.3854V216.117H89.6606V225.28ZM89.6606 211.561H80.7343V210.286H89.6606V211.561ZM86.902 196.724V197.999H80.7343V195.761H82.0095V196.724H86.902ZM82.0095 202.555V208.698H80.7343V202.555H82.0095ZM89.6606 208.698H88.3854V202.555H89.6606V208.698ZM89.6606 193.027V197.999H88.3854V194.199H80.7343V189.123H82.0095V192.923H89.6606V193.001V193.027ZM89.6606 190.424V191.387H88.3854V190.424H83.4929V189.149H89.6606V190.424ZM84.9242 182.251C80.6822 182.251 77.2731 178.815 77.2731 174.597C77.2731 170.38 80.7083 166.944 84.9242 166.944C89.1401 166.944 92.5753 170.38 92.5753 174.597C92.5753 178.815 89.1401 182.251 84.9242 182.251ZM105.561 266.877H101.814V258.053H105.561V266.877Z" fill="#CAD6E1"/>
<path d="M202.103 228.572V170.107L190.835 155.373V128.015L191.746 127.103V126.114L189.143 123.98V107.346L188.232 100.942L187.322 107.346V122.47L186.072 121.429L185.5 121.533V99.8751L182.481 94.9552L181.648 62L180.816 94.9552L177.797 99.8751V122.834L175.559 123.199V105.706L174.544 98.7037L173.529 105.706V123.537L171.109 123.954V125.125L173.19 127.546V156.232L147.479 161.308V220.398L-94 251.089V305.676L-78.5416 306.014V271.263L-69.0688 270.482V306.223L-64.2804 306.327V270.092L-54.8076 269.311V306.535L-50.0191 306.639V268.92L-40.5463 268.139V306.847L-35.7578 306.951V267.749L-26.285 266.968V307.16L-21.4966 307.264V266.577L-12.0238 265.796V307.472L-7.23531 307.576V265.406L2.2375 264.625V307.784L7.02595 307.889V264.235L16.4988 263.454V308.097L21.2872 308.201V263.063L30.76 262.282V308.409L35.5485 308.513V261.892L45.0213 261.111V308.722L49.8097 308.826V260.72L59.2825 259.94V309.008L64.071 309.112V259.523L73.5438 258.742V309.294L78.3323 309.398V258.352L87.8051 257.571V309.607L92.5935 309.711V257.18L102.066 256.399V309.919L106.855 310.023V256.009L116.328 255.228V310.231L121.116 310.335V254.837L130.589 254.057V310.544L189.143 311.871L223.027 309.19V244.243L202.155 228.39L202.103 228.572ZM175.116 202.645C170.77 202.645 167.231 198.819 167.231 194.081C167.231 189.344 170.77 185.517 175.116 185.517C179.462 185.517 183.002 189.344 183.002 194.081C183.002 198.819 179.462 202.645 175.116 202.645ZM195.467 205.405C193.411 205.405 191.772 201.682 191.772 197.101C191.772 192.519 193.437 188.797 195.467 188.797C197.497 188.797 199.163 192.519 199.163 197.101C199.163 201.682 197.497 205.405 195.467 205.405Z" fill="#CAD6E1"/>
<path d="M16 287.017L175.653 298.499L176.073 303.317L16.42 303.092L16 287.017Z" fill="#FAFAFA"/>
<path d="M199.648 245.482C187.889 242.373 169.297 237.444 130.042 236.296C47.5554 233.887 31.2597 246.911 29.0757 248.843C26.0518 251.504 27.1437 256.265 27.4797 259.29C27.9277 263.295 41.6195 344.402 41.6195 344.402L193.88 345.158C193.88 345.158 210.82 258.281 211.016 255.649C211.212 253.016 211.408 248.591 199.648 245.482ZM139.03 254.668C138.834 255.453 135.25 260.494 133.57 260.13C131.918 260.494 128.334 255.453 128.11 254.668C127.998 254.248 127.382 250.047 128.222 248.899C129.174 247.583 132.59 246.659 133.402 246.462C133.514 246.434 133.626 246.434 133.738 246.462C134.55 246.659 137.938 247.583 138.918 248.899C139.758 250.047 139.142 254.248 139.03 254.668Z" fill="#FAFAFA"/>
</g>
</svg>
