<svg width="245" height="359" viewBox="0 0 245 359" fill="none" xmlns="http://www.w3.org/2000/svg">
<circle cx="122.398" cy="226.105" r="114.398" fill="#203347"/>
<mask id="mask0_837_180158" style="mask-type:alpha" maskUnits="userSpaceOnUse" x="8" y="47" width="229" height="294">
<path fill-rule="evenodd" clip-rule="evenodd" d="M236.795 47.6235H8V173.458H20.8077C12.6242 189.217 8 207.121 8 226.105C8 289.285 59.2176 340.503 122.398 340.503C185.578 340.503 236.795 289.285 236.795 226.105C236.795 207.121 232.171 189.217 223.988 173.458H236.795V47.6235Z" fill="#C4C4C4"/>
</mask>
<g mask="url(#mask0_837_180158)">
<path d="M180.465 139.336C189.796 141.16 203.846 169.411 207.788 182.825C211.863 196.696 229.533 273.184 232.938 328.21C232.938 330.383 239.91 306.264 239.695 303.689C235.083 249.039 223.366 175.743 220.685 162.838C216.797 144.219 205.187 126.834 195.856 125.01L193.174 124.768C181.323 124.768 175.317 128.175 164.511 132.28C164.141 132.423 163.783 132.593 163.439 132.79C146.654 142.555 133.033 160.504 122.093 180.062C103.753 212.847 57.9021 329.283 57.9021 329.283L77.6366 338.888C77.6366 338.888 89.4612 342.107 90.8287 338.271C99.7574 313.132 134.346 216.227 147.136 188.433C157.138 166.97 168.909 148.619 180.197 139.551L180.465 139.336Z" fill="#CAD6E1"/>
<path d="M126.517 340.417C126.341 340.41 126.168 340.369 126.008 340.295C125.848 340.221 125.704 340.116 125.584 339.987C125.465 339.857 125.372 339.705 125.311 339.54C125.25 339.374 125.223 339.198 125.23 339.022L129.788 223.659C129.787 223.48 129.824 223.304 129.895 223.14C129.967 222.976 130.071 222.829 130.202 222.708C130.333 222.587 130.488 222.495 130.657 222.437C130.826 222.379 131.005 222.356 131.182 222.371C131.359 222.378 131.532 222.42 131.692 222.494C131.852 222.567 131.995 222.672 132.115 222.802C132.235 222.931 132.327 223.083 132.388 223.249C132.449 223.414 132.477 223.59 132.469 223.766L127.911 339.13C127.904 339.306 127.863 339.479 127.789 339.639C127.715 339.799 127.61 339.943 127.481 340.063C127.351 340.182 127.2 340.275 127.034 340.336C126.869 340.397 126.693 340.425 126.517 340.417Z" fill="#CAD6E1"/>
<path d="M132.443 340.417C132.267 340.404 132.095 340.355 131.937 340.275C131.78 340.195 131.64 340.084 131.525 339.95C131.41 339.815 131.323 339.659 131.269 339.49C131.215 339.322 131.195 339.145 131.209 338.968L143.785 188.003C143.795 187.826 143.841 187.652 143.92 187.493C143.999 187.333 144.109 187.191 144.245 187.076C144.38 186.961 144.537 186.874 144.707 186.821C144.877 186.769 145.056 186.751 145.233 186.769C145.409 186.783 145.581 186.831 145.738 186.911C145.896 186.992 146.036 187.102 146.151 187.237C146.265 187.372 146.352 187.528 146.406 187.696C146.46 187.864 146.481 188.042 146.466 188.218L133.891 339.183C133.877 339.359 133.829 339.531 133.749 339.689C133.669 339.847 133.558 339.987 133.423 340.102C133.289 340.216 133.133 340.303 132.965 340.357C132.796 340.411 132.619 340.432 132.443 340.417Z" fill="#CAD6E1"/>
<path d="M138.824 340.418H138.663C138.31 340.371 137.988 340.187 137.768 339.907C137.548 339.626 137.446 339.27 137.484 338.915L158.934 159.807C158.954 159.63 159.009 159.459 159.095 159.304C159.182 159.149 159.298 159.012 159.438 158.902C159.578 158.793 159.738 158.712 159.909 158.664C160.08 158.617 160.259 158.604 160.436 158.626C160.611 158.646 160.781 158.701 160.935 158.788C161.089 158.875 161.224 158.992 161.332 159.132C161.439 159.273 161.517 159.433 161.562 159.604C161.606 159.776 161.615 159.954 161.589 160.129L140.245 339.344C140.181 339.666 140 339.953 139.739 340.151C139.477 340.349 139.151 340.444 138.824 340.418Z" fill="#CAD6E1"/>
<path d="M144.321 340.417H144.107C143.932 340.391 143.765 340.331 143.614 340.24C143.463 340.149 143.331 340.029 143.226 339.887C143.122 339.745 143.046 339.583 143.004 339.412C142.962 339.241 142.954 339.063 142.98 338.888L174.486 141.214C174.545 140.865 174.738 140.553 175.023 140.342C175.308 140.132 175.663 140.041 176.014 140.088C176.366 140.153 176.678 140.351 176.888 140.641C177.097 140.93 177.188 141.289 177.14 141.644L145.608 339.398C145.541 339.689 145.377 339.948 145.143 340.134C144.909 340.319 144.619 340.419 144.321 340.417Z" fill="#CAD6E1"/>
<path d="M149.764 340.417H149.523C149.348 340.385 149.181 340.318 149.032 340.221C148.883 340.124 148.755 339.998 148.655 339.851C148.555 339.703 148.486 339.538 148.451 339.363C148.415 339.189 148.415 339.009 148.45 338.834L187.758 138.451C187.787 138.278 187.851 138.112 187.945 137.964C188.04 137.816 188.164 137.69 188.31 137.592C188.456 137.494 188.62 137.427 188.792 137.394C188.965 137.362 189.142 137.366 189.313 137.405C189.661 137.47 189.969 137.67 190.17 137.961C190.371 138.253 190.449 138.612 190.386 138.961L150.971 339.451C150.897 339.719 150.741 339.957 150.524 340.131C150.307 340.304 150.041 340.404 149.764 340.417Z" fill="#CAD6E1"/>
<path d="M155.475 340.417H155.154C154.807 340.328 154.509 340.107 154.324 339.801C154.139 339.495 154.08 339.129 154.162 338.781L198.993 152.616C199.082 152.27 199.303 151.972 199.609 151.786C199.914 151.601 200.281 151.542 200.629 151.624C200.973 151.707 201.271 151.922 201.457 152.224C201.642 152.526 201.701 152.888 201.621 153.233L156.789 339.505C156.697 339.778 156.52 340.014 156.283 340.179C156.047 340.343 155.763 340.427 155.475 340.417Z" fill="#CAD6E1"/>
<path d="M239.454 192.86C239.262 192.859 239.072 192.817 238.897 192.739C238.722 192.66 238.565 192.546 238.435 192.404L202.827 151.034C202.711 150.901 202.622 150.745 202.566 150.577C202.51 150.409 202.488 150.231 202.5 150.054C202.513 149.877 202.56 149.705 202.639 149.546C202.718 149.387 202.828 149.246 202.961 149.13C203.095 149.013 203.251 148.925 203.419 148.868C203.587 148.812 203.764 148.79 203.941 148.802C204.118 148.815 204.29 148.862 204.449 148.941C204.608 149.02 204.749 149.13 204.865 149.264L240.393 190.66C240.517 190.783 240.617 190.929 240.684 191.09C240.752 191.251 240.787 191.425 240.787 191.599C240.787 191.774 240.752 191.947 240.684 192.109C240.617 192.27 240.517 192.416 240.393 192.538C240.13 192.757 239.796 192.872 239.454 192.86Z" fill="#CAD6E1"/>
<path d="M239.454 220.654C239.222 220.658 238.993 220.601 238.791 220.488C238.588 220.375 238.419 220.21 238.301 220.01L212.051 175.475C211.941 175.323 211.863 175.15 211.824 174.966C211.785 174.782 211.785 174.593 211.823 174.409C211.862 174.225 211.939 174.052 212.049 173.9C212.159 173.748 212.299 173.62 212.461 173.526C212.624 173.432 212.804 173.372 212.99 173.352C213.177 173.332 213.365 173.351 213.544 173.408C213.723 173.465 213.887 173.559 214.027 173.684C214.167 173.809 214.28 173.962 214.357 174.133L240.607 218.642C240.698 218.793 240.757 218.96 240.782 219.135C240.807 219.309 240.797 219.486 240.752 219.656C240.707 219.826 240.628 219.986 240.52 220.125C240.412 220.264 240.278 220.38 240.124 220.466C239.924 220.593 239.691 220.659 239.454 220.654Z" fill="#CAD6E1"/>
<path d="M239.454 249.978C239.192 249.979 238.936 249.904 238.717 249.76C238.498 249.617 238.325 249.413 238.221 249.173L218.379 202.545C218.302 202.382 218.259 202.205 218.252 202.024C218.246 201.844 218.275 201.664 218.34 201.495C218.404 201.327 218.502 201.173 218.627 201.043C218.753 200.913 218.903 200.81 219.069 200.739C219.235 200.669 219.414 200.633 219.594 200.633C219.774 200.633 219.953 200.67 220.119 200.741C220.285 200.812 220.435 200.915 220.56 201.046C220.685 201.176 220.782 201.33 220.846 201.499L240.607 248.127C240.742 248.451 240.745 248.815 240.614 249.142C240.484 249.468 240.231 249.729 239.91 249.871C239.766 249.934 239.611 249.971 239.454 249.978Z" fill="#CAD6E1"/>
<path d="M58.4814 117.823L74.9743 81.5029H76.9587V99.9909H104.459V209.851L99.4047 213.148V338.825H58.4814V117.823Z" fill="#CAD6E1"/>
<path d="M154.952 232.284L150.566 252.957L145.696 238.692V224.603L142.933 206.739L141.266 217.58L140.783 210.865L138.064 193.001L135.3 210.865L124.421 139.628L113.498 210.865L110.735 193.001L108.015 210.865L107.532 217.58L105.866 206.739L103.102 224.603V238.692L98.2327 252.957L93.8461 232.284L89.2839 253.923V379.093H122.974H159.514V253.923L154.952 232.284Z" fill="#FAFAFA"/>
</g>
</svg>
