<svg width="245" height="359" viewBox="0 0 245 359" fill="none" xmlns="http://www.w3.org/2000/svg">
<circle cx="122.398" cy="226.196" r="114.398" fill="#203347"/>
<mask id="mask0_837_180156" style="mask-type:alpha" maskUnits="userSpaceOnUse" x="8" y="25" width="229" height="316">
<path fill-rule="evenodd" clip-rule="evenodd" d="M236.795 25.8213H33.3225V154.409C17.4834 174.038 8 199.009 8 226.196C8 289.376 59.2176 340.593 122.398 340.593C185.578 340.593 236.795 289.376 236.795 226.196C236.795 207.212 232.171 189.308 223.988 173.549H236.795V25.8213Z" fill="#C4C4C4"/>
</mask>
<g mask="url(#mask0_837_180156)">
<path d="M18.7952 299.695C20.6975 311.015 23.3561 322.226 26.7571 333.27L36.3017 340.774H178.862V269.937C128.412 255.594 52.8099 269.315 18.7952 299.695ZM149.546 292.277H155.95V297.916H149.546V292.277ZM136.861 292.277H143.289V297.916H136.861V292.277ZM124.175 292.277H130.579V297.916H124.175V292.277ZM111.49 292.277H117.917V297.916H111.49V292.277ZM98.8283 292.277H105.232V297.916H98.8283V292.277ZM172.507 321.607H88.9185V315.968H172.507V321.607ZM172.507 310.33H88.9185V304.669H172.507V310.33Z" fill="#CAD6E1"/>
<path d="M244.651 258.468H243.263L244.31 248.005H244.651V239.922H203.502V266.465H244.651V258.468ZM216.724 258.468H208.031V248.005H216.724V258.468ZM234.157 258.468H225.806V248.005H235.204L234.157 258.468Z" fill="#CAD6E1"/>
<path d="M244.651 223.37C230.967 222.834 217.138 222.556 203.502 222.556V243.995H244.651V223.37Z" fill="#CAD6E1"/>
<path d="M203.502 244.017H35.8391V241.401C70.2434 228.366 139.271 222.556 203.502 222.556V244.017Z" fill="#CAD6E1"/>
<path d="M43.8254 266.465H203.502V239.922H32.2112L43.8254 266.465ZM68.6851 258.468L61.3806 248.005H69.7321L76.0139 258.468H68.6851ZM85.9968 258.468L79.7149 248.005H88.3829L93.5935 258.468H85.9968ZM103.309 258.468L98.0979 248.005H106.985L111.173 258.468H103.309ZM120.645 258.468L116.505 248.005H125.587L128.68 258.468H120.645ZM138.029 258.468L134.888 248.005H144.141L146.235 258.468H138.029ZM155.414 258.468L153.32 248.005H162.767L163.814 258.468H155.414ZM171.776 248.005H181.199V258.468H172.823L171.776 248.005ZM198.949 258.468H190.281V248.005H198.949V258.468ZM42.5593 248.005H51.0812L58.3857 258.468H47.3559L42.5593 248.005Z" fill="#CAD6E1"/>
<path d="M217.259 264.664H49.7661V288.376H163.717V337.558H217.259V264.664Z" fill="#CAD6E1"/>
<path d="M43.8251 270.881H53.394V262.456H43.8251V270.881Z" fill="#CAD6E1"/>
<path d="M93.7468 171.45L65.5815 236.91L69.8166 238.323L97.9818 172.863L93.7468 171.45Z" fill="#CAD6E1"/>
<path d="M140.172 234.391L143.946 232.182L94.2755 166.448L86.3623 231.839L90.8911 232.268L97.4652 177.897L140.172 234.391Z" fill="#CAD6E1"/>
<path d="M100.338 174.774L95.8447 175.424L106.017 229.943L110.51 229.293L100.338 174.774Z" fill="#CAD6E1"/>
<path d="M93.6177 172.173H98.1465L95.8821 144.258L93.6177 172.173Z" fill="#CAD6E1"/>
<path d="M124.817 184.454L103.26 234.556L106.515 235.642L128.073 185.54L124.817 184.454Z" fill="#CAD6E1"/>
<path d="M160.357 232.654L163.23 230.961L125.222 180.642L119.159 230.682L122.617 231.025L127.657 189.389L160.357 232.654Z" fill="#CAD6E1"/>
<path d="M129.852 187.014L126.416 187.511L134.204 229.252L137.64 228.755L129.852 187.014Z" fill="#CAD6E1"/>
<path d="M124.71 185.015H128.168L126.439 170.222L124.71 185.015Z" fill="#CAD6E1"/>
<path d="M139.404 158.745H136.155V176.592H139.404V158.745Z" fill="#FAFAFA"/>
<path d="M146.588 158.745H143.339V176.592H146.588V158.745Z" fill="#FAFAFA"/>
<path d="M169.764 158.745H166.514V176.592H169.764V158.745Z" fill="#FAFAFA"/>
<path d="M176.927 158.745H173.677V176.592H176.927V158.745Z" fill="#FAFAFA"/>
<path d="M159.395 152.825H156.552H153.687L146.588 164.986H156.552H166.515L159.395 152.825Z" fill="#FAFAFA"/>
<path d="M156.551 122.774L158.048 152.825H155.033L156.551 122.774Z" fill="#FAFAFA"/>
<path d="M136.176 164.986V257.382H176.948V164.986H136.176ZM151.142 245.883H147.294V241.203H151.142V245.883ZM151.142 237.612H147.294V232.931H151.142V237.612ZM151.142 229.362H147.294V224.66H151.142V229.362ZM158.476 245.926H154.627V241.245H158.476V245.926ZM158.476 237.655H154.627V232.974H158.476V237.655ZM158.476 229.405H154.627V224.703H158.476V229.405ZM156.551 207.262C155.218 207.262 153.915 206.867 152.807 206.126C151.699 205.385 150.836 204.332 150.327 203.101C149.818 201.869 149.686 200.515 149.948 199.208C150.209 197.902 150.853 196.702 151.797 195.761C152.741 194.821 153.943 194.181 155.251 193.924C156.558 193.666 157.913 193.803 159.143 194.316C160.374 194.828 161.424 195.695 162.161 196.805C162.899 197.915 163.29 199.218 163.286 200.551C163.275 202.327 162.56 204.026 161.297 205.276C160.035 206.526 158.328 207.225 156.551 207.219V207.262ZM165.916 245.926H162.046V241.245H165.916V245.926ZM165.916 237.655H162.046V232.974H165.916V237.655ZM165.916 229.405H162.046V224.703H165.916V229.405Z" fill="#FAFAFA"/>
<path d="M136.155 232.931H130.724V268.881H136.155V232.931Z" fill="#FAFAFA"/>
<path d="M182.357 232.931H176.927V268.881H182.357V232.931Z" fill="#FAFAFA"/>
<path d="M95.9598 227.823H95.297H94.6556L82.5544 261.4H95.297H108.04L95.9598 227.823Z" fill="#FAFAFA"/>
<path d="M95.9602 219.723H94.656V227.823H95.9602V219.723Z" fill="#FAFAFA"/>
<path d="M97.2001 221.326H93.4158V222.629H97.2001V221.326Z" fill="#FAFAFA"/>
<path d="M117.383 245.884H116.72H116.079L103.978 268.881H116.72H129.463L117.383 245.884Z" fill="#FAFAFA"/>
<path d="M117.383 237.783H116.079V245.884H117.383V237.783Z" fill="#FAFAFA"/>
<path d="M118.623 239.386H114.839V240.69H118.623V239.386Z" fill="#FAFAFA"/>
<path d="M130.703 254.411H120.483V268.881H130.703V254.411Z" fill="#FAFAFA"/>
<path d="M195.72 245.884H196.361H197.003L204.144 259.434L203.695 268.881H196.361H183.619L195.72 245.884Z" fill="#FAFAFA"/>
<path d="M197.024 237.783H195.72V245.884H197.024V237.783Z" fill="#FAFAFA"/>
<path d="M198.243 239.386H194.458V240.69H198.243V239.386Z" fill="#FAFAFA"/>
<path d="M192.598 254.411H182.379V268.881H192.598V254.411Z" fill="#FAFAFA"/>
<path d="M127.881 256.613V348.731H147.123V330.179C147.062 328.914 147.259 327.649 147.702 326.462C148.145 325.275 148.824 324.19 149.699 323.273C150.573 322.356 151.625 321.625 152.79 321.127C153.955 320.628 155.209 320.371 156.477 320.371C157.744 320.371 158.998 320.628 160.163 321.127C161.328 321.625 162.38 322.356 163.255 323.273C164.129 324.19 164.808 325.275 165.251 326.462C165.694 327.649 165.891 328.914 165.83 330.179V348.731H185.073V256.613H127.881ZM146.631 277.794C146.631 277.096 146.908 276.428 147.401 275.935C147.894 275.442 148.563 275.165 149.261 275.165C149.958 275.165 150.627 275.442 151.12 275.935C151.613 276.428 151.891 277.096 151.891 277.794V280.187H146.631V277.794ZM146.631 282.068H151.891V286.343H146.631V282.068ZM139.34 277.794C139.307 277.43 139.351 277.063 139.467 276.717C139.584 276.371 139.772 276.053 140.018 275.784C140.264 275.514 140.564 275.299 140.899 275.151C141.233 275.004 141.594 274.928 141.959 274.928C142.325 274.928 142.686 275.004 143.02 275.151C143.355 275.299 143.654 275.514 143.901 275.784C144.147 276.053 144.335 276.371 144.451 276.717C144.568 277.063 144.611 277.43 144.579 277.794V280.187H139.34V277.794ZM139.34 282.068H144.579V286.343H139.34V282.068ZM144.579 299.039H139.34V290.489C139.307 290.126 139.351 289.759 139.467 289.413C139.584 289.067 139.772 288.749 140.018 288.479C140.264 288.21 140.564 287.994 140.899 287.847C141.233 287.7 141.594 287.624 141.959 287.624C142.325 287.624 142.686 287.7 143.02 287.847C143.355 287.994 143.654 288.21 143.901 288.479C144.147 288.749 144.335 289.067 144.451 289.413C144.568 289.759 144.611 290.126 144.579 290.489V299.039ZM151.891 299.039H146.631V290.489C146.631 289.792 146.908 289.123 147.401 288.63C147.894 288.137 148.563 287.86 149.261 287.86C149.958 287.86 150.627 288.137 151.12 288.63C151.613 289.123 151.891 289.792 151.891 290.489V299.039ZM159.181 299.039H153.922V290.489C153.922 289.792 154.199 289.123 154.692 288.63C155.185 288.137 155.854 287.86 156.551 287.86C157.249 287.86 157.918 288.137 158.411 288.63C158.904 289.123 159.181 289.792 159.181 290.489V299.039ZM159.181 286.215H153.922V281.94H159.245L159.181 286.215ZM159.181 280.081H153.922V277.687C153.922 276.99 154.199 276.321 154.692 275.828C155.185 275.335 155.854 275.058 156.551 275.058C157.249 275.058 157.918 275.335 158.411 275.828C158.904 276.321 159.181 276.99 159.181 277.687V280.081ZM166.472 298.974H161.234V290.425C161.201 290.061 161.244 289.695 161.361 289.349C161.477 289.003 161.665 288.685 161.911 288.415C162.158 288.146 162.458 287.93 162.792 287.783C163.126 287.636 163.487 287.559 163.853 287.559C164.218 287.559 164.579 287.636 164.914 287.783C165.248 287.93 165.548 288.146 165.794 288.415C166.041 288.685 166.228 289.003 166.345 289.349C166.461 289.695 166.505 290.061 166.472 290.425V298.974ZM166.472 286.151H161.234V281.876H166.472V286.151ZM166.472 280.016H161.234V277.623C161.201 277.259 161.244 276.892 161.361 276.546C161.477 276.2 161.665 275.882 161.911 275.613C162.158 275.343 162.458 275.128 162.792 274.98C163.126 274.833 163.487 274.757 163.853 274.757C164.218 274.757 164.579 274.833 164.914 274.98C165.248 275.128 165.548 275.343 165.794 275.613C166.041 275.882 166.228 276.2 166.345 276.546C166.461 276.892 166.505 277.259 166.472 277.623V280.016ZM173.762 298.91H168.524V290.361C168.491 289.997 168.535 289.631 168.651 289.285C168.768 288.939 168.955 288.621 169.202 288.351C169.448 288.081 169.748 287.866 170.082 287.719C170.417 287.571 170.778 287.495 171.143 287.495C171.509 287.495 171.87 287.571 172.204 287.719C172.538 287.866 172.838 288.081 173.085 288.351C173.331 288.621 173.519 288.939 173.635 289.285C173.752 289.631 173.795 289.997 173.762 290.361V298.91ZM173.762 286.086H168.524V281.812H173.762V286.086ZM173.762 279.952H168.524V277.559C168.491 277.195 168.535 276.828 168.651 276.482C168.768 276.136 168.955 275.818 169.202 275.548C169.448 275.279 169.748 275.064 170.082 274.916C170.417 274.769 170.778 274.693 171.143 274.693C171.509 274.693 171.87 274.769 172.204 274.916C172.538 275.064 172.838 275.279 173.085 275.548C173.331 275.818 173.519 276.136 173.635 276.482C173.752 276.828 173.795 277.195 173.762 277.559V279.952Z" fill="#FAFAFA"/>
<path d="M182.379 261.4V348.176C185.186 348.176 187.967 347.623 190.56 346.549C193.154 345.474 195.511 343.9 197.497 341.915C199.482 339.931 201.057 337.575 202.131 334.982C203.206 332.388 203.759 329.609 203.759 326.802V261.4H182.379Z" fill="#FAFAFA"/>
<path d="M81.1436 273.732L82.5119 274.48H83.9657V272.493H82.5119L81.1436 273.262V273.732Z" fill="#FAFAFA"/>
<path d="M83.9658 261.4V345.824C83.9658 346.607 84.2767 347.357 84.83 347.91C85.3833 348.463 86.1338 348.774 86.9163 348.774H129.484V261.4H83.9658ZM112.145 282.774C112.204 282.12 112.505 281.512 112.99 281.07C113.475 280.627 114.107 280.381 114.764 280.381C115.42 280.381 116.053 280.627 116.538 281.07C117.022 281.512 117.324 282.12 117.383 282.774V285.167H112.209L112.145 282.774ZM112.145 287.048H117.383V291.323H112.209L112.145 287.048ZM104.833 282.774C104.833 282.076 105.11 281.408 105.603 280.915C106.096 280.422 106.765 280.145 107.463 280.145C108.16 280.145 108.829 280.422 109.322 280.915C109.815 281.408 110.092 282.076 110.092 282.774V285.167H104.833V282.774ZM104.833 287.048H110.071V291.323H104.833V287.048ZM110.071 336.826H104.833V328.555H110.071V336.826ZM110.071 325.926H104.833V321.651H110.071V325.926ZM110.071 319.129H104.833V314.855H110.071V319.129ZM110.071 304.168H104.833V295.619C104.833 294.922 105.11 294.253 105.603 293.76C106.096 293.267 106.765 292.99 107.463 292.99C108.16 292.99 108.829 293.267 109.322 293.76C109.815 294.253 110.092 294.922 110.092 295.619L110.071 304.168ZM117.362 336.848H112.209V328.576H117.447L117.362 336.848ZM117.362 325.947H112.209V321.673H117.447L117.362 325.947ZM117.362 319.151H112.209V314.876H117.447L117.362 319.151ZM117.362 304.189H112.209V295.64C112.176 295.277 112.219 294.91 112.336 294.564C112.453 294.218 112.64 293.9 112.887 293.63C113.133 293.361 113.433 293.145 113.767 292.998C114.101 292.851 114.463 292.775 114.828 292.775C115.193 292.775 115.555 292.851 115.889 292.998C116.223 293.145 116.523 293.361 116.77 293.63C117.016 293.9 117.203 294.218 117.32 294.564C117.437 294.91 117.48 295.277 117.447 295.64L117.362 304.189Z" fill="#FAFAFA"/>
</g>
</svg>
