<svg width="244" height="359" viewBox="0 0 244 359" fill="none" xmlns="http://www.w3.org/2000/svg">
<circle cx="121.694" cy="226.802" r="114.398" fill="#203347"/>
<mask id="mask0_837_180152" style="mask-type:alpha" maskUnits="userSpaceOnUse" x="7" y="26" width="230" height="316">
<path fill-rule="evenodd" clip-rule="evenodd" d="M236.092 26.4277H32.6189V155.015C16.7798 174.644 7.29639 199.616 7.29639 226.802C7.29639 289.982 58.514 341.2 121.694 341.2C184.874 341.2 236.092 289.982 236.092 226.802C236.092 207.818 231.468 189.914 223.284 174.155H236.092V26.4277Z" fill="#C4C4C4"/>
</mask>
<g mask="url(#mask0_837_180152)">
<path d="M40.0913 303.089V315.503H189.234V327.917H257.313C257.313 327.917 257.313 304.728 257.313 298.868C238.841 294.946 219.152 286.777 205.993 270.043C175.529 231.212 143.252 201.169 118.275 184.783C95.2595 169.712 69.8851 156.404 69.8851 156.404V162.909C86.5215 171.782 102.682 181.52 118.3 192.082C141.142 207.873 182.357 254.302 207.458 299.092L195.044 303.089H40.0913ZM215.8 298.124C215.771 297.011 216.074 295.914 216.672 294.975C217.27 294.036 218.134 293.297 219.155 292.853C220.176 292.408 221.306 292.279 222.401 292.482C223.495 292.684 224.505 293.209 225.299 293.989C226.093 294.769 226.636 295.769 226.859 296.859C227.081 297.95 226.972 299.083 226.546 300.111C226.121 301.14 225.397 302.018 224.469 302.632C223.541 303.247 222.45 303.57 221.337 303.561C219.871 303.548 218.469 302.956 217.436 301.915C216.404 300.873 215.825 299.466 215.825 297.999L215.8 298.124Z" fill="#CAD6E1"/>
<path d="M100.18 179.771L77.8621 198.98L79.4818 200.862L101.799 181.653L100.18 179.771Z" fill="#CAD6E1"/>
<path d="M110.91 186.593L79.5039 213.625L81.1236 215.507L112.53 188.474L110.91 186.593Z" fill="#CAD6E1"/>
<path d="M121.238 193.729L78.7485 230.302L80.3682 232.184L122.858 195.611L121.238 193.729Z" fill="#CAD6E1"/>
<path d="M130.712 201.639L80.262 245.063L81.8817 246.945L132.331 203.521L130.712 201.639Z" fill="#CAD6E1"/>
<path d="M139.561 210.058L82.0171 259.589L83.6368 261.471L141.181 211.94L139.561 210.058Z" fill="#CAD6E1"/>
<path d="M148.027 218.77L49.6868 303.416L51.3065 305.297L149.646 220.652L148.027 218.77Z" fill="#CAD6E1"/>
<path d="M156.221 227.767L68.3252 303.423L69.9449 305.305L157.841 229.648L156.221 227.767Z" fill="#CAD6E1"/>
<path d="M124.223 271.311L86.9458 303.397L88.5655 305.279L125.843 273.193L124.223 271.311Z" fill="#CAD6E1"/>
<path d="M164.137 237.016L141.951 256.112L143.571 257.994L165.757 238.897L164.137 237.016Z" fill="#CAD6E1"/>
<path d="M171.796 246.462L136.476 276.863L138.096 278.745L173.416 248.343L171.796 246.462Z" fill="#CAD6E1"/>
<path d="M179.255 256.082L144.067 286.37L145.686 288.252L180.875 257.964L179.255 256.082Z" fill="#CAD6E1"/>
<path d="M186.428 265.946L142.903 303.41L144.523 305.291L188.048 267.828L186.428 265.946Z" fill="#CAD6E1"/>
<path d="M193.337 276.037L161.536 303.41L163.155 305.291L194.957 277.919L193.337 276.037Z" fill="#CAD6E1"/>
<path d="M199.984 286.356L180.188 303.396L181.808 305.277L201.604 288.238L199.984 286.356Z" fill="#CAD6E1"/>
<path d="M135.841 198.839L134.656 201.021L238.136 257.229L239.321 255.047L135.841 198.839Z" fill="#CAD6E1"/>
<path d="M134.37 253.332L128.776 247.298V253.73L123.224 259.743L117.609 253.73L112.057 259.743L106.506 253.73V247.298L100.849 253.332L95.3178 247.298V289.828L91.4838 295.276L87.2936 289.326L85.9318 220.586L83.5225 211.263V183.859L80.2332 189.893L76.9439 183.859L70.2187 140.868L56.6216 205.418L53.1229 199.53V183.859L48.9327 189.893L44.7425 183.859V262.09L42.6475 267.139L40.9504 319.516L46.251 333.762L58.9472 341.2H139.901V247.298L134.37 253.332ZM61.7127 263.807C60.7141 263.807 59.7379 263.511 58.9075 262.957C58.0772 262.402 57.43 261.613 57.0479 260.691C56.6657 259.768 56.5657 258.753 56.7606 257.773C56.9554 256.794 57.4363 255.894 58.1424 255.188C58.8485 254.482 59.7482 254.001 60.7276 253.806C61.7071 253.611 62.7223 253.711 63.6449 254.094C64.5675 254.476 65.3561 255.123 65.9109 255.953C66.4657 256.784 66.7618 257.76 66.7618 258.758C66.7619 259.425 66.6299 260.085 66.3735 260.7C66.1172 261.316 65.7415 261.874 65.2682 262.344C64.7949 262.813 64.2333 263.184 63.6159 263.435C62.9984 263.687 62.3374 263.813 61.6708 263.807H61.7127ZM66.7618 242.396H56.6216V226.473C56.626 225.713 56.884 224.975 57.3549 224.378L61.6708 218.742L65.9867 224.378C66.4493 224.98 66.7064 225.714 66.7199 226.473L66.7618 242.396ZM117.609 268.668C118.61 268.664 119.589 268.957 120.422 269.51C121.256 270.063 121.906 270.852 122.291 271.775C122.676 272.699 122.778 273.716 122.583 274.697C122.389 275.678 121.908 276.58 121.201 277.287C120.493 277.995 119.592 278.476 118.61 278.67C117.629 278.864 116.612 278.763 115.688 278.378C114.765 277.993 113.977 277.343 113.423 276.509C112.87 275.676 112.577 274.697 112.581 273.696C112.587 272.364 113.118 271.089 114.06 270.147C115.002 269.205 116.278 268.674 117.609 268.668ZM125.99 317.483H109.229V297.517C109.212 296.614 109.346 295.715 109.627 294.857L111.722 290.059C111.749 289.98 111.8 289.911 111.867 289.863C111.935 289.814 112.016 289.788 112.099 289.788C112.183 289.788 112.264 289.814 112.331 289.863C112.399 289.911 112.45 289.98 112.476 290.059L114.572 294.857C114.765 295.475 114.877 296.116 114.907 296.763V295.045C114.896 294.024 115.037 293.008 115.326 292.028L117.421 286.644C117.421 286.544 117.461 286.448 117.531 286.377C117.602 286.306 117.698 286.267 117.798 286.267C117.898 286.267 117.994 286.306 118.065 286.377C118.135 286.448 118.175 286.544 118.175 286.644L120.27 292.028C120.559 293.008 120.7 294.024 120.689 295.045V297.517C120.672 296.614 120.807 295.715 121.087 294.857L123.182 290.059C123.209 289.98 123.26 289.911 123.327 289.863C123.395 289.814 123.476 289.788 123.559 289.788C123.643 289.788 123.724 289.814 123.792 289.863C123.859 289.911 123.91 289.98 123.937 290.059L126.032 294.857C126.302 295.717 126.437 296.615 126.43 297.517L125.99 317.483Z" fill="#FAFAFA"/>
<path d="M133.387 342.086L121.694 31.4272L110.001 342.086H133.387Z" fill="#CAD6E1"/>
</g>
</svg>
