<svg width="244" height="359" viewBox="0 0 244 359" fill="none" xmlns="http://www.w3.org/2000/svg">
<circle cx="122.201" cy="226.499" r="114.398" fill="#203347"/>
<mask id="mask0_837_180140" style="mask-type:alpha" maskUnits="userSpaceOnUse" x="7" y="26" width="230" height="315">
<path fill-rule="evenodd" clip-rule="evenodd" d="M236.599 26.1245H33.1259V154.712C17.2867 174.341 7.80334 199.312 7.80334 226.499C7.80334 289.679 59.0209 340.897 122.201 340.897C185.381 340.897 236.599 289.679 236.599 226.499C236.599 207.515 231.975 189.611 223.791 173.852H236.599V26.1245Z" fill="#C4C4C4"/>
</mask>
<g mask="url(#mask0_837_180140)">
<path d="M104.976 249.131H87.434V359.897H104.976V249.131Z" fill="#CAD6E1"/>
<path d="M198.347 234.898H174.704V258.541H198.347V234.898Z" fill="#CAD6E1"/>
<path d="M99.611 230.732H92.7999V249.965H99.611V230.732Z" fill="#CAD6E1"/>
<path d="M101.032 230.732H91.3787V231.957H101.032V230.732Z" fill="#CAD6E1"/>
<path d="M87.4339 259.74H85.8658V260.965H87.4339V259.74Z" fill="#CAD6E1"/>
<path d="M87.4339 288.651H85.8658V289.876H87.4339V288.651Z" fill="#CAD6E1"/>
<path d="M87.4339 317.561H85.8658V318.786H87.4339V317.561Z" fill="#CAD6E1"/>
<path d="M199.915 259.74H198.347V260.965H199.915V259.74Z" fill="#CAD6E1"/>
<path d="M199.915 288.651H198.347V289.876H199.915V288.651Z" fill="#CAD6E1"/>
<path d="M199.915 317.561H198.347V318.786H199.915V317.561Z" fill="#CAD6E1"/>
<path d="M116.515 249.131H110.66V254.986H116.515V249.131Z" fill="#CAD6E1"/>
<path d="M128.251 249.131H122.396V254.986H128.251V249.131Z" fill="#CAD6E1"/>
<path d="M139.987 249.131H134.131V254.986H139.987V249.131Z" fill="#CAD6E1"/>
<path d="M151.723 249.131H145.867V254.986H151.723V249.131Z" fill="#CAD6E1"/>
<path d="M163.458 249.131H157.603V254.986H163.458V249.131Z" fill="#CAD6E1"/>
<path d="M175.194 249.131H169.339V254.986H175.194V249.131Z" fill="#CAD6E1"/>
<path d="M104.094 252.929V359.824H184.945C188.512 359.824 191.933 358.407 194.456 355.884C196.978 353.362 198.396 349.941 198.396 346.373C198.396 319.202 198.396 267.801 198.396 252.929H104.094ZM130.407 338.411H126.193V331.061H130.407V338.411ZM130.407 329.762H126.193V323.343H130.407V329.762ZM130.407 308.937H126.193V301.587H130.407V308.937ZM130.407 300.288H126.193V293.918H130.407V300.288ZM130.407 279.463H126.193V272.113H130.407V279.463ZM130.407 270.814H126.193V264.444H130.407V270.814ZM136.14 338.411H131.926V331.061H136.14V338.411ZM136.14 329.762H131.926V323.343H136.14V329.762ZM136.14 308.937H131.926V301.587H136.14V308.937ZM136.14 300.288H131.926V293.918H136.14V300.288ZM136.14 279.463H131.926V272.113H136.14V279.463ZM136.14 270.814H131.926V264.444H136.14V270.814ZM154.124 338.411H149.909V331.061H154.124V338.411ZM154.124 329.762H149.909V323.343H154.124V329.762ZM154.124 308.937H149.909V301.587H154.124V308.937ZM154.124 300.288H149.909V293.918H154.124V300.288ZM154.124 279.463H149.909V272.113H154.124V279.463ZM154.124 270.814H149.909V264.444H154.124V270.814ZM159.881 338.411H155.643V331.061H159.881V338.411ZM159.881 329.762H155.643V323.343H159.881V329.762ZM159.881 308.937H155.643V301.587H159.881V308.937ZM159.881 300.288H155.643V293.918H159.881V300.288ZM159.881 279.463H155.643V272.113H159.881V279.463ZM159.881 270.814H155.643V264.444H159.881V270.814ZM191.903 347.966H180.363V334.393C180.363 333.431 180.745 332.509 181.425 331.829C182.105 331.149 183.028 330.767 183.989 330.767H188.277C189.239 330.767 190.161 331.149 190.841 331.829C191.521 332.509 191.903 333.431 191.903 334.393V347.966Z" fill="#CAD6E1"/>
<path d="M198.347 233.109C195.897 233.109 194.231 222.451 186.538 222.451C178.844 222.451 177.129 233.109 174.704 233.109H172.254V235.265H200.723V233.109H198.347Z" fill="#CAD6E1"/>
<path d="M186.538 205.914L185.778 223.578H187.297L186.538 205.914Z" fill="#CAD6E1"/>
<path d="M163.459 306.438H122.813V343.751H163.459V306.438Z" fill="#CAD6E1"/>
<path d="M92.7995 310.284H77.8053V342.428H92.7995V310.284Z" fill="#CAD6E1"/>
<path d="M130.285 260.965H115.291V301.734H130.285V260.965Z" fill="#CAD6E1"/>
<path d="M83.5386 110.412H35.0526V356.639H83.5386V110.412Z" fill="#CAD6E1"/>
<path d="M64.9428 82.4072H47.7926V127.341H64.9428V82.4072Z" fill="#CAD6E1"/>
<path d="M47.7925 109.04H30.6423V111.784H47.7925V109.04Z" fill="#CAD6E1"/>
<path d="M83.5385 90.4189H63.8403V93.163H83.5385V90.4189Z" fill="#CAD6E1"/>
<path d="M83.5385 103.502H63.8403V112.641H83.5385V103.502Z" fill="#CAD6E1"/>
<path d="M81.7255 93.1631H63.8403V104.041H81.7255V93.1631Z" fill="#CAD6E1"/>
<path d="M126.904 197.166H126.291V236.072H126.904V197.166Z" fill="#FAFAFA"/>
<path d="M123.425 197.166H122.813V236.072H123.425V197.166Z" fill="#FAFAFA"/>
<path d="M131.829 214.807H117.888V215.419H131.829V214.807Z" fill="#FAFAFA"/>
<path d="M131.829 204.664H117.888V205.276H131.829V204.664Z" fill="#FAFAFA"/>
<path d="M131.829 224.951H117.888V225.563H131.829V224.951Z" fill="#FAFAFA"/>
<path d="M107.867 127.34L103.922 157.402H111.812L107.867 127.34Z" fill="#FAFAFA"/>
<path d="M115.83 171.662H109.803V177.689H115.83V171.662Z" fill="#FAFAFA"/>
<path d="M141.849 127.34L145.794 157.402H137.88L141.849 127.34Z" fill="#FAFAFA"/>
<path d="M111.003 157.402H104.707V293.403H111.003V157.402Z" fill="#FAFAFA"/>
<path d="M144.985 157.402H138.689V293.403H144.985V157.402Z" fill="#FAFAFA"/>
<path d="M139.913 171.662H133.886V177.689H139.913V171.662Z" fill="#FAFAFA"/>
<path d="M123.376 171.662H118.819V177.689H123.376V171.662Z" fill="#FAFAFA"/>
<path d="M130.897 171.662H126.34V177.689H130.897V171.662Z" fill="#FAFAFA"/>
<path d="M109.043 176.611V293.379H119.921V261.872C119.921 260.132 124.821 256.09 124.821 256.09C124.821 256.09 129.721 260.132 129.721 261.872V293.379H139.816V176.611H109.043ZM124.846 248.642C123.806 248.561 122.835 248.092 122.126 247.326C121.417 246.561 121.024 245.556 121.024 244.513C121.024 243.47 121.417 242.466 122.126 241.7C122.835 240.935 123.806 240.465 124.846 240.385C125.415 240.341 125.987 240.415 126.525 240.603C127.064 240.791 127.559 241.087 127.977 241.475C128.396 241.863 128.73 242.333 128.958 242.856C129.187 243.378 129.305 243.943 129.305 244.513C129.305 245.084 129.187 245.648 128.958 246.171C128.73 246.694 128.396 247.164 127.977 247.552C127.559 247.939 127.064 248.236 126.525 248.424C125.987 248.611 125.415 248.685 124.846 248.642ZM129.746 235.093H119.946V202.949C119.946 201.185 124.846 197.167 124.846 197.167C124.846 197.167 129.746 201.185 129.746 202.949V235.093Z" fill="#FAFAFA"/>
<path d="M72.2442 253.982L68.2997 284.019H76.2133L72.2442 253.982Z" fill="#FAFAFA"/>
<path d="M75.4044 284.02H69.1078V344.805H75.4044V284.02Z" fill="#FAFAFA"/>
<path d="M176.664 253.982L180.633 284.019H172.719L176.664 253.982Z" fill="#FAFAFA"/>
<path d="M179.825 284.02H173.528V344.805H179.825V284.02Z" fill="#FAFAFA"/>
<path d="M105.172 267.286L67.3926 290.365L65.5796 356.516H111.493V267.286H105.172ZM93.6569 336.793H85.8413V313.567C85.8413 312.269 89.8104 307.246 89.8104 307.246C91.4139 309.159 92.7416 311.286 93.7549 313.567L93.6569 336.793Z" fill="#FAFAFA"/>
<path d="M181.515 290.365L143.76 267.286H137.415V356.614H183.328L181.515 290.365ZM164.365 336.916H156.427V313.69C157.44 311.409 158.768 309.281 160.371 307.369C160.371 307.369 164.34 312.269 164.34 313.69L164.365 336.916Z" fill="#FAFAFA"/>
<path d="M109.95 292.84V356.541H139.865V292.84H109.95ZM128.423 342.208H120.51V319.08C120.51 317.757 124.454 312.759 124.454 312.759C124.454 312.759 128.423 317.659 128.423 319.08V342.208Z" fill="#FAFAFA"/>
<path d="M126.904 255.183H126.291V294.09H126.904V255.183Z" fill="#FAFAFA"/>
<path d="M123.425 255.183H122.813V294.09H123.425V255.183Z" fill="#FAFAFA"/>
<path d="M131.829 272.824H117.888V273.436H131.829V272.824Z" fill="#FAFAFA"/>
<path d="M131.829 262.655H117.888V263.268H131.829V262.655Z" fill="#FAFAFA"/>
<path d="M131.829 282.966H117.888V283.578H131.829V282.966Z" fill="#FAFAFA"/>
<path d="M91.3788 307.246H90.8888V338.876H91.3788V307.246Z" fill="#FAFAFA"/>
<path d="M88.5363 307.246H88.0463V338.876H88.5363V307.246Z" fill="#FAFAFA"/>
<path d="M95.3722 321.579H84.0531V322.069H95.3722V321.579Z" fill="#FAFAFA"/>
<path d="M95.3722 313.346H84.0531V313.836H95.3722V313.346Z" fill="#FAFAFA"/>
<path d="M95.3722 329.836H84.0531V330.326H95.3722V329.836Z" fill="#FAFAFA"/>
<path d="M162.037 307.246H161.547V338.876H162.037V307.246Z" fill="#FAFAFA"/>
<path d="M159.195 307.246H158.705V338.876H159.195V307.246Z" fill="#FAFAFA"/>
<path d="M166.03 321.579H154.711V322.069H166.03V321.579Z" fill="#FAFAFA"/>
<path d="M166.03 313.346H154.711V313.836H166.03V313.346Z" fill="#FAFAFA"/>
<path d="M166.03 329.836H154.711V330.326H166.03V329.836Z" fill="#FAFAFA"/>
<path d="M126.12 312.661H125.63V344.29H126.12V312.661Z" fill="#FAFAFA"/>
<path d="M123.278 312.661H122.788V344.29H123.278V312.661Z" fill="#FAFAFA"/>
<path d="M130.113 326.994H118.794V327.484H130.113V326.994Z" fill="#FAFAFA"/>
<path d="M130.113 318.737H118.794V319.227H130.113V318.737Z" fill="#FAFAFA"/>
<path d="M130.113 335.25H118.794V335.741H130.113V335.25Z" fill="#FAFAFA"/>
</g>
</svg>
