<svg width="244" height="359" viewBox="0 0 244 359" fill="none" xmlns="http://www.w3.org/2000/svg">
<circle cx="122.398" cy="226.499" r="114.398" fill="#203347"/>
<mask id="mask0_837_180153" style="mask-type:alpha" maskUnits="userSpaceOnUse" x="8" y="26" width="229" height="315">
<path fill-rule="evenodd" clip-rule="evenodd" d="M236.795 26.1245H33.3225V154.712C17.4834 174.341 8 199.312 8 226.499C8 289.679 59.2176 340.897 122.398 340.897C185.578 340.897 236.795 289.679 236.795 226.499C236.795 207.515 232.171 189.611 223.988 173.852H236.795V26.1245Z" fill="#C4C4C4"/>
</mask>
<g mask="url(#mask0_837_180153)">
<path d="M178.236 201.974C175.712 199.879 174.45 204.082 171.926 201.974V197.796C174.45 199.904 175.712 195.688 178.236 197.796V201.974Z" fill="#CAD6E1"/>
<path d="M198.898 197.986C196.374 195.878 195.112 200.093 192.587 197.986V193.808C195.112 195.916 196.374 191.7 198.898 193.808V197.986Z" fill="#CAD6E1"/>
<path d="M216.215 220.465C213.931 218.559 212.782 222.371 210.498 220.465V216.678C212.782 218.584 213.931 214.772 216.215 216.678V220.465Z" fill="#CAD6E1"/>
<path d="M225.606 228.833C223.347 226.952 222.211 230.714 219.964 228.833V225.046C222.249 227.015 223.347 223.229 225.606 225.097V228.833Z" fill="#CAD6E1"/>
<path d="M233.444 237.277C231.828 235.939 231.021 238.627 229.405 237.277V234.588C231.021 235.926 231.828 233.238 233.444 234.588V237.277Z" fill="#CAD6E1"/>
<path d="M252.781 289.292C252.781 289.292 246.079 289.418 240.083 289.481L240.929 241.834H240.336L238.657 289.494C236.814 289.494 235.11 289.494 233.76 289.494H232.813L233.608 247.11H236.473C236.595 247.11 236.712 247.062 236.799 246.978C236.887 246.893 236.937 246.777 236.94 246.655C236.937 246.533 236.887 246.416 236.8 246.329C236.713 246.242 236.596 246.192 236.473 246.188H233.634L233.836 234.513H233.154L232.75 246.201L226.161 246.113L226.035 224.719C226.035 224.719 225.858 224.592 225.644 224.592C225.429 224.592 225.253 224.656 225.253 224.719L225.089 246.012L216.947 245.949L216.809 228.404H223.334C223.373 228.404 223.412 228.396 223.448 228.381C223.484 228.366 223.517 228.343 223.544 228.315C223.571 228.287 223.592 228.253 223.606 228.216C223.62 228.18 223.626 228.141 223.624 228.101C223.624 228.063 223.617 228.026 223.602 227.99C223.588 227.955 223.566 227.923 223.539 227.896C223.512 227.869 223.48 227.848 223.445 227.833C223.41 227.819 223.372 227.811 223.334 227.811L216.796 227.723L216.708 216.186H215.799L215.711 227.71C210.157 227.71 203.089 227.559 199.769 227.546L199.529 193.833C199.529 193.745 199.289 193.669 198.987 193.669C198.684 193.669 198.456 193.745 198.456 193.833L198.191 227.445C194.165 227.445 184.56 227.584 178.93 227.647L178.678 197.695C178.678 197.594 178.438 197.519 178.148 197.519C177.858 197.519 177.605 197.594 177.605 197.695L177.353 227.672H174.626C174.587 227.671 174.548 227.677 174.511 227.691C174.475 227.704 174.441 227.726 174.413 227.753C174.385 227.78 174.362 227.812 174.347 227.848C174.331 227.885 174.323 227.923 174.323 227.963C174.323 228.043 174.355 228.12 174.412 228.177C174.469 228.234 174.546 228.265 174.626 228.265H177.353L177.201 245.936L161.462 246.125C161.34 246.129 161.225 246.179 161.14 246.267C161.055 246.354 161.007 246.471 161.007 246.592C161.007 246.713 161.055 246.828 161.14 246.914C161.226 246.999 161.341 247.047 161.462 247.047L177.163 247.211L176.873 282.552L162.181 280.255L161.449 280.482L158.925 281.366L156.615 282.438C156.615 282.438 156.678 284.534 156.691 284.963C166.788 293.798 170.84 303.012 170.84 307.329L242.28 306.546L252.869 291.11L252.781 289.292ZM232.725 247.123L231.273 289.355C230.011 289.254 228.37 289.103 226.527 288.901L226.187 247.249L232.725 247.123ZM225.025 247.211L224.685 288.724H224.205V286.793L221.491 284.736H218.235L217.276 284.054L216.96 247.274L225.025 247.211ZM199.921 247.413C203.152 247.413 209.248 247.413 215.546 247.299L215.244 283.183H214.423C214.524 275.61 214.688 261.726 214.688 261.638C212.846 261.259 210.949 261.234 209.097 261.562C209.097 261.663 208.92 275.446 208.832 283.019L200.198 282.83L199.921 247.413ZM215.698 228.392L215.559 245.949C209.248 245.873 203.215 245.822 199.908 245.81L199.769 228.568C203.013 228.505 210.132 228.442 215.698 228.379V228.392ZM178.905 228.392C184.56 228.392 194.19 228.543 198.154 228.556L198.027 245.797C194.127 245.797 186.415 245.886 179.095 245.974L178.905 228.392ZM179.069 247.324C186.44 247.4 194.216 247.463 198.002 247.476L197.737 282.804L182.704 282.476V283.499L179.334 282.981L179.069 247.324Z" fill="#CAD6E1"/>
<path d="M235.618 234.1C235.619 234.044 235.468 233.995 235.28 233.99C235.092 233.985 234.938 234.026 234.936 234.082C234.935 234.137 235.086 234.187 235.274 234.192C235.462 234.197 235.616 234.156 235.618 234.1Z" fill="#CAD6E1"/>
<path d="M234.805 266.607L177.994 280.361L175.811 253.81L175.602 251.179L172.851 233.986C175.034 235.69 177.187 237.395 179.399 239.009C185.477 243.493 191.807 247.626 198.356 251.388C204.908 255.2 211.806 258.383 218.957 260.896C223.67 262.516 228.541 263.628 233.489 264.215C233.908 263.318 233.489 263.677 233.489 262.301C228.812 261.631 224.221 260.458 219.795 258.803C212.853 256.182 206.175 252.908 199.851 249.026C193.492 245.179 187.363 240.966 181.492 236.408C178.323 233.986 175.213 231.444 172.163 228.873L169.682 213.235C173.001 216.584 176.409 219.873 179.878 223.042C185.32 228.006 190.941 232.79 196.712 237.335C202.482 241.88 208.492 246.305 214.652 250.162C220.842 254.206 227.375 257.698 234.177 260.597C233.758 259.132 234.177 258.175 233.638 257.966C227.538 255.092 221.679 251.733 216.117 247.919C210.091 243.848 204.273 239.477 198.685 234.823C193.064 230.189 187.652 225.315 182.389 220.292C177.127 215.268 172.851 210.873 168.456 205.909L168.187 204.265C168.187 204.265 168.396 194.248 168.396 191.707C168.396 189.165 172.941 188.717 172.941 188.717V187.222L157.393 183.903L110.658 184.65V186.654C111.935 186.731 113.184 187.056 114.336 187.61C114.816 187.914 115.212 188.333 115.489 188.829C115.766 189.326 115.914 189.883 115.921 190.451V203.398L-4.09896 304.581V310.262L114.635 210.036L111.107 229.351L18.6253 311.039L-4.45776 316.242L0.984093 326.647L0.0571847 327.454L2.65851 331.012L3.01732 330.683L5.55884 335.527L22.9907 341.178L67.5721 341.896L139.153 343.959V304.581H144.057L144.416 343.959L221.32 337.531L226.672 333.135L228.854 330.773L228.585 327.335L225.386 323.747L221.529 319.052L219.316 317.258L217.522 316.272L215.339 312.863L212.14 307.481L210.346 304.491L208.552 303.504L206.13 303.235V299.468L205.801 292.949H200.778V294.026L195.276 293.846L234.775 280.66L234.805 266.607ZM139.662 236.228C139.854 233.542 140.295 230.88 140.977 228.275C141.306 227.318 142.592 223.88 142.592 223.88C142.592 223.88 143.788 229.351 144.057 231.743C144.326 234.135 145.104 248.488 145.104 248.488H139.662V236.228ZM141.157 256.77L144.835 258.564L144.416 297.076L139.153 297.345V256.262C139.838 256.356 140.51 256.527 141.157 256.77ZM27.3263 309.066L109.851 236.139L107.1 251.089L106.771 254.079L103.064 292.022L27.3263 309.066Z" fill="#FAFAFA"/>
<path d="M90.1599 132.253L87.8966 138.859V148.262H85.0076V144.766L87.8966 143.791V141.27L85.0076 140.276V133.615L82.7626 127.009L81.6953 130.118L76.5614 115.085V112.324H75.9909V111H75.3285V109.38H73.8564C74.3072 109.149 74.686 108.798 74.952 108.367C75.218 107.936 75.3609 107.44 75.3653 106.933C75.3641 106.467 75.2433 106.009 75.0146 105.603C74.7858 105.197 74.4567 104.857 74.0588 104.614C74.027 103.046 73.9164 101.48 73.7276 99.922C74.5248 98.7638 75.0126 97.4208 75.1445 96.0209C75.0671 94.8467 74.5319 93.7499 73.654 92.9663V96.5546C73.6442 96.7236 73.5937 96.8877 73.5068 97.033C73.5242 96.9418 73.5242 96.8482 73.5068 96.757C73.5342 96.6208 73.5309 96.4802 73.4974 96.3454C73.4638 96.2106 73.4008 96.0849 73.3127 95.9774C73.2247 95.8699 73.1139 95.7833 72.9884 95.7239C72.8628 95.6644 72.7256 95.6336 72.5867 95.6336C72.4478 95.6336 72.3106 95.6644 72.185 95.7239C72.0595 95.7833 71.9487 95.8699 71.8607 95.9774C71.7726 96.0849 71.7096 96.2106 71.676 96.3454C71.6425 96.4802 71.6393 96.6208 71.6666 96.757C71.6492 96.8482 71.6492 96.9418 71.6666 97.033C71.5797 96.8877 71.5292 96.7236 71.5194 96.5546V93.0399C70.6926 93.8206 70.1928 94.886 70.1209 96.0209C70.265 97.3953 70.7522 98.7115 71.5378 99.8484C71.349 101.406 71.2384 102.972 71.2066 104.541C70.8087 104.783 70.4796 105.124 70.2509 105.53C70.0221 105.935 69.9014 106.393 69.9001 106.859C69.9045 107.366 70.0475 107.862 70.3134 108.293C70.5794 108.725 70.9582 109.075 71.409 109.307H69.9369V110.926H69.2745V112.251H68.704V115.011L63.5517 130.118L62.4844 127.009L60.2394 133.615V140.276L57.3504 141.27V138.859L55.0871 132.253L52.8237 138.859V370.12H77.5735C79.5227 370.122 81.4533 369.74 83.2548 368.996C85.0564 368.252 86.6936 367.16 88.0728 365.782C89.4519 364.405 90.5461 362.769 91.2926 360.968C92.0391 359.168 92.4233 357.238 92.4233 355.288V138.877L90.1599 132.253ZM75.7885 148.262H69.4769V146.275C69.5377 145.479 69.8965 144.736 70.4817 144.194C71.0668 143.652 71.835 143.351 72.6327 143.351C73.4304 143.351 74.1986 143.652 74.7838 144.194C75.3689 144.736 75.7278 145.479 75.7885 146.275V148.262ZM54.2406 142.742C54.2406 142.512 54.3318 142.292 54.4939 142.13C54.6561 141.968 54.8761 141.877 55.1055 141.877C55.3349 141.877 55.5548 141.968 55.717 142.13C55.8792 142.292 55.9703 142.512 55.9703 142.742V145.704H54.2406V142.742ZM57.3688 148.262V143.864L60.2578 144.84V148.336L57.3688 148.262ZM76.1566 186.905H69.0721V179.084C69.0371 178.6 69.1022 178.114 69.2634 177.656C69.4246 177.198 69.6785 176.778 70.0091 176.423C70.3398 176.068 70.7401 175.784 71.1852 175.59C71.6303 175.396 72.1105 175.296 72.5959 175.296C73.0813 175.296 73.5616 175.396 74.0066 175.59C74.4517 175.784 74.852 176.068 75.1827 176.423C75.5133 176.778 75.7672 177.198 75.9284 177.656C76.0896 178.114 76.1548 178.6 76.1198 179.084L76.1566 186.905ZM89.2951 142.742C89.2951 142.512 89.3862 142.292 89.5484 142.13C89.7106 141.968 89.9306 141.877 90.1599 141.877C90.3893 141.877 90.6093 141.968 90.7715 142.13C90.9337 142.292 91.0248 142.512 91.0248 142.742V145.704H89.3135L89.2951 142.742Z" fill="#CAD6E1"/>
</g>
</svg>
