<svg width="244" height="359" viewBox="0 0 244 359" fill="none" xmlns="http://www.w3.org/2000/svg">
<circle cx="121.694" cy="226.196" r="114.398" fill="#203347"/>
<mask id="mask0_2020_231877" style="mask-type:alpha" maskUnits="userSpaceOnUse" x="7" y="25" width="230" height="316">
<path fill-rule="evenodd" clip-rule="evenodd" d="M213.114 25.8213H32.6189V154.409C16.7798 174.038 7.29639 199.009 7.29639 226.196C7.29639 289.376 58.514 340.593 121.694 340.593C184.874 340.593 236.092 289.376 236.092 226.196C236.092 200.379 227.54 176.559 213.114 157.416V25.8213Z" fill="#C4C4C4"/>
</mask>
<g mask="url(#mask0_2020_231877)">
<path d="M158.668 330.581V310.771H125.511V304.682H158.668V292.558H125.511V286.469H158.668V274.345H125.511V268.255H158.668V256.131H125.511V250.042H158.668V237.918H125.511V231.829H158.668V219.705H125.511V213.616H158.668V201.492H125.511V195.403H158.668V183.279H125.511V177.189H158.668V165.065H125.511V158.976H158.668V146.852H125.511V140.763H158.668V133.808H170V128.639H125.538V122.55H161.46L170 124.228V110.426H125.538V104.337H161.46L170 106.015V92.1043H142.808V80.738H128.114V54H100.433V91.969H74V341H159.644L158.668 330.554V330.581ZM101.789 164.984H78.2564V158.895H101.789V164.984ZM101.789 146.771H78.2564V140.682H101.789V146.771ZM101.789 128.558H78.2564V122.469H101.789V128.558ZM102.114 110.345H78.5818V104.255H102.114V110.345Z" fill="#CAD6E1"/>
<path d="M181.001 159.9V125.258H189.869L167.934 108.835L146 125.258H154.842V159.9H150.747L148.139 338H187.704L185.096 159.9H181.001ZM162.301 136.944H173.542V152.612H162.301V136.944ZM171.273 313.72H164.57V298.051H171.273V313.72ZM171.273 289.463H164.57V273.794H171.273V289.463ZM171.273 265.205H164.57V249.537H171.273V265.205ZM171.273 240.948H164.57V225.28H171.273V240.948ZM171.273 216.691H164.57V201.023H171.273V216.691ZM167.908 188.374C163.031 188.374 159.093 184.443 159.093 179.576C159.093 174.709 163.031 170.779 167.908 170.779C172.785 170.779 176.724 174.709 176.724 179.576C176.724 184.443 172.785 188.374 167.908 188.374Z" fill="#FAFAFA"/>
<path d="M168.43 178.848L167.934 172.289L167.517 178.874C167.517 178.874 167.387 178.978 167.335 179.082L162.692 179.577L167.335 179.993C167.491 180.201 167.7 180.383 167.987 180.383C168.456 180.383 168.821 180.019 168.821 179.551C168.821 179.264 168.665 179.056 168.43 178.9V178.848Z" fill="#FAFAFA"/>
<path fill-rule="evenodd" clip-rule="evenodd" d="M227.732 214.048L240.935 214.128L240.989 214.101L239.519 220.556H235.002L233.906 225.116L107.464 225.943L114.654 307.155L112.836 326.251V341.827H105.38L105.46 306.302L102.172 296.887L61.5217 297.527L58.7956 308.942L59.0896 313.343L56.417 326.838L56.7377 340.227L48.8802 342.841L43.0004 342.974L43.6953 326.465L42.359 308.329L46.3145 226.343L-3.50333 226.903L-2.88862 220.929H-5L-4.30512 212.528H-2.91535L15.3654 212.848L29.5036 203.166V199.299L31.5081 197.859L37.3344 197.779L51.7132 187.911C51.7536 187.568 51.794 187.301 51.8229 187.111C51.8322 187.049 51.8403 186.996 51.8468 186.951C51.9804 186.017 52.5684 185.27 53.3969 184.977C54.2522 184.657 55.1876 184.844 55.8825 185.43L55.9626 185.51L100.355 163.56C100.382 162.147 101.531 161 102.947 161C104.284 161 105.353 162.04 105.486 163.347L227.732 214.048ZM62.7778 232.317L61.5484 238.025L60.6665 264.482L89.6645 226.076L62.7778 226.236V232.317ZM96.8004 226.023L60.319 274.537V274.51L60.0518 282.458H61.5484L101.691 227.81L101.584 226.023H96.8004ZM53.1297 274.457L54.4927 226.316H53.1564L51.927 276.057L53.1297 274.457ZM104.792 281.791L102.172 236.291L67.7757 282.378L104.792 281.791ZM100.328 206.34V204.153H100.355L100.275 202.926H83.3838L99.9808 212.448L100.756 211.408L100.462 206.34H100.328ZM70.6086 213.168L95.6512 213.301L77.5575 202.9L59.8914 202.873V204.02H67.0273L70.6086 213.168ZM105.513 204.34L106.315 213.355L150.093 213.621L105.513 176.256V204.34ZM99.9808 198.179L100.328 198.552V174.069L64.2211 191.911L78.3325 200.019L100.088 200.073L99.9808 198.179ZM72.4866 200.019H59.7845L59.6509 195.005L59.3301 194.365L61.1208 193.485L72.4866 200.019ZM111.126 177.189L154.636 213.648H154.663L199.215 213.915L111.126 177.189ZM61.2544 190.204L100.355 170.868V166.788L57.4326 188.017L61.2544 190.204ZM105.567 171.722L206.806 213.941L220.142 214.021L105.567 166.494V171.722ZM50.4303 197.592C50.6441 195.965 50.9381 193.752 51.2054 191.751L42.5193 197.699L50.4303 197.592ZM30.3321 212.901L26.537 208.661L20.4167 212.848L30.3321 212.901Z" fill="#FAFAFA"/>
</g>
</svg>
