<svg width="244" height="359" viewBox="0 0 244 359" fill="none" xmlns="http://www.w3.org/2000/svg">
<circle cx="122.201" cy="226.802" r="114.398" fill="#203347"/>
<mask id="mask0_837_180141" style="mask-type:alpha" maskUnits="userSpaceOnUse" x="7" y="26" width="230" height="316">
<path fill-rule="evenodd" clip-rule="evenodd" d="M236.599 26.4277H33.1259V155.015C17.2867 174.644 7.80334 199.616 7.80334 226.802C7.80334 289.982 59.0209 341.2 122.201 341.2C185.381 341.2 236.599 289.982 236.599 226.802C236.599 207.818 231.975 189.914 223.791 174.155H236.599V26.4277Z" fill="#C4C4C4"/>
</mask>
<g mask="url(#mask0_837_180141)">
<path d="M81.1861 339.377C84.766 342.885 87.6533 347.038 89.6965 351.619L95.8592 350.148V346.803C101.862 346.157 107.809 345.063 113.65 343.531V346.619L117.319 346.068V341.141C117.336 341.044 117.336 340.944 117.319 340.847V314.451V101.626L115.448 34.8994C115.448 34.8994 113.247 100.376 113.21 101.074C104.425 101.514 95.69 102.669 87.092 104.53C77.4812 108.206 69.2275 120.191 69.2275 120.191V339.303C73.2116 339.087 77.205 339.112 81.1861 339.377ZM113.76 104.567V128.39C109.395 128.132 99.0873 127.544 96.0426 127.507L113.76 104.567ZM95.8592 131.331C98.2802 131.331 105.213 131.698 110.165 131.992C105.785 135.138 100.964 137.616 95.8592 139.345V131.331ZM95.8592 143.352C102.274 141.357 108.294 138.259 113.65 134.198V154.749C109.285 154.492 98.9772 153.94 95.8592 153.94V143.352ZM95.8592 157.727C98.2069 157.727 104.846 158.058 109.725 158.352C105.432 161.174 100.765 163.377 95.8592 164.896V157.727ZM95.8592 168.756C102.239 166.984 108.285 164.177 113.76 160.448V181.146C109.395 180.925 99.0873 180.41 95.9692 180.41L95.8592 168.756ZM95.8592 184.123C98.1335 184.123 104.37 184.381 109.212 184.638C105.025 187.108 100.537 189.023 95.8592 190.336V184.123ZM95.8592 194.197C102.147 192.546 108.146 189.942 113.65 186.476V207.395C109.285 207.174 98.9772 206.733 95.8592 206.733V194.197ZM95.8592 210.52C98.0235 210.52 103.856 210.777 108.588 210.961C104.542 213.002 100.269 214.557 95.8592 215.593V210.52ZM95.8592 219.637C102.089 218.164 108.08 215.812 113.65 212.652V233.718C109.285 233.718 98.9772 233.129 95.8592 233.129V219.637ZM95.8592 236.953C97.9134 236.953 103.196 236.953 107.744 237.321C103.931 239.064 99.9484 240.407 95.8592 241.328V236.953ZM95.8592 245.004C102.042 243.728 108.025 241.626 113.65 238.754V260.041C109.285 260.041 98.9772 259.526 95.8592 259.526V245.004ZM95.8592 263.386C97.73 263.386 102.352 263.386 106.644 263.68C103.139 264.976 99.5314 265.972 95.8592 266.658V263.386ZM95.8592 270.518C101.988 269.398 107.961 267.546 113.65 265.004V286.437C109.322 286.437 98.9772 285.996 95.8592 285.996V270.518ZM95.8592 289.819H105.14C102.101 290.74 98.999 291.441 95.8592 291.915V289.819ZM95.8592 295.959C101.94 294.992 107.902 293.39 113.65 291.179V312.797C109.322 312.797 98.9772 312.429 95.8592 312.429V295.959ZM95.8592 316.216H102.829C100.53 316.741 98.203 317.134 95.8592 317.392V316.216ZM95.8592 321.399C101.899 320.591 107.853 319.237 113.65 317.355V339.119C109.322 339.119 98.9772 338.825 95.8592 338.825V321.399Z" fill="#CAD6E1"/>
<path d="M55.7058 210.087L138.405 220.218L147.245 289.001L101.135 334.322L55.7058 210.087Z" fill="#203347"/>
<path d="M230.989 196.386V195.922C271.696 195.922 319.838 235.186 333.18 296.718C333.667 298.911 328.603 331.511 317.273 331.975H316.884C310.716 276.052 257.218 216.545 230.989 196.386Z" fill="#FAFAFA"/>
<path d="M252.447 262.094C228.587 228.355 205.474 210.347 188.594 197.273L186.743 195.839C194.729 191.074 209.467 190.863 223.718 195.839C245.792 209.293 306.788 272.848 313.638 332.103L287.863 333.199C278.979 307.247 267.029 283.256 252.447 262.094Z" fill="#FAFAFA"/>
<path d="M102.406 198.032C169.668 220.679 230.794 314.811 241.994 335.096L195.638 337.079C159.637 285.795 56.6671 216.673 34.5604 206.34V205.665L101.4 212.793C101.269 207.845 101.563 202.894 102.276 198.032H102.406Z" fill="#FAFAFA"/>
<path d="M110.165 196.557C120.782 197.894 131.294 200.391 141.588 204.022C143.437 198.707 146.048 193.898 149.282 189.852C154.376 189.385 159.492 189.498 164.571 190.189C171.304 190.904 177.812 193.679 183.562 198.286L186.808 200.859C210.296 217.807 231.599 239.422 249.947 264.921C263.995 285.307 275.566 308.361 284.259 333.284L245.727 334.929C237.968 319.409 179.049 224.603 110.165 196.557Z" fill="#FAFAFA"/>
<path d="M143.666 315.571L122.143 316.541V299.207L143.666 298.279V315.571Z" fill="#FAFAFA"/>
<path d="M118.896 295.159L97.374 296.087V278.753L118.896 277.783V295.159Z" fill="#FAFAFA"/>
<path d="M146.944 293.936V291.532L149.541 293.81L146.944 293.936Z" fill="#FAFAFA"/>
<path d="M97.374 300.304L118.896 299.376V316.667L97.374 317.637V300.304Z" fill="#FAFAFA"/>
<path d="M125.097 273.312H122.143V270.866L125.097 273.312Z" fill="#FAFAFA"/>
<path d="M143.698 294.062L122.143 295.032V277.657L130.064 277.319C134.674 281.059 139.218 284.854 143.698 288.706V294.062Z" fill="#FAFAFA"/>
<path d="M146.944 298.153L154.02 297.815C159.085 302.37 163.759 306.967 168.466 311.48V314.474L146.944 315.444V298.153Z" fill="#FAFAFA"/>
<path d="M118.896 273.609L97.374 274.537V252.1C104.451 257.287 111.69 262.77 118.896 268.421V273.609Z" fill="#FAFAFA"/>
<path d="M171.713 318.565H175.252C180.885 324.422 186.241 330.718 191.288 337.417L171.811 338.26L171.713 318.565Z" fill="#FAFAFA"/>
<path d="M94.1284 249.696V318.482C89.0643 310.68 73.3851 286.556 71.1452 282.845C68.9053 279.134 39.1375 219.163 35.0148 210.896C55.2454 222.43 74.979 235.382 94.1284 249.696Z" fill="#FAFAFA"/>
<path d="M97.3747 321.896L118.897 320.926V340.326H120.423L97.3747 341.381V321.896Z" fill="#FAFAFA"/>
<path d="M146.944 339.316V319.831L168.466 318.861V338.388L146.944 339.316Z" fill="#FAFAFA"/>
<path d="M122.143 320.801L143.698 319.831V339.315L122.143 340.243V320.801Z" fill="#FAFAFA"/>
</g>
</svg>
