<svg width="245" height="359" viewBox="0 0 245 359" fill="none" xmlns="http://www.w3.org/2000/svg">
<circle cx="123.187" cy="226.196" r="114.398" fill="#203347"/>
<mask id="mask0_837_180135" style="mask-type:alpha" maskUnits="userSpaceOnUse" x="8" y="25" width="230" height="316">
<path fill-rule="evenodd" clip-rule="evenodd" d="M160.892 25.8213H34.1118V154.409C18.2727 174.038 8.78931 199.009 8.78931 226.196C8.78931 289.376 60.0069 340.593 123.187 340.593C186.367 340.593 237.585 289.376 237.585 226.196C237.585 176.226 205.547 133.74 160.892 118.157V25.8213Z" fill="#C4C4C4"/>
</mask>
<g mask="url(#mask0_837_180135)">
<path d="M109.133 132.278V121.464H101.015V127.263H92.897V121.464H85.3009L72.6311 64.6094L59.8163 121.464H52.3362V127.263H44.2182V121.464H36.0133V132.278H34.0417L34.5636 133.641H35.0855V134.395H36.0133V206.587C37.3759 205.92 38.7386 205.253 40.1302 204.702C56.772 197.947 82.7206 201.368 82.7206 201.368V206.326L53.061 237.377C53.061 237.377 45.088 245.466 38.9125 245.669C37.9848 245.669 37.086 245.669 36.2452 245.669V308.273H109.133V134.366H110.148V133.641H110.699L111.104 132.307L109.133 132.278ZM79.8213 197.425H65.3249V168.838C65.3362 166.43 66.014 164.072 67.283 162.025C68.5521 159.978 70.363 158.322 72.5151 157.241C74.6672 158.322 76.4781 159.978 77.7472 162.025C79.0163 164.072 79.694 166.43 79.7053 168.838L79.8213 197.425ZM79.8213 305.713H65.3249V277.126C65.3362 274.718 66.014 272.36 67.283 270.313C68.5521 268.266 70.363 266.61 72.5151 265.529C74.6672 266.61 76.4781 268.266 77.7472 270.313C79.0163 272.36 79.694 274.718 79.7053 277.126L79.8213 305.713Z" fill="#CAD6E1"/>
<path d="M230.901 165.533C208.38 161.519 185.207 163.325 163.58 170.781C135.457 180.407 112.843 203.717 112.843 203.717V212.414L123.425 225.403L88.634 196.41C88.634 196.41 59.7862 188.959 37.1719 200.035C24.7366 206.083 13.9378 215.032 5.68579 226.128V234.826L26.1257 248.279C26.1257 248.279 40.796 254.541 52.2191 259.093C62.7145 263.268 127.252 289.767 141.807 295.363C141.681 276.351 143.145 257.362 146.185 238.595C144.051 237.64 142.091 236.337 140.386 234.739L120.091 213.4V205.862C120.091 205.862 144.01 184.61 164.798 179.044C183.455 173.932 202.959 172.679 222.117 175.362L222.783 184.292L194.139 223.722C190.906 227.391 187.355 230.768 183.527 233.811C198.748 244.48 219.13 260.832 227.335 270.4C228.988 272.313 237.164 282.432 237.164 294.406V327.342H242.44C242.44 327.342 242.44 250.308 242.44 222.127C236.932 195.106 230.901 165.533 230.901 165.533ZM82.8355 206.297L53.0599 237.377C53.0599 237.377 45.0869 245.466 38.9115 245.669C35.1265 245.772 31.3468 245.322 27.6913 244.335L8.12118 233.115V228.245C8.12118 228.245 23.7193 211.429 40.3611 204.673C57.0029 197.918 82.9514 201.339 82.9514 201.339L82.8355 206.297Z" fill="#CAD6E1"/>
<path d="M227.385 238.928C217.108 226.968 183.649 198.924 171.821 192.957C153.423 183.679 145.537 199.397 143.619 207.045C139.413 220.371 116.993 255.013 101.565 270.127C86.136 285.24 35.855 296.41 26.9185 296.41C25.5255 300.537 24.9998 310.577 25.578 319.146C67.4255 318.307 109.039 325.59 148.113 340.593H152.266V336.152C149.13 323.302 147.255 310.176 146.668 296.962C146.668 296.752 146.668 296.542 146.668 296.332L160.361 296.568V336.152H163.095V296.726L175.317 296.91V336.336H178.208V296.962L190.43 297.173V336.257H193.321V297.12L206.989 297.33V316.912H231.801V317.727C231.805 321.258 230.792 324.716 228.883 327.688C231.638 325.01 233.827 321.806 235.321 318.266C236.816 314.727 237.585 310.924 237.583 307.082V264.423C237.689 253.016 231.012 243.133 227.385 238.928ZM150.19 211.435C150.19 210.935 153.265 198.95 162.254 198.95C165.017 199.068 167.716 199.823 170.139 201.158C177.288 204.785 193.795 216.692 206.936 227.783V231.253L147.456 230.201C147.952 223.892 148.865 217.623 150.19 211.435ZM145.853 260.901L160.309 261.137V265.816L145.8 265.579C145.827 264.002 145.827 262.452 145.853 260.901ZM160.309 258.273L145.905 258.036C146.063 251.991 146.3 246.156 146.641 240.662L160.309 240.873V258.273ZM163.2 240.925L175.422 241.109V258.535L163.095 258.299L163.2 240.925ZM163.2 261.216L175.422 261.427V266.079L163.095 265.869L163.2 261.216ZM178.313 261.453L190.535 261.663V266.342L178.313 266.131V261.453ZM178.313 258.588V241.135L190.535 241.346V258.746L178.313 258.588ZM178.313 238.271V233.592L190.535 233.776V238.455L178.313 238.271ZM175.422 238.271L163.095 238.008V233.329L175.317 233.539L175.422 238.271ZM160.309 238.008L146.825 237.797C146.825 236.22 147.062 234.643 147.193 233.145L160.335 233.355L160.309 238.008ZM145.8 271.835V268.471L160.309 268.707V286.133L146.116 285.897C145.958 281.192 145.827 276.514 145.8 271.835ZM163.095 268.734L175.317 268.944V286.449L163.095 286.16V268.734ZM178.208 268.996L190.43 269.18V286.633L178.313 286.449L178.208 268.996ZM193.321 269.233L206.989 269.469V286.896L193.321 286.659V269.233ZM193.321 266.342V261.689L206.989 261.9V266.578L193.321 266.342ZM193.321 258.798V241.372L206.989 241.609V259.035L193.321 258.798ZM193.321 238.481V233.881L206.989 234.091V238.77L193.321 238.481ZM146.484 293.44C146.484 291.89 146.326 290.339 146.273 288.788L160.309 288.998V293.677L146.484 293.44ZM163.2 293.729V289.077L175.422 289.287V293.966L163.2 293.729ZM178.313 293.966V289.314L190.535 289.498V294.176L178.313 293.966ZM193.427 294.229V289.55L207.094 289.787V294.465L193.427 294.229Z" fill="#FAFAFA"/>
</g>
</svg>
