<svg width="245" height="359" viewBox="0 0 245 359" fill="none" xmlns="http://www.w3.org/2000/svg">
<circle cx="123.187" cy="226.105" r="114.398" fill="#203347"/>
<mask id="mask0_837_180154" style="mask-type:alpha" maskUnits="userSpaceOnUse" x="8" y="47" width="230" height="294">
<path fill-rule="evenodd" clip-rule="evenodd" d="M237.585 47.6235H8.78931V173.458H21.597C13.4135 189.217 8.78931 207.121 8.78931 226.105C8.78931 289.285 60.0069 340.503 123.187 340.503C186.367 340.503 237.585 289.285 237.585 226.105C237.585 207.121 232.961 189.217 224.777 173.458H237.585V47.6235Z" fill="#C4C4C4"/>
</mask>
<g mask="url(#mask0_837_180154)">
<path d="M206.778 242.921C207.209 237.021 212.815 219.064 213.374 215.12C214.221 209.203 207.241 203.986 199.495 200.042C183.971 192.265 167.903 192.281 145.735 198.897C147.236 221.593 144.569 288.775 145.607 302.946C150.329 304.421 155.206 305.35 160.141 305.713C200.996 308.353 215.131 290.508 214.285 278.675C213.933 273.49 205.676 258.826 206.778 242.921ZM194.001 219.414C198.681 219.414 202.482 221.943 202.482 225.044C202.482 228.146 198.792 230.675 194.081 230.675C189.369 230.675 185.6 228.162 185.6 225.044C185.6 221.927 189.401 219.414 194.081 219.414H194.001ZM190.327 237.609C196.381 237.609 201.284 240.79 201.284 244.893C201.284 248.997 196.381 252.178 190.327 252.178C184.274 252.178 179.355 248.997 179.355 244.893C179.355 240.79 184.418 237.609 190.407 237.609H190.327ZM202.051 278.532C198.634 278.739 195.26 279.402 192.02 280.504C187.595 281.367 183.098 281.809 178.588 281.824C172.535 281.824 167.632 279.089 167.632 275.717C167.632 272.345 172.535 269.784 178.588 269.625C181.99 269.53 190.327 269.959 192.963 269.625C195.598 269.291 199.351 267.319 202.434 266.953C203.23 266.787 204.054 266.801 204.845 266.993C205.636 267.185 206.373 267.55 207.004 268.062C207.635 268.574 208.143 269.221 208.49 269.953C208.838 270.686 209.017 271.487 209.014 272.297C208.888 274.017 208.103 275.623 206.822 276.783C205.541 277.943 203.862 278.569 202.13 278.532H202.051Z" fill="#CAD6E1"/>
<path d="M113.905 349.091L108.124 243.722L106.378 236.885V220.571C106.357 214.434 104.404 208.458 100.794 203.484C97.1836 198.51 92.0982 194.788 86.253 192.843V179.169C86.2727 177.218 85.6658 175.311 84.5209 173.728C83.376 172.144 81.7529 170.967 79.8885 170.366V158.952H73.9954V170.484C72.131 171.084 70.5079 172.262 69.363 173.845C68.2181 175.429 67.6112 177.335 67.6308 179.286V192.96C61.7857 194.905 56.7002 198.627 53.0901 203.601C49.48 208.575 47.527 214.551 47.5059 220.688V237.179L42.6146 239.644L38.9903 222.596L34.5116 243.722L27.3809 247.361V260.066L26.2612 319.748L33.1856 339.584L55.7268 349.091H113.905Z" fill="#CAD6E1"/>
<path d="M148.205 241.113H106.742V494.748H148.205V241.113Z" fill="#FAFAFA"/>
<path d="M143.238 171.897H111.678V177.827H143.238V171.897Z" fill="#FAFAFA"/>
<path d="M144.472 185.753H110.444V191.683H144.472V185.753Z" fill="#FAFAFA"/>
<path d="M145.737 199.578H109.21V205.507H145.737V199.578Z" fill="#FAFAFA"/>
<path d="M146.971 213.433H107.976V219.362H146.971V213.433Z" fill="#FAFAFA"/>
<path d="M148.205 227.257H106.742V233.187H148.205V227.257Z" fill="#FAFAFA"/>
<path d="M130.157 135.462H124.203V163.972H130.157V135.462Z" fill="#FAFAFA"/>
</g>
</svg>
