<svg width="244" height="359" viewBox="0 0 244 359" fill="none" xmlns="http://www.w3.org/2000/svg">
<circle cx="122.398" cy="226.802" r="114.398" fill="#203347"/>
<mask id="mask0_837_180155" style="mask-type:alpha" maskUnits="userSpaceOnUse" x="8" y="48" width="229" height="294">
<path fill-rule="evenodd" clip-rule="evenodd" d="M236.795 48.3203H33.3225V155.015C17.4834 174.644 8 199.616 8 226.802C8 289.982 59.2176 341.2 122.398 341.2C185.578 341.2 236.795 289.982 236.795 226.802C236.795 207.818 232.171 189.914 223.988 174.155H236.795V48.3203Z" fill="#C4C4C4"/>
</mask>
<g mask="url(#mask0_837_180155)">
<path fill-rule="evenodd" clip-rule="evenodd" d="M0.144043 165.655L0.946815 162.837L197.93 218.65L207.059 214.827L210.526 218.724L213.463 217.698L217.869 222.298V223.528L216.459 224.407V228.889L214.991 230.881L215.02 232.82L236.795 266.948L234.317 268.521L215.106 238.411L215.54 266.81L236.678 291.685L234.437 293.579L215.611 271.425L215.872 288.477L217.987 289.766V292.139C219.044 292.461 235.612 299.433 235.612 299.433V316.249C235.612 316.249 217.899 311.913 217.135 311.913V315.399L217.928 318.153L217.899 336.873L218.662 339.246V346.277H157.593V339.627L158.474 336.961V321.229L159.678 318.856V300.429L0.556026 266.036L2.7885 204.222L32.8061 216.478L159.016 236.977L158.797 236.858V235.92L165.289 232.991L168.226 235.041L176.665 231.411L1.07604 188.754L1.77125 185.908L176.804 228.429V227.571L184.177 224.407L187.496 226.956L199.497 222.14L0.144043 165.655ZM161.529 240.354L44.8789 221.407L160.648 268.673V267.413L161.529 263.898V240.354ZM178.919 230.442L178.781 230.501L178.919 229.938V230.442ZM176.804 257.98C175.943 259.999 175.427 262.148 175.276 264.337V273.829L179.33 275.88V253.908C179.33 253.908 177.127 257.218 176.804 257.98ZM194.164 253.849C193.471 255.537 193.17 257.36 193.283 259.181V281.914L197.66 283.701L199.011 284.2V280.04L199.98 277.11V253.879C200.222 252.919 200.37 251.937 200.421 250.949C199.891 249.426 199.202 247.963 198.365 246.584L194.164 253.849Z" fill="#CAD6E1"/>
<path d="M103.689 317.742V303.647H100.632V197.641H98.3976V174.259H95.5051V163.4H92.8008V157.209H90.802V152.894H88.1917V148.696H84.5703V117.199H81.2075L79.5849 72.7559L77.9388 117.199H74.576V148.696H70.9546V152.894H68.3679V157.209H66.369V163.4H63.6412V174.259H60.7487V197.641H58.5383V303.647H55.4577V317.742H52.918V349.098H55.4577H58.5383H79.5849H100.632H103.689H106.228V317.742H103.689Z" fill="#CAD6E1"/>
<path d="M171.946 453.519L165.432 443.04H161.554V426.334H165.432L159.887 415.816H158.336V363.651H161.942V353.171H155.079L152.21 337.974H156.087V331.323H152.442L152.055 311.369H153.644L153.296 296.868L153.916 296.52L153.528 290.604L155.079 288.786C155.079 288.786 153.877 269.838 153.606 267.905C153.334 265.971 152.791 262.452 152.791 262.452C153.851 262.607 154.933 262.487 155.932 262.104C157.048 260.59 157.719 258.796 157.871 256.922C158.067 255.889 158.434 254.896 158.957 253.983L158.491 251.315L160.275 248.299C160.92 248.36 161.569 248.36 162.214 248.299C164.139 246.706 165.893 244.917 167.448 242.963C168.052 242.135 168.498 241.205 168.766 240.217C168.583 239.373 168.296 238.555 167.913 237.781L171.054 233.682L159.422 224.981L154.73 230.434C152.458 229.094 150.339 227.513 148.41 225.716C147.945 224.633 146.471 218.717 146.006 217.247C145.032 215.182 143.822 213.235 142.4 211.447L138.523 207.58C138.523 207.58 138.755 199.343 138.755 198.647C138.755 197.951 138.988 191.648 138.988 191.648L139.531 189.444L149.418 187.974L139.414 186.505C139.116 185.893 138.724 185.332 138.251 184.842L142.516 176.257L135.692 182.947C134.507 182.489 133.27 182.177 132.009 182.019L130.496 172.158L129.023 181.826C127.461 182.069 125.928 182.471 124.448 183.025L117.74 175.987L122.044 184.726C121.593 185.142 121.247 185.659 121.036 186.234L114.483 187.162C114.099 185.598 113.827 184.009 113.669 182.406C113.669 180.859 112.195 173.357 111.846 171.54C111.497 169.722 110.644 159.127 110.644 157.812C110.644 156.497 110.644 153.442 110.644 150.735C110.644 149.305 110.644 147.062 110.644 146.598H115.762V142.731H110.993L110.257 134.803C109.55 133.387 108.635 132.084 107.542 130.937C106.45 132.084 105.535 133.387 104.828 134.803L104.053 142.769H99.3223V146.636H105.061C105.061 147.951 105.061 149.73 105.061 151.625C105.061 153.52 105.061 161.95 105.061 163.226C105.061 164.502 105.061 175.175 105.526 176.992C105.991 178.81 105.914 182.909 106.146 183.875C106.379 184.842 107.116 187.742 107.116 188.322C107.052 189.026 106.936 189.724 106.767 190.411C105.329 192.038 104.223 193.929 103.51 195.979C102.719 199.272 102.315 202.646 102.308 206.033C102.812 207.232 102.657 207.928 103.277 208.431C103.736 208.812 104.14 209.255 104.479 209.745C104.479 209.745 103.781 212.414 104.13 212.916C104.479 213.419 106.185 214.695 106.302 215.546C106.418 216.397 106.806 218.214 106.806 218.678C106.806 219.142 105.953 224.362 106.069 224.749C107.344 226.48 108.509 228.288 109.559 230.163C109.946 231.362 110.528 234.881 110.528 234.881C110.528 234.881 107.659 241.3 107.155 242.112C106.651 242.924 105.1 247.564 105.953 249.15C106.806 250.735 110.683 250.813 110.683 250.813V256.265C110.683 256.265 108.357 260.712 108.124 261.331C107.621 262.692 107.371 264.134 107.387 265.584L108.473 267.015C108.473 267.015 108.744 271.733 108.861 272.197C108.977 272.661 109.83 273.55 109.714 274.014C109.597 274.478 110.295 282.096 110.412 283.063C110.528 284.03 108.977 288.167 108.977 288.864C108.977 289.56 108.977 293.001 108.977 293.001C108.125 294.93 107.513 296.956 107.155 299.034C107.155 300.348 106.922 312.684 107.155 314.502C107.18 317.717 106.815 320.924 106.069 324.053C105.449 325.329 100.796 331.323 100.796 331.323H96.9183V337.935H100.796L97.8876 353.133H90.792V363.612H94.398V415.777H93.0409L87.4575 426.296H91.3349V443.001H87.4575L80.9435 453.48H69.3113L75.5151 467.092H181.484V453.519H171.946ZM120.57 189.173V189.56L121.074 192.189C120.949 193.625 120.703 195.048 120.338 196.443L119.136 196.791L118.166 193.311C118.166 193.311 116.848 191.107 116.499 190.256C116.167 189.718 115.639 189.33 115.026 189.173C115.026 189.173 115.026 188.825 114.793 188.284L120.57 189.173Z" fill="#FAFAFA"/>
</g>
</svg>
