<svg width="245" height="359" viewBox="0 0 245 359" fill="none" xmlns="http://www.w3.org/2000/svg">
<circle cx="122.398" cy="226.802" r="114.398" fill="#203347"/>
<mask id="mask0_837_180142" style="mask-type:alpha" maskUnits="userSpaceOnUse" x="8" y="48" width="229" height="294">
<path fill-rule="evenodd" clip-rule="evenodd" d="M236.795 48.3203H8V174.155H20.8077C12.6242 189.914 8 207.818 8 226.802C8 289.982 59.2176 341.2 122.398 341.2C185.578 341.2 236.795 289.982 236.795 226.802C236.795 207.818 232.171 189.914 223.988 174.155H236.795V48.3203Z" fill="#C4C4C4"/>
</mask>
<g mask="url(#mask0_837_180142)">
<path fill-rule="evenodd" clip-rule="evenodd" d="M132.256 144.111L123.532 71.4995L114.115 149.89L111.361 126.948L108.538 150.447L107.937 145.455L105.97 161.708L104.628 150.4L102.522 167.769H101.62V338.249L132.256 338.785V340.942H151.646V321.321C151.646 316.189 159.884 312.033 159.884 312.033C159.884 312.033 168.098 316.189 168.098 321.321V340.942H187.489L205.12 336.832V122.954H199.243V128.132H197.091V90.7715H195.518V128.132H193.366V122.954H187.489V142.227H179.598V149.541H171.708V142.227H163.841V149.541H155.927V142.227H148.037V149.541H140.146V142.227H137.543L135.704 126.948L133.87 142.227H132.256V144.111ZM120.481 200.762C121.363 201.354 122.401 201.67 123.463 201.67C124.169 201.673 124.868 201.536 125.521 201.266C126.174 200.996 126.767 200.6 127.266 200.099C127.765 199.598 128.16 199.003 128.429 198.348C128.698 197.693 128.834 196.991 128.831 196.283C128.831 195.217 128.516 194.176 127.927 193.29C127.337 192.404 126.498 191.714 125.517 191.306C124.536 190.898 123.457 190.791 122.416 190.999C121.374 191.207 120.418 191.72 119.667 192.474C118.916 193.227 118.405 194.187 118.198 195.232C117.991 196.277 118.097 197.36 118.503 198.344C118.91 199.329 119.598 200.17 120.481 200.762ZM156.818 237.026C157.743 237.602 158.819 237.887 159.907 237.846H159.884C160.589 237.834 161.285 237.682 161.931 237.4C162.578 237.118 163.163 236.711 163.653 236.203C164.143 235.694 164.528 235.093 164.786 234.435C165.045 233.776 165.172 233.073 165.159 232.366C165.159 231.273 164.832 230.206 164.223 229.301C163.613 228.396 162.747 227.694 161.737 227.286C160.727 226.878 159.619 226.783 158.554 227.012C157.49 227.241 156.518 227.784 155.763 228.571C155.008 229.358 154.505 230.354 154.319 231.431C154.132 232.507 154.27 233.615 154.716 234.612C155.161 235.609 155.893 236.449 156.818 237.026ZM153.22 188.179H166.548L166.525 169.603C166.525 164.959 159.884 162.637 159.884 162.637C159.884 162.637 153.22 165.098 153.22 169.603V188.179ZM194.685 213.186H197.947V204.665H194.685V213.186ZM194.685 193.682H197.947V185.137H194.685V193.682ZM194.685 174.177H197.947V165.632H194.685V174.177Z" fill="#CAD6E1"/>
<path d="M152.599 242.475V237.529L151.581 229.704C151.349 227.94 150.007 227.94 149.776 229.704L148.781 237.529H144.361L143.343 228.659C143.135 226.639 141.77 226.639 141.539 228.659L140.544 237.529H136.124V214.426H133.972V209.387H133.047L132.052 201.562C131.82 199.797 130.455 199.797 130.247 201.562L129.506 207.274C128.812 192.274 120.621 179.758 109.283 174.557V170.842H104.146V156.91H104.03C104.027 155.569 103.593 154.264 102.792 153.189C101.992 152.114 100.869 151.327 99.5876 150.943L98.6851 143.977C98.4538 142.189 97.1117 142.189 96.8803 143.977L95.9547 150.943C94.6757 151.33 93.5541 152.118 92.7545 153.192C91.9549 154.267 91.5194 155.569 91.5121 156.91H91.3964V170.842H86.2827V174.557C74.9214 179.758 66.7302 192.274 66.0592 207.367L65.3187 201.562C65.0874 199.797 63.7453 199.797 63.5139 201.562L62.5189 209.294H61.5702V214.333H59.4183V234.464H55.0219V237.436L54.0038 228.566C53.7724 226.546 52.4303 226.546 52.199 228.566L51.204 237.529H46.7844L45.7663 229.704C45.5581 227.94 44.1929 227.94 43.9615 229.704L42.9665 237.529V242.475H40.1436V245.122H42.9665V273.288C42.9665 273.288 40.1436 330.919 49.9082 341.043C58.7936 350.331 91.0261 346.779 91.0261 346.779V334.588C91.1273 332.849 91.8869 331.215 93.1494 330.02C94.4119 328.825 96.0819 328.16 97.8174 328.16C99.553 328.16 101.223 328.825 102.485 330.02C103.748 331.215 104.508 332.849 104.609 334.588V343.876L125.249 346.779H139.988V331.128C139.988 330.739 140.065 330.354 140.214 329.995C140.363 329.635 140.582 329.309 140.857 329.035C141.132 328.761 141.459 328.544 141.818 328.397C142.178 328.25 142.562 328.176 142.95 328.179C143.729 328.179 144.477 328.49 145.028 329.043C145.579 329.596 145.889 330.346 145.889 331.128V344.364L152.668 343.551V245.122H155.329V242.475H152.599ZM96.3712 161.624C96.4151 161.282 96.5814 160.968 96.839 160.741C97.0967 160.514 97.428 160.388 97.7712 160.388C98.1143 160.388 98.4456 160.514 98.7033 160.741C98.9609 160.968 99.1272 161.282 99.1711 161.624V167.591H96.3712V161.624ZM56.5722 296.299H53.1014V292.816H56.5722V296.299ZM56.5722 284.155H53.1014V271.802H56.5722V284.155ZM76.3098 234.65H70.525V220.718C71.3607 220.104 72.3831 219.8 73.4174 219.859C74.4501 219.813 75.4683 220.116 76.3098 220.718V234.65ZM101.901 305.076H93.6408V296.763H101.901V305.076ZM101.901 290.215H93.6408V275.703H101.901V290.215ZM102.85 235.323H92.7153V220.625C94.3152 219.945 96.0472 219.636 97.7827 219.72C99.5182 219.636 101.25 219.945 102.85 220.625V235.323ZM125.017 234.65H119.256V220.718C120.113 220.158 121.114 219.859 122.136 219.859C123.159 219.859 124.16 220.158 125.017 220.718V234.65ZM142.464 296.299H138.993V292.816H142.464V296.299ZM142.464 284.155H138.993V271.802H142.464V284.155Z" fill="#FAFAFA"/>
</g>
</svg>
