<svg width="245" height="359" viewBox="0 0 245 359" fill="none" xmlns="http://www.w3.org/2000/svg">
<circle cx="121.881" cy="226.196" r="114.398" fill="#203347"/>
<mask id="mask0_2602_252573" style="mask-type:alpha" maskUnits="userSpaceOnUse" x="7" y="26" width="230" height="315">
<path fill-rule="evenodd" clip-rule="evenodd" d="M236.187 26H10.187V189H13.6663C9.65891 200.661 7.4834 213.174 7.4834 226.196C7.4834 289.376 58.701 340.593 121.881 340.593C185.061 340.593 236.279 289.376 236.279 226.196C236.279 213.174 234.103 200.661 230.096 189H236.187V26Z" fill="#C4C4C4"/>
</mask>
<g mask="url(#mask0_2602_252573)">
<path d="M65.2763 324.994L57.6372 322.569C90.6659 218.384 127.156 167.752 169.159 167.752C211.161 167.752 249.851 268.101 261.397 313.858L253.634 315.813C239.196 258.573 200.803 175.746 169.159 175.746C131.63 175.746 96.6734 225.957 65.2763 324.994Z" fill="#FAFAFA"/>
<path d="M168.426 171.399L167.328 172.159L264.659 313.231L265.757 312.472L168.426 171.399Z" fill="#FAFAFA"/>
<path d="M185.872 180.323L184.709 180.979L259.53 314.008L260.694 313.352L185.872 180.323Z" fill="#FAFAFA"/>
<path d="M210.11 207.427L208.88 207.945L253.916 315.136L255.146 314.618L210.11 207.427Z" fill="#FAFAFA"/>
<path d="M230.98 244.558L229.692 244.911L248.87 315.037L250.158 314.684L230.98 244.558Z" fill="#FAFAFA"/>
<path d="M166.124 174.702L90.8572 331.182L92.06 331.761L167.327 175.281L166.124 174.702Z" fill="#FAFAFA"/>
<path d="M146.716 179.237L88.3621 326.771L89.6033 327.263L147.958 179.729L146.716 179.237Z" fill="#FAFAFA"/>
<path d="M123.485 199.126L87.1484 323.594L88.4298 323.969L124.767 199.501L123.485 199.126Z" fill="#FAFAFA"/>
<path d="M100.432 233.495L81.6516 326.897L82.9604 327.161L101.741 233.758L100.432 233.495Z" fill="#FAFAFA"/>
<path d="M230.841 274.716V273.089H224.365V265.08H222.815V262.853H221.265L221.165 261.076H223.14V259.499L221.015 258.373L220.94 256.796H220.065L219.99 258.373L217.865 259.499V261.076H219.84L219.74 262.853H218.19V265.08H208.514V262.853H206.964L206.864 261.076H208.839V259.499L206.714 258.373L206.639 256.796H205.763L205.688 258.373L203.563 259.499V261.076H205.538L205.438 262.853H203.888V265.08H160.384V239.127H162.259V235.873H159.909V234.196L159.209 234.021V231.819H157.534V233.621L154.759 232.92L151.983 233.621V231.819H150.308V234.021L149.608 234.196V235.873H147.283V239.127H149.158V257.196L121.53 245.033V223.484H118.63V188.972H120.505V175.056H122.405V171.402H120.155V164.094H118.08V163.043C118.655 162.693 119.055 162.092 119.055 161.391C119.055 160.691 118.655 160.09 118.08 159.74V157.837H116.305V159.614C115.63 159.915 115.155 160.591 115.155 161.391C115.155 162.192 115.63 162.868 116.305 163.168V164.094H114.33V144.773L116.305 142.796V141.094H114.73V127.179H112.705C112.705 127.179 112.58 123.775 112.48 119.946C112.38 116.117 106.954 112.938 106.954 112.938V105.705H105.604C105.604 105.705 105.954 98.0219 105.954 95.5192C105.954 93.0165 103.254 91.5649 102.679 91.3396C102.104 91.1144 102.454 86.4843 102.454 86.4843L101.654 85.1328L100.753 78L99.8533 85.1328L99.0533 86.4843C99.0533 86.4843 99.4033 91.1144 98.8282 91.3396C98.2532 91.5649 95.5529 93.0415 95.5529 95.5192C95.5529 97.9969 95.903 105.705 95.903 105.705H94.5528V112.938C94.5528 112.938 89.1273 116.117 89.0273 119.946C88.9273 123.8 88.8023 127.179 88.8023 127.179H86.7771V141.094H85.2019V142.796L87.1771 144.773V164.094H85.2019V163.168C85.877 162.868 86.352 162.192 86.352 161.391C86.352 160.591 85.877 159.915 85.2019 159.614V157.837H83.4268V159.74C82.8517 160.09 82.4517 160.691 82.4517 161.391C82.4517 162.092 82.8517 162.693 83.4268 163.043V164.094H81.3516V171.402H79.1013V175.056H81.0015V188.972H82.8767V223.484H79.9764V245.033L52.3488 257.196V239.127H54.224V235.873H51.8987V234.196L51.1987 234.021V231.819H49.5235V233.621L46.7482 232.92L43.973 233.621V231.819H42.2978V234.021L41.5978 234.196V235.873H39.2475V239.127H41.1227V265.08H-2.40646V262.853H-3.95661L-4.05662 261.076H-2.08143V259.499L-4.20663 258.373L-4.28164 256.796H-5.15672L-5.23173 258.373L-7.35694 259.499V261.076H-5.38175L-5.48176 262.853H-7.0319V265.08H-16.7078V262.853H-18.258L-18.358 261.076H-16.3828V259.499L-18.508 258.373L-18.583 256.796H-19.4581L-19.5331 258.373L-21.6583 259.499V261.076H-19.6831L-19.7831 262.853H-21.3333V265.08H-22.8834V273.089H-29.259V274.716L-23.2585 280.397V289.257H-24.9336V289.882L-22.6084 292.085V345.593H95.3029V324.145H106.329V345.593H224.24V292.085L226.565 289.882V289.257H224.89V280.397L230.891 274.716H230.841ZM4.96924 341.864H-2.18144V324.145H4.96924V341.864ZM4.96924 313.108H-2.18144V300.193C-2.18144 298.216 -0.581287 296.615 1.3939 296.615C3.36909 296.615 4.96924 298.216 4.96924 300.193V313.108ZM6.51939 270.511H-3.73159V267.358H6.51939V270.511ZM18.9956 341.864H11.8449V324.145H18.9956V341.864ZM18.9956 313.108H11.8449V300.193C11.8449 298.216 13.4451 296.615 15.4202 296.615C17.3954 296.615 18.9956 298.216 18.9956 300.193V313.108ZM20.3957 270.511H10.1447V267.358H20.3957V270.511ZM32.9969 341.864H25.8462V324.145H32.9969V341.864ZM32.9969 313.108H25.8462V300.193C25.8462 298.216 27.4464 296.615 29.4216 296.615C31.3968 296.615 32.9969 298.216 32.9969 300.193V313.108ZM34.272 270.511H24.0211V267.358H34.272V270.511ZM47.0233 341.864H39.8726V324.145H47.0233V341.864ZM47.0233 313.108H39.8726V300.193C39.8726 298.216 41.4727 296.615 43.4479 296.615C45.4231 296.615 47.0233 298.216 47.0233 300.193V313.108ZM48.1484 270.511H37.8974V267.358H48.1484V270.511ZM106.304 321.442H95.2779V302.146C95.2779 299.092 97.7531 296.64 100.778 296.64C103.804 296.64 106.279 299.117 106.279 302.146V321.442H106.304ZM97.2281 217.228V204.313C97.2281 202.336 98.8282 200.734 100.803 200.734C102.779 200.734 104.379 202.336 104.379 204.313V217.228H97.2281ZM100.803 162.668C96.853 162.668 93.6277 159.464 93.6277 155.485C93.6277 151.506 96.828 148.302 100.803 148.302C104.779 148.302 107.979 151.506 107.979 155.485C107.979 159.464 104.779 162.668 100.803 162.668ZM161.709 341.864H154.559V324.145H161.709V341.864ZM161.709 313.108H154.559V300.193C154.559 298.216 156.159 296.615 158.134 296.615C160.109 296.615 161.709 298.216 161.709 300.193V313.108ZM163.659 270.511H153.408V267.358H163.659V270.511ZM175.711 341.864H168.56V324.145H175.711V341.864ZM175.711 313.108H168.56V300.193C168.56 298.216 170.16 296.615 172.135 296.615C174.11 296.615 175.711 298.216 175.711 300.193V313.108ZM177.536 270.511H167.285V267.358H177.536V270.511ZM189.737 341.864H182.586V324.145H189.737V341.864ZM189.737 313.108H182.586V300.193C182.586 298.216 184.186 296.615 186.162 296.615C188.137 296.615 189.737 298.216 189.737 300.193V313.108ZM191.412 270.511H181.161V267.358H191.412V270.511ZM203.738 341.864H196.588V324.145H203.738V341.864ZM203.738 313.108H196.588V300.193C196.588 298.216 198.188 296.615 200.163 296.615C202.138 296.615 203.738 298.216 203.738 300.193V313.108ZM205.288 270.511H195.037V267.358H205.288V270.511Z" fill="#CAD6E1"/>
<path d="M257.763 305.963H69.4297V332.715H257.763V305.963Z" fill="#203347"/>
<path d="M127.354 284.286C131.358 280.87 174.647 237.291 176.229 233.579C177.811 229.892 177.144 231.327 177.144 231.327C177.144 231.327 206.044 254.169 214.227 259.464C222.41 264.76 251.434 282.182 251.434 282.182" stroke="#FAFAFA" stroke-width="1.5" stroke-miterlimit="10"/>
<path d="M147.453 289.234L177.169 231.352L194.771 290.744" stroke="#FAFAFA" stroke-width="1.5" stroke-miterlimit="10"/>
<path d="M173.287 293.912L177.168 231.352" stroke="#FAFAFA" stroke-width="1.5" stroke-miterlimit="10"/>
<path d="M184.437 218.681H170.914V232.218H184.437V218.681Z" fill="#FAFAFA"/>
<path d="M186.167 222.938H169.208V227.936H186.167V222.938Z" fill="#FAFAFA"/>
<path d="M332.67 297.921V291.041C332.67 291.041 320.186 283.988 313.486 281.712C306.811 279.41 289.728 278.371 280.581 278.544C271.434 278.717 245.401 282.231 232.719 284.013C220.061 285.77 171.853 292.873 171.853 292.873C171.853 292.873 151.433 287.577 127.279 281.786C103.101 275.995 81.2468 277.356 75.091 280.524C68.9352 283.691 77.316 293.838 77.316 293.838V295.669L66.908 300V302.895H54.0031L50.7397 305.196V328.904H53.5333V343.158H297.318V318.51L334.277 320.886V343.158H339.741V305.122L332.695 297.896L332.67 297.921ZM196.476 325.093L76.1293 326.479V322.692L196.501 321.307V325.093H196.476ZM255.711 313.016C255.711 313.016 76.3271 315.367 76.1293 315.392V311.631L255.76 309.255L255.686 313.041L255.711 313.016Z" fill="#FAFAFA"/>
</g>
</svg>
