<svg width="245" height="359" viewBox="0 0 245 359" fill="none" xmlns="http://www.w3.org/2000/svg">
<circle cx="122.398" cy="226.196" r="114.398" fill="#203347"/>
<mask id="mask0_837_180138" style="mask-type:alpha" maskUnits="userSpaceOnUse" x="8" y="25" width="229" height="316">
<path fill-rule="evenodd" clip-rule="evenodd" d="M236.795 25.8213H33.3225V154.409C17.4834 174.038 8 199.009 8 226.196C8 289.376 59.2176 340.593 122.398 340.593C185.578 340.593 236.795 289.376 236.795 226.196C236.795 207.212 232.171 189.308 223.988 173.549H236.795V25.8213Z" fill="#C4C4C4"/>
</mask>
<g mask="url(#mask0_837_180138)">
<path d="M227.42 358.01H225.705V342.651C225.707 341.367 226.098 340.115 226.825 339.058C227.552 338 228.581 337.188 229.779 336.726C230.976 336.264 232.285 336.175 233.533 336.471C234.782 336.766 235.912 337.433 236.775 338.382V325.276H232.088L231.15 271.279C231.73 271.226 232.268 270.958 232.66 270.528C233.051 270.098 233.269 269.537 233.269 268.956C233.269 268.374 233.051 267.813 232.66 267.383C232.268 266.954 231.73 266.685 231.15 266.632H236.795V233.839H214.056L213.756 215.507C213.968 215.497 214.168 215.407 214.316 215.255C214.464 215.104 214.55 214.901 214.554 214.689C214.554 214.563 214.52 214.439 214.455 214.33H216.449V211.697H215.432V202.541C215.382 196.804 213.294 191.271 209.541 186.93C205.789 182.59 200.616 179.724 194.946 178.844V165.38H195.704V162.847H194.946L192.513 154.03C192.811 153.825 193.056 153.551 193.226 153.232C193.396 152.912 193.486 152.557 193.49 152.195C193.49 151.595 193.258 151.018 192.841 150.586C192.424 150.154 191.856 149.902 191.256 149.881C190.642 149.881 190.054 150.125 189.62 150.559C189.186 150.993 188.942 151.581 188.942 152.195C188.945 152.559 189.037 152.917 189.211 153.237C189.385 153.557 189.635 153.83 189.939 154.03L187.386 162.847H186.628V165.38H187.386V178.844C181.733 179.745 176.581 182.619 172.845 186.957C169.109 191.295 167.032 196.817 166.98 202.541V211.717H165.963V214.35H167.958C167.935 214.469 167.935 214.591 167.958 214.709C167.958 214.923 168.041 215.128 168.19 215.281C168.339 215.433 168.542 215.522 168.756 215.527L168.456 233.859H109.353V241.438H78.5544V254.823H73.2883V257.815L78.5544 262.084V363.675H223.291L227.42 358.01ZM98.2622 358.01H85.5359V342.651C85.6271 341.022 86.3382 339.49 87.5234 338.369C88.7086 337.249 90.2779 336.624 91.909 336.624C93.5402 336.624 95.1095 337.249 96.2946 338.369C97.4798 339.49 98.191 341.022 98.2822 342.651L98.2622 358.01ZM207.433 214.689C207.464 214.572 207.464 214.448 207.433 214.33H210.625C210.592 214.448 210.592 214.572 210.625 214.689C210.625 214.903 210.708 215.108 210.857 215.261C211.006 215.413 211.209 215.502 211.423 215.507L211.123 233.839H207.134L206.835 215.507C207.01 215.455 207.164 215.347 207.272 215.199C207.38 215.051 207.436 214.872 207.433 214.689ZM200.332 214.689C200.363 214.572 200.363 214.448 200.332 214.33H203.524C203.492 214.448 203.492 214.572 203.524 214.689C203.528 214.901 203.613 215.104 203.761 215.255C203.91 215.407 204.11 215.497 204.321 215.507L204.022 233.839H200.033L199.734 215.507C199.909 215.455 200.062 215.347 200.17 215.199C200.278 215.051 200.335 214.872 200.332 214.689ZM191.256 196.557C192.485 196.553 193.687 196.914 194.71 197.594C195.733 198.275 196.531 199.243 197.003 200.378C197.475 201.512 197.6 202.761 197.361 203.966C197.123 205.171 196.531 206.279 195.663 207.147C194.794 208.016 193.687 208.607 192.481 208.846C191.276 209.085 190.027 208.96 188.893 208.488C187.758 208.016 186.79 207.218 186.11 206.195C185.429 205.172 185.068 203.97 185.072 202.741C185.072 201.101 185.724 199.528 186.884 198.368C188.043 197.209 189.616 196.557 191.256 196.557ZM193.251 214.35H196.442C196.411 214.468 196.411 214.592 196.442 214.709C196.447 214.921 196.532 215.123 196.68 215.275C196.828 215.427 197.028 215.517 197.24 215.527L196.961 233.859H192.971L192.672 215.527C192.884 215.517 193.084 215.427 193.232 215.275C193.38 215.123 193.465 214.921 193.47 214.709C193.404 214.541 193.275 214.405 193.111 214.33L193.251 214.35ZM186.169 214.35H189.261C189.23 214.468 189.23 214.592 189.261 214.709C189.266 214.921 189.351 215.123 189.499 215.275C189.647 215.427 189.847 215.517 190.059 215.527L189.76 233.859H185.771L185.272 215.507C185.484 215.497 185.684 215.407 185.832 215.255C185.98 215.104 186.065 214.901 186.07 214.689C186.088 214.568 186.074 214.444 186.03 214.33L186.169 214.35ZM179.148 214.709C179.171 214.591 179.171 214.469 179.148 214.35H182.34C182.308 214.468 182.308 214.592 182.34 214.709C182.344 214.921 182.429 215.123 182.578 215.275C182.726 215.427 182.926 215.517 183.137 215.527L182.838 233.859H178.849L178.55 215.527C178.702 215.451 178.828 215.33 178.91 215.18C178.992 215.03 179.026 214.859 179.008 214.689L179.148 214.709ZM172.047 214.709C172.078 214.592 172.078 214.468 172.047 214.35H175.238C175.207 214.468 175.207 214.592 175.238 214.709C175.243 214.921 175.328 215.123 175.476 215.275C175.624 215.427 175.825 215.517 176.036 215.527L175.737 233.859H171.748L171.109 215.507C171.321 215.497 171.521 215.407 171.669 215.255C171.817 215.104 171.902 214.901 171.907 214.689L172.047 214.709ZM121.76 271.279C122.339 271.226 122.877 270.958 123.269 270.528C123.661 270.098 123.878 269.537 123.878 268.956C123.878 268.374 123.661 267.813 123.269 267.383C122.877 266.954 122.339 266.685 121.76 266.632H133.05C132.471 266.685 131.933 266.954 131.541 267.383C131.149 267.813 130.932 268.374 130.932 268.956C130.932 269.537 131.149 270.098 131.541 270.528C131.933 270.958 132.471 271.226 133.05 271.279L132.172 325.276H122.638L121.76 271.279ZM136.182 358.01H123.436V342.651C123.527 341.022 124.238 339.49 125.423 338.369C126.608 337.249 128.178 336.624 129.809 336.624C131.44 336.624 133.009 337.249 134.194 338.369C135.379 339.49 136.091 341.022 136.182 342.651V358.01ZM139.992 271.279C140.571 271.226 141.109 270.958 141.501 270.528C141.893 270.098 142.11 269.537 142.11 268.956C142.11 268.374 141.893 267.813 141.501 267.383C141.109 266.954 140.571 266.685 139.992 266.632H151.262C150.683 266.685 150.144 266.954 149.753 267.383C149.361 267.813 149.144 268.374 149.144 268.956C149.144 269.537 149.361 270.098 149.753 270.528C150.144 270.958 150.683 271.226 151.262 271.279L150.384 325.276H141.009L139.992 271.279ZM156.628 358.01H143.881V342.651C143.973 341.022 144.684 339.49 145.869 338.369C147.054 337.249 148.623 336.624 150.255 336.624C151.886 336.624 153.455 337.249 154.64 338.369C155.825 339.49 156.537 341.022 156.628 342.651V358.01ZM158.243 271.279C158.823 271.226 159.361 270.958 159.753 270.528C160.144 270.098 160.362 269.537 160.362 268.956C160.362 268.374 160.144 267.813 159.753 267.383C159.361 266.954 158.823 266.685 158.243 266.632H169.534C168.954 266.685 168.416 266.954 168.024 267.383C167.632 267.813 167.415 268.374 167.415 268.956C167.415 269.537 167.632 270.098 168.024 270.528C168.416 270.958 168.954 271.226 169.534 271.279L168.656 325.276H159.281L158.243 271.279ZM177.094 358.01H164.347V342.651C164.438 341.022 165.15 339.49 166.335 338.369C167.52 337.249 169.089 336.624 170.72 336.624C172.352 336.624 173.921 337.249 175.106 338.369C176.291 339.49 177.002 341.022 177.094 342.651V358.01ZM176.475 271.279C177.054 271.226 177.593 270.958 177.984 270.528C178.376 270.098 178.593 269.537 178.593 268.956C178.593 268.374 178.376 267.813 177.984 267.383C177.593 266.954 177.054 266.685 176.475 266.632H187.745C187.166 266.685 186.628 266.954 186.236 267.383C185.844 267.813 185.627 268.374 185.627 268.956C185.627 269.537 185.844 270.098 186.236 270.528C186.628 270.958 187.166 271.226 187.745 271.279L186.888 325.276H177.293L176.475 271.279ZM197.559 358.01H184.813V342.651C184.904 341.022 185.615 339.49 186.801 338.369C187.986 337.249 189.555 336.624 191.186 336.624C192.817 336.624 194.387 337.249 195.572 338.369C196.757 339.49 197.468 341.022 197.559 342.651V358.01ZM195.565 325.276L194.687 271.279C195.266 271.226 195.804 270.958 196.196 270.528C196.588 270.098 196.805 269.537 196.805 268.956C196.805 268.374 196.588 267.813 196.196 267.383C195.804 266.954 195.266 266.685 194.687 266.632H205.977C205.398 266.685 204.86 266.954 204.468 267.383C204.076 267.813 203.859 268.374 203.859 268.956C203.859 269.537 204.076 270.098 204.468 270.528C204.86 270.958 205.398 271.226 205.977 271.279L205.099 325.276H195.565ZM217.945 358.01H205.219V342.651C205.31 341.022 206.021 339.49 207.207 338.369C208.392 337.249 209.961 336.624 211.592 336.624C213.223 336.624 214.793 337.249 215.978 338.369C217.163 339.49 217.874 341.022 217.965 342.651L217.945 358.01ZM224.049 271.279L223.172 325.276H213.836L212.959 271.279C213.538 271.226 214.076 270.958 214.468 270.528C214.86 270.098 215.077 269.537 215.077 268.956C215.077 268.374 214.86 267.813 214.468 267.383C214.076 266.954 213.538 266.685 212.959 266.632H224.229C223.65 266.685 223.111 266.954 222.719 267.383C222.328 267.813 222.11 268.374 222.11 268.956C222.11 269.537 222.328 270.098 222.719 270.528C223.111 270.958 223.65 271.226 224.229 271.279H224.049Z" fill="#CAD6E1"/>
<path fill-rule="evenodd" clip-rule="evenodd" d="M149.618 199.735H154.877V198.877C154.865 198.803 154.875 198.728 154.905 198.659C154.936 198.591 154.985 198.532 155.048 198.491C155.11 198.45 155.183 198.428 155.258 198.428C155.333 198.427 155.407 198.449 155.47 198.489L159.783 200.288C160.11 200.431 160.11 200.656 159.783 200.799L155.47 202.598C155.407 202.638 155.333 202.66 155.258 202.659C155.183 202.659 155.11 202.637 155.048 202.596C154.985 202.555 154.936 202.496 154.905 202.428C154.875 202.359 154.865 202.284 154.877 202.21V201.35H151.686C151.796 204 151.579 209.245 151.442 209.671C151.386 209.847 150.611 210.183 149.53 210.569C149.184 220.979 148.268 239.019 147.906 240.662C146.73 243.633 145.17 246.437 143.266 249.003C142.643 249.915 139.231 252.785 135.465 255.952C130.205 260.376 124.254 265.38 124.254 266.44H123.477C123.477 265.362 129.292 260.185 134.469 255.577L134.469 255.577C138.225 252.233 141.645 249.189 142.264 248.226C143.886 245.82 145.191 243.216 146.148 240.478C146.461 239.114 146.27 225.515 146.124 215.15C146.107 213.944 146.091 212.781 146.076 211.686C144.369 212.199 142.795 212.625 142.304 212.717C136.171 213.882 114.87 214.638 114.87 214.638C114.87 214.638 112.826 222.55 112.253 223.776C111.681 225.003 104.976 222.1 102.931 219.279C101.723 217.66 100.108 216.391 98.2499 215.599L96.2056 216.601C96.2056 216.601 98.4748 232.955 98.8836 234.611C99.8471 237.578 101.015 240.474 102.379 243.279C102.445 243.34 102.513 243.405 102.583 243.475L105.221 233.998C105.228 233.973 105.24 233.95 105.256 233.93C105.273 233.91 105.293 233.894 105.316 233.882C105.34 233.87 105.365 233.864 105.391 233.863C105.417 233.862 105.442 233.866 105.466 233.875L108.267 234.673C108.294 234.677 108.319 234.687 108.342 234.703C108.364 234.718 108.383 234.738 108.397 234.762C108.41 234.785 108.419 234.811 108.421 234.838C108.423 234.865 108.42 234.893 108.41 234.918L105.007 246.385C110.892 254.217 121.446 272.127 121.637 276.703C122.539 285.886 124.473 294.938 127.401 303.688C128.1 305.103 131.202 309.341 131.675 309.984H148.724C148.724 309.984 151.115 315.381 153.364 316.117C155.613 316.853 162.788 323.456 162.788 325.561C162.498 328.833 162 332.083 161.296 335.292C160.786 336.783 160.632 338.372 160.846 339.933C161.014 340.261 161.58 340.762 162.222 341.33L162.222 341.33L162.222 341.33C163.298 342.281 164.587 343.422 164.587 344.267V348.008L28.8057 348.089V322.638C28.8057 322.638 34.2026 311.108 34.7954 310.658C35.0474 310.467 36.3559 310.088 37.8807 309.645L37.8809 309.645C39.9432 309.047 42.4013 308.334 43.177 307.817C44.5221 306.92 55.2137 291.557 55.2789 291.463V287.456C55.2789 285.412 67.79 271.572 68.6077 271.735C68.5074 271 68.1476 265.194 67.7168 258.24L67.7167 258.24L67.7165 258.237L67.7165 258.236C67.0931 248.176 66.321 235.716 65.9705 232.73C65.9288 232.337 65.6814 231.441 65.38 230.35C64.649 227.703 63.6003 223.906 64.3964 223.327L66.8905 221.446L66.7269 213.269C66.7269 213.269 62.7406 213.269 62.2908 214.168C61.8411 215.068 55.0132 222.345 54.1137 222.448C52.3147 222.673 46.9178 216.151 47.3266 212.063C47.7069 208.311 46.4438 205.231 45.403 202.693C44.3737 200.184 43.5617 198.204 44.7713 196.628C46.086 195.451 47.6213 194.547 49.2882 193.968C50.9551 193.389 52.7204 193.147 54.4816 193.255C56.1977 193.63 58.2864 194.492 59.9964 195.197C61.3623 195.76 62.4866 196.224 62.9859 196.26C64.1102 196.342 69.6094 196.26 69.6094 196.26C69.6094 196.26 71.6537 191.538 70.9791 189.657C70.2146 187.351 70.1727 186.03 70.1359 184.866C70.1136 184.163 70.0932 183.518 69.916 182.748C67.3523 179.76 64.1628 177.373 60.5736 175.756C63.5364 174.849 66.6132 174.367 69.7116 174.325C75.1454 175.058 80.4463 176.566 85.4526 178.802C86.4384 179.825 87.0257 181.166 87.1085 182.584C87.1085 182.692 86.996 182.809 86.8811 182.928C86.7559 183.059 86.6277 183.192 86.6383 183.32C86.6505 184.503 86.7392 185.685 86.9041 186.857L86.9801 187.038C87.2956 187.79 87.772 188.926 87.64 189.228C87.3743 189.964 86.3112 189.535 86.3112 189.535C86.1781 190.45 86.1781 191.379 86.3112 192.294C86.6383 192.826 86.6996 194.339 85.4731 194.339C84.9824 194.339 85.0233 199.674 85.0233 199.674C85.0233 199.674 89.9152 199.674 94.5387 199.735H146.045C146.063 198.188 146.086 196.436 146.11 194.571V194.57V194.57C146.244 184.156 146.424 170.233 146.107 168.867C145.137 166.137 143.825 163.54 142.203 161.139C141.578 160.159 138.092 157.061 134.288 153.682C129.134 149.102 123.395 144.004 123.395 142.945H124.172C124.172 144.012 130.363 149.192 135.7 153.657L135.7 153.657L135.7 153.657C139.362 156.721 142.622 159.449 143.204 160.281C145.139 162.859 146.72 165.685 147.906 168.683C148.279 170.379 149.286 189.527 149.618 199.735ZM96.5766 265.049C96.304 264.803 96.0304 264.558 95.7558 264.315C95.3879 264.172 93.4254 263.865 93.4254 263.865L84.0421 263.538C84.0421 263.538 79.0336 273.248 78.5838 274.066C78.3614 274.47 76.0482 277.241 73.7201 280.029L73.7196 280.029L73.7194 280.03C71.341 282.878 68.9471 285.745 68.7508 286.127C68.3929 286.824 70.4304 290.837 70.7526 291.463H77.3167L78.5023 299.21C78.5023 299.21 83.1083 299.385 86.9708 299.552L96.5766 265.049ZM89.1989 299.651L98.8466 267.143C101.67 269.809 104.376 272.596 106.959 275.497C107.327 276.56 109.126 282.366 109.575 283.858C109.772 284.511 111.148 287.726 112.644 291.223C114.568 295.717 116.691 300.678 116.771 301.275C116.411 304.203 115.893 307.109 115.217 309.981C114.601 309.948 109.573 309.679 108.594 309.391C108.194 309.273 105.891 307.853 103.114 306.14L103.114 306.14L103.113 306.14C98.6578 303.392 92.9815 299.891 91.9742 299.803C91.5673 299.768 90.5291 299.713 89.1989 299.651ZM144.87 201.35H108.373C114.082 202.658 121.877 204.474 122.781 204.703C124.151 205.051 137.786 206.175 139.136 205.991C139.875 205.89 141.646 204.273 143.294 202.768C143.848 202.262 144.388 201.769 144.87 201.35Z" fill="#FAFAFA"/>
</g>
</svg>
