<svg width="245" height="359" viewBox="0 0 245 359" fill="none" xmlns="http://www.w3.org/2000/svg">
<circle cx="123.187" cy="226.802" r="114.398" fill="#203347"/>
<mask id="mask0_837_180137" style="mask-type:alpha" maskUnits="userSpaceOnUse" x="8" y="48" width="230" height="294">
<path fill-rule="evenodd" clip-rule="evenodd" d="M237.585 48.3203H34.1118V155.015C18.2727 174.644 8.78931 199.616 8.78931 226.802C8.78931 289.982 60.0069 341.2 123.187 341.2C186.367 341.2 237.585 289.982 237.585 226.802C237.585 207.818 232.961 189.914 224.777 174.155H237.585V48.3203Z" fill="#C4C4C4"/>
</mask>
<g mask="url(#mask0_837_180137)">
<mask id="mask1_837_180137" style="mask-type:alpha" maskUnits="userSpaceOnUse" x="100" y="116" width="136" height="226">
<path d="M100.962 116.352H235.441V341.2H127.409L118.21 265.24L100.962 244.542V116.352Z" fill="#C4C4C4"/>
</mask>
<g mask="url(#mask1_837_180137)">
<path d="M200.596 197.895H192.268V201.602H185.296V197.895H176.58V201.602H169.899V197.895H158.117V201.602H154.34V191.481L155.534 188.708V181.294L153.695 179.36H152.533V181.713H150.241V179.231L148.465 177.781H146.755V180.714H145.722V149.704C146.929 149.395 148.202 149.463 149.369 149.898C150.208 150.446 153.307 149.06 153.307 149.06V143.451C153.307 143.451 150.079 144.837 149.369 144.289C148.202 143.854 146.929 143.786 145.722 144.095V143.451H143.946V180.714H143.01V177.781H141.267L139.524 179.231V181.713H137.329V179.36H136.038L134.198 181.294V188.708L135.425 191.481V201.602H132.197V197.895H120.544V201.602H113.443V197.895H105.857V201.602H101.112V197.09L97.8844 189.482H95.1407L92.4292 186.807L85.4247 193.802V207.566H75.7411V202.215L74.0948 200.603H59.0206V207.05L56.8257 209.274H45.4635V197.315L41.4932 193.254H36.8128V211.402L32.7456 215.56V199.282L30.9057 197.444H26.2898L24.224 195.381H19.6404V216.946L2.0807 230.646V322.773L-3.50354 323.676L-12.9935 327.351L-17.8676 334.894L-19.1911 344.758L-22.419 347.562V351.398L-21.2569 358.328L-25.3563 360.005L-26.8412 362.358L-30.069 363.841L-33.2969 375.349L-37.59 381.28L-39.204 383.343L-40.3983 384.374L-46.1762 386.889L-53.1162 389.081L-55.6662 390.112L-56.8928 396.559C-56.8928 396.559 -56.2149 402.813 -56.2149 403.232C-56.8638 404.707 -57.6078 406.139 -58.4422 407.519L-59.927 412.709L-50.5016 437.691L-33.9425 449.489H153.791C179.614 449.489 200.531 437.949 200.531 412.193V323.676L200.596 197.895ZM141.332 213.433H148.53V224.457H141.332V213.433ZM130.228 256.047H140.654V272.165H130.228V256.047ZM104.792 217.075H111.958V228.1H104.792V217.075ZM96.0445 233.193H106.471V249.31H96.0445V233.193ZM96.0445 256.144H106.471V272.261H96.0445V256.144ZM82.1968 220.331H87.2646V228.1H82.1968V220.331ZM55.3408 219.332L58.1814 217.655L61.0542 219.332V228.1H55.3408V219.332ZM52.1129 233.096H62.539V249.213H52.1129V233.096ZM52.1129 256.047H62.539V272.165H52.1129V256.047Z" fill="#CAD6E1"/>
</g>
<path d="M129.988 314.911V293.636L127.156 290.787V266.313H128.449V260.41H127.607L126.643 235.137H127.156V231.284H125.288V225.483H125.473V221.548H125.288L123.235 209.024L121.183 221.548H120.998V225.483H121.183V231.284H119.315V235.137H119.849V245.878H119.048L117.468 235.137L115.908 245.96V246.595C114.288 245.924 112.811 244.95 111.557 243.726V239.503H111.208L109.997 233.354L109.155 237.761C109.155 231.612 108.888 223.106 108.888 223.106H109.751V221.794L108.437 220.134V212.14L107.103 209.209V201.072L105.83 195.824L105.358 197.874V182.296L104.086 177.049L102.793 182.296V187.994L101.746 186.293V174.548L102.403 173.954V172.15L100.822 170.982V163.398L99.2418 158.561L98.7902 159.955V158.561V152.412L98.1334 149.952L97.4356 152.391H96.8199V147.288L96.7378 144.951L93.6795 133.821V130.706H92.7149V133.821L89.6772 144.951L89.513 147.288V152.391H88.8972L88.2404 149.932L87.5837 152.391V158.54V159.934L87.1732 158.54L85.6338 163.398V170.982L84.0534 172.15V173.954L84.7102 174.548V186.191L83.6429 187.892V182.194L82.3703 176.947L81.0157 182.194V197.772L80.5436 195.722L79.2711 200.969V209.106L77.937 212.037V220.031L76.6234 221.691V223.003H77.4238C77.4238 223.003 77.1775 231.571 77.157 237.659L76.3155 233.252L75.1045 239.401H74.8582V243.623C73.6003 244.843 72.1243 245.816 70.5069 246.493V245.857L68.9265 235.137L67.3872 245.878H66.6483V235.137H67.1819V231.284H65.3141V225.483H65.4989V221.548H65.3141L63.2617 209.024L61.2092 221.548H61.0244V225.483H61.2092V231.284H59.2593V235.137H59.7724L58.8078 260.328H57.9662V266.231H59.2593V290.787L56.3858 293.636V314.911L53.656 317.638V341.721L69.8296 350.33V342.521L68.3724 341.066V316.941L67.1819 315.752V294.804L67.6129 294.292V293.349L67.3666 292.529C67.3666 292.529 67.654 290.93 67.8592 289.721C68.2236 288.325 68.6831 286.955 69.2344 285.621C70.4659 287.425 71.1022 295.337 71.1022 295.337V350.125H84.0739V296.833C84.0092 293.596 84.8244 290.402 86.4326 287.59C88.0409 284.778 90.3822 282.455 93.2075 280.866C96.0327 282.455 98.374 284.778 99.9823 287.59C101.591 290.402 102.406 293.596 102.341 296.833V350.125H115.292V295.439C115.292 295.439 115.949 287.528 117.181 285.724C117.732 287.055 118.185 288.425 118.535 289.823C118.761 291.033 119.048 292.631 119.048 292.631L118.761 293.41V294.353L119.192 294.865V315.813L118.002 317.002V341.025L116.544 342.48V350.289H132.718V317.699L129.988 314.911Z" fill="#FAFAFA"/>
</g>
</svg>
