<svg width="244" height="359" viewBox="0 0 244 359" fill="none" xmlns="http://www.w3.org/2000/svg">
<circle cx="122.398" cy="226.105" r="114.398" fill="#203347"/>
<mask id="mask0_837_180136" style="mask-type:alpha" maskUnits="userSpaceOnUse" x="8" y="47" width="229" height="294">
<path fill-rule="evenodd" clip-rule="evenodd" d="M236.795 47.6235H8V226.105V228.188H8.01859C9.12972 290.407 59.9135 340.503 122.398 340.503C184.882 340.503 235.666 290.407 236.777 228.188H236.795V226.105V47.6235Z" fill="#C4C4C4"/>
</mask>
<g mask="url(#mask0_837_180136)">
<path d="M61.9084 285.211H78.9376C79.6723 285.211 80.2496 286.366 80.2496 287.835C80.2496 289.305 79.6723 290.459 78.9376 290.459H62.7481" fill="#CAD6E1"/>
<path d="M62.9839 293.03C65.5779 293.03 67.6807 290.927 67.6807 288.334C67.6807 285.74 65.5779 283.637 62.9839 283.637C60.3899 283.637 58.2871 285.74 58.2871 288.334C58.2871 290.927 60.3899 293.03 62.9839 293.03Z" fill="#CAD6E1"/>
<path d="M116.538 312.185C119.132 312.185 121.235 310.082 121.235 307.488C121.235 304.894 119.132 302.791 116.538 302.791C113.944 302.791 111.842 304.894 111.842 307.488C111.842 310.082 113.944 312.185 116.538 312.185Z" fill="#CAD6E1"/>
<path d="M87.2557 322.602C89.183 322.602 90.7455 321.039 90.7455 319.112C90.7455 317.185 89.183 315.622 87.2557 315.622C85.3283 315.622 83.7659 317.185 83.7659 319.112C83.7659 321.039 85.3283 322.602 87.2557 322.602Z" fill="#CAD6E1"/>
<path d="M84.7624 305.232L88.672 317.407H85.2871L80.6428 304.445" fill="#CAD6E1"/>
<path d="M85.917 321.263L89.2231 381.666H95.0482L89.2494 321.263" fill="#CAD6E1"/>
<path d="M118.558 304.916L105.019 293.24C104.52 292.951 103.444 293.791 102.631 295.129C101.818 296.467 101.582 297.753 102.08 298.147L114.439 309.193" fill="#CAD6E1"/>
<path d="M119.713 309.193L127.821 380.747C127.821 381.928 120.553 382.059 120.553 380.905L115.646 310.715" fill="#CAD6E1"/>
<path d="M59.1528 290.485L45.1411 364.794C45.1411 365.214 48.7621 365.555 48.9458 365.161L63.6922 292.978" fill="#CAD6E1"/>
<path d="M106.069 287.52C106.069 287.52 99.4565 285.999 95.8355 285.211C92.2145 284.424 83.6868 282.273 83.6868 282.273C83.6868 282.273 82.3486 276.106 84.264 275.057C86.1795 274.007 97.6984 272.774 99.3253 273.588C100.952 274.401 105.334 277.13 106.016 277.55L103.76 273.246C103.349 272.459 102.696 271.824 101.897 271.436C98.9495 269.881 95.6995 268.986 92.3719 268.812C90.3882 268.829 88.43 269.261 86.6227 270.079C84.8153 270.896 83.1987 272.083 81.8763 273.561C78.8931 276.855 76.5763 280.695 75.0541 284.87C74.0469 288.583 73.4313 292.391 73.2173 296.232C73.1451 297.093 73.3875 297.95 73.8996 298.646C74.472 299.501 75.1126 300.308 75.815 301.06C76.366 301.532 80.0658 305.835 82.2174 306.045C86.6681 305.759 91.0707 304.958 95.3369 303.658C98.4455 302.861 101.469 301.763 104.363 300.378C105.255 299.486 106.331 288.78 106.331 288.78V287.442L106.069 287.52Z" fill="#CAD6E1"/>
<path d="M82.5859 167.897H117.094C118.538 167.897 119.7 170.222 119.7 173.144C119.7 176.067 118.538 178.356 117.094 178.356H84.3818" fill="#FAFAFA"/>
<path d="M84.8402 183.707C90.091 183.707 94.3476 179.451 94.3476 174.2C94.3476 168.949 90.091 164.692 84.8402 164.692C79.5894 164.692 75.3328 168.949 75.3328 174.2C75.3328 179.451 79.5894 183.707 84.8402 183.707Z" fill="#FAFAFA"/>
<path d="M193.225 222.477C198.476 222.477 202.733 218.221 202.733 212.97C202.733 207.719 198.476 203.462 193.225 203.462C187.974 203.462 183.718 207.719 183.718 212.97C183.718 218.221 187.974 222.477 193.225 222.477Z" fill="#FAFAFA"/>
<path d="M111.214 254.767C115.104 254.767 118.257 251.614 118.257 247.724C118.257 243.835 115.104 240.682 111.214 240.682C107.325 240.682 104.172 243.835 104.172 247.724C104.172 251.614 107.325 254.767 111.214 254.767Z" fill="#FAFAFA"/>
<path d="M129.138 208.462L115.827 244.942L107.799 243.146L119.701 206.419" fill="#FAFAFA"/>
<path d="M107.869 253.922L183.753 476.466L195.021 472.03L116.461 252.408" fill="#FAFAFA"/>
<path d="M196.499 207.441L170.372 184.869C169.386 184.306 167.343 185.926 165.759 188.391C164.174 190.856 163.575 193.743 164.667 194.201L188.577 215.681" fill="#FAFAFA"/>
<path d="M199.95 213.005L266.221 489.742C266.221 492.101 259.706 494.038 251.643 494.038C243.579 494.038 237.065 492.101 237.065 489.742L190.443 219.625" fill="#FAFAFA"/>
<path d="M76.3889 178.532L-12.136 472.136L-2.34684 482.84L86.2484 183.602" fill="#FAFAFA"/>
<path d="M172.027 172.545C172.027 172.545 158.646 169.482 151.322 167.897C143.997 166.312 126.673 161.911 126.673 161.911C126.673 161.911 123.961 149.481 127.835 147.297C131.708 145.114 155.054 142.72 158.294 144.34C161.533 145.959 169.879 151.206 171.956 152.509L167.273 143.671C166.417 142.144 165.114 140.915 163.54 140.149C157.547 137.089 150.967 135.348 144.244 135.043C140.247 135.086 136.303 135.963 132.665 137.619C129.027 139.274 125.774 141.671 123.116 144.657C117.06 151.308 112.37 159.085 109.313 167.545C107.261 175.056 106.01 182.764 105.58 190.539C105.567 192.245 106.152 193.903 107.235 195.222C108.422 196.934 109.715 198.569 111.109 200.117C112.271 201.067 119.736 209.765 124.067 210.187C133.119 209.603 142.074 207.985 150.758 205.363C156.533 203.427 167.167 200.574 168.998 198.743C170.83 196.912 172.978 175.256 172.978 175.256V172.721L172.027 172.545Z" fill="#FAFAFA"/>
</g>
</svg>
