<svg width="244" height="359" viewBox="0 0 244 359" fill="none" xmlns="http://www.w3.org/2000/svg">
<circle cx="121.708" cy="226.802" r="114.398" fill="#203347"/>
<mask id="mask0_837_180149" style="mask-type:alpha" maskUnits="userSpaceOnUse" x="7" y="26" width="230" height="316">
<path fill-rule="evenodd" clip-rule="evenodd" d="M215.347 26.4277H32.6329V155.015C16.7938 174.644 7.31042 199.616 7.31042 226.802C7.31042 289.982 58.528 341.2 121.708 341.2C184.888 341.2 236.106 289.982 236.106 226.802C236.106 202.338 228.426 179.667 215.347 161.069V26.4277Z" fill="#C4C4C4"/>
</mask>
<g mask="url(#mask0_837_180149)">
<path d="M236.106 275.69V254.301H233.578V237.644C233.709 235.321 234.597 233.105 236.106 231.335V189.767H210.18V175.184H208.56L205.276 151.656V151.548L202.013 175.184H200.415V189.767H158.545V181.125H154.483V199.792L152.733 205.906L150.054 197.502L145.949 210.465H142.687V205.215H138.236V200.073H133.764V194.909H129.292V189.767H124.841V194.909H120.369V200.073H115.918V205.215H111.446V210.378H106.952V215.52H102.631V220.662L99.8442 221.246V229.887H97.943L86.1468 218.07L82.8412 221.375V221.202H80.94L78.8659 230.06H83.1869V233.323H63.7426V266.508C63.7426 269.014 65.1901 271.282 65.1901 274.717L69.8999 283.359L75.0419 315.655H105.937V274.134C105.937 271.814 106.859 269.588 108.5 267.947C110.141 266.306 112.366 265.384 114.687 265.384C117.007 265.384 119.233 266.306 120.874 267.947C122.515 269.588 123.437 271.814 123.437 274.134V315.655H128.406V274.134C128.347 272.947 128.53 271.76 128.943 270.646C129.357 269.532 129.993 268.513 130.812 267.652C131.631 266.791 132.617 266.106 133.71 265.637C134.802 265.169 135.978 264.927 137.167 264.927C138.355 264.927 139.531 265.169 140.624 265.637C141.716 266.106 142.702 266.791 143.521 267.652C144.34 268.513 144.976 269.532 145.39 270.646C145.803 271.76 145.986 272.947 145.927 274.134V315.655H184.73V272.125C184.73 267.307 189.526 263.483 189.526 263.483C189.526 263.483 194.301 267.372 194.301 272.125V315.655H201.862V272.125C201.862 267.307 206.658 263.483 206.658 263.483C206.658 263.483 211.433 267.372 211.433 272.125V315.655H218.995V272.125C218.995 267.307 223.791 263.483 223.791 263.483C223.791 263.483 228.566 267.372 228.566 272.125V284.807L236.106 275.69ZM93.1683 280.292H78.8659V272.146C78.8659 267.329 85.9955 263.505 85.9955 263.505C85.9955 263.505 93.1251 267.393 93.1251 272.146L93.1683 280.292ZM163.967 280.292H154.483V272.146C154.483 267.329 159.279 263.505 159.279 263.505C159.279 263.505 164.054 267.393 164.054 272.146L163.967 280.292ZM165.977 254.366H156.406V237.644C156.406 232.847 161.202 229.002 161.202 229.002C161.202 229.002 165.977 232.912 165.977 237.644V254.366ZM181.424 254.366H171.767V237.644C171.767 232.847 176.541 229.002 176.541 229.002C176.541 229.002 181.338 232.912 181.338 237.644L181.424 254.366ZM196.85 254.366H187.279V237.644C187.279 232.847 192.075 229.002 192.075 229.002C192.075 229.002 196.85 232.912 196.85 237.644V254.366ZM212.297 254.366H202.705V237.644C202.705 232.847 207.501 229.002 207.501 229.002C207.501 229.002 212.297 232.912 212.297 237.644V254.366ZM227.723 254.366H218.152V237.644C218.152 232.847 222.927 229.002 222.927 229.002C222.927 229.002 227.723 232.912 227.723 237.644V254.366Z" fill="#CAD6E1"/>
<circle cx="90.9825" cy="250.682" r="25.5887" fill="#203347"/>
<path fill-rule="evenodd" clip-rule="evenodd" d="M125.539 266.15L123.396 271.808V556.601H70.1543C68.5627 556.601 66.9868 556.287 65.5169 555.678C64.0469 555.068 62.7119 554.175 61.5883 553.049C60.4646 551.923 59.5745 550.586 58.9689 549.116C58.3634 547.646 58.0542 546.071 58.0593 544.481V271.808L55.8776 266.15V218.053L58.0593 206.087L60.3558 218.321V221.38H66.9775V200.581L75.2067 171.678H79.7232L90.7848 125.799L101.885 171.678H106.363L114.63 200.62V221.38H121.252V218.053L123.396 206.087L125.539 218.168V266.15ZM82.041 262.505C84.6288 264.233 87.6718 265.156 90.7848 265.156C92.8488 265.161 94.8936 264.759 96.802 263.973C98.7104 263.188 100.445 262.034 101.906 260.578C103.367 259.122 104.527 257.392 105.318 255.488C106.109 253.584 106.516 251.542 106.516 249.48C106.524 246.371 105.607 243.329 103.883 240.74C102.159 238.151 99.7053 236.131 96.8314 234.936C93.9576 233.741 90.7934 233.424 87.7393 234.026C84.6852 234.628 81.8786 236.122 79.6748 238.318C77.4709 240.514 75.9688 243.313 75.3587 246.363C74.7486 249.412 75.0579 252.573 76.2474 255.447C77.4369 258.32 79.4532 260.777 82.041 262.505ZM92.4686 249.365C92.4686 249.615 92.4142 249.852 92.3167 250.065L98.2105 256.974L91.2172 250.992C91.0791 251.028 90.9341 251.048 90.7845 251.048C89.8544 251.048 89.1004 250.294 89.1004 249.365C89.1004 248.436 89.8544 247.683 90.7845 247.683C90.9291 247.683 91.0695 247.701 91.2034 247.736L100.622 239.349L92.3131 248.659C92.4129 248.873 92.4686 249.113 92.4686 249.365Z" fill="#FAFAFA"/>
<path d="M217.401 295.936H159.344V290.767H147.539V295.936H73.9004V290.767H62.0955V295.936H30.8125V315.813C45.2617 317.907 56.2403 327.935 56.2403 340.034H79.7557C79.7557 326.442 93.6146 315.523 110.708 315.523C127.802 315.523 141.661 326.553 141.661 340.034H165.27C165.27 326.442 179.129 315.523 196.223 315.523C203.901 315.429 211.389 317.785 217.472 322.208L217.401 295.936Z" fill="#CAD6E1"/>
</g>
</svg>
