<svg width="245" height="359" viewBox="0 0 245 359" fill="none" xmlns="http://www.w3.org/2000/svg">
<circle cx="122.398" cy="226.499" r="114.398" fill="#203347"/>
<mask id="mask0_837_180150" style="mask-type:alpha" maskUnits="userSpaceOnUse" x="8" y="26" width="229" height="315">
<path fill-rule="evenodd" clip-rule="evenodd" d="M236.795 26.1245H33.3225V154.712C17.4834 174.341 8 199.312 8 226.499C8 289.679 59.2176 340.897 122.398 340.897C185.578 340.897 236.795 289.679 236.795 226.499C236.795 207.515 232.171 189.611 223.988 173.852H236.795V26.1245Z" fill="#C4C4C4"/>
</mask>
<g mask="url(#mask0_837_180150)">
<path d="M242.779 254.704C236.849 248.593 229.267 244.343 220.96 242.472C220.177 246.239 217.109 261.285 216.199 265.264C206.316 251.656 174.572 229.287 151.906 224.441V256.079C144.753 251.656 129.791 252.672 129.791 252.672C129.791 252.672 124.564 269.92 123.654 272.756C108.353 274.681 98.5971 297.241 98.4913 303.696C82.9578 304.161 47.1292 331.059 47.1292 343.312C61.4141 343.312 148.012 343.312 221.955 343.312C228.304 343.312 238.166 335.905 241.488 326.996C243.181 299.696 243.076 266.343 242.779 254.704Z" fill="#CAD6E1"/>
<path d="M-13.405 263.148C51.2377 214.69 177.531 183.511 243.042 183.511V189.946C177.08 189.946 48.5348 221.93 -13.405 271.256C-14.3097 268.629 -14.3097 265.775 -13.405 263.148Z" fill="#FAFAFA"/>
<path d="M35.278 283.742L32.0603 278.207C100.082 238.34 180.941 213.597 243.042 213.597V220.032C182.003 220.032 102.398 244.454 35.278 283.742Z" fill="#FAFAFA"/>
<path d="M36.7901 282.582C36.5267 282.561 36.2721 282.477 36.048 282.337C35.8239 282.197 35.637 282.005 35.5031 281.777L19.7687 253.269V281.005C19.7686 281.336 19.6666 281.658 19.4766 281.929C19.2866 282.2 19.0179 282.405 18.7069 282.517C18.3926 282.625 18.0534 282.636 17.7325 282.55C17.4116 282.465 17.1235 282.285 16.905 282.035L1.00981 262.729V281.005H-2.20784V258.224C-2.21265 257.889 -2.11267 257.561 -1.92186 257.285C-1.73104 257.01 -1.45893 256.8 -1.14352 256.687C-0.82811 256.574 -0.48516 256.562 -0.162563 256.653C0.160034 256.744 0.446165 256.933 0.655868 257.194L16.5511 276.5V246.962C16.5549 246.606 16.6771 246.261 16.8984 245.981C17.1197 245.702 17.4276 245.503 17.7738 245.418C18.1172 245.324 18.4822 245.35 18.8093 245.49C19.1365 245.63 19.4066 245.877 19.5757 246.19L35.31 274.731V237.406C35.3136 237.055 35.4319 236.714 35.647 236.437C35.8621 236.159 36.162 235.96 36.5011 235.869C36.8402 235.777 37.1998 235.8 37.525 235.932C37.8503 236.064 38.1233 236.299 38.3024 236.601L57.0614 268.07L54.2942 269.711L38.399 243.165V280.973C38.3967 281.334 38.2757 281.683 38.0547 281.968C37.8337 282.253 37.525 282.458 37.1762 282.55L36.7901 282.582Z" fill="#FAFAFA"/>
<path d="M57.1583 280.974H53.9407V229.041C53.9483 228.697 54.0662 228.364 54.277 228.092C54.4877 227.82 54.7803 227.622 55.1116 227.528C55.4429 227.435 55.7955 227.45 56.1176 227.572C56.4397 227.693 56.7142 227.915 56.9009 228.204L75.6598 258.804L72.9248 260.477L57.1583 234.736V280.974Z" fill="#FAFAFA"/>
<path d="M75.8849 280.974H72.6672V221.641C72.6672 221.292 72.7801 220.954 72.989 220.675C73.1979 220.397 73.4914 220.194 73.8256 220.096C74.1635 220.002 74.5224 220.017 74.8515 220.138C75.1807 220.26 75.4633 220.481 75.6597 220.772L94.3864 250.439L91.6836 252.176L75.8849 227.078V280.974Z" fill="#FAFAFA"/>
<path d="M94.6439 280.974H91.4263V215.044C91.4263 214.696 91.5392 214.358 91.748 214.079C91.9569 213.801 92.2504 213.597 92.5846 213.5C92.914 213.395 93.2688 213.401 93.5943 213.517C93.9199 213.633 94.1983 213.854 94.3865 214.144L113.145 243.102L110.443 244.84L94.6439 220.579V280.974Z" fill="#FAFAFA"/>
<path d="M113.403 280.974H110.185V209.124C110.189 208.784 110.301 208.453 110.506 208.18C110.71 207.907 110.995 207.706 111.321 207.606C111.646 207.506 111.995 207.512 112.317 207.623C112.64 207.734 112.918 207.944 113.113 208.223L132.033 236.313L129.362 238.115L113.564 214.433L113.403 280.974Z" fill="#FAFAFA"/>
<path d="M132.033 280.974H128.815V203.75C128.815 203.402 128.928 203.064 129.137 202.785C129.346 202.507 129.64 202.303 129.974 202.206C130.3 202.098 130.652 202.099 130.977 202.209C131.303 202.319 131.583 202.533 131.776 202.817L150.502 230.393L147.864 232.194L132.033 209.092V280.974Z" fill="#FAFAFA"/>
<path d="M150.888 280.973H147.671V199.213C147.665 198.872 147.772 198.538 147.976 198.265C148.18 197.991 148.468 197.793 148.797 197.7C149.123 197.592 149.475 197.593 149.8 197.704C150.126 197.814 150.406 198.028 150.599 198.312L169.358 225.598L166.719 227.432L150.888 204.554V280.973Z" fill="#FAFAFA"/>
<path d="M169.647 280.973H166.43V195.222C166.428 194.878 166.536 194.543 166.739 194.265C166.941 193.987 167.228 193.781 167.556 193.678C167.882 193.57 168.234 193.571 168.559 193.681C168.885 193.792 169.165 194.005 169.358 194.289L188.117 221.575L185.446 223.409L169.647 200.403V280.973Z" fill="#FAFAFA"/>
<path d="M188.406 280.974H185.189V191.845C185.193 191.504 185.305 191.174 185.509 190.901C185.713 190.628 185.999 190.427 186.324 190.327C186.65 190.227 186.999 190.233 187.321 190.343C187.643 190.454 187.922 190.665 188.117 190.944L206.876 218.551L204.205 220.353L188.406 197.09V280.974Z" fill="#FAFAFA"/>
<path d="M207.133 280.973H203.916V189.206C203.921 188.859 204.035 188.523 204.244 188.245C204.452 187.968 204.742 187.763 205.074 187.661C205.404 187.567 205.755 187.578 206.078 187.693C206.402 187.809 206.68 188.023 206.876 188.305L225.635 216.62L222.932 218.39L207.133 194.547V280.973Z" fill="#FAFAFA"/>
<path d="M225.892 280.974H222.674V187.405C222.679 187.058 222.794 186.722 223.002 186.444C223.21 186.167 223.501 185.963 223.833 185.861C224.169 185.767 224.527 185.785 224.852 185.913C225.177 186.041 225.452 186.271 225.635 186.568L244.393 215.946L241.691 217.683L225.892 192.939V280.974Z" fill="#FAFAFA"/>
<path d="M243.042 276.34H-14.0164V290.401H243.042V276.34Z" fill="#FAFAFA"/>
<path d="M91.3545 183.837H83.1191V453.881H91.3545V183.837Z" fill="#CAD6E1"/>
<path d="M87.2526 179.483H67.5254L62.3274 142.44H87.2526V179.483Z" fill="#CAD6E1"/>
<path d="M87.2213 179.484H71.7839V184.933H87.2213V179.484Z" fill="#CAD6E1"/>
<path d="M87.2213 124.029H71.7839V142.942H87.2213V124.029Z" fill="#CAD6E1"/>
<path d="M87.2527 112.913H72.4729V121.304H87.2527V112.913Z" fill="#CAD6E1"/>
<path d="M87.2527 117.61H76.481V126.002H87.2527V117.61Z" fill="#CAD6E1"/>
<path d="M87.2524 179.483H106.948L112.146 142.44H87.2524V179.483Z" fill="#CAD6E1"/>
<path d="M87.2526 184.934H102.69V179.485H87.2526V184.934Z" fill="#CAD6E1"/>
<path d="M87.2526 142.91H102.69V123.997H87.2526V142.91Z" fill="#CAD6E1"/>
<path d="M87.2527 121.336H102.032V112.944H87.2527V121.336Z" fill="#CAD6E1"/>
<path d="M87.2527 126.033H98.0244V117.641H87.2527V126.033Z" fill="#CAD6E1"/>
<path d="M89.9143 84.8247H84.5911V112.913H89.9143V84.8247Z" fill="#CAD6E1"/>
<path d="M76.3051 181.842L73.2659 182.596L85.719 232.804L88.7582 232.05L76.3051 181.842Z" fill="#CAD6E1"/>
<path d="M98.1718 181.822L85.7012 232.025L88.7401 232.78L101.211 182.577L98.1718 181.822Z" fill="#CAD6E1"/>
</g>
</svg>
