<svg width="245" height="359" viewBox="0 0 245 359" fill="none" xmlns="http://www.w3.org/2000/svg">
<circle cx="123.187" cy="226.499" r="114.398" fill="#203347"/>
<mask id="mask0_837_180144" style="mask-type:alpha" maskUnits="userSpaceOnUse" x="8" y="26" width="230" height="315">
<path fill-rule="evenodd" clip-rule="evenodd" d="M237.585 26.1245H34.1118V154.712C18.2727 174.341 8.78931 199.312 8.78931 226.499C8.78931 289.679 60.0069 340.897 123.187 340.897C186.367 340.897 237.585 289.679 237.585 226.499C237.585 207.515 232.961 189.611 224.777 173.852H237.585V26.1245Z" fill="#C4C4C4"/>
</mask>
<g mask="url(#mask0_837_180144)">
<path d="M98.4647 108.929L83.5356 106.914H78.5592V94.6721H83.7347C84.3946 94.6721 85.0274 94.4099 85.4941 93.9433C85.9607 93.4767 86.2228 92.8438 86.2228 92.1839V79.5937C86.2228 78.9337 85.9607 78.3009 85.4941 77.8342C85.0274 77.3676 84.3946 77.1055 83.7347 77.1055H56.7129C56.053 77.1055 55.4201 77.3676 54.9535 77.8342C54.4869 78.3009 54.2248 78.9337 54.2248 79.5937V92.1839C54.2248 92.8438 54.4869 93.4767 54.9535 93.9433C55.4201 94.4099 56.053 94.6721 56.7129 94.6721H61.8386V106.914H56.8622L41.9331 108.929V130.353L61.2414 138.116L59.1265 341.077H81.2714L79.2559 138.116L98.5891 130.353L98.4647 108.929Z" fill="#CAD6E1"/>
<path fill-rule="evenodd" clip-rule="evenodd" d="M198.814 250.496V276.05H204.441V322.913C204.441 328.301 202.301 333.468 198.491 337.277C194.681 341.087 189.515 343.227 184.127 343.227H63.4451V302.823H59.2605V300.142H64.8264V276.05H75.3284C75.3284 276.05 75.9785 273.572 75.6738 273.369C75.3775 273.247 75.1203 273.046 74.9305 272.789C74.7406 272.531 74.6253 272.225 74.5972 271.906C74.5972 270.992 75.9785 270.363 76.466 270.363C77.8049 269.766 78.8606 268.674 79.4114 267.316H83.4741C83.9905 264.947 85.3017 262.826 87.1899 261.305C89.0781 259.784 91.4297 258.954 93.8543 258.954C96.2789 258.954 98.6305 259.784 100.519 261.305C102.407 262.826 103.718 264.947 104.234 267.316H108.297C108.839 268.659 109.869 269.748 111.182 270.363C111.689 270.383 113.05 270.992 113.05 271.906C113.022 272.225 112.907 272.531 112.717 272.789C112.527 273.046 112.27 273.247 111.974 273.369C111.669 273.572 112.319 276.05 112.319 276.05H124.507V250.435H123.187V248.688H124.446V246.575H133.526V227.887L132.653 225.734H140.189V200.139H139.295V199.001H141.896C141.384 198.369 141.104 197.58 141.103 196.767C141.104 196.011 141.339 195.274 141.776 194.657C142.212 194.04 142.83 193.574 143.542 193.322C144.255 193.07 145.028 193.046 145.756 193.252C146.483 193.457 147.129 193.884 147.604 194.472V189.068C147.604 189.068 148.233 186.59 147.949 186.387C147.646 186.267 147.383 186.064 147.189 185.802C146.995 185.54 146.878 185.229 146.852 184.904C146.852 183.99 148.233 183.38 148.741 183.38C150.045 182.745 151.072 181.654 151.626 180.313H152.682V175.296L151.869 173.528H155.038C155.035 171.899 155.639 170.326 156.732 169.117C157.824 167.908 159.328 167.149 160.95 166.987C160.885 165.764 160.453 164.589 159.71 163.615C159.529 163.472 159.429 163.306 159.324 163.13C159.147 162.835 158.954 162.515 158.329 162.234C157.277 161.819 156.189 161.499 155.079 161.279C154.669 161.187 154.311 160.937 154.084 160.584C153.856 160.231 153.775 159.802 153.86 159.39C154.571 159.243 155.29 159.141 156.013 159.085C156.171 159.048 156.32 158.927 156.509 158.773C156.734 158.589 157.016 158.359 157.435 158.171C158.177 157.826 159.01 157.726 159.812 157.887C160.218 158.09 160.218 158.862 160.218 159.553C160.424 159.483 160.605 159.353 160.735 159.179C160.866 159.005 160.94 158.795 160.95 158.578C161.275 157.696 161.387 156.749 161.275 155.815C161.055 155.535 160.928 155.195 160.909 154.84V154.84C160.909 154.231 160.909 153.885 161.62 153.885C162.331 153.885 162.331 154.231 162.331 154.84V154.84H162.737C162.9 154.732 163.091 154.676 163.286 154.677C163.534 154.692 163.774 154.776 163.976 154.921C163.778 155.076 163.537 155.168 163.286 155.185C163.092 155.177 162.904 155.121 162.737 155.023H162.29C162.236 155.281 162.125 155.524 161.965 155.734C161.853 156.667 161.964 157.614 162.29 158.496C162.299 158.714 162.374 158.923 162.505 159.097C162.635 159.271 162.815 159.402 163.022 159.471C163.022 159.442 163.022 159.411 163.021 159.381C163.021 158.715 163.02 158 163.428 157.806C164.23 157.645 165.063 157.744 165.805 158.09C166.197 158.266 166.469 158.499 166.687 158.686C166.897 158.867 167.057 159.004 167.226 159.004C167.95 159.06 168.669 159.162 169.38 159.309C169.464 159.721 169.384 160.149 169.156 160.503C168.928 160.856 168.571 161.106 168.161 161.198C167.051 161.418 165.963 161.738 164.911 162.153C164.286 162.433 164.093 162.754 163.916 163.049C163.811 163.224 163.711 163.39 163.529 163.534C162.794 164.51 162.37 165.685 162.311 166.906C163.929 167.067 165.429 167.824 166.522 169.028C167.614 170.233 168.22 171.801 168.222 173.427H171.391L170.578 175.194V180.232H171.675C172.231 181.578 173.266 182.671 174.58 183.299C175.067 183.299 176.449 183.909 176.449 184.823C176.422 185.148 176.306 185.459 176.112 185.721C175.918 185.983 175.655 186.185 175.352 186.306C175.067 186.509 175.697 188.987 175.697 188.987V194.39C176.172 193.802 176.818 193.376 177.545 193.17C178.273 192.964 179.046 192.989 179.759 193.241C180.471 193.492 181.089 193.959 181.525 194.576C181.962 195.193 182.197 195.93 182.197 196.686C182.197 197.499 181.917 198.288 181.405 198.92H183.965V200.058H183.071V225.653H190.607L189.734 227.806V246.494H198.814V248.688H200.155V250.496H198.814ZM153.566 240.335C155.956 241.931 158.766 242.781 161.64 242.777C165.466 242.772 169.134 241.255 171.847 238.558C174.56 235.86 176.097 232.2 176.124 228.375C176.144 225.501 175.31 222.686 173.728 220.287C172.145 217.888 169.886 216.013 167.236 214.901C164.587 213.788 161.666 213.487 158.846 214.037C156.025 214.587 153.431 215.962 151.393 217.989C149.356 220.015 147.966 222.601 147.4 225.418C146.835 228.236 147.119 231.158 148.217 233.814C149.314 236.47 151.176 238.739 153.566 240.335ZM154.673 219.153L156.379 218.076L162.493 227.766L161.64 228.294L160.909 229.005L154.815 222.911L156.176 221.55L154.673 219.153Z" fill="#FAFAFA"/>
<path d="M62.2466 343.227H184.127C188.01 343.225 191.811 342.111 195.08 340.015C198.349 337.92 200.949 334.932 202.572 331.404V314.89H192.253C192.253 314.89 191.603 312.411 191.907 312.208C192.204 312.087 192.461 311.886 192.651 311.628C192.841 311.37 192.956 311.065 192.984 310.746C192.984 309.811 191.623 309.222 191.115 309.202C189.803 308.588 188.772 307.499 188.231 306.155H184.168C183.652 303.786 182.34 301.665 180.452 300.144C178.564 298.623 176.212 297.794 173.788 297.794C171.363 297.794 169.012 298.623 167.123 300.144C165.235 301.665 163.924 303.786 163.408 306.155H159.345C158.803 307.499 157.773 308.588 156.46 309.202C155.973 309.202 154.592 309.811 154.592 310.746C154.62 311.065 154.735 311.37 154.925 311.628C155.115 311.886 155.372 312.087 155.668 312.208C155.973 312.411 155.323 314.89 155.323 314.89H143.135V289.315H144.475V287.568H143.135V285.252H133.852V266.564L134.745 264.411H127.25V238.897H128.143V237.76H125.543C126.037 237.119 126.308 236.334 126.315 235.525C126.315 234.555 125.93 233.625 125.244 232.94C124.559 232.254 123.629 231.869 122.659 231.869C122.116 231.866 121.579 231.987 121.09 232.223C120.601 232.459 120.172 232.803 119.835 233.23V227.826C119.835 227.826 119.185 225.348 119.49 225.145C119.788 225.02 120.046 224.815 120.235 224.554C120.425 224.292 120.54 223.984 120.567 223.662C120.567 222.748 119.185 222.139 118.698 222.139C117.385 221.514 116.356 220.419 115.813 219.071H114.696V214.033L115.529 212.266H112.34C112.338 210.64 111.732 209.073 110.639 207.868C109.547 206.663 108.047 205.907 106.428 205.746C106.497 204.527 106.921 203.355 107.647 202.374C108.135 201.967 108.053 201.439 109.049 200.972C110.104 200.571 111.191 200.258 112.299 200.037C112.71 199.941 113.066 199.686 113.29 199.329C113.514 198.971 113.589 198.54 113.497 198.128C112.825 198 112.147 197.905 111.466 197.844C111.1 197.844 110.796 197.275 110.024 196.93C109.289 196.584 108.463 196.484 107.668 196.645C107.241 196.848 107.241 197.62 107.241 198.311C107.035 198.241 106.855 198.111 106.724 197.937C106.593 197.763 106.519 197.553 106.51 197.336C106.195 196.451 106.084 195.507 106.185 194.573C106.419 194.301 106.555 193.957 106.571 193.598C106.571 192.989 106.571 192.623 105.86 192.643C105.149 192.664 105.149 192.989 105.149 193.598H104.763C104.599 193.494 104.409 193.437 104.214 193.436C103.965 193.445 103.724 193.53 103.524 193.679C103.719 193.839 103.962 193.932 104.214 193.943C104.407 193.932 104.595 193.876 104.763 193.781H105.189C105.247 194.038 105.358 194.28 105.514 194.492C105.635 195.425 105.524 196.375 105.189 197.255C105.18 197.472 105.105 197.681 104.975 197.856C104.844 198.03 104.664 198.16 104.458 198.23C104.458 197.539 104.458 196.767 104.052 196.564C103.256 196.402 102.429 196.501 101.695 196.848C100.903 197.194 100.598 197.661 100.253 197.762C99.5309 197.82 98.8123 197.915 98.0999 198.047C98.0146 198.461 98.0942 198.892 98.3217 199.249C98.5493 199.605 98.907 199.859 99.3187 199.956C100.425 200.179 101.512 200.492 102.569 200.891C103.564 201.358 103.463 201.886 103.97 202.292C104.697 203.273 105.121 204.445 105.189 205.664C103.567 205.821 102.062 206.575 100.965 207.78C99.869 208.985 99.2603 210.556 99.2577 212.185H95.9873L96.7998 213.952V218.97H95.7029C95.1488 220.31 94.1226 221.402 92.8184 222.037C92.3105 222.037 90.9495 222.646 90.9495 223.56C90.9741 223.883 91.0877 224.193 91.2778 224.454C91.4679 224.716 91.727 224.92 92.0261 225.043C92.3105 225.246 91.6808 227.725 91.6808 227.725V233.128C91.3425 232.704 90.913 232.361 90.4242 232.126C89.9354 231.89 89.3998 231.768 88.8572 231.767C88.3754 231.764 87.8977 231.857 87.4518 232.04C87.0058 232.222 86.6003 232.491 86.2586 232.831C85.9169 233.171 85.6458 233.575 85.4608 234.02C85.2758 234.464 85.1805 234.942 85.1805 235.423C85.186 236.236 85.4651 237.023 85.9727 237.658H83.4132V238.796H84.307V264.39H76.7708L77.6442 266.544V285.252H68.5641V287.507H67.2437V289.315H68.5641V314.869H56.3761C56.3761 314.869 55.726 312.391 56.0307 312.188C56.3297 312.07 56.5893 311.871 56.7798 311.612C56.9702 311.353 57.0838 311.046 57.1073 310.725C57.1073 309.791 55.7463 309.202 55.2385 309.182C53.9356 308.554 52.9089 307.47 52.354 306.135H48.2913C47.9181 304.472 47.1514 302.924 46.0556 301.62C44.9598 300.316 43.567 299.293 41.9941 298.639V323.015C42.0209 328.374 44.1645 333.506 47.958 337.292C51.7514 341.078 56.8873 343.211 62.2466 343.227Z" fill="#CAD6E1"/>
</g>
</svg>
