<svg width="244" height="359" viewBox="0 0 244 359" fill="none" xmlns="http://www.w3.org/2000/svg">
<circle cx="121.694" cy="226.196" r="114.398" fill="#203347"/>
<mask id="mask0_2020_231933" style="mask-type:alpha" maskUnits="userSpaceOnUse" x="7" y="26" width="230" height="315">
<path fill-rule="evenodd" clip-rule="evenodd" d="M236 26H10V189H13.4793C9.47189 200.661 7.29639 213.174 7.29639 226.196C7.29639 289.376 58.514 340.593 121.694 340.593C184.874 340.593 236.092 289.376 236.092 226.196C236.092 213.174 233.916 200.661 229.909 189H236V26Z" fill="#C4C4C4"/>
</mask>
<g mask="url(#mask0_2020_231933)">
<path d="M128.681 221.444C128.41 221.444 128.194 221.661 128.194 221.933V222.015C128.194 222.286 128.41 222.477 128.654 222.504L128.491 247.181H133.224L133.062 222.504C133.333 222.504 133.522 222.286 133.522 222.015V221.933C133.522 221.661 133.306 221.444 133.035 221.444V221.036H133.928V219.46H127.761V221.036H128.654V221.444H128.681Z" fill="#CAD6E1"/>
<path fill-rule="evenodd" clip-rule="evenodd" d="M130.681 110.84C130.994 110.65 131.2 110.336 131.2 109.985C131.2 109.393 129.997 108.492 129.997 108.492C129.997 108.492 128.795 109.416 128.795 109.985C128.795 110.336 129.001 110.65 129.313 110.84V113.245L96.6272 161.456H98.9854V163.068H100.66V225.747H156.34H159.311L209.614 225.747V227.122H210.392V227.477C210.156 227.477 209.968 227.667 209.968 227.904V227.975C209.968 228.212 210.156 228.378 210.369 228.402L210.18 256.388C209.991 256.436 209.826 256.578 209.826 256.791V256.839C209.826 257.052 209.968 257.194 210.156 257.241V257.455C209.968 257.502 209.826 257.644 209.826 257.858V257.905C209.826 257.905 209.873 258.071 209.921 258.142H209.567V261.934H214.944V258.142H214.59C214.59 258.142 214.684 258 214.684 257.905V257.858C214.684 257.644 214.543 257.502 214.354 257.455V257.241C214.543 257.194 214.684 257.052 214.684 256.839V256.791C214.684 256.578 214.519 256.436 214.331 256.388L214.142 228.402C214.378 228.402 214.543 228.212 214.543 227.975V227.904C214.543 227.667 214.354 227.477 214.118 227.477V227.122H214.897H214.991V225.747L214.991 225.747V163.068H216.665V161.456H219L186.361 113.315V110.84C186.674 110.65 186.88 110.336 186.88 109.985C186.88 109.393 185.677 108.492 185.677 108.492C185.677 108.492 184.474 109.416 184.474 109.985C184.474 110.336 184.68 110.65 184.993 110.84V113.21L157.814 153.299L130.681 113.28V110.84ZM162.165 175.769V187.737H165.443V175.769H162.165ZM165.443 174.158H162.165V168.376H165.443V174.158ZM168.674 175.769V187.737H174.64V175.769H168.674ZM174.64 174.158H168.674V168.376H174.64V174.158ZM177.847 175.769V187.737H181.126V175.769H177.847ZM181.126 174.158H177.847V168.376H181.126V174.158ZM190.205 175.769V187.737H193.483V175.769H190.205ZM193.483 174.158H190.205V168.376H193.483V174.158ZM196.714 175.769V187.737H202.681V175.769H196.714ZM202.681 174.158H196.714V168.376H202.681V174.158ZM205.888 175.769V187.737H209.166V175.769H205.888ZM209.166 174.158H205.888V168.376H209.166V174.158ZM153.486 174.158V168.376H150.208V174.158H153.486ZM150.208 175.769H153.486V187.737H150.208V175.769ZM147.001 174.158V168.376H141.034V174.158H147.001ZM141.034 175.769H147.001V187.737H141.034V175.769ZM137.803 174.158V168.376H134.525V174.158H137.803ZM134.525 175.769H137.803V187.737H134.525V175.769ZM125.446 174.158V168.376H122.168V174.158H125.446ZM122.168 175.769H125.446V187.737H122.168V175.769ZM118.96 174.158V168.376H112.994V174.158H118.96ZM112.994 175.769H118.96V187.737H112.994V175.769ZM109.763 174.158V168.376H106.485V174.158H109.763ZM106.485 175.769H109.763V187.737H106.485V175.769ZM138.511 139.204V146.55H134.478V139.204H138.511ZM132.002 139.204V146.55H127.969V139.204H132.002ZM125.493 139.204V146.55H121.46V139.204H125.493ZM121.46 155.697V148.351H125.493V155.697H121.46ZM127.969 155.697V148.351H132.002V155.697H127.969ZM134.478 155.697V148.351H138.511V155.697H134.478ZM104.103 217.074H110.824V210.32H104.103V217.074ZM104.103 208.567H110.824V201.813H104.103V208.567ZM104.103 200.059H110.824V193.306H104.103V200.059ZM112.569 217.051H119.291V210.297H112.569V217.051ZM112.569 208.543H119.291V201.789H112.569V208.543ZM112.569 200.036H119.291V193.282H112.569V200.036ZM121.036 217.027H127.757V210.273H121.036V217.027ZM121.036 208.519H127.757V201.766H121.036V208.519ZM121.036 200.012H127.757V193.258H121.036V200.012ZM132.238 217.003H138.959V210.249H132.238V217.003ZM132.238 208.496H138.959V201.742H132.238V208.496ZM132.238 199.988H138.959V193.235H132.238V199.988ZM140.704 216.979H147.425V210.226H140.704V216.979ZM140.704 208.472H147.425V201.718H140.704V208.472ZM140.704 199.965H147.425V193.211H140.704V199.965ZM149.17 216.956H155.892V210.202H149.17V216.956ZM149.17 208.448H155.892V201.695H149.17V208.448ZM149.17 199.941H155.892V193.187H149.17V199.941ZM194.167 139.204V146.55H190.134V139.204H194.167ZM187.658 139.204V146.55H183.625V139.204H187.658ZM181.149 139.204V146.55H177.116V139.204H181.149ZM177.116 155.697V148.351H181.149V155.697H177.116ZM183.625 155.697V148.351H187.658V155.697H183.625ZM190.134 155.697V148.351H194.167V155.697H190.134ZM159.783 217.074H166.504V210.32H159.783V217.074ZM159.783 208.567H166.504V201.813H159.783V208.567ZM159.783 200.059H166.504V193.306H159.783V200.059ZM168.249 217.051H174.97V210.297H168.249V217.051ZM168.249 208.543H174.97V201.789H168.249V208.543ZM168.249 200.036H174.97V193.282H168.249V200.036ZM176.715 217.027H183.437V210.273H176.715V217.027ZM176.715 208.519H183.437V201.766H176.715V208.519ZM176.715 200.012H183.437V193.258H176.715V200.012ZM187.917 217.003H194.639V210.249H187.917V217.003ZM187.917 208.496H194.639V201.742H187.917V208.496ZM187.917 199.988H194.639V193.235H187.917V199.988ZM196.384 216.979H203.105V210.226H196.384V216.979ZM196.384 208.472H203.105V201.718H196.384V208.472ZM196.384 199.965H203.105V193.211H196.384V199.965ZM204.85 216.956H211.571V210.202H204.85V216.956ZM204.85 208.448H211.571V201.695H204.85V208.448ZM204.85 199.941H211.571V193.187H204.85V199.941ZM101.438 227.501C101.202 227.501 101.014 227.69 101.014 227.927V227.998C101.014 228.235 101.202 228.401 101.415 228.425L101.273 249.942H105.4L105.259 228.425C105.494 228.425 105.659 228.235 105.659 227.998V227.927C105.659 227.69 105.471 227.501 105.235 227.501V227.145H106.013V225.771H100.636V227.145H101.415V227.501H101.438ZM154.547 249.942H156.953H158.674H161.08L160.938 228.425C161.174 228.425 161.339 228.235 161.339 227.998V227.927C161.339 227.69 161.151 227.501 160.915 227.501V227.145H161.693V225.771H159.287H156.316H153.911V227.145H154.689V227.501H154.712C154.477 227.501 154.288 227.69 154.288 227.927V227.998C154.288 228.235 154.477 228.401 154.689 228.425L154.547 249.942ZM183.319 227.927C183.319 227.69 183.507 227.501 183.743 227.501H183.72V227.145H182.941V225.771H188.318V227.145H187.54V227.501C187.776 227.501 187.965 227.69 187.965 227.927V227.998C187.965 228.235 187.8 228.425 187.564 228.425L187.705 249.942H183.578L183.72 228.425C183.507 228.401 183.319 228.235 183.319 227.998V227.927Z" fill="#CAD6E1"/>
<path d="M53.1346 164.642L51.9446 159.94L52.215 164.805C52.0257 164.996 51.8905 165.24 51.9175 165.539C51.9986 166.028 52.4314 166.354 52.8912 166.273C53.1887 166.219 53.378 166.028 53.5133 165.784L60.1938 164.289L53.378 164.832C53.378 164.832 53.2428 164.724 53.1346 164.669V164.642Z" fill="#CAD6E1"/>
<path d="M82.318 189.972V187.689L86.1045 183.857L82.318 180.025V137.981H86.1045V128.115H88.5387V121.891L60.0585 96.8332V82.0756H61.1674V80.608L54.5139 74.7647L53.5132 59.844C54.1352 59.7081 54.568 59.4092 54.568 59.0558C54.568 58.6754 54.0811 58.3764 53.405 58.2405L52.7829 49L52.1608 58.2405C51.4846 58.3764 50.9978 58.6754 50.9978 59.0558C50.9978 59.4092 51.4306 59.7081 52.0526 59.844L51.0519 74.7647L44.3984 80.608V82.0756H45.5073V96.8332L41.5855 100.285V97.5398H42.9108V91.8596H30.7939V97.5398H32.1192V108.601L17 121.891V128.115H19.4342V137.981H23.2208V180.025L19.4342 183.857L23.2208 187.689V247.182H26H36.2032C37.2039 246.067 38.6104 245.361 40.2332 245.361C41.856 245.361 43.2624 246.067 44.2632 247.182H61.3297C62.3304 246.067 63.3772 247.182 65 247.182C66.6228 247.182 68.3889 246.067 69.3896 247.182H108V222L102 219V189.999H82.3721L82.318 189.972ZM42.992 225.303H32.1462V206.197C32.1462 203.181 34.5804 200.762 37.5556 200.762C40.5307 200.762 42.9649 203.208 42.9649 206.197V225.303H42.992ZM58.1923 225.303H47.3465V206.197C47.3465 203.181 49.7807 200.762 52.7559 200.762C55.731 200.762 58.1652 203.208 58.1652 206.197V225.303H58.1923ZM52.7829 176.628C46.5892 176.628 41.5855 171.6 41.5855 165.376C41.5855 159.152 46.5892 154.124 52.7829 154.124C58.9766 154.124 63.9803 159.152 63.9803 165.376C63.9803 171.6 58.9766 176.628 52.7829 176.628ZM73.4196 225.303H62.5738V206.197C62.5738 203.181 65.008 200.762 67.9832 200.762C70.9583 200.762 73.3925 203.208 73.3925 206.197V225.303H73.4196Z" fill="#CAD6E1"/>
<path d="M230 244.395C230 239.079 226.154 234.676 221.126 233.818V231.603H220.219V220.417C220.521 220.167 220.686 219.78 220.686 219.364C220.686 218.589 220.054 217.952 219.285 217.952C218.516 217.952 217.884 218.589 217.884 219.364C217.884 219.78 218.076 220.14 218.351 220.417V231.603H217.444V233.818C212.417 234.704 208.57 239.079 208.57 244.395H181.728V244.063V238.885H183.651L172.744 231.908L162.304 238.608H153.622L143.182 231.908L143.1 231.963V226.397L143.759 225.207V224.21C143.759 224.21 143.814 224.016 143.814 223.905C143.814 222.909 143.127 222.133 142.276 222.133C141.424 222.133 140.737 222.936 140.737 223.905C140.737 224.016 140.765 224.099 140.792 224.21H137.413C137.495 223.628 137.578 223.047 137.578 222.438C137.578 216.097 133.127 210.808 127.192 209.562C128.319 207.956 128.374 207.098 126.451 206.738V205.935H125.819C126.093 205.63 126.258 205.215 126.258 204.772C126.258 203.775 125.462 203 124.5 203C123.538 203 122.742 203.803 122.742 204.772C122.742 205.215 122.934 205.63 123.181 205.935H122.549V206.738C120.626 207.098 120.681 207.956 121.808 209.562C115.873 210.808 111.422 216.097 111.422 222.438C111.422 223.047 111.532 223.628 111.587 224.21H108.208C108.208 224.21 108.263 224.016 108.263 223.905C108.263 222.909 107.576 222.133 106.724 222.133C105.873 222.133 105.186 222.936 105.186 223.905C105.186 224.016 105.213 224.099 105.241 224.21V225.207L105.9 226.397V231.963L105.818 231.908L95.3776 238.608H86.6958L76.2283 231.908L65.3211 238.885H67.2443V244.063V244.395H40.4022C40.4022 239.079 36.5559 234.676 31.5281 233.818V231.603H30.6215V220.417C30.9237 220.167 31.0885 219.78 31.0885 219.364C31.0885 218.589 30.4566 217.952 29.6874 217.952C28.9181 217.952 28.2862 218.589 28.2862 219.364C28.2862 219.78 28.4785 220.14 28.7533 220.417V231.603H27.8466V233.818C22.8189 234.704 19 239.079 19 244.395V342H230V244.395ZM33.0392 262.144V253.699H37.4076V262.144H33.0392ZM37.4076 267.128V275.573H33.0392V267.128H37.4076ZM26.418 267.128H30.7863V275.573H26.418V267.128ZM26.418 262.144V253.699H30.7863V262.144H26.418ZM42.5177 296.783H26.1432V284.462H42.5452V296.783H42.5177ZM44.0013 275.546H39.6329V267.101H44.0013V275.546ZM44.0013 262.144H39.6329V253.699H44.0013V262.144ZM55.2382 275.546H50.8698V267.101H55.2382V275.546ZM55.2382 262.144H50.8698V253.699H55.2382V262.144ZM61.8594 275.546H57.491V267.101H61.8594V275.546ZM61.8594 262.144H57.491V253.699H61.8594V262.144ZM68.4806 275.546H64.1122V267.101H68.4806V275.546ZM68.4806 262.144H64.1122V253.699H68.4806V262.144ZM79.0306 275.546H74.6622V267.101H79.0306V275.546ZM79.0306 262.144H74.6622V253.699H79.0306V262.144ZM89.5806 275.546H85.2122V267.101H89.5806V275.546ZM89.5806 262.144H85.2122V253.699H89.5806V262.144ZM96.2018 275.546H91.8335V267.101H96.2018V275.546ZM96.2018 262.144H91.8335V253.699H96.2018V262.144ZM102.823 275.546H98.4547V267.101H102.823V275.546ZM102.823 262.144H98.4547V253.699H102.823V262.144ZM121.588 305.672H114.417V288.671H121.588V305.672ZM114.142 272.057V261.092C116.065 261.092 117.632 262.67 117.632 264.609V272.057H114.142ZM121.011 272.057V264.609C121.011 262.67 122.577 261.092 124.5 261.092C126.423 261.092 127.989 262.67 127.989 264.609V272.057H121.011ZM134.583 305.672H127.412V288.671H134.583V305.672ZM134.858 272.057H131.368V264.609C131.368 262.67 132.935 261.092 134.858 261.092V272.057ZM135.792 250.985H113.208V246.417H135.792V250.985ZM150.573 275.573H146.204V267.128H150.573V275.573ZM150.573 262.172H146.204V253.727H150.573V262.172ZM157.194 275.573H152.826V267.128H157.194V275.573ZM157.194 262.172H152.826V253.727H157.194V262.172ZM163.815 275.573H159.447V267.128H163.815V275.573ZM163.815 262.172H159.447V253.727H163.815V262.172ZM174.365 275.573H169.997V267.128H174.365V275.573ZM174.365 262.172H169.997V253.727H174.365V262.172ZM211.62 262.172V253.727H215.988V262.172H211.62ZM215.988 267.156V275.601H211.62V267.156H215.988ZM218.214 267.156H222.582V275.601H218.214V267.156ZM218.214 262.172V253.727H222.582V262.172H218.214ZM204.999 253.727H209.367V262.172H204.999V253.727ZM184.915 275.573H180.547V267.128H184.915V275.573ZM184.915 262.172H180.547V253.727H184.915V262.172ZM191.536 275.573H187.168V267.128H191.536V275.573ZM191.536 262.172H187.168V253.727H191.536V262.172ZM198.158 275.573H193.789V267.128H198.158V275.573ZM198.158 262.172H193.789V253.727H198.158V262.172ZM205.026 267.156H209.395V275.601H205.026V267.156ZM222.912 296.811H206.51V284.489H222.912V296.811Z" fill="#FAFAFA"/>
</g>
</svg>
