<svg width="244" height="359" viewBox="0 0 244 359" fill="none" xmlns="http://www.w3.org/2000/svg">
<circle cx="121.694" cy="226.499" r="114.398" fill="#203347"/>
<mask id="mask0_837_180143" style="mask-type:alpha" maskUnits="userSpaceOnUse" x="7" y="26" width="230" height="315">
<path fill-rule="evenodd" clip-rule="evenodd" d="M236.092 26.1245H32.6189V154.712C16.7798 174.341 7.29639 199.312 7.29639 226.499C7.29639 289.679 58.514 340.897 121.694 340.897C184.874 340.897 236.092 289.679 236.092 226.499C236.092 207.515 231.468 189.611 223.284 173.852H236.092V26.1245Z" fill="#C4C4C4"/>
</mask>
<g mask="url(#mask0_837_180143)">
<path d="M149.151 130.196V118.458C149.15 116.743 148.57 115.079 147.505 113.734C146.439 112.39 144.951 111.446 143.282 111.053V101.126H146.125V98.7187H142.846C143.304 98.4821 143.688 98.1235 143.955 97.6825C144.222 97.2415 144.362 96.7353 144.359 96.2198C144.359 94.6608 141.539 93.377 141.539 93.377C141.539 93.377 138.697 94.6608 138.697 96.2198C138.699 96.7342 138.841 97.2384 139.108 97.6785C139.374 98.1186 139.755 98.4781 140.21 98.7187H136.931V101.126H139.774V111.053C138.105 111.446 136.617 112.39 135.551 113.734C134.486 115.079 133.906 116.743 133.905 118.458V130.196L130.352 133.773V194.137L97.384 179.395L64.4164 194.137V133.773L60.8628 130.196V118.458C60.8631 116.746 60.2862 115.084 59.2255 113.74C58.1647 112.397 56.6819 111.45 55.0167 111.053V101.126H57.8137V98.7187H54.5811C55.0358 98.4781 55.4167 98.1186 55.6832 97.6785C55.9497 97.2384 56.0917 96.7342 56.0942 96.2198C56.0942 94.6608 53.2514 93.377 53.2514 93.377C53.2514 93.377 50.4086 94.6608 50.4086 96.2198C50.411 96.7342 50.5531 97.2384 50.8196 97.6785C51.086 98.1186 51.4669 98.4781 51.9217 98.7187H48.6432V101.126H51.4861V111.053C49.8208 111.45 48.3381 112.397 47.2773 113.74C46.2165 115.084 45.6397 116.746 45.6399 118.458V130.196L42.0635 133.773V341.62H90.9647V317.273C90.9647 314.086 97.5215 309.959 97.5215 309.959C97.5215 309.959 104.055 314.086 104.055 317.273V341.62H152.704V133.773L149.151 130.196ZM95.2519 191.753C95.2519 190.446 97.384 188.726 97.384 188.726C97.384 188.726 99.5161 190.446 99.5161 191.753V201.748H95.2519V191.753ZM77.5988 283.25H70.4688V266.514C70.4688 264.222 74.0224 261.471 74.0224 261.471C74.0224 261.471 77.5988 264.313 77.5988 266.514V283.25ZM77.5988 255.739H70.4688V239.003C70.4688 236.71 74.0224 233.959 74.0224 233.959C74.0224 233.959 77.5988 236.802 77.5988 239.003V255.739ZM89.2682 283.25H82.1382V266.514C82.1382 264.222 85.7146 261.471 85.7146 261.471C85.7146 261.471 89.2682 264.313 89.2682 266.514V283.25ZM89.2682 255.739H82.1382V239.003C82.1382 236.71 85.7146 233.959 85.7146 233.959C85.7146 233.959 89.2682 236.802 89.2682 239.003V255.739ZM100.96 283.25H93.8304V266.514C93.833 266.226 93.8794 265.94 93.968 265.666C94.7821 264.032 95.9489 262.599 97.384 261.471C98.8271 262.619 99.9944 264.076 100.8 265.735C100.895 266.008 100.949 266.294 100.96 266.583V283.25ZM100.96 255.739H93.8304V239.003C93.8312 238.715 93.8776 238.429 93.968 238.155C94.7821 236.521 95.9489 235.088 97.384 233.959C98.8271 235.108 99.9944 236.565 100.8 238.224C100.897 238.496 100.952 238.782 100.96 239.072V255.739ZM112.63 283.25H105.5V266.514C105.5 264.222 109.076 261.471 109.076 261.471C109.076 261.471 112.63 264.313 112.63 266.514V283.25ZM112.63 255.739H105.5V239.003C105.5 236.71 109.076 233.959 109.076 233.959C109.076 233.959 112.63 236.802 112.63 239.003V255.739ZM124.322 283.25H117.192V266.514C117.192 264.222 120.746 261.471 120.746 261.471C120.746 261.471 124.299 264.313 124.299 266.514L124.322 283.25ZM124.322 255.739H117.192V239.003C117.192 236.71 120.746 233.959 120.746 233.959C120.746 233.959 124.299 236.917 124.299 239.118L124.322 255.739ZM97.384 230.52H70.4688C70.4688 215.641 97.384 209.474 97.384 209.474C97.384 209.474 124.299 215.779 124.299 230.658L97.384 230.52Z" fill="#CAD6E1"/>
<path fill-rule="evenodd" clip-rule="evenodd" d="M205.498 341.674C202.061 343.663 198.161 344.714 194.189 344.723H188.295V317.948C188.295 314.208 178.614 311.419 175.826 311.419C173.037 311.419 163.379 314.208 163.379 317.948V344.723H58.164C52.1513 344.723 46.3849 342.334 42.1333 338.082C37.8817 333.831 35.4932 328.064 35.4932 322.052V276.529C35.5074 275.862 35.7354 275.219 36.1436 274.692C36.5519 274.165 37.1186 273.784 37.7602 273.604V271.178H36.3547V269.501H37.7602V266.281H39.3925V269.501H40.7981V271.178H39.3925V273.604C40.0397 273.782 40.6112 274.166 41.0204 274.698C41.4295 275.229 41.654 275.88 41.6596 276.551V298.655H79.1345V266.485C79.1402 265.814 79.3646 265.164 79.7738 264.632C80.1829 264.1 80.7545 263.716 81.4016 263.538V260.206H79.996V258.505H81.4016V255.309H83.1019V258.505H84.5075V260.206H83.1019V263.47C83.7509 263.644 84.3246 264.027 84.7343 264.56C85.1441 265.093 85.3671 265.745 85.369 266.417V287.32H89.4951L104.367 272.448L119.217 287.32H123.751V254.538C123.751 250.768 124.655 248.349 125.578 245.878C125.97 244.827 126.366 243.767 126.698 242.59C127.287 240.391 128.104 237.24 128.716 234.837V229.736H127.31V228.058H128.716V224.839H130.393V228.058H131.799V229.736H130.393V234.837C130.801 236.439 131.3 238.343 131.762 240.106C131.993 240.988 132.214 241.835 132.411 242.59C132.742 243.767 133.138 244.827 133.531 245.878C134.454 248.349 135.358 250.768 135.358 254.538V259.299H143.701V254.538C143.701 250.801 144.601 248.39 145.514 245.942C145.914 244.87 146.317 243.791 146.648 242.59C147.26 240.391 148.077 237.24 148.666 234.837V229.736H147.26V228.058H148.666V224.839H150.366V228.058H151.772V229.736H150.366V234.837C150.978 237.24 151.772 240.323 152.384 242.59C152.715 243.791 153.118 244.87 153.518 245.942C154.432 248.39 155.331 250.801 155.331 254.538V280.473L160.795 276.959V236.923C160.795 233.347 165.227 229.551 168.338 226.887C170.019 225.447 171.314 224.338 171.314 223.774V199.743C171.295 198.675 171.652 197.636 172.324 196.806C172.996 195.977 173.939 195.411 174.987 195.208V188.407H173.581V186.73H174.987V183.51H176.687V186.684H178.093V188.362H176.687V195.163C177.735 195.366 178.678 195.931 179.35 196.761C180.022 197.59 180.379 198.63 180.36 199.697V223.796C180.36 224.361 181.655 225.47 183.336 226.91C186.447 229.574 190.879 233.369 190.879 236.945V276.959L196.343 280.473V254.538C196.343 250.768 197.247 248.349 198.17 245.878C198.562 244.827 198.958 243.767 199.29 242.59C199.879 240.391 200.696 237.24 201.308 234.837V229.736H199.902V228.058H201.308V224.839H202.985V228.058H204.391V229.736H202.985V234.837C203.393 236.439 203.892 238.344 204.354 240.108C204.585 240.989 204.807 241.835 205.003 242.59C205.334 243.767 205.73 244.827 206.123 245.878C206.734 247.513 207.336 249.125 207.674 251.121V249.8C208.059 251.35 208.249 252.941 208.241 254.538V259.299H216.293V254.538C216.285 252.941 216.475 251.35 216.86 249.8V251.121C217.198 249.125 217.8 247.513 218.411 245.878C218.803 244.827 219.199 243.767 219.531 242.59C219.727 241.835 219.949 240.989 220.18 240.108C220.642 238.344 221.14 236.439 221.549 234.837V229.736H220.143V228.058H221.549V224.839H223.226V228.058H224.632V229.736H223.226V234.837C223.838 237.24 224.655 240.391 225.244 242.59C225.575 243.767 225.971 244.827 226.364 245.878C227.287 248.349 228.191 250.768 228.191 254.538V280.473L233.655 276.959V236.945C233.655 233.369 238.087 229.574 241.198 226.91C242.879 225.47 244.174 224.361 244.174 223.796V199.697C244.155 198.63 244.512 197.59 245.184 196.761C245.856 195.931 246.799 195.366 247.847 195.163V188.362H246.441V186.684H247.847V183.51H249.547V186.73H250.953V188.407H249.547V195.208C250.595 195.411 251.538 195.977 252.21 196.806C252.882 197.636 253.239 198.675 253.22 199.743V223.774C253.22 224.338 254.515 225.447 256.196 226.887C259.307 229.551 263.739 233.347 263.739 236.923V276.959L269.203 280.473V254.538C269.203 250.801 270.102 248.39 271.016 245.942C271.416 244.87 271.819 243.791 272.15 242.59C272.762 240.323 273.556 237.24 274.168 234.837V229.736H272.762V228.058H274.168V224.839H275.868V228.058H277.274V229.736H275.868V234.837C276.457 237.24 277.274 240.391 277.886 242.59C278.217 243.791 278.62 244.87 279.019 245.942C279.933 248.39 280.833 250.801 280.833 254.538V259.299H289.176V254.538C289.176 250.768 290.08 248.349 291.003 245.878C291.395 244.827 291.791 243.767 292.123 242.59C292.319 241.835 292.541 240.989 292.772 240.108C293.234 238.344 293.732 236.44 294.141 234.837V229.736H292.735V228.058H294.141V224.839H295.818V228.058H297.224V229.736H295.818V234.837C296.43 237.24 297.247 240.391 297.836 242.59C298.167 243.767 298.563 244.827 298.956 245.878C299.879 248.349 300.783 250.768 300.783 254.538V287.32H305.317L320.167 272.448L335.039 287.32H339.165V266.417C339.167 265.745 339.39 265.093 339.8 264.56C340.209 264.027 340.783 263.644 341.432 263.47V260.206H340.026V258.505H341.432V255.309H343.132V258.505H344.538V260.206H343.132V263.538C343.779 263.716 344.351 264.1 344.76 264.632C345.169 265.164 345.394 265.814 345.399 266.485V298.655H382.874V276.551C382.88 275.88 383.104 275.229 383.514 274.698C383.923 274.166 384.494 273.782 385.141 273.604V271.178H383.736V269.501H385.141V266.281H386.774V269.501H388.179V271.178H386.774V273.604C387.415 273.784 387.982 274.165 388.39 274.692C388.798 275.219 389.027 275.862 389.041 276.529V322.052C389.041 328.064 386.652 333.831 382.401 338.082C378.149 342.334 372.383 344.723 366.37 344.723H261.155V317.948C261.155 314.208 251.497 311.419 248.708 311.419C245.92 311.419 236.239 314.208 236.239 317.948V344.723H230.345C226.373 344.714 222.473 343.663 219.036 341.674C216.391 340.143 214.091 338.099 212.267 335.671C210.443 338.099 208.143 340.143 205.498 341.674ZM210.757 333.387H213.777H215.087V330.823C215.001 331.029 214.912 331.234 214.819 331.437V321.508C214.819 320.105 212.828 319.054 212.267 318.786C211.706 319.054 209.714 320.105 209.714 321.508V331.437C209.622 331.234 209.533 331.029 209.446 330.823V333.387H210.757ZM209.714 307.497H214.819V295.595C214.819 294.192 212.828 293.125 212.267 292.852C211.706 293.125 209.714 294.192 209.714 295.595V307.497ZM208.173 280.451V266.848C209.063 265.847 210.871 263.905 212.267 263.878C213.663 263.905 215.471 265.847 216.361 266.848V280.451H208.173ZM50.0932 336.289H69.2954V321.44C69.2954 319.422 59.6829 314.434 59.6829 314.434C59.6829 314.434 50.0932 319.422 50.0932 321.44V336.289ZM94.4373 333.432H99.8103V321.508C99.8103 319.875 97.1125 318.719 97.1125 318.719C97.1125 318.719 94.4373 319.875 94.4373 321.508V333.432ZM101.601 333.432H106.974V321.508C106.974 319.875 104.299 318.719 104.299 318.719C104.299 318.719 101.601 319.875 101.601 321.508V333.432ZM108.788 333.432H114.161V321.508C114.161 319.875 111.463 318.719 111.463 318.719C111.463 318.719 108.788 319.875 108.788 321.508V333.432ZM136.854 333.432H142.227V321.508C142.227 319.875 139.53 318.719 139.53 318.719C139.53 318.719 136.854 319.875 136.854 321.508V333.432ZM136.854 307.497H142.227V295.595C142.227 293.963 139.53 292.784 139.53 292.784C139.53 292.784 136.854 293.963 136.854 295.595V307.497ZM135.358 280.473H143.701V266.871C142.794 265.851 140.935 263.856 139.53 263.901C138.124 263.946 136.265 265.851 135.358 266.871V280.473ZM374.441 336.289H355.239V321.44C355.239 319.422 364.851 314.434 364.851 314.434C364.851 314.434 374.441 319.422 374.441 321.44V336.289ZM330.097 333.432H324.724V321.508C324.724 319.875 327.421 318.719 327.421 318.719C327.421 318.719 330.097 319.875 330.097 321.508V333.432ZM322.933 333.432H317.56V321.508C317.56 319.875 320.235 318.719 320.235 318.719C320.235 318.719 322.933 319.875 322.933 321.508V333.432ZM315.746 333.432H310.373V321.508C310.373 319.875 313.071 318.719 313.071 318.719C313.071 318.719 315.746 319.875 315.746 321.508V333.432ZM287.679 333.432H282.306V321.508C282.306 319.875 285.004 318.719 285.004 318.719C285.004 318.719 287.679 319.875 287.679 321.508V333.432ZM287.679 307.497H282.306V295.595C282.306 293.963 285.004 292.784 285.004 292.784C285.004 292.784 287.679 293.963 287.679 295.595V307.497ZM289.176 280.473H280.833V266.871C281.74 265.851 283.599 263.856 285.004 263.901C286.41 263.946 288.269 265.851 289.176 266.871V280.473Z" fill="#FAFAFA"/>
</g>
</svg>
