<svg width="245" height="359" viewBox="0 0 245 359" fill="none" xmlns="http://www.w3.org/2000/svg">
<circle cx="122.398" cy="226.499" r="114.398" fill="#203347"/>
<mask id="mask0_837_180146" style="mask-type:alpha" maskUnits="userSpaceOnUse" x="8" y="26" width="229" height="315">
<path fill-rule="evenodd" clip-rule="evenodd" d="M236.795 26.1245H33.3225V154.712C17.4834 174.341 8 199.312 8 226.499C8 289.679 59.2176 340.897 122.398 340.897C185.578 340.897 236.795 289.679 236.795 226.499C236.795 207.515 232.171 189.611 223.988 173.852H236.795V26.1245Z" fill="#C4C4C4"/>
</mask>
<g mask="url(#mask0_837_180146)">
<path d="M195.306 202.957C195.454 201.932 195.735 200.932 196.142 199.98C196.533 199.28 196.786 198.512 196.888 197.717C196.871 196.998 196.931 196.28 197.067 195.574C197.272 194.796 197.372 193.996 197.366 193.192C197.366 192.597 196.769 191.198 196.769 190.87C196.769 190.543 196.948 189.233 196.769 189.054C196.455 188.931 196.121 188.871 195.784 188.876C195.563 188.385 195.314 187.908 195.038 187.447C194.882 186.733 194.822 186.003 194.859 185.273C194.859 184.708 194.859 182.862 194.859 182.862C195.138 182.526 195.332 182.128 195.426 181.701C195.367 181.117 195.367 180.529 195.426 179.945C195.426 179.528 195.665 178.843 195.694 178.724C195.74 178.289 195.74 177.85 195.694 177.414C195.599 177.208 195.489 177.009 195.366 176.819C195.502 176.508 195.622 176.19 195.724 175.866C195.724 175.688 195.724 175.152 195.724 175.062C195.724 174.973 195.157 175.062 195.068 175.062C194.919 175.202 194.779 175.351 194.65 175.509L193.993 174.794C193.691 174.636 193.347 174.574 193.008 174.616C192.539 175.242 192.213 175.964 192.053 176.73C191.814 177.771 191.605 178.843 191.516 179.141C191.426 179.439 190.71 180.927 190.68 181.135C190.65 181.344 190.381 184.499 190.352 184.738C190.216 185.144 190.057 185.541 189.874 185.928C189.654 185.587 189.483 185.216 189.367 184.827C189.232 184.082 188.991 183.36 188.65 182.683C188.352 182.386 187.964 181.999 187.605 181.999C187.247 181.999 186.292 182.207 186.203 182.505C186.113 182.803 186.203 184.351 186.203 184.618C186.203 184.886 185.964 185.899 185.904 186.018C185.844 186.137 184.74 186.018 184.74 186.018C184.74 186.018 184.949 182.743 184.949 182.564C184.868 182.066 184.706 181.583 184.471 181.135C184.262 180.838 182.024 178.873 181.875 178.694L180.74 177.623V170.21H179.576V177.444C179.62 178.078 179.62 178.715 179.576 179.349C179.336 179.841 179.214 180.381 179.218 180.927C179.453 181.657 179.753 182.364 180.113 183.041C180.284 183.238 180.425 183.458 180.531 183.696L180.322 184.678C179.926 184.426 179.547 184.147 179.188 183.844C178.762 182.942 178.413 182.006 178.143 181.046C178.032 180.342 177.872 179.645 177.666 178.962C177.5 178.506 177.311 178.059 177.099 177.623C177.001 177.596 176.898 177.596 176.8 177.623V176.61C176.492 176.79 176.202 177 175.935 177.236C175.854 177.378 175.754 177.508 175.636 177.623L174.711 177.801C174.533 177.648 174.343 177.509 174.144 177.384C173.979 177.332 173.801 177.332 173.636 177.384C173.663 177.776 173.723 178.164 173.815 178.545L174.114 178.992C173.995 179.194 173.914 179.416 173.875 179.647C173.875 179.796 173.875 181.79 173.875 182.088C173.901 183.248 174.186 184.387 174.711 185.422C174.959 185.584 175.25 185.667 175.547 185.66C175.753 185.523 175.934 185.352 176.084 185.154C176.084 185.154 175.905 187.744 175.905 188.131C175.85 188.577 175.719 189.01 175.517 189.411C175.368 189.679 174.442 190.185 174.472 190.84C174.502 191.495 174.651 195.157 174.651 195.455C174.622 195.812 174.542 196.163 174.412 196.497C174.412 196.824 174.412 200.426 174.412 200.992C174.324 202.099 174.405 203.213 174.651 204.296C174.86 204.713 176.561 206.827 176.561 206.827L195.306 202.957Z" fill="#FAFAFA"/>
<path d="M175.397 206.678C175.397 205.785 175.755 202.094 175.755 201.587C175.714 199.905 175.584 198.226 175.367 196.556C174.677 195.648 173.716 194.98 172.621 194.651C172.147 194.6 171.694 194.426 171.308 194.145C171.308 194.145 171.308 193.133 170.89 193.044C170.472 192.954 170.204 193.044 170.024 192.835L169.308 192.24C169.133 191.689 169.023 191.119 168.98 190.543C168.98 190.156 168.293 189.709 168.234 189.471C168.174 189.233 167.995 188.012 167.905 187.715C167.816 187.417 167.487 186.405 167.457 186.226C167.437 185.772 167.325 185.327 167.129 184.916C166.89 184.619 165.726 181.939 165.607 181.523C165.325 180.87 165.006 180.234 164.652 179.617C164.461 179.453 164.237 179.331 163.995 179.26C164.015 179.032 164.015 178.803 163.995 178.575C163.89 178.434 163.77 178.304 163.637 178.188C163.484 178.371 163.354 178.571 163.249 178.784V179.379L162.712 179.558L162.383 179.766C162.255 179.535 162.105 179.315 161.935 179.111C161.734 179.006 161.524 178.916 161.309 178.843C161.281 179.091 161.281 179.34 161.309 179.588C161.4 179.82 161.52 180.04 161.667 180.243L161.189 180.868C160.989 181.08 160.863 181.352 160.831 181.642C160.807 182.082 160.747 182.521 160.652 182.952C160.426 183.237 160.217 183.535 160.025 183.845C159.936 184.237 159.936 184.644 160.025 185.036C160.025 185.214 160.682 185.69 160.921 185.661C161.342 185.469 161.734 185.218 162.085 184.916C162.285 184.738 162.535 184.624 162.801 184.589H163.309V187.566C163.309 187.864 163.309 189.025 163.309 189.084C163.356 189.44 163.356 189.8 163.309 190.156C162.958 190.672 162.639 191.209 162.353 191.763C162.295 192.656 162.295 193.551 162.353 194.443C162.353 194.711 162.771 196.467 162.861 196.735C162.95 197.003 163.04 198.045 163.04 198.045C162.565 197.592 162.067 197.165 161.547 196.765C161.339 196.765 159.727 196.408 159.577 196.378C159.428 196.348 157.787 195.663 157.578 195.604L155.876 194.86C155.876 194.86 155.578 192.746 155.548 192.329C155.494 191.774 155.384 191.225 155.22 190.692C154.827 189.767 154.368 188.871 153.847 188.012L153.25 187.477C153.053 187.033 152.824 186.605 152.563 186.197C152.055 185.71 151.494 185.281 150.892 184.916C150.401 184.741 149.889 184.631 149.369 184.589H148.922C148.763 184.392 148.593 184.203 148.414 184.023L147.787 183.874C147.787 183.874 147.787 184.41 147.787 184.47C147.856 184.596 147.936 184.715 148.026 184.827L147.728 185.036L147.459 185.303C147.329 185.209 147.189 185.129 147.041 185.065C146.882 185.05 146.722 185.05 146.563 185.065C146.53 185.322 146.53 185.582 146.563 185.839C146.757 186.055 146.978 186.246 147.22 186.405L146.952 187.477C146.952 187.715 146.952 190.454 146.952 190.811C147.031 191.287 147.226 191.736 147.519 192.121C147.925 192.166 148.336 192.166 148.742 192.121C149.034 191.881 149.277 191.588 149.459 191.257C149.459 191.019 149.459 190.424 149.727 190.364C149.883 190.314 150.05 190.314 150.205 190.364C150.205 190.364 150.205 194.115 150.205 194.681C150.161 195.202 150.081 195.719 149.966 196.229C149.668 196.56 149.389 196.908 149.13 197.271C149.072 197.974 149.072 198.681 149.13 199.385C149.13 199.623 150.086 201.26 150.086 201.26L148.683 201.409C148.215 201.469 147.767 201.632 147.369 201.885C147.197 202.238 147.105 202.624 147.101 203.016C147.329 204.263 147.628 205.495 147.996 206.708C147.996 206.976 148.683 208.018 148.772 208.196C148.862 208.375 149.936 210.012 150.056 210.102C150.175 210.191 150.892 210.102 150.892 210.102V208.315C150.606 208.202 150.327 208.073 150.056 207.928C149.811 207.691 149.6 207.42 149.429 207.125C149.285 206.556 149.176 205.979 149.101 205.398C149.066 204.972 149.066 204.544 149.101 204.118L151.011 204.326C151.468 204.354 151.927 204.354 152.384 204.326L152.832 203.85C152.832 203.85 153.13 204.416 153.25 204.594C153.726 205.039 154.234 205.447 154.772 205.815H155.16C155.179 206.494 155.249 207.17 155.369 207.839L155.667 208.911V210.28H156.742C156.742 210.28 156.742 206.559 156.563 206.321C156.549 206.063 156.549 205.805 156.563 205.547C156.563 205.547 157.607 205.398 157.757 205.547C157.906 205.696 158.354 207.095 158.443 207.333C158.597 207.686 158.798 208.016 159.04 208.315C159.189 208.315 160.115 209.357 160.115 209.357L175.397 206.678Z" fill="#FAFAFA"/>
<path d="M179.815 171.401C178.43 171.401 177.308 170.282 177.308 168.901C177.308 167.519 178.43 166.4 179.815 166.4C181.2 166.4 182.322 167.519 182.322 168.901C182.322 170.282 181.2 171.401 179.815 171.401Z" fill="#FAFAFA"/>
<path d="M179.755 166.906V164.524C180.226 163.774 180.81 163.102 181.487 162.53C182.459 162.163 183.457 161.864 184.471 161.637C184.182 162.783 183.761 163.891 183.218 164.941C182.241 165.868 181.053 166.542 179.755 166.906Z" fill="#FAFAFA"/>
<path d="M179.756 166.906V164.524C179.276 163.782 178.693 163.11 178.025 162.53C177.051 162.167 176.053 161.868 175.04 161.637C175.315 162.787 175.737 163.897 176.293 164.941C177.265 165.874 178.456 166.549 179.756 166.906Z" fill="#FAFAFA"/>
<path d="M179.755 164.733C179.459 164.733 179.218 164.266 179.218 163.691C179.218 163.115 179.459 162.649 179.755 162.649C180.052 162.649 180.293 163.115 180.293 163.691C180.293 164.266 180.052 164.733 179.755 164.733Z" fill="#FAFAFA"/>
<path d="M66.7788 248.772L74.4797 248.117V246.331L81.5836 245.14V237.37L79.8226 236.12L79.5539 235.287L77.2556 233.917V232.071L139.49 220.818L139.221 219.717L136.953 217.782V215.668L141.102 214.984V212.691L205.097 200.248L206.53 202.421H207.873L211.007 207.75L249.247 200.248L240.203 269.094L217.706 272.528V316.841L203.007 334.478V275.982L187.724 278.393C187.716 284.986 191.776 362.393 187.724 367.603C183.673 372.813 179.379 368.644 172.978 370.292V281.965L161.308 283.126V285.091L157.995 286.431V370.679H141.937V286.729L137.251 287.145V288.634L135.52 289.348V370.679H106.985L107.313 289.616L103.433 290.003V291.283L102.418 291.641L102.119 370.679H71.9426L75.8229 278.393C75.7294 277.901 75.6098 277.414 75.4647 276.934C75.4647 276.696 74.3901 276.309 74.3006 275.982C74.2731 275.714 74.2731 275.445 74.3006 275.178L71.6142 274.196V272.528H74.0917V260.174H73.1365L72.0321 258.745L67.6145 256.81L66.5997 255.619V253.565H65.5848V252.642C64.8927 252.399 64.2393 252.059 63.6447 251.63C63.4656 251.273 62.5403 250.022 62.5403 250.022L66.7788 249.576V248.772Z" fill="#FAFAFA"/>
<path fill-rule="evenodd" clip-rule="evenodd" d="M62.0921 267.456V257.831H63.029L64.6941 256.24H45.454L45.454 256.24H64.6941L63.029 254.648H61.8838V252.434H60.9472V250.012H61.745V248.075H49.3258V250.012H50.1585V252.434H49.2218V254.648H45.2402C43.9208 246.108 39.9107 238.144 33.7084 231.958C26.0186 224.289 15.5891 219.98 4.71414 219.98V267.484H4.714V303.121C4.714 313.839 8.98291 324.118 16.5816 331.696C24.1802 339.275 34.4862 343.532 45.2324 343.532H143.892V267.415L132.999 267.421V262.675H118.152V233.232H116.764V235.517C113.671 233.262 111.287 234.581 108.907 235.897C106.406 237.281 103.909 238.662 100.598 235.895V246.863C103.909 249.63 106.406 248.249 108.907 246.865C111.287 245.549 113.671 244.23 116.764 246.485V262.675H101.951V267.436L96.4704 267.439V265.651L96.7826 265.305L96.7132 264.648V264.163L97.2683 263.61L96.6439 263.195H96.1582V262.018H95.846V261.187L95.4991 261.152C95.4992 261.068 95.482 260.984 95.4484 260.906C95.4149 260.828 95.3658 260.758 95.3041 260.699C95.2424 260.641 95.1694 260.596 95.0896 260.567C95.033 260.546 94.9739 260.534 94.914 260.53H94.9786V259.388H94.7705V260.53H94.8213C94.7456 260.532 94.671 260.548 94.601 260.577C94.5252 260.608 94.4564 260.654 94.3984 260.712C94.3404 260.77 94.2944 260.839 94.2631 260.914C94.2317 260.99 94.2155 261.071 94.2155 261.152V262.018H93.5564V263.195H93.0707L92.4116 263.61L93.0013 264.163V264.648L92.8973 265.305L93.2442 265.651V267.44L79.8535 267.447V265.651L80.2004 265.305L80.1311 264.648V264.163L80.6861 263.61L80.027 263.195H79.576V262.018H79.0904V261.187L78.9169 261.153C78.908 260.984 78.8347 260.826 78.712 260.71C78.5898 260.595 78.4279 260.53 78.2596 260.53H78.3618V259.388H78.1536V260.53H78.2578C78.1758 260.53 78.0946 260.546 78.0188 260.577C77.9431 260.609 77.8743 260.655 77.8163 260.712C77.7583 260.77 77.7123 260.839 77.6809 260.914C77.6495 260.99 77.6334 261.071 77.6334 261.153V262.018H76.9742V263.195H76.4886L75.8295 263.61L76.4192 264.163L76.3845 264.648L76.3151 265.305L76.662 265.651V267.449L62.0921 267.456ZM59.2473 243.819L59.9412 244.857V246.829L60.6697 248.074H55.5702H50.436L51.1645 246.829V244.857L51.8583 243.819L52.2052 243.507V239.39L51.4767 238.733L51.6501 237.349V236.276L50.436 235.134L51.8236 234.27H52.8296V231.778H53.8358V229.98H54.2174C54.2126 229.801 54.2443 229.623 54.3106 229.458C54.3769 229.292 54.4764 229.141 54.603 229.015C54.7296 228.889 54.8806 228.789 55.0469 228.723C55.2132 228.657 55.3913 228.625 55.5703 228.63C55.9291 228.63 56.2732 228.772 56.5269 229.025C56.7807 229.278 56.9232 229.622 56.9232 229.98H57.3048V231.778H58.276V234.27H59.3167L60.6697 235.134L59.4555 236.276L59.4902 237.349L59.6636 238.733L58.9351 239.39V243.507L59.2473 243.819ZM55.3272 228.596H55.7782V226.174H55.3272V228.596ZM57.9291 291.288H63.2367V300.907H57.9291V291.288ZM74.1988 291.288H79.5412V300.907H74.1988V291.288ZM90.4686 291.288H95.811V300.907H90.4686V291.288ZM106.843 291.288H112.081V300.907H106.843V291.288ZM123.043 291.288H128.351V300.907H123.043V291.288ZM129.981 328.482H121.412L121.447 313.016C121.447 311.888 121.897 310.805 122.697 310.007C123.497 309.209 124.582 308.761 125.714 308.761C126.846 308.761 127.931 309.209 128.731 310.007C129.531 310.805 129.981 311.888 129.981 313.016V328.482ZM113.781 328.482H105.143L105.281 313.016C105.228 312.428 105.298 311.834 105.488 311.274C105.677 310.714 105.981 310.199 106.381 309.763C106.781 309.326 107.267 308.977 107.81 308.739C108.352 308.501 108.938 308.377 109.531 308.377C110.124 308.377 110.71 308.501 111.252 308.739C111.795 308.977 112.281 309.326 112.681 309.763C113.081 310.199 113.385 310.714 113.574 311.274C113.764 311.834 113.834 312.428 113.781 313.016V328.482ZM97.4067 328.482H88.8382L88.8729 313.016C88.8729 311.888 89.3224 310.805 90.1226 310.007C90.9228 309.209 92.0082 308.761 93.1398 308.761C94.2715 308.761 95.3568 309.209 96.157 310.007C96.9572 310.805 97.4067 311.888 97.4067 313.016V328.482ZM81.1369 328.482H72.5684L72.6031 313.016C72.6031 311.888 73.0526 310.805 73.8528 310.007C74.653 309.209 75.7384 308.761 76.87 308.761C78.0017 308.761 79.087 309.209 79.8872 310.007C80.6874 310.805 81.1369 311.888 81.1369 313.016V328.482ZM64.8671 328.482H56.2986L56.3333 313.016C56.3333 311.888 56.7829 310.805 57.5831 310.007C58.3833 309.209 59.4686 308.761 60.6002 308.761C61.7319 308.761 62.8172 309.209 63.6174 310.007C64.4176 310.805 64.8671 311.888 64.8671 313.016V328.482Z" fill="#CAD6E1"/>
<path fill-rule="evenodd" clip-rule="evenodd" d="M122.398 26.1245L118.487 120.177H122.398H126.309L122.398 26.1245ZM128.237 178.238C136.506 175.742 142.527 168.082 142.527 159.019C142.527 147.932 133.515 138.943 122.398 138.943C111.281 138.943 102.268 147.932 102.268 159.019C102.268 168.086 108.294 175.748 116.568 178.241C116.563 180.442 116.55 183.088 116.529 186.134H114.22V189.653H116.503C116.274 217.651 115.417 272.67 112.989 327.948C112.634 336.131 112.06 346.169 112.06 346.169H132.736C132.736 346.169 132.162 336.24 131.806 327.948C129.379 272.67 128.577 217.651 128.322 189.653H130.548V186.134H128.292C128.267 183.087 128.249 180.44 128.237 178.238ZM122.398 138.916C125.41 138.922 128.382 139.602 131.095 140.908V120.177H113.701V140.908C116.414 139.602 119.386 138.922 122.398 138.916Z" fill="#CAD6E1"/>
</g>
</svg>
